%TF.GenerationSoftware,KiCad,Pcbnew,9.0.0*%
%TF.CreationDate,2025-07-31T20:20:29+01:00*%
%TF.ProjectId,tempest-pcb-v-2,74656d70-6573-4742-9d70-63622d762d32,2*%
%TF.SameCoordinates,Original*%
%TF.FileFunction,Soldermask,Bot*%
%TF.FilePolarity,Negative*%
%FSLAX46Y46*%
G04 Gerber Fmt 4.6, Leading zero omitted, Abs format (unit mm)*
G04 Created by KiCad (PCBNEW 9.0.0) date 2025-07-31 20:20:29*
%MOMM*%
%LPD*%
G01*
G04 APERTURE LIST*
G04 Aperture macros list*
%AMRoundRect*
0 Rectangle with rounded corners*
0 $1 Rounding radius*
0 $2 $3 $4 $5 $6 $7 $8 $9 X,Y pos of 4 corners*
0 Add a 4 corners polygon primitive as box body*
4,1,4,$2,$3,$4,$5,$6,$7,$8,$9,$2,$3,0*
0 Add four circle primitives for the rounded corners*
1,1,$1+$1,$2,$3*
1,1,$1+$1,$4,$5*
1,1,$1+$1,$6,$7*
1,1,$1+$1,$8,$9*
0 Add four rect primitives between the rounded corners*
20,1,$1+$1,$2,$3,$4,$5,0*
20,1,$1+$1,$4,$5,$6,$7,0*
20,1,$1+$1,$6,$7,$8,$9,0*
20,1,$1+$1,$8,$9,$2,$3,0*%
%AMFreePoly0*
4,1,14,1.335355,1.335355,1.350000,1.300000,1.350000,-1.300000,1.335355,-1.335355,1.300000,-1.350000,-0.117000,-1.350000,-0.152355,-1.335355,-1.335355,-0.152355,-1.350000,-0.117000,-1.350000,1.300000,-1.335355,1.335355,-1.300000,1.350000,1.300000,1.350000,1.335355,1.335355,1.335355,1.335355,$1*%
%AMFreePoly1*
4,1,16,-0.214645,0.660355,-0.210957,0.656235,0.289043,0.031235,0.299694,-0.005522,0.289043,-0.031235,-0.210957,-0.656235,-0.244478,-0.674694,-0.250000,-0.675000,-0.500000,-0.675000,-0.535355,-0.660355,-0.550000,-0.625000,-0.550000,0.625000,-0.535355,0.660355,-0.500000,0.675000,-0.250000,0.675000,-0.214645,0.660355,-0.214645,0.660355,$1*%
%AMFreePoly2*
4,1,16,0.535355,0.660355,0.550000,0.625000,0.550000,-0.625000,0.535355,-0.660355,0.500000,-0.675000,-0.650000,-0.675000,-0.685355,-0.660355,-0.700000,-0.625000,-0.689043,-0.593765,-0.214031,0.000000,-0.689043,0.593765,-0.699694,0.630522,-0.681235,0.664043,-0.650000,0.675000,0.500000,0.675000,0.535355,0.660355,0.535355,0.660355,$1*%
%AMFreePoly3*
4,1,14,0.035355,0.435355,0.635355,-0.164645,0.650000,-0.200000,0.650000,-0.400000,0.635355,-0.435355,0.600000,-0.450000,-0.600000,-0.450000,-0.635355,-0.435355,-0.650000,-0.400000,-0.650000,-0.200000,-0.635355,-0.164645,-0.035355,0.435355,0.000000,0.450000,0.035355,0.435355,0.035355,0.435355,$1*%
%AMFreePoly4*
4,1,16,0.635355,0.285355,0.650000,0.250000,0.650000,-1.000000,0.635355,-1.035355,0.600000,-1.050000,0.564645,-1.035355,0.000000,-0.470710,-0.564645,-1.035355,-0.600000,-1.050000,-0.635355,-1.035355,-0.650000,-1.000000,-0.650000,0.250000,-0.635355,0.285355,-0.600000,0.300000,0.600000,0.300000,0.635355,0.285355,0.635355,0.285355,$1*%
G04 Aperture macros list end*
%ADD10C,3.500000*%
%ADD11C,2.000000*%
%ADD12C,3.100000*%
%ADD13FreePoly0,8.000000*%
%ADD14RoundRect,0.050000X-1.106423X-1.468274X1.468274X-1.106423X1.106423X1.468274X-1.468274X1.106423X0*%
%ADD15FreePoly0,4.000000*%
%ADD16RoundRect,0.050000X-1.206150X-1.387517X1.387517X-1.206150X1.206150X1.387517X-1.387517X1.206150X0*%
%ADD17FreePoly0,0.000000*%
%ADD18RoundRect,0.050000X-1.300000X-1.300000X1.300000X-1.300000X1.300000X1.300000X-1.300000X1.300000X0*%
%ADD19FreePoly0,345.000000*%
%ADD20RoundRect,0.050000X-1.592168X-0.919239X0.919239X-1.592168X1.592168X0.919239X-0.919239X1.592168X0*%
%ADD21FreePoly0,330.000000*%
%ADD22RoundRect,0.050000X-1.775833X-0.475833X0.475833X-1.775833X1.775833X0.475833X-0.475833X1.775833X0*%
%ADD23RoundRect,0.050000X-0.362117X-0.656789X0.529124X-0.531533X0.362117X0.656789X-0.529124X0.531533X0*%
%ADD24RoundRect,0.050000X-0.407050X-0.629929X0.490758X-0.567148X0.407050X0.629929X-0.490758X0.567148X0*%
%ADD25RoundRect,0.050000X-0.450000X-0.600000X0.450000X-0.600000X0.450000X0.600000X-0.450000X0.600000X0*%
%ADD26RoundRect,0.050000X-0.589958X-0.463087X0.279375X-0.696024X0.589958X0.463087X-0.279375X0.696024X0*%
%ADD27RoundRect,0.050000X-0.689711X-0.294615X0.089711X-0.744615X0.689711X0.294615X-0.089711X0.744615X0*%
%ADD28C,1.800000*%
%ADD29C,0.900000*%
%ADD30FreePoly1,0.000000*%
%ADD31FreePoly2,0.000000*%
%ADD32FreePoly2,180.000000*%
%ADD33FreePoly1,180.000000*%
%ADD34RoundRect,0.050000X-0.600000X0.300000X-0.600000X-0.300000X0.600000X-0.300000X0.600000X0.300000X0*%
%ADD35O,1.800000X1.800000*%
%ADD36O,1.850000X1.300000*%
%ADD37FreePoly3,90.000000*%
%ADD38FreePoly4,90.000000*%
%ADD39RoundRect,0.050000X-0.400000X0.500000X-0.400000X-0.500000X0.400000X-0.500000X0.400000X0.500000X0*%
%ADD40RoundRect,0.050000X-0.750000X0.350000X-0.750000X-0.350000X0.750000X-0.350000X0.750000X0.350000X0*%
%ADD41C,1.000000*%
%ADD42RoundRect,0.050000X0.500000X-0.775000X0.500000X0.775000X-0.500000X0.775000X-0.500000X-0.775000X0*%
%ADD43C,5.100000*%
%ADD44C,2.100000*%
G04 APERTURE END LIST*
D10*
%TO.C,S1*%
X47634100Y-83165400D03*
D11*
X53080574Y-82399948D03*
X42187626Y-83930852D03*
D12*
X46806020Y-77273305D03*
X42160861Y-80147760D03*
D13*
X43562892Y-77729097D03*
D14*
X55306669Y-78300237D03*
D12*
X52063541Y-78756029D03*
%TD*%
D10*
%TO.C,S2*%
X67115000Y-92444500D03*
D11*
X72561474Y-91679048D03*
X61668526Y-93209952D03*
D12*
X66286920Y-86552405D03*
X61641761Y-89426860D03*
D13*
X63043792Y-87008197D03*
D14*
X74787569Y-87579337D03*
D12*
X71544441Y-88035129D03*
%TD*%
D10*
%TO.C,S3*%
X64749100Y-75610000D03*
D11*
X70195574Y-74844548D03*
X59302626Y-76375452D03*
D12*
X63921020Y-69717905D03*
X59275861Y-72592360D03*
D13*
X60677892Y-70173697D03*
D14*
X72421669Y-70744837D03*
D12*
X69178541Y-71200629D03*
%TD*%
D10*
%TO.C,S4*%
X62383200Y-58775400D03*
D11*
X67829674Y-58009948D03*
X56936726Y-59540852D03*
D12*
X61555120Y-52883305D03*
X56909961Y-55757760D03*
D13*
X58311992Y-53339097D03*
D14*
X70055769Y-53910237D03*
D12*
X66812641Y-54366029D03*
%TD*%
D10*
%TO.C,S5*%
X84606900Y-83977700D03*
D11*
X90093502Y-83594039D03*
X79120298Y-84361361D03*
D12*
X84191849Y-78042194D03*
X79357493Y-80585617D03*
D15*
X80924827Y-78270646D03*
D16*
X92600156Y-79659600D03*
D12*
X89333133Y-79888052D03*
%TD*%
D10*
%TO.C,S6*%
X83421100Y-67019100D03*
D11*
X88907702Y-66635439D03*
X77934498Y-67402761D03*
D12*
X83006049Y-61083594D03*
X78171693Y-63627017D03*
D15*
X79739027Y-61312046D03*
D16*
X91414356Y-62701000D03*
D12*
X88147333Y-62929452D03*
%TD*%
D10*
%TO.C,S7*%
X82235200Y-50060500D03*
D11*
X87721802Y-49676839D03*
X76748598Y-50444161D03*
D12*
X81820149Y-44124994D03*
X76985793Y-46668417D03*
D15*
X78553127Y-44353446D03*
D16*
X90228456Y-45742400D03*
D12*
X86961433Y-45970852D03*
%TD*%
D10*
%TO.C,S8*%
X102765400Y-78447600D03*
D11*
X108265400Y-78447600D03*
X97265400Y-78447600D03*
D12*
X102765400Y-72497600D03*
X97765400Y-74697600D03*
D17*
X99490400Y-72497600D03*
D18*
X111040400Y-74697600D03*
D12*
X107765400Y-74697600D03*
%TD*%
D10*
%TO.C,S9*%
X102765400Y-61447600D03*
D11*
X108265400Y-61447600D03*
X97265400Y-61447600D03*
D12*
X102765400Y-55497600D03*
X97765400Y-57697600D03*
D17*
X99490400Y-55497600D03*
D18*
X111040400Y-57697600D03*
D12*
X107765400Y-57697600D03*
%TD*%
D10*
%TO.C,S10*%
X102765400Y-44447600D03*
D11*
X108265400Y-44447600D03*
X97265400Y-44447600D03*
D12*
X102765400Y-38497600D03*
X97765400Y-40697600D03*
D17*
X99490400Y-38497600D03*
D18*
X111040400Y-40697600D03*
D12*
X107765400Y-40697600D03*
%TD*%
D10*
%TO.C,S11*%
X120765400Y-81847600D03*
D11*
X126265400Y-81847600D03*
X115265400Y-81847600D03*
D12*
X120765400Y-75897600D03*
X115765400Y-78097600D03*
D17*
X117490400Y-75897600D03*
D18*
X129040400Y-78097600D03*
D12*
X125765400Y-78097600D03*
%TD*%
D10*
%TO.C,S12*%
X120765400Y-64847600D03*
D11*
X126265400Y-64847600D03*
X115265400Y-64847600D03*
D12*
X120765400Y-58897600D03*
X115765400Y-61097600D03*
D17*
X117490400Y-58897600D03*
D18*
X129040400Y-61097600D03*
D12*
X125765400Y-61097600D03*
%TD*%
D10*
%TO.C,S13*%
X120765400Y-47847600D03*
D11*
X126265400Y-47847600D03*
X115265400Y-47847600D03*
D12*
X120765400Y-41897600D03*
X115765400Y-44097600D03*
D17*
X117490400Y-41897600D03*
D18*
X129040400Y-44097600D03*
D12*
X125765400Y-44097600D03*
%TD*%
D10*
%TO.C,S14*%
X138765400Y-84397600D03*
D11*
X144265400Y-84397600D03*
X133265400Y-84397600D03*
D12*
X138765400Y-78447600D03*
X133765400Y-80647600D03*
D17*
X135490400Y-78447600D03*
D18*
X147040400Y-80647600D03*
D12*
X143765400Y-80647600D03*
%TD*%
D10*
%TO.C,S15*%
X138765400Y-67397600D03*
D11*
X144265400Y-67397600D03*
X133265400Y-67397600D03*
D12*
X138765400Y-61447600D03*
X133765400Y-63647600D03*
D17*
X135490400Y-61447600D03*
D18*
X147040400Y-63647600D03*
D12*
X143765400Y-63647600D03*
%TD*%
D10*
%TO.C,S16*%
X138765400Y-50397600D03*
D11*
X144265400Y-50397600D03*
X133265400Y-50397600D03*
D12*
X138765400Y-44447600D03*
X133765400Y-46647600D03*
D17*
X135490400Y-44447600D03*
D18*
X147040400Y-46647600D03*
D12*
X143765400Y-46647600D03*
%TD*%
D10*
%TO.C,S17*%
X127965400Y-103097600D03*
D11*
X133465400Y-103097600D03*
X122465400Y-103097600D03*
D12*
X127965400Y-97147600D03*
X122965400Y-99347600D03*
D17*
X124690400Y-97147600D03*
D18*
X136240400Y-99347600D03*
D12*
X132965400Y-99347600D03*
%TD*%
D10*
%TO.C,S18*%
X147858700Y-105716600D03*
D11*
X153171292Y-107140105D03*
X142546108Y-104293095D03*
D12*
X149398673Y-99969341D03*
X143999642Y-100800283D03*
D19*
X146235266Y-99121709D03*
D20*
X156822308Y-104236106D03*
D12*
X153658901Y-103388473D03*
%TD*%
D10*
%TO.C,S19*%
X166396300Y-113395100D03*
D11*
X171159440Y-116145100D03*
X161633160Y-110645100D03*
D12*
X169371300Y-108242249D03*
X163941173Y-107647505D03*
D21*
X166535067Y-106604749D03*
D22*
X175437660Y-114285005D03*
D12*
X172601427Y-112647505D03*
%TD*%
D23*
%TO.C,D1*%
X46695958Y-88346436D03*
X49963842Y-87887164D03*
%TD*%
%TO.C,D2*%
X66176958Y-97625536D03*
X69444842Y-97166264D03*
%TD*%
%TO.C,D3*%
X63811058Y-80790936D03*
X67078942Y-80331664D03*
%TD*%
%TO.C,D4*%
X61445058Y-63956336D03*
X64712942Y-63497064D03*
%TD*%
D24*
%TO.C,D5*%
X83309719Y-89080598D03*
X86601681Y-88850402D03*
%TD*%
%TO.C,D6*%
X82123819Y-72122098D03*
X85415781Y-71891902D03*
%TD*%
%TO.C,D7*%
X80938019Y-55163498D03*
X84229981Y-54933302D03*
%TD*%
D25*
%TO.C,D8*%
X101115400Y-83447600D03*
X104415400Y-83447600D03*
%TD*%
%TO.C,D9*%
X101115400Y-66447600D03*
X104415400Y-66447600D03*
%TD*%
%TO.C,D10*%
X101115400Y-49447600D03*
X104415400Y-49447600D03*
%TD*%
%TO.C,D11*%
X119115400Y-86847600D03*
X122415400Y-86847600D03*
%TD*%
%TO.C,D12*%
X119115400Y-69847600D03*
X122415400Y-69847600D03*
%TD*%
%TO.C,D13*%
X119115400Y-52847600D03*
X122415400Y-52847600D03*
%TD*%
%TO.C,D14*%
X137115400Y-89397600D03*
X140415400Y-89397600D03*
%TD*%
%TO.C,D15*%
X137115400Y-72397600D03*
X140415400Y-72397600D03*
%TD*%
%TO.C,D16*%
X137115400Y-55397600D03*
X140415400Y-55397600D03*
%TD*%
%TO.C,D17*%
X126315400Y-108097600D03*
X129615400Y-108097600D03*
%TD*%
D26*
%TO.C,D18*%
X144970822Y-110119149D03*
X148158378Y-110973251D03*
%TD*%
D27*
%TO.C,D19*%
X162467358Y-116900200D03*
X165325242Y-118550200D03*
%TD*%
D28*
%TO.C,MCU1*%
X150945400Y-50897600D03*
X166185400Y-50897600D03*
D29*
X155165400Y-50897600D03*
X161965400Y-50897600D03*
D30*
X153065400Y-50897600D03*
D31*
X153790400Y-50897600D03*
D32*
X163340400Y-50897600D03*
D33*
X164065400Y-50897600D03*
D28*
X150945400Y-53437600D03*
X166185400Y-53437600D03*
D29*
X155165400Y-53437600D03*
X161965400Y-53437600D03*
D30*
X153065400Y-53437600D03*
D31*
X153790400Y-53437600D03*
D32*
X163340400Y-53437600D03*
D33*
X164065400Y-53437600D03*
D28*
X150945400Y-55977600D03*
X166185400Y-55977600D03*
D29*
X155165400Y-55977600D03*
X161965400Y-55977600D03*
D30*
X153065400Y-55977600D03*
D31*
X153790400Y-55977600D03*
D32*
X163340400Y-55977600D03*
D33*
X164065400Y-55977600D03*
D28*
X150945400Y-58517600D03*
X166185400Y-58517600D03*
D29*
X155165400Y-58517600D03*
X161965400Y-58517600D03*
D30*
X153065400Y-58517600D03*
D31*
X153790400Y-58517600D03*
D32*
X163340400Y-58517600D03*
D33*
X164065400Y-58517600D03*
D28*
X150945400Y-61057600D03*
X166185400Y-61057600D03*
D29*
X155165400Y-61057600D03*
X161965400Y-61057600D03*
D30*
X153065400Y-61057600D03*
D31*
X153790400Y-61057600D03*
D32*
X163340400Y-61057600D03*
D33*
X164065400Y-61057600D03*
D28*
X150945400Y-63597600D03*
X166185400Y-63597600D03*
D29*
X155165400Y-63597600D03*
X161965400Y-63597600D03*
D30*
X153065400Y-63597600D03*
D31*
X153790400Y-63597600D03*
D32*
X163340400Y-63597600D03*
D33*
X164065400Y-63597600D03*
D28*
X150945400Y-66137600D03*
X166185400Y-66137600D03*
D29*
X155165400Y-66137600D03*
X161965400Y-66137600D03*
D30*
X153065400Y-66137600D03*
D31*
X153790400Y-66137600D03*
D32*
X163340400Y-66137600D03*
D33*
X164065400Y-66137600D03*
D28*
X150945400Y-68677600D03*
X166185400Y-68677600D03*
D29*
X155165400Y-68677600D03*
X161965400Y-68677600D03*
D30*
X153065400Y-68677600D03*
D31*
X153790400Y-68677600D03*
D32*
X163340400Y-68677600D03*
D33*
X164065400Y-68677600D03*
D28*
X150945400Y-71217600D03*
X166185400Y-71217600D03*
D29*
X155165400Y-71217600D03*
X161965400Y-71217600D03*
D30*
X153065400Y-71217600D03*
D31*
X153790400Y-71217600D03*
D32*
X163340400Y-71217600D03*
D33*
X164065400Y-71217600D03*
D28*
X150945400Y-73757600D03*
X166185400Y-73757600D03*
D29*
X155165400Y-73757600D03*
X161965400Y-73757600D03*
D30*
X153065400Y-73757600D03*
D31*
X153790400Y-73757600D03*
D32*
X163340400Y-73757600D03*
D33*
X164065400Y-73757600D03*
D28*
X150945400Y-76297600D03*
X166185400Y-76297600D03*
D29*
X155165400Y-76297600D03*
X161965400Y-76297600D03*
D30*
X153065400Y-76297600D03*
D31*
X153790400Y-76297600D03*
D32*
X163340400Y-76297600D03*
D33*
X164065400Y-76297600D03*
D28*
X150945400Y-78837600D03*
X166185400Y-78837600D03*
D29*
X155165400Y-78837600D03*
X161965400Y-78837600D03*
D30*
X153065400Y-78837600D03*
D31*
X153790400Y-78837600D03*
D32*
X163340400Y-78837600D03*
D33*
X164065400Y-78837600D03*
%TD*%
D34*
%TO.C,DISP1*%
X163645400Y-80947600D03*
X161105400Y-80947600D03*
X156025400Y-80947600D03*
X153485400Y-80947600D03*
X163645400Y-81847600D03*
X161105400Y-81847600D03*
X156025400Y-81847600D03*
X153485400Y-81847600D03*
D35*
X153485400Y-83597600D03*
X156025400Y-83597600D03*
X158565400Y-83597600D03*
X161105400Y-83597600D03*
D28*
X163645400Y-83597600D03*
%TD*%
D36*
%TO.C,JST1*%
X162265400Y-87897600D03*
X162265400Y-89897600D03*
D37*
X160465400Y-87897600D03*
X160465400Y-89897600D03*
D38*
X159449400Y-89897600D03*
X159449400Y-87897600D03*
%TD*%
D39*
%TO.C,PWR1*%
X165580400Y-89247600D03*
X167790400Y-89247600D03*
X165580400Y-96547600D03*
X167790400Y-96547600D03*
D40*
X164930400Y-90647600D03*
X164930400Y-93647600D03*
X164930400Y-95147600D03*
D41*
X166690400Y-91397600D03*
X166690400Y-94397600D03*
%TD*%
D42*
%TO.C,RST1*%
X167915400Y-81972600D03*
X166215400Y-81972600D03*
X167915400Y-87222600D03*
X166215400Y-87222600D03*
%TD*%
D43*
%TO.C,MH1*%
X92765400Y-52447600D03*
%TD*%
%TO.C,MH2*%
X129405400Y-56347600D03*
%TD*%
%TO.C,MH3*%
X157388500Y-108787700D03*
%TD*%
%TO.C,MH4*%
X124765400Y-92447600D03*
%TD*%
%TO.C,MH5*%
X74451300Y-76367600D03*
%TD*%
D44*
%TO.C,MH6*%
X151765400Y-92897600D03*
%TD*%
%TO.C,MH7*%
X165765400Y-99397600D03*
%TD*%
M02*
