%TF.GenerationSoftware,KiCad,Pcbnew,9.0.0*%
%TF.CreationDate,2025-07-31T20:20:09+01:00*%
%TF.ProjectId,tempest-pcb-v-2,74656d70-6573-4742-9d70-63622d762d32,2*%
%TF.SameCoordinates,Original*%
%TF.FileFunction,Drillmap*%
%TF.FilePolarity,Positive*%
%FSLAX45Y45*%
G04 Gerber Fmt 4.5, Leading zero omitted, Abs format (unit mm)*
G04 Created by KiCad (PCBNEW 9.0.0) date 2025-07-31 20:20:09*
%MOMM*%
%LPD*%
G01*
G04 APERTURE LIST*
%ADD10C,0.150000*%
%ADD11C,0.200000*%
%ADD12C,0.100000*%
%ADD13C,0.190000*%
%ADD14C,0.300000*%
%ADD15C,0.340000*%
%ADD16C,0.500000*%
G04 APERTURE END LIST*
D10*
X5838248Y-7962636D02*
X5754248Y-8441637D01*
X5655751Y-8424364D02*
X5739751Y-7945363D01*
X5798624Y-7740080D02*
G75*
G02*
X5779171Y-7763030I-19784J-2950D01*
G01*
X5679958Y-7540627D02*
G75*
G02*
X5781076Y-7622523I2762J-99963D01*
G01*
X5798624Y-7740080D02*
X5781076Y-7622523D01*
X5679958Y-7540627D02*
X5542353Y-7544430D01*
X5616782Y-8655847D02*
G75*
G02*
X5664771Y-8625383I46038J-19493D01*
G01*
X5616782Y-8655847D02*
X5567137Y-8773092D01*
X5690616Y-8626388D02*
G75*
G02*
X5711293Y-8663868I-976J-24982D01*
G01*
X5739751Y-7945363D02*
G75*
G02*
X5838248Y-7962636I49249J-8637D01*
G01*
X5565750Y-9071673D02*
G75*
G02*
X5480719Y-9185168I-98950J-14467D01*
G01*
X5541246Y-8904076D02*
G75*
G02*
X5567136Y-8773091I197894J28936D01*
G01*
X5639401Y-8873191D02*
G75*
G02*
X5664247Y-8745364I198059J27831D01*
G01*
X5711293Y-8663868D02*
X5664246Y-8745363D01*
X5639401Y-8873191D02*
X5831022Y-10236647D01*
X5744764Y-7763594D02*
G75*
G02*
X5719361Y-7739241I-414J24994D01*
G01*
X5719362Y-7739241D02*
X5718598Y-7709557D01*
X5744764Y-7763594D02*
X5779171Y-7763030D01*
X5242450Y-7279785D02*
G75*
G02*
X5354707Y-7360651I13920J-99025D01*
G01*
X5491259Y-7619089D02*
G75*
G02*
X5387347Y-7537404I-5579J99839D01*
G01*
X5542353Y-7544430D02*
G75*
G02*
X5440565Y-7458385I-2763J99960D01*
G01*
X5613055Y-7612287D02*
G75*
G02*
X5718596Y-7709557I5575J-99843D01*
G01*
X5613055Y-7612287D02*
X5491259Y-7619089D01*
X5541246Y-8904076D02*
X5565750Y-9071673D01*
X5354705Y-7360652D02*
X5387345Y-7537405D01*
X5398194Y-7156913D02*
X5440563Y-7458386D01*
X11886539Y-11269758D02*
G75*
G02*
X11786542Y-11169758I1J99998D01*
G01*
X17083995Y-12589846D02*
G75*
G02*
X16948008Y-12626806I-86605J49996D01*
G01*
X17907712Y-10963126D02*
G75*
G02*
X17944315Y-11099729I-50002J-86604D01*
G01*
X16836539Y-4629758D02*
G75*
G02*
X16936542Y-4729758I1J-100002D01*
G01*
X14786539Y-4079758D02*
G75*
G02*
X14886542Y-4179758I1J-100002D01*
G01*
X12986539Y-3824758D02*
G75*
G02*
X13086542Y-3924758I1J-100002D01*
G01*
X11186539Y-3484758D02*
G75*
G02*
X11286542Y-3584758I1J-100002D01*
G01*
X9266539Y-3584758D02*
G75*
G02*
X9366539Y-3484759I100001J-2D01*
G01*
X9266539Y-3878681D02*
G75*
G02*
X9173455Y-3978440I-99999J1D01*
G01*
X7188300Y-4680656D02*
G75*
G02*
X7102461Y-4786660I-99760J-6974D01*
G01*
X7155990Y-4218603D02*
G75*
G02*
X7248770Y-4111870I99760J6973D01*
G01*
X5118456Y-5166475D02*
G75*
G02*
X5203566Y-5053536I99024J13915D01*
G01*
X3643546Y-7605478D02*
G75*
G02*
X3728656Y-7492535I99024J13919D01*
G01*
X3995868Y-9393849D02*
G75*
G02*
X3882921Y-9308740I-13918J99029D01*
G01*
X5943966Y-10321757D02*
G75*
G02*
X5831023Y-10236647I-13916J99027D01*
G01*
X7831364Y-9955517D02*
G75*
G02*
X7746253Y-10068454I-99024J-13913D01*
G01*
X9528223Y-9185223D02*
G75*
G02*
X9435442Y-9291953I-99753J-6977D01*
G01*
X11166539Y-9144758D02*
G75*
G02*
X11066542Y-9044758I1J99998D01*
G01*
X3995868Y-9393849D02*
X5480719Y-9185167D01*
X5943966Y-10321757D02*
X7746254Y-10068462D01*
X7831364Y-9955517D02*
X7769549Y-9515683D01*
X7861600Y-9402009D02*
X9435442Y-9291955D01*
X9528223Y-9185223D02*
X9509098Y-8911733D01*
X9608855Y-8804758D02*
X10966539Y-8804758D01*
X11066539Y-8904758D02*
X11066539Y-9044758D01*
X11166539Y-9144758D02*
X11686539Y-9144758D01*
X11786539Y-11169758D02*
X11786539Y-9244758D01*
X11886539Y-11269758D02*
X13668892Y-11269758D01*
X13694774Y-11273165D02*
X15328872Y-11711020D01*
X16948011Y-12626802D02*
X15352372Y-11720656D01*
X17083995Y-12589846D02*
X17944314Y-11099729D01*
X17907712Y-10963126D02*
X16986539Y-10431287D01*
X16936539Y-10344684D02*
X16936539Y-4729758D01*
X16836539Y-4629758D02*
X14986539Y-4629758D01*
X14886539Y-4529758D02*
X14886539Y-4179758D01*
X14786539Y-4079758D02*
X13186539Y-4079758D01*
X13086539Y-3979758D02*
X13086539Y-3924758D01*
X12986539Y-3824758D02*
X11386539Y-3824758D01*
X11286539Y-3724758D02*
X11286539Y-3584758D01*
X11186539Y-3484758D02*
X9366539Y-3484758D01*
X9266539Y-3878681D02*
X9266539Y-3584758D01*
X9173455Y-3978441D02*
X7248771Y-4111871D01*
X7155990Y-4218603D02*
X7188300Y-4680656D01*
X7102461Y-4786659D02*
X5203566Y-5053530D01*
X5118456Y-5166475D02*
X5398194Y-7156913D01*
X5242450Y-7279785D02*
X3728656Y-7492534D01*
X3643546Y-7605478D02*
X3882924Y-9308740D01*
X7769549Y-9515683D02*
G75*
G02*
X7861600Y-9402011I99031J13913D01*
G01*
X9509098Y-8911733D02*
G75*
G02*
X9608855Y-8804765I99752J6973D01*
G01*
X10966539Y-8804758D02*
G75*
G02*
X11066542Y-8904758I1J-100002D01*
G01*
X11686539Y-9144758D02*
G75*
G02*
X11786542Y-9244758I1J-100002D01*
G01*
X13668892Y-11269758D02*
G75*
G02*
X13694774Y-11273166I-2J-100002D01*
G01*
X15328872Y-11711020D02*
G75*
G02*
X15352372Y-11720657I-25882J-96590D01*
G01*
X16986539Y-10431287D02*
G75*
G02*
X16936536Y-10344684I50001J86607D01*
G01*
X14986539Y-4629758D02*
G75*
G02*
X14886542Y-4529758I1J99998D01*
G01*
X13186539Y-4079758D02*
G75*
G02*
X13086542Y-3979758I1J99998D01*
G01*
X11386539Y-3824758D02*
G75*
G02*
X11286542Y-3724758I1J99998D01*
G01*
X5664771Y-8625381D02*
X5690616Y-8626388D01*
X5754248Y-8441637D02*
G75*
G02*
X5655751Y-8424364I-49249J8637D01*
G01*
D11*
D12*
X16624040Y-9094760D02*
X16714040Y-9184760D01*
X16714040Y-9094760D02*
X16624040Y-9184760D01*
X16624040Y-9394760D02*
X16714040Y-9484760D01*
X16714040Y-9394760D02*
X16624040Y-9484760D01*
D13*
X4313763Y-8393085D02*
G75*
G02*
X4123763Y-8393085I-95000J0D01*
G01*
X4123763Y-8393085D02*
G75*
G02*
X4313763Y-8393085I95000J0D01*
G01*
X5403057Y-8239995D02*
G75*
G02*
X5213057Y-8239995I-95000J0D01*
G01*
X5213057Y-8239995D02*
G75*
G02*
X5403057Y-8239995I95000J0D01*
G01*
X5788673Y-5954085D02*
G75*
G02*
X5598673Y-5954085I-95000J0D01*
G01*
X5598673Y-5954085D02*
G75*
G02*
X5788673Y-5954085I95000J0D01*
G01*
X6025263Y-7637545D02*
G75*
G02*
X5835263Y-7637545I-95000J0D01*
G01*
X5835263Y-7637545D02*
G75*
G02*
X6025263Y-7637545I95000J0D01*
G01*
X6261853Y-9320995D02*
G75*
G02*
X6071853Y-9320995I-95000J0D01*
G01*
X6071853Y-9320995D02*
G75*
G02*
X6261853Y-9320995I95000J0D01*
G01*
X6877967Y-5800995D02*
G75*
G02*
X6687967Y-5800995I-95000J0D01*
G01*
X6687967Y-5800995D02*
G75*
G02*
X6877967Y-5800995I95000J0D01*
G01*
X7114557Y-7484455D02*
G75*
G02*
X6924557Y-7484455I-95000J0D01*
G01*
X6924557Y-7484455D02*
G75*
G02*
X7114557Y-7484455I95000J0D01*
G01*
X7351147Y-9167905D02*
G75*
G02*
X7161147Y-9167905I-95000J0D01*
G01*
X7161147Y-9167905D02*
G75*
G02*
X7351147Y-9167905I95000J0D01*
G01*
X7769860Y-5044416D02*
G75*
G02*
X7579860Y-5044416I-95000J0D01*
G01*
X7579860Y-5044416D02*
G75*
G02*
X7769860Y-5044416I95000J0D01*
G01*
X7888450Y-6740276D02*
G75*
G02*
X7698450Y-6740276I-95000J0D01*
G01*
X7698450Y-6740276D02*
G75*
G02*
X7888450Y-6740276I95000J0D01*
G01*
X8007030Y-8436136D02*
G75*
G02*
X7817030Y-8436136I-95000J0D01*
G01*
X7817030Y-8436136D02*
G75*
G02*
X8007030Y-8436136I95000J0D01*
G01*
X8867180Y-4967684D02*
G75*
G02*
X8677180Y-4967684I-95000J0D01*
G01*
X8677180Y-4967684D02*
G75*
G02*
X8867180Y-4967684I95000J0D01*
G01*
X8985770Y-6663544D02*
G75*
G02*
X8795770Y-6663544I-95000J0D01*
G01*
X8795770Y-6663544D02*
G75*
G02*
X8985770Y-6663544I95000J0D01*
G01*
X9104350Y-8359404D02*
G75*
G02*
X8914350Y-8359404I-95000J0D01*
G01*
X8914350Y-8359404D02*
G75*
G02*
X9104350Y-8359404I95000J0D01*
G01*
X9821540Y-4444760D02*
G75*
G02*
X9631540Y-4444760I-95000J0D01*
G01*
X9631540Y-4444760D02*
G75*
G02*
X9821540Y-4444760I95000J0D01*
G01*
X9821540Y-6144760D02*
G75*
G02*
X9631540Y-6144760I-95000J0D01*
G01*
X9631540Y-6144760D02*
G75*
G02*
X9821540Y-6144760I95000J0D01*
G01*
X9821540Y-7844760D02*
G75*
G02*
X9631540Y-7844760I-95000J0D01*
G01*
X9631540Y-7844760D02*
G75*
G02*
X9821540Y-7844760I95000J0D01*
G01*
X10921540Y-4444760D02*
G75*
G02*
X10731540Y-4444760I-95000J0D01*
G01*
X10731540Y-4444760D02*
G75*
G02*
X10921540Y-4444760I95000J0D01*
G01*
X10921540Y-6144760D02*
G75*
G02*
X10731540Y-6144760I-95000J0D01*
G01*
X10731540Y-6144760D02*
G75*
G02*
X10921540Y-6144760I95000J0D01*
G01*
X10921540Y-7844760D02*
G75*
G02*
X10731540Y-7844760I-95000J0D01*
G01*
X10731540Y-7844760D02*
G75*
G02*
X10921540Y-7844760I95000J0D01*
G01*
X11621540Y-4784760D02*
G75*
G02*
X11431540Y-4784760I-95000J0D01*
G01*
X11431540Y-4784760D02*
G75*
G02*
X11621540Y-4784760I95000J0D01*
G01*
X11621540Y-6484760D02*
G75*
G02*
X11431540Y-6484760I-95000J0D01*
G01*
X11431540Y-6484760D02*
G75*
G02*
X11621540Y-6484760I95000J0D01*
G01*
X11621540Y-8184760D02*
G75*
G02*
X11431540Y-8184760I-95000J0D01*
G01*
X11431540Y-8184760D02*
G75*
G02*
X11621540Y-8184760I95000J0D01*
G01*
X12341540Y-10309760D02*
G75*
G02*
X12151540Y-10309760I-95000J0D01*
G01*
X12151540Y-10309760D02*
G75*
G02*
X12341540Y-10309760I95000J0D01*
G01*
X12721540Y-4784760D02*
G75*
G02*
X12531540Y-4784760I-95000J0D01*
G01*
X12531540Y-4784760D02*
G75*
G02*
X12721540Y-4784760I95000J0D01*
G01*
X12721540Y-6484760D02*
G75*
G02*
X12531540Y-6484760I-95000J0D01*
G01*
X12531540Y-6484760D02*
G75*
G02*
X12721540Y-6484760I95000J0D01*
G01*
X12721540Y-8184760D02*
G75*
G02*
X12531540Y-8184760I-95000J0D01*
G01*
X12531540Y-8184760D02*
G75*
G02*
X12721540Y-8184760I95000J0D01*
G01*
X13421540Y-5039760D02*
G75*
G02*
X13231540Y-5039760I-95000J0D01*
G01*
X13231540Y-5039760D02*
G75*
G02*
X13421540Y-5039760I95000J0D01*
G01*
X13421540Y-6739760D02*
G75*
G02*
X13231540Y-6739760I-95000J0D01*
G01*
X13231540Y-6739760D02*
G75*
G02*
X13421540Y-6739760I95000J0D01*
G01*
X13421540Y-8439760D02*
G75*
G02*
X13231540Y-8439760I-95000J0D01*
G01*
X13231540Y-8439760D02*
G75*
G02*
X13421540Y-8439760I95000J0D01*
G01*
X13441540Y-10309760D02*
G75*
G02*
X13251540Y-10309760I-95000J0D01*
G01*
X13251540Y-10309760D02*
G75*
G02*
X13441540Y-10309760I95000J0D01*
G01*
X14349611Y-10429310D02*
G75*
G02*
X14159611Y-10429310I-95000J0D01*
G01*
X14159611Y-10429310D02*
G75*
G02*
X14349611Y-10429310I95000J0D01*
G01*
X14521540Y-5039760D02*
G75*
G02*
X14331540Y-5039760I-95000J0D01*
G01*
X14331540Y-5039760D02*
G75*
G02*
X14521540Y-5039760I95000J0D01*
G01*
X14521540Y-6739760D02*
G75*
G02*
X14331540Y-6739760I-95000J0D01*
G01*
X14331540Y-6739760D02*
G75*
G02*
X14521540Y-6739760I95000J0D01*
G01*
X14521540Y-8439760D02*
G75*
G02*
X14331540Y-8439760I-95000J0D01*
G01*
X14331540Y-8439760D02*
G75*
G02*
X14521540Y-8439760I95000J0D01*
G01*
X15412129Y-10714011D02*
G75*
G02*
X15222129Y-10714011I-95000J0D01*
G01*
X15222129Y-10714011D02*
G75*
G02*
X15412129Y-10714011I95000J0D01*
G01*
X16258316Y-11064510D02*
G75*
G02*
X16068316Y-11064510I-95000J0D01*
G01*
X16068316Y-11064510D02*
G75*
G02*
X16258316Y-11064510I95000J0D01*
G01*
X17210944Y-11614510D02*
G75*
G02*
X17020944Y-11614510I-95000J0D01*
G01*
X17020944Y-11614510D02*
G75*
G02*
X17210944Y-11614510I95000J0D01*
G01*
D11*
X15176540Y-9189760D02*
X15176540Y-9389760D01*
X15076540Y-9289760D02*
X15276540Y-9289760D01*
X16576540Y-9839760D02*
X16576540Y-10039760D01*
X16476540Y-9939760D02*
X16676540Y-9939760D01*
D14*
X4322153Y-8120843D02*
X4322153Y-7908709D01*
X4110019Y-7908709D01*
X4110019Y-8120843D01*
X4322153Y-8120843D01*
X4786669Y-7833397D02*
X4786669Y-7621263D01*
X4574535Y-7621263D01*
X4574535Y-7833397D01*
X4786669Y-7833397D01*
X5312421Y-7981670D02*
X5312421Y-7769536D01*
X5100287Y-7769536D01*
X5100287Y-7981670D01*
X5312421Y-7981670D01*
X5797063Y-5681843D02*
X5797063Y-5469709D01*
X5584929Y-5469709D01*
X5584929Y-5681843D01*
X5797063Y-5681843D01*
X6033653Y-7365303D02*
X6033653Y-7153169D01*
X5821519Y-7153169D01*
X5821519Y-7365303D01*
X6033653Y-7365303D01*
X6261579Y-5394398D02*
X6261579Y-5182264D01*
X6049445Y-5182264D01*
X6049445Y-5394398D01*
X6261579Y-5394398D01*
X6270243Y-9048753D02*
X6270243Y-8836619D01*
X6058109Y-8836619D01*
X6058109Y-9048753D01*
X6270243Y-9048753D01*
X6498169Y-7077857D02*
X6498169Y-6865723D01*
X6286035Y-6865723D01*
X6286035Y-7077857D01*
X6498169Y-7077857D01*
X6734759Y-8761308D02*
X6734759Y-8549174D01*
X6522625Y-8549174D01*
X6522625Y-8761308D01*
X6734759Y-8761308D01*
X6787331Y-5542670D02*
X6787331Y-5330536D01*
X6575197Y-5330536D01*
X6575197Y-5542670D01*
X6787331Y-5542670D01*
X7023921Y-7226130D02*
X7023921Y-7013996D01*
X6811787Y-7013996D01*
X6811787Y-7226130D01*
X7023921Y-7226130D01*
X7260511Y-8909580D02*
X7260511Y-8697446D01*
X7048377Y-8697446D01*
X7048377Y-8909580D01*
X7260511Y-8909580D01*
X7804646Y-4772909D02*
X7804646Y-4560775D01*
X7592512Y-4560775D01*
X7592512Y-4772909D01*
X7804646Y-4772909D01*
X7923236Y-6468769D02*
X7923236Y-6256635D01*
X7711102Y-6256635D01*
X7711102Y-6468769D01*
X7923236Y-6468769D01*
X8041816Y-8164629D02*
X8041816Y-7952495D01*
X7829682Y-7952495D01*
X7829682Y-8164629D01*
X8041816Y-8164629D01*
X8288082Y-4518566D02*
X8288082Y-4306432D01*
X8075948Y-4306432D01*
X8075948Y-4518566D01*
X8288082Y-4518566D01*
X8406672Y-6214426D02*
X8406672Y-6002292D01*
X8194538Y-6002292D01*
X8194538Y-6214426D01*
X8406672Y-6214426D01*
X8525252Y-7910286D02*
X8525252Y-7698152D01*
X8313118Y-7698152D01*
X8313118Y-7910286D01*
X8525252Y-7910286D01*
X8802210Y-4703152D02*
X8802210Y-4491018D01*
X8590076Y-4491018D01*
X8590076Y-4703152D01*
X8802210Y-4703152D01*
X8920800Y-6399012D02*
X8920800Y-6186878D01*
X8708666Y-6186878D01*
X8708666Y-6399012D01*
X8920800Y-6399012D01*
X9039380Y-8094872D02*
X9039380Y-7882738D01*
X8827246Y-7882738D01*
X8827246Y-8094872D01*
X9039380Y-8094872D01*
X9882607Y-4175827D02*
X9882607Y-3963693D01*
X9670473Y-3963693D01*
X9670473Y-4175827D01*
X9882607Y-4175827D01*
X9882607Y-5875827D02*
X9882607Y-5663693D01*
X9670473Y-5663693D01*
X9670473Y-5875827D01*
X9882607Y-5875827D01*
X9882607Y-7575827D02*
X9882607Y-7363693D01*
X9670473Y-7363693D01*
X9670473Y-7575827D01*
X9882607Y-7575827D01*
X10382607Y-3955827D02*
X10382607Y-3743693D01*
X10170473Y-3743693D01*
X10170473Y-3955827D01*
X10382607Y-3955827D01*
X10382607Y-5655827D02*
X10382607Y-5443693D01*
X10170473Y-5443693D01*
X10170473Y-5655827D01*
X10382607Y-5655827D01*
X10382607Y-7355827D02*
X10382607Y-7143693D01*
X10170473Y-7143693D01*
X10170473Y-7355827D01*
X10382607Y-7355827D01*
X10882607Y-4175827D02*
X10882607Y-3963693D01*
X10670473Y-3963693D01*
X10670473Y-4175827D01*
X10882607Y-4175827D01*
X10882607Y-5875827D02*
X10882607Y-5663693D01*
X10670473Y-5663693D01*
X10670473Y-5875827D01*
X10882607Y-5875827D01*
X10882607Y-7575827D02*
X10882607Y-7363693D01*
X10670473Y-7363693D01*
X10670473Y-7575827D01*
X10882607Y-7575827D01*
X11682607Y-4515827D02*
X11682607Y-4303693D01*
X11470473Y-4303693D01*
X11470473Y-4515827D01*
X11682607Y-4515827D01*
X11682607Y-6215827D02*
X11682607Y-6003693D01*
X11470473Y-6003693D01*
X11470473Y-6215827D01*
X11682607Y-6215827D01*
X11682607Y-7915827D02*
X11682607Y-7703693D01*
X11470473Y-7703693D01*
X11470473Y-7915827D01*
X11682607Y-7915827D01*
X12182607Y-4295827D02*
X12182607Y-4083693D01*
X11970473Y-4083693D01*
X11970473Y-4295827D01*
X12182607Y-4295827D01*
X12182607Y-5995827D02*
X12182607Y-5783693D01*
X11970473Y-5783693D01*
X11970473Y-5995827D01*
X12182607Y-5995827D01*
X12182607Y-7695827D02*
X12182607Y-7483693D01*
X11970473Y-7483693D01*
X11970473Y-7695827D01*
X12182607Y-7695827D01*
X12402607Y-10040827D02*
X12402607Y-9828693D01*
X12190473Y-9828693D01*
X12190473Y-10040827D01*
X12402607Y-10040827D01*
X12682607Y-4515827D02*
X12682607Y-4303693D01*
X12470473Y-4303693D01*
X12470473Y-4515827D01*
X12682607Y-4515827D01*
X12682607Y-6215827D02*
X12682607Y-6003693D01*
X12470473Y-6003693D01*
X12470473Y-6215827D01*
X12682607Y-6215827D01*
X12682607Y-7915827D02*
X12682607Y-7703693D01*
X12470473Y-7703693D01*
X12470473Y-7915827D01*
X12682607Y-7915827D01*
X12902607Y-9820827D02*
X12902607Y-9608693D01*
X12690473Y-9608693D01*
X12690473Y-9820827D01*
X12902607Y-9820827D01*
X13402607Y-10040827D02*
X13402607Y-9828693D01*
X13190473Y-9828693D01*
X13190473Y-10040827D01*
X13402607Y-10040827D01*
X13482607Y-4770827D02*
X13482607Y-4558693D01*
X13270473Y-4558693D01*
X13270473Y-4770827D01*
X13482607Y-4770827D01*
X13482607Y-6470827D02*
X13482607Y-6258693D01*
X13270473Y-6258693D01*
X13270473Y-6470827D01*
X13482607Y-6470827D01*
X13482607Y-8170827D02*
X13482607Y-7958693D01*
X13270473Y-7958693D01*
X13270473Y-8170827D01*
X13482607Y-8170827D01*
X13982607Y-4550827D02*
X13982607Y-4338693D01*
X13770473Y-4338693D01*
X13770473Y-4550827D01*
X13982607Y-4550827D01*
X13982607Y-6250827D02*
X13982607Y-6038693D01*
X13770473Y-6038693D01*
X13770473Y-6250827D01*
X13982607Y-6250827D01*
X13982607Y-7950827D02*
X13982607Y-7738693D01*
X13770473Y-7738693D01*
X13770473Y-7950827D01*
X13982607Y-7950827D01*
X14482607Y-4770827D02*
X14482607Y-4558693D01*
X14270473Y-4558693D01*
X14270473Y-4770827D01*
X14482607Y-4770827D01*
X14482607Y-6470827D02*
X14482607Y-6258693D01*
X14270473Y-6258693D01*
X14270473Y-6470827D01*
X14482607Y-6470827D01*
X14482607Y-8170827D02*
X14482607Y-7958693D01*
X14270473Y-7958693D01*
X14270473Y-8170827D01*
X14482607Y-8170827D01*
X14506031Y-10186095D02*
X14506031Y-9973961D01*
X14293897Y-9973961D01*
X14293897Y-10186095D01*
X14506031Y-10186095D01*
X15045934Y-10103001D02*
X15045934Y-9890867D01*
X14833800Y-9890867D01*
X14833800Y-10103001D01*
X15045934Y-10103001D01*
X15471957Y-10444914D02*
X15471957Y-10232780D01*
X15259823Y-10232780D01*
X15259823Y-10444914D01*
X15471957Y-10444914D01*
X16500184Y-10870818D02*
X16500184Y-10658684D01*
X16288050Y-10658684D01*
X16288050Y-10870818D01*
X16500184Y-10870818D01*
X17043197Y-10930292D02*
X17043197Y-10718158D01*
X16831063Y-10718158D01*
X16831063Y-10930292D01*
X17043197Y-10930292D01*
X17366210Y-11370817D02*
X17366210Y-11158684D01*
X17154076Y-11158684D01*
X17154076Y-11370817D01*
X17366210Y-11370817D01*
D15*
X4763410Y-8486540D02*
X4933410Y-8316540D01*
X4763410Y-8146540D01*
X4593410Y-8316540D01*
X4763410Y-8486540D01*
X6238320Y-6047540D02*
X6408320Y-5877540D01*
X6238320Y-5707540D01*
X6068320Y-5877540D01*
X6238320Y-6047540D01*
X6474910Y-7731000D02*
X6644910Y-7561000D01*
X6474910Y-7391000D01*
X6304910Y-7561000D01*
X6474910Y-7731000D01*
X6711500Y-9414450D02*
X6881500Y-9244450D01*
X6711500Y-9074450D01*
X6541500Y-9244450D01*
X6711500Y-9414450D01*
X8223520Y-5176050D02*
X8393520Y-5006050D01*
X8223520Y-4836050D01*
X8053520Y-5006050D01*
X8223520Y-5176050D01*
X8342110Y-6871910D02*
X8512110Y-6701910D01*
X8342110Y-6531910D01*
X8172110Y-6701910D01*
X8342110Y-6871910D01*
X8460690Y-8567770D02*
X8630690Y-8397770D01*
X8460690Y-8227770D01*
X8290690Y-8397770D01*
X8460690Y-8567770D01*
X10276540Y-4614760D02*
X10446540Y-4444760D01*
X10276540Y-4274760D01*
X10106540Y-4444760D01*
X10276540Y-4614760D01*
X10276540Y-6314760D02*
X10446540Y-6144760D01*
X10276540Y-5974760D01*
X10106540Y-6144760D01*
X10276540Y-6314760D01*
X10276540Y-8014760D02*
X10446540Y-7844760D01*
X10276540Y-7674760D01*
X10106540Y-7844760D01*
X10276540Y-8014760D01*
X12076540Y-4954760D02*
X12246540Y-4784760D01*
X12076540Y-4614760D01*
X11906540Y-4784760D01*
X12076540Y-4954760D01*
X12076540Y-6654760D02*
X12246540Y-6484760D01*
X12076540Y-6314760D01*
X11906540Y-6484760D01*
X12076540Y-6654760D01*
X12076540Y-8354760D02*
X12246540Y-8184760D01*
X12076540Y-8014760D01*
X11906540Y-8184760D01*
X12076540Y-8354760D01*
X12796540Y-10479760D02*
X12966540Y-10309760D01*
X12796540Y-10139760D01*
X12626540Y-10309760D01*
X12796540Y-10479760D01*
X13876540Y-5209760D02*
X14046540Y-5039760D01*
X13876540Y-4869760D01*
X13706540Y-5039760D01*
X13876540Y-5209760D01*
X13876540Y-6909760D02*
X14046540Y-6739760D01*
X13876540Y-6569760D01*
X13706540Y-6739760D01*
X13876540Y-6909760D01*
X13876540Y-8609760D02*
X14046540Y-8439760D01*
X13876540Y-8269760D01*
X13706540Y-8439760D01*
X13876540Y-8609760D01*
X14785870Y-10741660D02*
X14955870Y-10571660D01*
X14785870Y-10401660D01*
X14615870Y-10571660D01*
X14785870Y-10741660D01*
X16639630Y-11509510D02*
X16809630Y-11339510D01*
X16639630Y-11169510D01*
X16469630Y-11339510D01*
X16639630Y-11509510D01*
D16*
X7195130Y-7386760D02*
X7695130Y-7886760D01*
X7695130Y-7386760D02*
X7195130Y-7886760D01*
X7695130Y-7636760D02*
G75*
G02*
X7195130Y-7636760I-250000J0D01*
G01*
X7195130Y-7636760D02*
G75*
G02*
X7695130Y-7636760I250000J0D01*
G01*
X9026540Y-4994760D02*
X9526540Y-5494760D01*
X9526540Y-4994760D02*
X9026540Y-5494760D01*
X9526540Y-5244760D02*
G75*
G02*
X9026540Y-5244760I-250000J0D01*
G01*
X9026540Y-5244760D02*
G75*
G02*
X9526540Y-5244760I250000J0D01*
G01*
X12226540Y-8994760D02*
X12726540Y-9494760D01*
X12726540Y-8994760D02*
X12226540Y-9494760D01*
X12726540Y-9244760D02*
G75*
G02*
X12226540Y-9244760I-250000J0D01*
G01*
X12226540Y-9244760D02*
G75*
G02*
X12726540Y-9244760I250000J0D01*
G01*
X12690540Y-5384760D02*
X13190540Y-5884760D01*
X13190540Y-5384760D02*
X12690540Y-5884760D01*
X13190540Y-5634760D02*
G75*
G02*
X12690540Y-5634760I-250000J0D01*
G01*
X12690540Y-5634760D02*
G75*
G02*
X13190540Y-5634760I250000J0D01*
G01*
X15488850Y-10628770D02*
X15988850Y-11128770D01*
X15988850Y-10628770D02*
X15488850Y-11128770D01*
X15988850Y-10878770D02*
G75*
G02*
X15488850Y-10878770I-250000J0D01*
G01*
X15488850Y-10878770D02*
G75*
G02*
X15988850Y-10878770I250000J0D01*
G01*
D11*
X3895849Y-12958833D02*
X3895849Y-12758833D01*
X3895849Y-12758833D02*
X3943468Y-12758833D01*
X3943468Y-12758833D02*
X3972040Y-12768357D01*
X3972040Y-12768357D02*
X3991088Y-12787405D01*
X3991088Y-12787405D02*
X4000611Y-12806452D01*
X4000611Y-12806452D02*
X4010135Y-12844548D01*
X4010135Y-12844548D02*
X4010135Y-12873119D01*
X4010135Y-12873119D02*
X4000611Y-12911214D01*
X4000611Y-12911214D02*
X3991088Y-12930262D01*
X3991088Y-12930262D02*
X3972040Y-12949310D01*
X3972040Y-12949310D02*
X3943468Y-12958833D01*
X3943468Y-12958833D02*
X3895849Y-12958833D01*
X4095849Y-12958833D02*
X4095849Y-12825500D01*
X4095849Y-12863595D02*
X4105373Y-12844548D01*
X4105373Y-12844548D02*
X4114897Y-12835024D01*
X4114897Y-12835024D02*
X4133945Y-12825500D01*
X4133945Y-12825500D02*
X4152992Y-12825500D01*
X4219659Y-12958833D02*
X4219659Y-12825500D01*
X4219659Y-12758833D02*
X4210135Y-12768357D01*
X4210135Y-12768357D02*
X4219659Y-12777881D01*
X4219659Y-12777881D02*
X4229183Y-12768357D01*
X4229183Y-12768357D02*
X4219659Y-12758833D01*
X4219659Y-12758833D02*
X4219659Y-12777881D01*
X4343469Y-12958833D02*
X4324421Y-12949310D01*
X4324421Y-12949310D02*
X4314897Y-12930262D01*
X4314897Y-12930262D02*
X4314897Y-12758833D01*
X4448230Y-12958833D02*
X4429183Y-12949310D01*
X4429183Y-12949310D02*
X4419659Y-12930262D01*
X4419659Y-12930262D02*
X4419659Y-12758833D01*
X4676802Y-12958833D02*
X4676802Y-12758833D01*
X4676802Y-12758833D02*
X4743469Y-12901691D01*
X4743469Y-12901691D02*
X4810135Y-12758833D01*
X4810135Y-12758833D02*
X4810135Y-12958833D01*
X4991088Y-12958833D02*
X4991088Y-12854072D01*
X4991088Y-12854072D02*
X4981564Y-12835024D01*
X4981564Y-12835024D02*
X4962516Y-12825500D01*
X4962516Y-12825500D02*
X4924421Y-12825500D01*
X4924421Y-12825500D02*
X4905373Y-12835024D01*
X4991088Y-12949310D02*
X4972040Y-12958833D01*
X4972040Y-12958833D02*
X4924421Y-12958833D01*
X4924421Y-12958833D02*
X4905373Y-12949310D01*
X4905373Y-12949310D02*
X4895850Y-12930262D01*
X4895850Y-12930262D02*
X4895850Y-12911214D01*
X4895850Y-12911214D02*
X4905373Y-12892167D01*
X4905373Y-12892167D02*
X4924421Y-12882643D01*
X4924421Y-12882643D02*
X4972040Y-12882643D01*
X4972040Y-12882643D02*
X4991088Y-12873119D01*
X5086326Y-12825500D02*
X5086326Y-13025500D01*
X5086326Y-12835024D02*
X5105373Y-12825500D01*
X5105373Y-12825500D02*
X5143469Y-12825500D01*
X5143469Y-12825500D02*
X5162516Y-12835024D01*
X5162516Y-12835024D02*
X5172040Y-12844548D01*
X5172040Y-12844548D02*
X5181564Y-12863595D01*
X5181564Y-12863595D02*
X5181564Y-12920738D01*
X5181564Y-12920738D02*
X5172040Y-12939786D01*
X5172040Y-12939786D02*
X5162516Y-12949310D01*
X5162516Y-12949310D02*
X5143469Y-12958833D01*
X5143469Y-12958833D02*
X5105373Y-12958833D01*
X5105373Y-12958833D02*
X5086326Y-12949310D01*
X5267278Y-12939786D02*
X5276802Y-12949310D01*
X5276802Y-12949310D02*
X5267278Y-12958833D01*
X5267278Y-12958833D02*
X5257754Y-12949310D01*
X5257754Y-12949310D02*
X5267278Y-12939786D01*
X5267278Y-12939786D02*
X5267278Y-12958833D01*
X5267278Y-12835024D02*
X5276802Y-12844548D01*
X5276802Y-12844548D02*
X5267278Y-12854072D01*
X5267278Y-12854072D02*
X5257754Y-12844548D01*
X5257754Y-12844548D02*
X5267278Y-12835024D01*
X5267278Y-12835024D02*
X5267278Y-12854072D01*
D12*
X3545073Y-13242350D02*
X3635073Y-13332350D01*
X3635073Y-13242350D02*
X3545073Y-13332350D01*
D11*
X3933945Y-13178833D02*
X3952992Y-13178833D01*
X3952992Y-13178833D02*
X3972040Y-13188357D01*
X3972040Y-13188357D02*
X3981564Y-13197881D01*
X3981564Y-13197881D02*
X3991088Y-13216929D01*
X3991088Y-13216929D02*
X4000611Y-13255024D01*
X4000611Y-13255024D02*
X4000611Y-13302643D01*
X4000611Y-13302643D02*
X3991088Y-13340738D01*
X3991088Y-13340738D02*
X3981564Y-13359786D01*
X3981564Y-13359786D02*
X3972040Y-13369310D01*
X3972040Y-13369310D02*
X3952992Y-13378833D01*
X3952992Y-13378833D02*
X3933945Y-13378833D01*
X3933945Y-13378833D02*
X3914897Y-13369310D01*
X3914897Y-13369310D02*
X3905373Y-13359786D01*
X3905373Y-13359786D02*
X3895849Y-13340738D01*
X3895849Y-13340738D02*
X3886326Y-13302643D01*
X3886326Y-13302643D02*
X3886326Y-13255024D01*
X3886326Y-13255024D02*
X3895849Y-13216929D01*
X3895849Y-13216929D02*
X3905373Y-13197881D01*
X3905373Y-13197881D02*
X3914897Y-13188357D01*
X3914897Y-13188357D02*
X3933945Y-13178833D01*
X4086326Y-13359786D02*
X4095849Y-13369310D01*
X4095849Y-13369310D02*
X4086326Y-13378833D01*
X4086326Y-13378833D02*
X4076802Y-13369310D01*
X4076802Y-13369310D02*
X4086326Y-13359786D01*
X4086326Y-13359786D02*
X4086326Y-13378833D01*
X4191088Y-13378833D02*
X4229183Y-13378833D01*
X4229183Y-13378833D02*
X4248231Y-13369310D01*
X4248231Y-13369310D02*
X4257754Y-13359786D01*
X4257754Y-13359786D02*
X4276802Y-13331214D01*
X4276802Y-13331214D02*
X4286326Y-13293119D01*
X4286326Y-13293119D02*
X4286326Y-13216929D01*
X4286326Y-13216929D02*
X4276802Y-13197881D01*
X4276802Y-13197881D02*
X4267278Y-13188357D01*
X4267278Y-13188357D02*
X4248231Y-13178833D01*
X4248231Y-13178833D02*
X4210135Y-13178833D01*
X4210135Y-13178833D02*
X4191088Y-13188357D01*
X4191088Y-13188357D02*
X4181564Y-13197881D01*
X4181564Y-13197881D02*
X4172040Y-13216929D01*
X4172040Y-13216929D02*
X4172040Y-13264548D01*
X4172040Y-13264548D02*
X4181564Y-13283595D01*
X4181564Y-13283595D02*
X4191088Y-13293119D01*
X4191088Y-13293119D02*
X4210135Y-13302643D01*
X4210135Y-13302643D02*
X4248231Y-13302643D01*
X4248231Y-13302643D02*
X4267278Y-13293119D01*
X4267278Y-13293119D02*
X4276802Y-13283595D01*
X4276802Y-13283595D02*
X4286326Y-13264548D01*
X4410135Y-13178833D02*
X4429183Y-13178833D01*
X4429183Y-13178833D02*
X4448231Y-13188357D01*
X4448231Y-13188357D02*
X4457754Y-13197881D01*
X4457754Y-13197881D02*
X4467278Y-13216929D01*
X4467278Y-13216929D02*
X4476802Y-13255024D01*
X4476802Y-13255024D02*
X4476802Y-13302643D01*
X4476802Y-13302643D02*
X4467278Y-13340738D01*
X4467278Y-13340738D02*
X4457754Y-13359786D01*
X4457754Y-13359786D02*
X4448231Y-13369310D01*
X4448231Y-13369310D02*
X4429183Y-13378833D01*
X4429183Y-13378833D02*
X4410135Y-13378833D01*
X4410135Y-13378833D02*
X4391088Y-13369310D01*
X4391088Y-13369310D02*
X4381564Y-13359786D01*
X4381564Y-13359786D02*
X4372040Y-13340738D01*
X4372040Y-13340738D02*
X4362516Y-13302643D01*
X4362516Y-13302643D02*
X4362516Y-13255024D01*
X4362516Y-13255024D02*
X4372040Y-13216929D01*
X4372040Y-13216929D02*
X4381564Y-13197881D01*
X4381564Y-13197881D02*
X4391088Y-13188357D01*
X4391088Y-13188357D02*
X4410135Y-13178833D01*
X4600611Y-13178833D02*
X4619659Y-13178833D01*
X4619659Y-13178833D02*
X4638707Y-13188357D01*
X4638707Y-13188357D02*
X4648231Y-13197881D01*
X4648231Y-13197881D02*
X4657754Y-13216929D01*
X4657754Y-13216929D02*
X4667278Y-13255024D01*
X4667278Y-13255024D02*
X4667278Y-13302643D01*
X4667278Y-13302643D02*
X4657754Y-13340738D01*
X4657754Y-13340738D02*
X4648231Y-13359786D01*
X4648231Y-13359786D02*
X4638707Y-13369310D01*
X4638707Y-13369310D02*
X4619659Y-13378833D01*
X4619659Y-13378833D02*
X4600611Y-13378833D01*
X4600611Y-13378833D02*
X4581564Y-13369310D01*
X4581564Y-13369310D02*
X4572040Y-13359786D01*
X4572040Y-13359786D02*
X4562516Y-13340738D01*
X4562516Y-13340738D02*
X4552992Y-13302643D01*
X4552992Y-13302643D02*
X4552992Y-13255024D01*
X4552992Y-13255024D02*
X4562516Y-13216929D01*
X4562516Y-13216929D02*
X4572040Y-13197881D01*
X4572040Y-13197881D02*
X4581564Y-13188357D01*
X4581564Y-13188357D02*
X4600611Y-13178833D01*
X4752992Y-13378833D02*
X4752992Y-13245500D01*
X4752992Y-13264548D02*
X4762516Y-13255024D01*
X4762516Y-13255024D02*
X4781564Y-13245500D01*
X4781564Y-13245500D02*
X4810135Y-13245500D01*
X4810135Y-13245500D02*
X4829183Y-13255024D01*
X4829183Y-13255024D02*
X4838707Y-13274072D01*
X4838707Y-13274072D02*
X4838707Y-13378833D01*
X4838707Y-13274072D02*
X4848231Y-13255024D01*
X4848231Y-13255024D02*
X4867278Y-13245500D01*
X4867278Y-13245500D02*
X4895850Y-13245500D01*
X4895850Y-13245500D02*
X4914897Y-13255024D01*
X4914897Y-13255024D02*
X4924421Y-13274072D01*
X4924421Y-13274072D02*
X4924421Y-13378833D01*
X5019659Y-13378833D02*
X5019659Y-13245500D01*
X5019659Y-13264548D02*
X5029183Y-13255024D01*
X5029183Y-13255024D02*
X5048231Y-13245500D01*
X5048231Y-13245500D02*
X5076802Y-13245500D01*
X5076802Y-13245500D02*
X5095850Y-13255024D01*
X5095850Y-13255024D02*
X5105373Y-13274072D01*
X5105373Y-13274072D02*
X5105373Y-13378833D01*
X5105373Y-13274072D02*
X5114897Y-13255024D01*
X5114897Y-13255024D02*
X5133945Y-13245500D01*
X5133945Y-13245500D02*
X5162516Y-13245500D01*
X5162516Y-13245500D02*
X5181564Y-13255024D01*
X5181564Y-13255024D02*
X5191088Y-13274072D01*
X5191088Y-13274072D02*
X5191088Y-13378833D01*
X5581564Y-13169310D02*
X5410135Y-13426452D01*
X5838707Y-13178833D02*
X5857754Y-13178833D01*
X5857754Y-13178833D02*
X5876802Y-13188357D01*
X5876802Y-13188357D02*
X5886326Y-13197881D01*
X5886326Y-13197881D02*
X5895850Y-13216929D01*
X5895850Y-13216929D02*
X5905373Y-13255024D01*
X5905373Y-13255024D02*
X5905373Y-13302643D01*
X5905373Y-13302643D02*
X5895850Y-13340738D01*
X5895850Y-13340738D02*
X5886326Y-13359786D01*
X5886326Y-13359786D02*
X5876802Y-13369310D01*
X5876802Y-13369310D02*
X5857754Y-13378833D01*
X5857754Y-13378833D02*
X5838707Y-13378833D01*
X5838707Y-13378833D02*
X5819659Y-13369310D01*
X5819659Y-13369310D02*
X5810135Y-13359786D01*
X5810135Y-13359786D02*
X5800612Y-13340738D01*
X5800612Y-13340738D02*
X5791088Y-13302643D01*
X5791088Y-13302643D02*
X5791088Y-13255024D01*
X5791088Y-13255024D02*
X5800612Y-13216929D01*
X5800612Y-13216929D02*
X5810135Y-13197881D01*
X5810135Y-13197881D02*
X5819659Y-13188357D01*
X5819659Y-13188357D02*
X5838707Y-13178833D01*
X5991088Y-13359786D02*
X6000612Y-13369310D01*
X6000612Y-13369310D02*
X5991088Y-13378833D01*
X5991088Y-13378833D02*
X5981564Y-13369310D01*
X5981564Y-13369310D02*
X5991088Y-13359786D01*
X5991088Y-13359786D02*
X5991088Y-13378833D01*
X6124421Y-13178833D02*
X6143469Y-13178833D01*
X6143469Y-13178833D02*
X6162516Y-13188357D01*
X6162516Y-13188357D02*
X6172040Y-13197881D01*
X6172040Y-13197881D02*
X6181564Y-13216929D01*
X6181564Y-13216929D02*
X6191088Y-13255024D01*
X6191088Y-13255024D02*
X6191088Y-13302643D01*
X6191088Y-13302643D02*
X6181564Y-13340738D01*
X6181564Y-13340738D02*
X6172040Y-13359786D01*
X6172040Y-13359786D02*
X6162516Y-13369310D01*
X6162516Y-13369310D02*
X6143469Y-13378833D01*
X6143469Y-13378833D02*
X6124421Y-13378833D01*
X6124421Y-13378833D02*
X6105373Y-13369310D01*
X6105373Y-13369310D02*
X6095850Y-13359786D01*
X6095850Y-13359786D02*
X6086326Y-13340738D01*
X6086326Y-13340738D02*
X6076802Y-13302643D01*
X6076802Y-13302643D02*
X6076802Y-13255024D01*
X6076802Y-13255024D02*
X6086326Y-13216929D01*
X6086326Y-13216929D02*
X6095850Y-13197881D01*
X6095850Y-13197881D02*
X6105373Y-13188357D01*
X6105373Y-13188357D02*
X6124421Y-13178833D01*
X6257754Y-13178833D02*
X6381564Y-13178833D01*
X6381564Y-13178833D02*
X6314897Y-13255024D01*
X6314897Y-13255024D02*
X6343469Y-13255024D01*
X6343469Y-13255024D02*
X6362516Y-13264548D01*
X6362516Y-13264548D02*
X6372040Y-13274072D01*
X6372040Y-13274072D02*
X6381564Y-13293119D01*
X6381564Y-13293119D02*
X6381564Y-13340738D01*
X6381564Y-13340738D02*
X6372040Y-13359786D01*
X6372040Y-13359786D02*
X6362516Y-13369310D01*
X6362516Y-13369310D02*
X6343469Y-13378833D01*
X6343469Y-13378833D02*
X6286326Y-13378833D01*
X6286326Y-13378833D02*
X6267278Y-13369310D01*
X6267278Y-13369310D02*
X6257754Y-13359786D01*
X6562516Y-13178833D02*
X6467278Y-13178833D01*
X6467278Y-13178833D02*
X6457754Y-13274072D01*
X6457754Y-13274072D02*
X6467278Y-13264548D01*
X6467278Y-13264548D02*
X6486326Y-13255024D01*
X6486326Y-13255024D02*
X6533945Y-13255024D01*
X6533945Y-13255024D02*
X6552993Y-13264548D01*
X6552993Y-13264548D02*
X6562516Y-13274072D01*
X6562516Y-13274072D02*
X6572040Y-13293119D01*
X6572040Y-13293119D02*
X6572040Y-13340738D01*
X6572040Y-13340738D02*
X6562516Y-13359786D01*
X6562516Y-13359786D02*
X6552993Y-13369310D01*
X6552993Y-13369310D02*
X6533945Y-13378833D01*
X6533945Y-13378833D02*
X6486326Y-13378833D01*
X6486326Y-13378833D02*
X6467278Y-13369310D01*
X6467278Y-13369310D02*
X6457754Y-13359786D01*
X6743469Y-13245500D02*
X6743469Y-13378833D01*
X6695850Y-13169310D02*
X6648231Y-13312167D01*
X6648231Y-13312167D02*
X6772040Y-13312167D01*
X6838707Y-13178833D02*
X6838707Y-13216929D01*
X6914897Y-13178833D02*
X6914897Y-13216929D01*
X7210136Y-13455024D02*
X7200612Y-13445500D01*
X7200612Y-13445500D02*
X7181564Y-13416929D01*
X7181564Y-13416929D02*
X7172040Y-13397881D01*
X7172040Y-13397881D02*
X7162516Y-13369310D01*
X7162516Y-13369310D02*
X7152993Y-13321691D01*
X7152993Y-13321691D02*
X7152993Y-13283595D01*
X7152993Y-13283595D02*
X7162516Y-13235976D01*
X7162516Y-13235976D02*
X7172040Y-13207405D01*
X7172040Y-13207405D02*
X7181564Y-13188357D01*
X7181564Y-13188357D02*
X7200612Y-13159786D01*
X7200612Y-13159786D02*
X7210136Y-13150262D01*
X7276802Y-13197881D02*
X7286326Y-13188357D01*
X7286326Y-13188357D02*
X7305374Y-13178833D01*
X7305374Y-13178833D02*
X7352993Y-13178833D01*
X7352993Y-13178833D02*
X7372040Y-13188357D01*
X7372040Y-13188357D02*
X7381564Y-13197881D01*
X7381564Y-13197881D02*
X7391088Y-13216929D01*
X7391088Y-13216929D02*
X7391088Y-13235976D01*
X7391088Y-13235976D02*
X7381564Y-13264548D01*
X7381564Y-13264548D02*
X7267278Y-13378833D01*
X7267278Y-13378833D02*
X7391088Y-13378833D01*
X7629183Y-13378833D02*
X7629183Y-13178833D01*
X7714897Y-13378833D02*
X7714897Y-13274072D01*
X7714897Y-13274072D02*
X7705374Y-13255024D01*
X7705374Y-13255024D02*
X7686326Y-13245500D01*
X7686326Y-13245500D02*
X7657755Y-13245500D01*
X7657755Y-13245500D02*
X7638707Y-13255024D01*
X7638707Y-13255024D02*
X7629183Y-13264548D01*
X7838707Y-13378833D02*
X7819659Y-13369310D01*
X7819659Y-13369310D02*
X7810136Y-13359786D01*
X7810136Y-13359786D02*
X7800612Y-13340738D01*
X7800612Y-13340738D02*
X7800612Y-13283595D01*
X7800612Y-13283595D02*
X7810136Y-13264548D01*
X7810136Y-13264548D02*
X7819659Y-13255024D01*
X7819659Y-13255024D02*
X7838707Y-13245500D01*
X7838707Y-13245500D02*
X7867278Y-13245500D01*
X7867278Y-13245500D02*
X7886326Y-13255024D01*
X7886326Y-13255024D02*
X7895850Y-13264548D01*
X7895850Y-13264548D02*
X7905374Y-13283595D01*
X7905374Y-13283595D02*
X7905374Y-13340738D01*
X7905374Y-13340738D02*
X7895850Y-13359786D01*
X7895850Y-13359786D02*
X7886326Y-13369310D01*
X7886326Y-13369310D02*
X7867278Y-13378833D01*
X7867278Y-13378833D02*
X7838707Y-13378833D01*
X8019659Y-13378833D02*
X8000612Y-13369310D01*
X8000612Y-13369310D02*
X7991088Y-13350262D01*
X7991088Y-13350262D02*
X7991088Y-13178833D01*
X8172040Y-13369310D02*
X8152993Y-13378833D01*
X8152993Y-13378833D02*
X8114897Y-13378833D01*
X8114897Y-13378833D02*
X8095850Y-13369310D01*
X8095850Y-13369310D02*
X8086326Y-13350262D01*
X8086326Y-13350262D02*
X8086326Y-13274072D01*
X8086326Y-13274072D02*
X8095850Y-13255024D01*
X8095850Y-13255024D02*
X8114897Y-13245500D01*
X8114897Y-13245500D02*
X8152993Y-13245500D01*
X8152993Y-13245500D02*
X8172040Y-13255024D01*
X8172040Y-13255024D02*
X8181564Y-13274072D01*
X8181564Y-13274072D02*
X8181564Y-13293119D01*
X8181564Y-13293119D02*
X8086326Y-13312167D01*
X8257755Y-13369310D02*
X8276802Y-13378833D01*
X8276802Y-13378833D02*
X8314897Y-13378833D01*
X8314897Y-13378833D02*
X8333945Y-13369310D01*
X8333945Y-13369310D02*
X8343469Y-13350262D01*
X8343469Y-13350262D02*
X8343469Y-13340738D01*
X8343469Y-13340738D02*
X8333945Y-13321691D01*
X8333945Y-13321691D02*
X8314897Y-13312167D01*
X8314897Y-13312167D02*
X8286326Y-13312167D01*
X8286326Y-13312167D02*
X8267278Y-13302643D01*
X8267278Y-13302643D02*
X8257755Y-13283595D01*
X8257755Y-13283595D02*
X8257755Y-13274072D01*
X8257755Y-13274072D02*
X8267278Y-13255024D01*
X8267278Y-13255024D02*
X8286326Y-13245500D01*
X8286326Y-13245500D02*
X8314897Y-13245500D01*
X8314897Y-13245500D02*
X8333945Y-13255024D01*
X8410136Y-13455024D02*
X8419660Y-13445500D01*
X8419660Y-13445500D02*
X8438707Y-13416929D01*
X8438707Y-13416929D02*
X8448231Y-13397881D01*
X8448231Y-13397881D02*
X8457755Y-13369310D01*
X8457755Y-13369310D02*
X8467279Y-13321691D01*
X8467279Y-13321691D02*
X8467279Y-13283595D01*
X8467279Y-13283595D02*
X8457755Y-13235976D01*
X8457755Y-13235976D02*
X8448231Y-13207405D01*
X8448231Y-13207405D02*
X8438707Y-13188357D01*
X8438707Y-13188357D02*
X8419660Y-13159786D01*
X8419660Y-13159786D02*
X8410136Y-13150262D01*
X8772041Y-13455024D02*
X8762517Y-13445500D01*
X8762517Y-13445500D02*
X8743469Y-13416929D01*
X8743469Y-13416929D02*
X8733945Y-13397881D01*
X8733945Y-13397881D02*
X8724421Y-13369310D01*
X8724421Y-13369310D02*
X8714898Y-13321691D01*
X8714898Y-13321691D02*
X8714898Y-13283595D01*
X8714898Y-13283595D02*
X8724421Y-13235976D01*
X8724421Y-13235976D02*
X8733945Y-13207405D01*
X8733945Y-13207405D02*
X8743469Y-13188357D01*
X8743469Y-13188357D02*
X8762517Y-13159786D01*
X8762517Y-13159786D02*
X8772041Y-13150262D01*
X8848231Y-13245500D02*
X8848231Y-13378833D01*
X8848231Y-13264548D02*
X8857755Y-13255024D01*
X8857755Y-13255024D02*
X8876802Y-13245500D01*
X8876802Y-13245500D02*
X8905374Y-13245500D01*
X8905374Y-13245500D02*
X8924421Y-13255024D01*
X8924421Y-13255024D02*
X8933945Y-13274072D01*
X8933945Y-13274072D02*
X8933945Y-13378833D01*
X9057755Y-13378833D02*
X9038707Y-13369310D01*
X9038707Y-13369310D02*
X9029183Y-13359786D01*
X9029183Y-13359786D02*
X9019660Y-13340738D01*
X9019660Y-13340738D02*
X9019660Y-13283595D01*
X9019660Y-13283595D02*
X9029183Y-13264548D01*
X9029183Y-13264548D02*
X9038707Y-13255024D01*
X9038707Y-13255024D02*
X9057755Y-13245500D01*
X9057755Y-13245500D02*
X9086326Y-13245500D01*
X9086326Y-13245500D02*
X9105374Y-13255024D01*
X9105374Y-13255024D02*
X9114898Y-13264548D01*
X9114898Y-13264548D02*
X9124421Y-13283595D01*
X9124421Y-13283595D02*
X9124421Y-13340738D01*
X9124421Y-13340738D02*
X9114898Y-13359786D01*
X9114898Y-13359786D02*
X9105374Y-13369310D01*
X9105374Y-13369310D02*
X9086326Y-13378833D01*
X9086326Y-13378833D02*
X9057755Y-13378833D01*
X9181564Y-13245500D02*
X9257755Y-13245500D01*
X9210136Y-13178833D02*
X9210136Y-13350262D01*
X9210136Y-13350262D02*
X9219660Y-13369310D01*
X9219660Y-13369310D02*
X9238707Y-13378833D01*
X9238707Y-13378833D02*
X9257755Y-13378833D01*
X9476802Y-13245500D02*
X9476802Y-13445500D01*
X9476802Y-13255024D02*
X9495850Y-13245500D01*
X9495850Y-13245500D02*
X9533945Y-13245500D01*
X9533945Y-13245500D02*
X9552993Y-13255024D01*
X9552993Y-13255024D02*
X9562517Y-13264548D01*
X9562517Y-13264548D02*
X9572041Y-13283595D01*
X9572041Y-13283595D02*
X9572041Y-13340738D01*
X9572041Y-13340738D02*
X9562517Y-13359786D01*
X9562517Y-13359786D02*
X9552993Y-13369310D01*
X9552993Y-13369310D02*
X9533945Y-13378833D01*
X9533945Y-13378833D02*
X9495850Y-13378833D01*
X9495850Y-13378833D02*
X9476802Y-13369310D01*
X9686326Y-13378833D02*
X9667279Y-13369310D01*
X9667279Y-13369310D02*
X9657755Y-13350262D01*
X9657755Y-13350262D02*
X9657755Y-13178833D01*
X9848231Y-13378833D02*
X9848231Y-13274072D01*
X9848231Y-13274072D02*
X9838707Y-13255024D01*
X9838707Y-13255024D02*
X9819660Y-13245500D01*
X9819660Y-13245500D02*
X9781564Y-13245500D01*
X9781564Y-13245500D02*
X9762517Y-13255024D01*
X9848231Y-13369310D02*
X9829183Y-13378833D01*
X9829183Y-13378833D02*
X9781564Y-13378833D01*
X9781564Y-13378833D02*
X9762517Y-13369310D01*
X9762517Y-13369310D02*
X9752993Y-13350262D01*
X9752993Y-13350262D02*
X9752993Y-13331214D01*
X9752993Y-13331214D02*
X9762517Y-13312167D01*
X9762517Y-13312167D02*
X9781564Y-13302643D01*
X9781564Y-13302643D02*
X9829183Y-13302643D01*
X9829183Y-13302643D02*
X9848231Y-13293119D01*
X9914898Y-13245500D02*
X9991088Y-13245500D01*
X9943469Y-13178833D02*
X9943469Y-13350262D01*
X9943469Y-13350262D02*
X9952993Y-13369310D01*
X9952993Y-13369310D02*
X9972041Y-13378833D01*
X9972041Y-13378833D02*
X9991088Y-13378833D01*
X10133945Y-13369310D02*
X10114898Y-13378833D01*
X10114898Y-13378833D02*
X10076802Y-13378833D01*
X10076802Y-13378833D02*
X10057755Y-13369310D01*
X10057755Y-13369310D02*
X10048231Y-13350262D01*
X10048231Y-13350262D02*
X10048231Y-13274072D01*
X10048231Y-13274072D02*
X10057755Y-13255024D01*
X10057755Y-13255024D02*
X10076802Y-13245500D01*
X10076802Y-13245500D02*
X10114898Y-13245500D01*
X10114898Y-13245500D02*
X10133945Y-13255024D01*
X10133945Y-13255024D02*
X10143469Y-13274072D01*
X10143469Y-13274072D02*
X10143469Y-13293119D01*
X10143469Y-13293119D02*
X10048231Y-13312167D01*
X10314898Y-13378833D02*
X10314898Y-13178833D01*
X10314898Y-13369310D02*
X10295850Y-13378833D01*
X10295850Y-13378833D02*
X10257755Y-13378833D01*
X10257755Y-13378833D02*
X10238707Y-13369310D01*
X10238707Y-13369310D02*
X10229183Y-13359786D01*
X10229183Y-13359786D02*
X10219660Y-13340738D01*
X10219660Y-13340738D02*
X10219660Y-13283595D01*
X10219660Y-13283595D02*
X10229183Y-13264548D01*
X10229183Y-13264548D02*
X10238707Y-13255024D01*
X10238707Y-13255024D02*
X10257755Y-13245500D01*
X10257755Y-13245500D02*
X10295850Y-13245500D01*
X10295850Y-13245500D02*
X10314898Y-13255024D01*
X10391088Y-13455024D02*
X10400612Y-13445500D01*
X10400612Y-13445500D02*
X10419660Y-13416929D01*
X10419660Y-13416929D02*
X10429183Y-13397881D01*
X10429183Y-13397881D02*
X10438707Y-13369310D01*
X10438707Y-13369310D02*
X10448231Y-13321691D01*
X10448231Y-13321691D02*
X10448231Y-13283595D01*
X10448231Y-13283595D02*
X10438707Y-13235976D01*
X10438707Y-13235976D02*
X10429183Y-13207405D01*
X10429183Y-13207405D02*
X10419660Y-13188357D01*
X10419660Y-13188357D02*
X10400612Y-13159786D01*
X10400612Y-13159786D02*
X10391088Y-13150262D01*
D13*
X3635073Y-13551350D02*
G75*
G02*
X3445073Y-13551350I-95000J0D01*
G01*
X3445073Y-13551350D02*
G75*
G02*
X3635073Y-13551350I95000J0D01*
G01*
D11*
X4000611Y-13642833D02*
X3886326Y-13642833D01*
X3943468Y-13642833D02*
X3943468Y-13442833D01*
X3943468Y-13442833D02*
X3924421Y-13471405D01*
X3924421Y-13471405D02*
X3905373Y-13490452D01*
X3905373Y-13490452D02*
X3886326Y-13499976D01*
X4086326Y-13623786D02*
X4095849Y-13633310D01*
X4095849Y-13633310D02*
X4086326Y-13642833D01*
X4086326Y-13642833D02*
X4076802Y-13633310D01*
X4076802Y-13633310D02*
X4086326Y-13623786D01*
X4086326Y-13623786D02*
X4086326Y-13642833D01*
X4191088Y-13642833D02*
X4229183Y-13642833D01*
X4229183Y-13642833D02*
X4248231Y-13633310D01*
X4248231Y-13633310D02*
X4257754Y-13623786D01*
X4257754Y-13623786D02*
X4276802Y-13595214D01*
X4276802Y-13595214D02*
X4286326Y-13557119D01*
X4286326Y-13557119D02*
X4286326Y-13480929D01*
X4286326Y-13480929D02*
X4276802Y-13461881D01*
X4276802Y-13461881D02*
X4267278Y-13452357D01*
X4267278Y-13452357D02*
X4248231Y-13442833D01*
X4248231Y-13442833D02*
X4210135Y-13442833D01*
X4210135Y-13442833D02*
X4191088Y-13452357D01*
X4191088Y-13452357D02*
X4181564Y-13461881D01*
X4181564Y-13461881D02*
X4172040Y-13480929D01*
X4172040Y-13480929D02*
X4172040Y-13528548D01*
X4172040Y-13528548D02*
X4181564Y-13547595D01*
X4181564Y-13547595D02*
X4191088Y-13557119D01*
X4191088Y-13557119D02*
X4210135Y-13566643D01*
X4210135Y-13566643D02*
X4248231Y-13566643D01*
X4248231Y-13566643D02*
X4267278Y-13557119D01*
X4267278Y-13557119D02*
X4276802Y-13547595D01*
X4276802Y-13547595D02*
X4286326Y-13528548D01*
X4410135Y-13442833D02*
X4429183Y-13442833D01*
X4429183Y-13442833D02*
X4448231Y-13452357D01*
X4448231Y-13452357D02*
X4457754Y-13461881D01*
X4457754Y-13461881D02*
X4467278Y-13480929D01*
X4467278Y-13480929D02*
X4476802Y-13519024D01*
X4476802Y-13519024D02*
X4476802Y-13566643D01*
X4476802Y-13566643D02*
X4467278Y-13604738D01*
X4467278Y-13604738D02*
X4457754Y-13623786D01*
X4457754Y-13623786D02*
X4448231Y-13633310D01*
X4448231Y-13633310D02*
X4429183Y-13642833D01*
X4429183Y-13642833D02*
X4410135Y-13642833D01*
X4410135Y-13642833D02*
X4391088Y-13633310D01*
X4391088Y-13633310D02*
X4381564Y-13623786D01*
X4381564Y-13623786D02*
X4372040Y-13604738D01*
X4372040Y-13604738D02*
X4362516Y-13566643D01*
X4362516Y-13566643D02*
X4362516Y-13519024D01*
X4362516Y-13519024D02*
X4372040Y-13480929D01*
X4372040Y-13480929D02*
X4381564Y-13461881D01*
X4381564Y-13461881D02*
X4391088Y-13452357D01*
X4391088Y-13452357D02*
X4410135Y-13442833D01*
X4600611Y-13442833D02*
X4619659Y-13442833D01*
X4619659Y-13442833D02*
X4638707Y-13452357D01*
X4638707Y-13452357D02*
X4648231Y-13461881D01*
X4648231Y-13461881D02*
X4657754Y-13480929D01*
X4657754Y-13480929D02*
X4667278Y-13519024D01*
X4667278Y-13519024D02*
X4667278Y-13566643D01*
X4667278Y-13566643D02*
X4657754Y-13604738D01*
X4657754Y-13604738D02*
X4648231Y-13623786D01*
X4648231Y-13623786D02*
X4638707Y-13633310D01*
X4638707Y-13633310D02*
X4619659Y-13642833D01*
X4619659Y-13642833D02*
X4600611Y-13642833D01*
X4600611Y-13642833D02*
X4581564Y-13633310D01*
X4581564Y-13633310D02*
X4572040Y-13623786D01*
X4572040Y-13623786D02*
X4562516Y-13604738D01*
X4562516Y-13604738D02*
X4552992Y-13566643D01*
X4552992Y-13566643D02*
X4552992Y-13519024D01*
X4552992Y-13519024D02*
X4562516Y-13480929D01*
X4562516Y-13480929D02*
X4572040Y-13461881D01*
X4572040Y-13461881D02*
X4581564Y-13452357D01*
X4581564Y-13452357D02*
X4600611Y-13442833D01*
X4752992Y-13642833D02*
X4752992Y-13509500D01*
X4752992Y-13528548D02*
X4762516Y-13519024D01*
X4762516Y-13519024D02*
X4781564Y-13509500D01*
X4781564Y-13509500D02*
X4810135Y-13509500D01*
X4810135Y-13509500D02*
X4829183Y-13519024D01*
X4829183Y-13519024D02*
X4838707Y-13538072D01*
X4838707Y-13538072D02*
X4838707Y-13642833D01*
X4838707Y-13538072D02*
X4848231Y-13519024D01*
X4848231Y-13519024D02*
X4867278Y-13509500D01*
X4867278Y-13509500D02*
X4895850Y-13509500D01*
X4895850Y-13509500D02*
X4914897Y-13519024D01*
X4914897Y-13519024D02*
X4924421Y-13538072D01*
X4924421Y-13538072D02*
X4924421Y-13642833D01*
X5019659Y-13642833D02*
X5019659Y-13509500D01*
X5019659Y-13528548D02*
X5029183Y-13519024D01*
X5029183Y-13519024D02*
X5048231Y-13509500D01*
X5048231Y-13509500D02*
X5076802Y-13509500D01*
X5076802Y-13509500D02*
X5095850Y-13519024D01*
X5095850Y-13519024D02*
X5105373Y-13538072D01*
X5105373Y-13538072D02*
X5105373Y-13642833D01*
X5105373Y-13538072D02*
X5114897Y-13519024D01*
X5114897Y-13519024D02*
X5133945Y-13509500D01*
X5133945Y-13509500D02*
X5162516Y-13509500D01*
X5162516Y-13509500D02*
X5181564Y-13519024D01*
X5181564Y-13519024D02*
X5191088Y-13538072D01*
X5191088Y-13538072D02*
X5191088Y-13642833D01*
X5581564Y-13433310D02*
X5410135Y-13690452D01*
X5838707Y-13442833D02*
X5857754Y-13442833D01*
X5857754Y-13442833D02*
X5876802Y-13452357D01*
X5876802Y-13452357D02*
X5886326Y-13461881D01*
X5886326Y-13461881D02*
X5895850Y-13480929D01*
X5895850Y-13480929D02*
X5905373Y-13519024D01*
X5905373Y-13519024D02*
X5905373Y-13566643D01*
X5905373Y-13566643D02*
X5895850Y-13604738D01*
X5895850Y-13604738D02*
X5886326Y-13623786D01*
X5886326Y-13623786D02*
X5876802Y-13633310D01*
X5876802Y-13633310D02*
X5857754Y-13642833D01*
X5857754Y-13642833D02*
X5838707Y-13642833D01*
X5838707Y-13642833D02*
X5819659Y-13633310D01*
X5819659Y-13633310D02*
X5810135Y-13623786D01*
X5810135Y-13623786D02*
X5800612Y-13604738D01*
X5800612Y-13604738D02*
X5791088Y-13566643D01*
X5791088Y-13566643D02*
X5791088Y-13519024D01*
X5791088Y-13519024D02*
X5800612Y-13480929D01*
X5800612Y-13480929D02*
X5810135Y-13461881D01*
X5810135Y-13461881D02*
X5819659Y-13452357D01*
X5819659Y-13452357D02*
X5838707Y-13442833D01*
X5991088Y-13623786D02*
X6000612Y-13633310D01*
X6000612Y-13633310D02*
X5991088Y-13642833D01*
X5991088Y-13642833D02*
X5981564Y-13633310D01*
X5981564Y-13633310D02*
X5991088Y-13623786D01*
X5991088Y-13623786D02*
X5991088Y-13642833D01*
X6124421Y-13442833D02*
X6143469Y-13442833D01*
X6143469Y-13442833D02*
X6162516Y-13452357D01*
X6162516Y-13452357D02*
X6172040Y-13461881D01*
X6172040Y-13461881D02*
X6181564Y-13480929D01*
X6181564Y-13480929D02*
X6191088Y-13519024D01*
X6191088Y-13519024D02*
X6191088Y-13566643D01*
X6191088Y-13566643D02*
X6181564Y-13604738D01*
X6181564Y-13604738D02*
X6172040Y-13623786D01*
X6172040Y-13623786D02*
X6162516Y-13633310D01*
X6162516Y-13633310D02*
X6143469Y-13642833D01*
X6143469Y-13642833D02*
X6124421Y-13642833D01*
X6124421Y-13642833D02*
X6105373Y-13633310D01*
X6105373Y-13633310D02*
X6095850Y-13623786D01*
X6095850Y-13623786D02*
X6086326Y-13604738D01*
X6086326Y-13604738D02*
X6076802Y-13566643D01*
X6076802Y-13566643D02*
X6076802Y-13519024D01*
X6076802Y-13519024D02*
X6086326Y-13480929D01*
X6086326Y-13480929D02*
X6095850Y-13461881D01*
X6095850Y-13461881D02*
X6105373Y-13452357D01*
X6105373Y-13452357D02*
X6124421Y-13442833D01*
X6257754Y-13442833D02*
X6391088Y-13442833D01*
X6391088Y-13442833D02*
X6305373Y-13642833D01*
X6552993Y-13509500D02*
X6552993Y-13642833D01*
X6505373Y-13433310D02*
X6457754Y-13576167D01*
X6457754Y-13576167D02*
X6581564Y-13576167D01*
X6686326Y-13528548D02*
X6667278Y-13519024D01*
X6667278Y-13519024D02*
X6657754Y-13509500D01*
X6657754Y-13509500D02*
X6648231Y-13490452D01*
X6648231Y-13490452D02*
X6648231Y-13480929D01*
X6648231Y-13480929D02*
X6657754Y-13461881D01*
X6657754Y-13461881D02*
X6667278Y-13452357D01*
X6667278Y-13452357D02*
X6686326Y-13442833D01*
X6686326Y-13442833D02*
X6724421Y-13442833D01*
X6724421Y-13442833D02*
X6743469Y-13452357D01*
X6743469Y-13452357D02*
X6752993Y-13461881D01*
X6752993Y-13461881D02*
X6762516Y-13480929D01*
X6762516Y-13480929D02*
X6762516Y-13490452D01*
X6762516Y-13490452D02*
X6752993Y-13509500D01*
X6752993Y-13509500D02*
X6743469Y-13519024D01*
X6743469Y-13519024D02*
X6724421Y-13528548D01*
X6724421Y-13528548D02*
X6686326Y-13528548D01*
X6686326Y-13528548D02*
X6667278Y-13538072D01*
X6667278Y-13538072D02*
X6657754Y-13547595D01*
X6657754Y-13547595D02*
X6648231Y-13566643D01*
X6648231Y-13566643D02*
X6648231Y-13604738D01*
X6648231Y-13604738D02*
X6657754Y-13623786D01*
X6657754Y-13623786D02*
X6667278Y-13633310D01*
X6667278Y-13633310D02*
X6686326Y-13642833D01*
X6686326Y-13642833D02*
X6724421Y-13642833D01*
X6724421Y-13642833D02*
X6743469Y-13633310D01*
X6743469Y-13633310D02*
X6752993Y-13623786D01*
X6752993Y-13623786D02*
X6762516Y-13604738D01*
X6762516Y-13604738D02*
X6762516Y-13566643D01*
X6762516Y-13566643D02*
X6752993Y-13547595D01*
X6752993Y-13547595D02*
X6743469Y-13538072D01*
X6743469Y-13538072D02*
X6724421Y-13528548D01*
X6838707Y-13442833D02*
X6838707Y-13480929D01*
X6914897Y-13442833D02*
X6914897Y-13480929D01*
X7210136Y-13719024D02*
X7200612Y-13709500D01*
X7200612Y-13709500D02*
X7181564Y-13680929D01*
X7181564Y-13680929D02*
X7172040Y-13661881D01*
X7172040Y-13661881D02*
X7162516Y-13633310D01*
X7162516Y-13633310D02*
X7152993Y-13585691D01*
X7152993Y-13585691D02*
X7152993Y-13547595D01*
X7152993Y-13547595D02*
X7162516Y-13499976D01*
X7162516Y-13499976D02*
X7172040Y-13471405D01*
X7172040Y-13471405D02*
X7181564Y-13452357D01*
X7181564Y-13452357D02*
X7200612Y-13423786D01*
X7200612Y-13423786D02*
X7210136Y-13414262D01*
X7267278Y-13442833D02*
X7391088Y-13442833D01*
X7391088Y-13442833D02*
X7324421Y-13519024D01*
X7324421Y-13519024D02*
X7352993Y-13519024D01*
X7352993Y-13519024D02*
X7372040Y-13528548D01*
X7372040Y-13528548D02*
X7381564Y-13538072D01*
X7381564Y-13538072D02*
X7391088Y-13557119D01*
X7391088Y-13557119D02*
X7391088Y-13604738D01*
X7391088Y-13604738D02*
X7381564Y-13623786D01*
X7381564Y-13623786D02*
X7372040Y-13633310D01*
X7372040Y-13633310D02*
X7352993Y-13642833D01*
X7352993Y-13642833D02*
X7295850Y-13642833D01*
X7295850Y-13642833D02*
X7276802Y-13633310D01*
X7276802Y-13633310D02*
X7267278Y-13623786D01*
X7505374Y-13528548D02*
X7486326Y-13519024D01*
X7486326Y-13519024D02*
X7476802Y-13509500D01*
X7476802Y-13509500D02*
X7467278Y-13490452D01*
X7467278Y-13490452D02*
X7467278Y-13480929D01*
X7467278Y-13480929D02*
X7476802Y-13461881D01*
X7476802Y-13461881D02*
X7486326Y-13452357D01*
X7486326Y-13452357D02*
X7505374Y-13442833D01*
X7505374Y-13442833D02*
X7543469Y-13442833D01*
X7543469Y-13442833D02*
X7562516Y-13452357D01*
X7562516Y-13452357D02*
X7572040Y-13461881D01*
X7572040Y-13461881D02*
X7581564Y-13480929D01*
X7581564Y-13480929D02*
X7581564Y-13490452D01*
X7581564Y-13490452D02*
X7572040Y-13509500D01*
X7572040Y-13509500D02*
X7562516Y-13519024D01*
X7562516Y-13519024D02*
X7543469Y-13528548D01*
X7543469Y-13528548D02*
X7505374Y-13528548D01*
X7505374Y-13528548D02*
X7486326Y-13538072D01*
X7486326Y-13538072D02*
X7476802Y-13547595D01*
X7476802Y-13547595D02*
X7467278Y-13566643D01*
X7467278Y-13566643D02*
X7467278Y-13604738D01*
X7467278Y-13604738D02*
X7476802Y-13623786D01*
X7476802Y-13623786D02*
X7486326Y-13633310D01*
X7486326Y-13633310D02*
X7505374Y-13642833D01*
X7505374Y-13642833D02*
X7543469Y-13642833D01*
X7543469Y-13642833D02*
X7562516Y-13633310D01*
X7562516Y-13633310D02*
X7572040Y-13623786D01*
X7572040Y-13623786D02*
X7581564Y-13604738D01*
X7581564Y-13604738D02*
X7581564Y-13566643D01*
X7581564Y-13566643D02*
X7572040Y-13547595D01*
X7572040Y-13547595D02*
X7562516Y-13538072D01*
X7562516Y-13538072D02*
X7543469Y-13528548D01*
X7819659Y-13642833D02*
X7819659Y-13442833D01*
X7905374Y-13642833D02*
X7905374Y-13538072D01*
X7905374Y-13538072D02*
X7895850Y-13519024D01*
X7895850Y-13519024D02*
X7876802Y-13509500D01*
X7876802Y-13509500D02*
X7848231Y-13509500D01*
X7848231Y-13509500D02*
X7829183Y-13519024D01*
X7829183Y-13519024D02*
X7819659Y-13528548D01*
X8029183Y-13642833D02*
X8010136Y-13633310D01*
X8010136Y-13633310D02*
X8000612Y-13623786D01*
X8000612Y-13623786D02*
X7991088Y-13604738D01*
X7991088Y-13604738D02*
X7991088Y-13547595D01*
X7991088Y-13547595D02*
X8000612Y-13528548D01*
X8000612Y-13528548D02*
X8010136Y-13519024D01*
X8010136Y-13519024D02*
X8029183Y-13509500D01*
X8029183Y-13509500D02*
X8057755Y-13509500D01*
X8057755Y-13509500D02*
X8076802Y-13519024D01*
X8076802Y-13519024D02*
X8086326Y-13528548D01*
X8086326Y-13528548D02*
X8095850Y-13547595D01*
X8095850Y-13547595D02*
X8095850Y-13604738D01*
X8095850Y-13604738D02*
X8086326Y-13623786D01*
X8086326Y-13623786D02*
X8076802Y-13633310D01*
X8076802Y-13633310D02*
X8057755Y-13642833D01*
X8057755Y-13642833D02*
X8029183Y-13642833D01*
X8210136Y-13642833D02*
X8191088Y-13633310D01*
X8191088Y-13633310D02*
X8181564Y-13614262D01*
X8181564Y-13614262D02*
X8181564Y-13442833D01*
X8362517Y-13633310D02*
X8343469Y-13642833D01*
X8343469Y-13642833D02*
X8305374Y-13642833D01*
X8305374Y-13642833D02*
X8286326Y-13633310D01*
X8286326Y-13633310D02*
X8276802Y-13614262D01*
X8276802Y-13614262D02*
X8276802Y-13538072D01*
X8276802Y-13538072D02*
X8286326Y-13519024D01*
X8286326Y-13519024D02*
X8305374Y-13509500D01*
X8305374Y-13509500D02*
X8343469Y-13509500D01*
X8343469Y-13509500D02*
X8362517Y-13519024D01*
X8362517Y-13519024D02*
X8372040Y-13538072D01*
X8372040Y-13538072D02*
X8372040Y-13557119D01*
X8372040Y-13557119D02*
X8276802Y-13576167D01*
X8448231Y-13633310D02*
X8467279Y-13642833D01*
X8467279Y-13642833D02*
X8505374Y-13642833D01*
X8505374Y-13642833D02*
X8524421Y-13633310D01*
X8524421Y-13633310D02*
X8533945Y-13614262D01*
X8533945Y-13614262D02*
X8533945Y-13604738D01*
X8533945Y-13604738D02*
X8524421Y-13585691D01*
X8524421Y-13585691D02*
X8505374Y-13576167D01*
X8505374Y-13576167D02*
X8476802Y-13576167D01*
X8476802Y-13576167D02*
X8457755Y-13566643D01*
X8457755Y-13566643D02*
X8448231Y-13547595D01*
X8448231Y-13547595D02*
X8448231Y-13538072D01*
X8448231Y-13538072D02*
X8457755Y-13519024D01*
X8457755Y-13519024D02*
X8476802Y-13509500D01*
X8476802Y-13509500D02*
X8505374Y-13509500D01*
X8505374Y-13509500D02*
X8524421Y-13519024D01*
X8600612Y-13719024D02*
X8610136Y-13709500D01*
X8610136Y-13709500D02*
X8629183Y-13680929D01*
X8629183Y-13680929D02*
X8638707Y-13661881D01*
X8638707Y-13661881D02*
X8648231Y-13633310D01*
X8648231Y-13633310D02*
X8657755Y-13585691D01*
X8657755Y-13585691D02*
X8657755Y-13547595D01*
X8657755Y-13547595D02*
X8648231Y-13499976D01*
X8648231Y-13499976D02*
X8638707Y-13471405D01*
X8638707Y-13471405D02*
X8629183Y-13452357D01*
X8629183Y-13452357D02*
X8610136Y-13423786D01*
X8610136Y-13423786D02*
X8600612Y-13414262D01*
X8962517Y-13719024D02*
X8952993Y-13709500D01*
X8952993Y-13709500D02*
X8933945Y-13680929D01*
X8933945Y-13680929D02*
X8924421Y-13661881D01*
X8924421Y-13661881D02*
X8914898Y-13633310D01*
X8914898Y-13633310D02*
X8905374Y-13585691D01*
X8905374Y-13585691D02*
X8905374Y-13547595D01*
X8905374Y-13547595D02*
X8914898Y-13499976D01*
X8914898Y-13499976D02*
X8924421Y-13471405D01*
X8924421Y-13471405D02*
X8933945Y-13452357D01*
X8933945Y-13452357D02*
X8952993Y-13423786D01*
X8952993Y-13423786D02*
X8962517Y-13414262D01*
X9038707Y-13509500D02*
X9038707Y-13642833D01*
X9038707Y-13528548D02*
X9048231Y-13519024D01*
X9048231Y-13519024D02*
X9067279Y-13509500D01*
X9067279Y-13509500D02*
X9095850Y-13509500D01*
X9095850Y-13509500D02*
X9114898Y-13519024D01*
X9114898Y-13519024D02*
X9124421Y-13538072D01*
X9124421Y-13538072D02*
X9124421Y-13642833D01*
X9248231Y-13642833D02*
X9229183Y-13633310D01*
X9229183Y-13633310D02*
X9219660Y-13623786D01*
X9219660Y-13623786D02*
X9210136Y-13604738D01*
X9210136Y-13604738D02*
X9210136Y-13547595D01*
X9210136Y-13547595D02*
X9219660Y-13528548D01*
X9219660Y-13528548D02*
X9229183Y-13519024D01*
X9229183Y-13519024D02*
X9248231Y-13509500D01*
X9248231Y-13509500D02*
X9276802Y-13509500D01*
X9276802Y-13509500D02*
X9295850Y-13519024D01*
X9295850Y-13519024D02*
X9305374Y-13528548D01*
X9305374Y-13528548D02*
X9314898Y-13547595D01*
X9314898Y-13547595D02*
X9314898Y-13604738D01*
X9314898Y-13604738D02*
X9305374Y-13623786D01*
X9305374Y-13623786D02*
X9295850Y-13633310D01*
X9295850Y-13633310D02*
X9276802Y-13642833D01*
X9276802Y-13642833D02*
X9248231Y-13642833D01*
X9372041Y-13509500D02*
X9448231Y-13509500D01*
X9400612Y-13442833D02*
X9400612Y-13614262D01*
X9400612Y-13614262D02*
X9410136Y-13633310D01*
X9410136Y-13633310D02*
X9429183Y-13642833D01*
X9429183Y-13642833D02*
X9448231Y-13642833D01*
X9667279Y-13509500D02*
X9667279Y-13709500D01*
X9667279Y-13519024D02*
X9686326Y-13509500D01*
X9686326Y-13509500D02*
X9724422Y-13509500D01*
X9724422Y-13509500D02*
X9743469Y-13519024D01*
X9743469Y-13519024D02*
X9752993Y-13528548D01*
X9752993Y-13528548D02*
X9762517Y-13547595D01*
X9762517Y-13547595D02*
X9762517Y-13604738D01*
X9762517Y-13604738D02*
X9752993Y-13623786D01*
X9752993Y-13623786D02*
X9743469Y-13633310D01*
X9743469Y-13633310D02*
X9724422Y-13642833D01*
X9724422Y-13642833D02*
X9686326Y-13642833D01*
X9686326Y-13642833D02*
X9667279Y-13633310D01*
X9876802Y-13642833D02*
X9857755Y-13633310D01*
X9857755Y-13633310D02*
X9848231Y-13614262D01*
X9848231Y-13614262D02*
X9848231Y-13442833D01*
X10038707Y-13642833D02*
X10038707Y-13538072D01*
X10038707Y-13538072D02*
X10029183Y-13519024D01*
X10029183Y-13519024D02*
X10010136Y-13509500D01*
X10010136Y-13509500D02*
X9972041Y-13509500D01*
X9972041Y-13509500D02*
X9952993Y-13519024D01*
X10038707Y-13633310D02*
X10019660Y-13642833D01*
X10019660Y-13642833D02*
X9972041Y-13642833D01*
X9972041Y-13642833D02*
X9952993Y-13633310D01*
X9952993Y-13633310D02*
X9943469Y-13614262D01*
X9943469Y-13614262D02*
X9943469Y-13595214D01*
X9943469Y-13595214D02*
X9952993Y-13576167D01*
X9952993Y-13576167D02*
X9972041Y-13566643D01*
X9972041Y-13566643D02*
X10019660Y-13566643D01*
X10019660Y-13566643D02*
X10038707Y-13557119D01*
X10105374Y-13509500D02*
X10181564Y-13509500D01*
X10133945Y-13442833D02*
X10133945Y-13614262D01*
X10133945Y-13614262D02*
X10143469Y-13633310D01*
X10143469Y-13633310D02*
X10162517Y-13642833D01*
X10162517Y-13642833D02*
X10181564Y-13642833D01*
X10324422Y-13633310D02*
X10305374Y-13642833D01*
X10305374Y-13642833D02*
X10267279Y-13642833D01*
X10267279Y-13642833D02*
X10248231Y-13633310D01*
X10248231Y-13633310D02*
X10238707Y-13614262D01*
X10238707Y-13614262D02*
X10238707Y-13538072D01*
X10238707Y-13538072D02*
X10248231Y-13519024D01*
X10248231Y-13519024D02*
X10267279Y-13509500D01*
X10267279Y-13509500D02*
X10305374Y-13509500D01*
X10305374Y-13509500D02*
X10324422Y-13519024D01*
X10324422Y-13519024D02*
X10333945Y-13538072D01*
X10333945Y-13538072D02*
X10333945Y-13557119D01*
X10333945Y-13557119D02*
X10238707Y-13576167D01*
X10505374Y-13642833D02*
X10505374Y-13442833D01*
X10505374Y-13633310D02*
X10486326Y-13642833D01*
X10486326Y-13642833D02*
X10448231Y-13642833D01*
X10448231Y-13642833D02*
X10429183Y-13633310D01*
X10429183Y-13633310D02*
X10419660Y-13623786D01*
X10419660Y-13623786D02*
X10410136Y-13604738D01*
X10410136Y-13604738D02*
X10410136Y-13547595D01*
X10410136Y-13547595D02*
X10419660Y-13528548D01*
X10419660Y-13528548D02*
X10429183Y-13519024D01*
X10429183Y-13519024D02*
X10448231Y-13509500D01*
X10448231Y-13509500D02*
X10486326Y-13509500D01*
X10486326Y-13509500D02*
X10505374Y-13519024D01*
X10581564Y-13719024D02*
X10591088Y-13709500D01*
X10591088Y-13709500D02*
X10610136Y-13680929D01*
X10610136Y-13680929D02*
X10619660Y-13661881D01*
X10619660Y-13661881D02*
X10629183Y-13633310D01*
X10629183Y-13633310D02*
X10638707Y-13585691D01*
X10638707Y-13585691D02*
X10638707Y-13547595D01*
X10638707Y-13547595D02*
X10629183Y-13499976D01*
X10629183Y-13499976D02*
X10619660Y-13471405D01*
X10619660Y-13471405D02*
X10610136Y-13452357D01*
X10610136Y-13452357D02*
X10591088Y-13423786D01*
X10591088Y-13423786D02*
X10581564Y-13414262D01*
X3535073Y-13761350D02*
X3535073Y-13961350D01*
X3435073Y-13861350D02*
X3635073Y-13861350D01*
X3886326Y-13771881D02*
X3895849Y-13762357D01*
X3895849Y-13762357D02*
X3914897Y-13752833D01*
X3914897Y-13752833D02*
X3962516Y-13752833D01*
X3962516Y-13752833D02*
X3981564Y-13762357D01*
X3981564Y-13762357D02*
X3991088Y-13771881D01*
X3991088Y-13771881D02*
X4000611Y-13790929D01*
X4000611Y-13790929D02*
X4000611Y-13809976D01*
X4000611Y-13809976D02*
X3991088Y-13838548D01*
X3991088Y-13838548D02*
X3876802Y-13952833D01*
X3876802Y-13952833D02*
X4000611Y-13952833D01*
X4086326Y-13933786D02*
X4095849Y-13943310D01*
X4095849Y-13943310D02*
X4086326Y-13952833D01*
X4086326Y-13952833D02*
X4076802Y-13943310D01*
X4076802Y-13943310D02*
X4086326Y-13933786D01*
X4086326Y-13933786D02*
X4086326Y-13952833D01*
X4219659Y-13752833D02*
X4238707Y-13752833D01*
X4238707Y-13752833D02*
X4257754Y-13762357D01*
X4257754Y-13762357D02*
X4267278Y-13771881D01*
X4267278Y-13771881D02*
X4276802Y-13790929D01*
X4276802Y-13790929D02*
X4286326Y-13829024D01*
X4286326Y-13829024D02*
X4286326Y-13876643D01*
X4286326Y-13876643D02*
X4276802Y-13914738D01*
X4276802Y-13914738D02*
X4267278Y-13933786D01*
X4267278Y-13933786D02*
X4257754Y-13943310D01*
X4257754Y-13943310D02*
X4238707Y-13952833D01*
X4238707Y-13952833D02*
X4219659Y-13952833D01*
X4219659Y-13952833D02*
X4200611Y-13943310D01*
X4200611Y-13943310D02*
X4191088Y-13933786D01*
X4191088Y-13933786D02*
X4181564Y-13914738D01*
X4181564Y-13914738D02*
X4172040Y-13876643D01*
X4172040Y-13876643D02*
X4172040Y-13829024D01*
X4172040Y-13829024D02*
X4181564Y-13790929D01*
X4181564Y-13790929D02*
X4191088Y-13771881D01*
X4191088Y-13771881D02*
X4200611Y-13762357D01*
X4200611Y-13762357D02*
X4219659Y-13752833D01*
X4410135Y-13752833D02*
X4429183Y-13752833D01*
X4429183Y-13752833D02*
X4448231Y-13762357D01*
X4448231Y-13762357D02*
X4457754Y-13771881D01*
X4457754Y-13771881D02*
X4467278Y-13790929D01*
X4467278Y-13790929D02*
X4476802Y-13829024D01*
X4476802Y-13829024D02*
X4476802Y-13876643D01*
X4476802Y-13876643D02*
X4467278Y-13914738D01*
X4467278Y-13914738D02*
X4457754Y-13933786D01*
X4457754Y-13933786D02*
X4448231Y-13943310D01*
X4448231Y-13943310D02*
X4429183Y-13952833D01*
X4429183Y-13952833D02*
X4410135Y-13952833D01*
X4410135Y-13952833D02*
X4391088Y-13943310D01*
X4391088Y-13943310D02*
X4381564Y-13933786D01*
X4381564Y-13933786D02*
X4372040Y-13914738D01*
X4372040Y-13914738D02*
X4362516Y-13876643D01*
X4362516Y-13876643D02*
X4362516Y-13829024D01*
X4362516Y-13829024D02*
X4372040Y-13790929D01*
X4372040Y-13790929D02*
X4381564Y-13771881D01*
X4381564Y-13771881D02*
X4391088Y-13762357D01*
X4391088Y-13762357D02*
X4410135Y-13752833D01*
X4600611Y-13752833D02*
X4619659Y-13752833D01*
X4619659Y-13752833D02*
X4638707Y-13762357D01*
X4638707Y-13762357D02*
X4648231Y-13771881D01*
X4648231Y-13771881D02*
X4657754Y-13790929D01*
X4657754Y-13790929D02*
X4667278Y-13829024D01*
X4667278Y-13829024D02*
X4667278Y-13876643D01*
X4667278Y-13876643D02*
X4657754Y-13914738D01*
X4657754Y-13914738D02*
X4648231Y-13933786D01*
X4648231Y-13933786D02*
X4638707Y-13943310D01*
X4638707Y-13943310D02*
X4619659Y-13952833D01*
X4619659Y-13952833D02*
X4600611Y-13952833D01*
X4600611Y-13952833D02*
X4581564Y-13943310D01*
X4581564Y-13943310D02*
X4572040Y-13933786D01*
X4572040Y-13933786D02*
X4562516Y-13914738D01*
X4562516Y-13914738D02*
X4552992Y-13876643D01*
X4552992Y-13876643D02*
X4552992Y-13829024D01*
X4552992Y-13829024D02*
X4562516Y-13790929D01*
X4562516Y-13790929D02*
X4572040Y-13771881D01*
X4572040Y-13771881D02*
X4581564Y-13762357D01*
X4581564Y-13762357D02*
X4600611Y-13752833D01*
X4752992Y-13952833D02*
X4752992Y-13819500D01*
X4752992Y-13838548D02*
X4762516Y-13829024D01*
X4762516Y-13829024D02*
X4781564Y-13819500D01*
X4781564Y-13819500D02*
X4810135Y-13819500D01*
X4810135Y-13819500D02*
X4829183Y-13829024D01*
X4829183Y-13829024D02*
X4838707Y-13848072D01*
X4838707Y-13848072D02*
X4838707Y-13952833D01*
X4838707Y-13848072D02*
X4848231Y-13829024D01*
X4848231Y-13829024D02*
X4867278Y-13819500D01*
X4867278Y-13819500D02*
X4895850Y-13819500D01*
X4895850Y-13819500D02*
X4914897Y-13829024D01*
X4914897Y-13829024D02*
X4924421Y-13848072D01*
X4924421Y-13848072D02*
X4924421Y-13952833D01*
X5019659Y-13952833D02*
X5019659Y-13819500D01*
X5019659Y-13838548D02*
X5029183Y-13829024D01*
X5029183Y-13829024D02*
X5048231Y-13819500D01*
X5048231Y-13819500D02*
X5076802Y-13819500D01*
X5076802Y-13819500D02*
X5095850Y-13829024D01*
X5095850Y-13829024D02*
X5105373Y-13848072D01*
X5105373Y-13848072D02*
X5105373Y-13952833D01*
X5105373Y-13848072D02*
X5114897Y-13829024D01*
X5114897Y-13829024D02*
X5133945Y-13819500D01*
X5133945Y-13819500D02*
X5162516Y-13819500D01*
X5162516Y-13819500D02*
X5181564Y-13829024D01*
X5181564Y-13829024D02*
X5191088Y-13848072D01*
X5191088Y-13848072D02*
X5191088Y-13952833D01*
X5581564Y-13743310D02*
X5410135Y-14000452D01*
X5838707Y-13752833D02*
X5857754Y-13752833D01*
X5857754Y-13752833D02*
X5876802Y-13762357D01*
X5876802Y-13762357D02*
X5886326Y-13771881D01*
X5886326Y-13771881D02*
X5895850Y-13790929D01*
X5895850Y-13790929D02*
X5905373Y-13829024D01*
X5905373Y-13829024D02*
X5905373Y-13876643D01*
X5905373Y-13876643D02*
X5895850Y-13914738D01*
X5895850Y-13914738D02*
X5886326Y-13933786D01*
X5886326Y-13933786D02*
X5876802Y-13943310D01*
X5876802Y-13943310D02*
X5857754Y-13952833D01*
X5857754Y-13952833D02*
X5838707Y-13952833D01*
X5838707Y-13952833D02*
X5819659Y-13943310D01*
X5819659Y-13943310D02*
X5810135Y-13933786D01*
X5810135Y-13933786D02*
X5800612Y-13914738D01*
X5800612Y-13914738D02*
X5791088Y-13876643D01*
X5791088Y-13876643D02*
X5791088Y-13829024D01*
X5791088Y-13829024D02*
X5800612Y-13790929D01*
X5800612Y-13790929D02*
X5810135Y-13771881D01*
X5810135Y-13771881D02*
X5819659Y-13762357D01*
X5819659Y-13762357D02*
X5838707Y-13752833D01*
X5991088Y-13933786D02*
X6000612Y-13943310D01*
X6000612Y-13943310D02*
X5991088Y-13952833D01*
X5991088Y-13952833D02*
X5981564Y-13943310D01*
X5981564Y-13943310D02*
X5991088Y-13933786D01*
X5991088Y-13933786D02*
X5991088Y-13952833D01*
X6124421Y-13752833D02*
X6143469Y-13752833D01*
X6143469Y-13752833D02*
X6162516Y-13762357D01*
X6162516Y-13762357D02*
X6172040Y-13771881D01*
X6172040Y-13771881D02*
X6181564Y-13790929D01*
X6181564Y-13790929D02*
X6191088Y-13829024D01*
X6191088Y-13829024D02*
X6191088Y-13876643D01*
X6191088Y-13876643D02*
X6181564Y-13914738D01*
X6181564Y-13914738D02*
X6172040Y-13933786D01*
X6172040Y-13933786D02*
X6162516Y-13943310D01*
X6162516Y-13943310D02*
X6143469Y-13952833D01*
X6143469Y-13952833D02*
X6124421Y-13952833D01*
X6124421Y-13952833D02*
X6105373Y-13943310D01*
X6105373Y-13943310D02*
X6095850Y-13933786D01*
X6095850Y-13933786D02*
X6086326Y-13914738D01*
X6086326Y-13914738D02*
X6076802Y-13876643D01*
X6076802Y-13876643D02*
X6076802Y-13829024D01*
X6076802Y-13829024D02*
X6086326Y-13790929D01*
X6086326Y-13790929D02*
X6095850Y-13771881D01*
X6095850Y-13771881D02*
X6105373Y-13762357D01*
X6105373Y-13762357D02*
X6124421Y-13752833D01*
X6257754Y-13752833D02*
X6391088Y-13752833D01*
X6391088Y-13752833D02*
X6305373Y-13952833D01*
X6495850Y-13838548D02*
X6476802Y-13829024D01*
X6476802Y-13829024D02*
X6467278Y-13819500D01*
X6467278Y-13819500D02*
X6457754Y-13800452D01*
X6457754Y-13800452D02*
X6457754Y-13790929D01*
X6457754Y-13790929D02*
X6467278Y-13771881D01*
X6467278Y-13771881D02*
X6476802Y-13762357D01*
X6476802Y-13762357D02*
X6495850Y-13752833D01*
X6495850Y-13752833D02*
X6533945Y-13752833D01*
X6533945Y-13752833D02*
X6552993Y-13762357D01*
X6552993Y-13762357D02*
X6562516Y-13771881D01*
X6562516Y-13771881D02*
X6572040Y-13790929D01*
X6572040Y-13790929D02*
X6572040Y-13800452D01*
X6572040Y-13800452D02*
X6562516Y-13819500D01*
X6562516Y-13819500D02*
X6552993Y-13829024D01*
X6552993Y-13829024D02*
X6533945Y-13838548D01*
X6533945Y-13838548D02*
X6495850Y-13838548D01*
X6495850Y-13838548D02*
X6476802Y-13848072D01*
X6476802Y-13848072D02*
X6467278Y-13857595D01*
X6467278Y-13857595D02*
X6457754Y-13876643D01*
X6457754Y-13876643D02*
X6457754Y-13914738D01*
X6457754Y-13914738D02*
X6467278Y-13933786D01*
X6467278Y-13933786D02*
X6476802Y-13943310D01*
X6476802Y-13943310D02*
X6495850Y-13952833D01*
X6495850Y-13952833D02*
X6533945Y-13952833D01*
X6533945Y-13952833D02*
X6552993Y-13943310D01*
X6552993Y-13943310D02*
X6562516Y-13933786D01*
X6562516Y-13933786D02*
X6572040Y-13914738D01*
X6572040Y-13914738D02*
X6572040Y-13876643D01*
X6572040Y-13876643D02*
X6562516Y-13857595D01*
X6562516Y-13857595D02*
X6552993Y-13848072D01*
X6552993Y-13848072D02*
X6533945Y-13838548D01*
X6638707Y-13752833D02*
X6772040Y-13752833D01*
X6772040Y-13752833D02*
X6686326Y-13952833D01*
X6838707Y-13752833D02*
X6838707Y-13790929D01*
X6914897Y-13752833D02*
X6914897Y-13790929D01*
X7210136Y-14029024D02*
X7200612Y-14019500D01*
X7200612Y-14019500D02*
X7181564Y-13990929D01*
X7181564Y-13990929D02*
X7172040Y-13971881D01*
X7172040Y-13971881D02*
X7162516Y-13943310D01*
X7162516Y-13943310D02*
X7152993Y-13895691D01*
X7152993Y-13895691D02*
X7152993Y-13857595D01*
X7152993Y-13857595D02*
X7162516Y-13809976D01*
X7162516Y-13809976D02*
X7172040Y-13781405D01*
X7172040Y-13781405D02*
X7181564Y-13762357D01*
X7181564Y-13762357D02*
X7200612Y-13733786D01*
X7200612Y-13733786D02*
X7210136Y-13724262D01*
X7276802Y-13771881D02*
X7286326Y-13762357D01*
X7286326Y-13762357D02*
X7305374Y-13752833D01*
X7305374Y-13752833D02*
X7352993Y-13752833D01*
X7352993Y-13752833D02*
X7372040Y-13762357D01*
X7372040Y-13762357D02*
X7381564Y-13771881D01*
X7381564Y-13771881D02*
X7391088Y-13790929D01*
X7391088Y-13790929D02*
X7391088Y-13809976D01*
X7391088Y-13809976D02*
X7381564Y-13838548D01*
X7381564Y-13838548D02*
X7267278Y-13952833D01*
X7267278Y-13952833D02*
X7391088Y-13952833D01*
X7629183Y-13952833D02*
X7629183Y-13752833D01*
X7714897Y-13952833D02*
X7714897Y-13848072D01*
X7714897Y-13848072D02*
X7705374Y-13829024D01*
X7705374Y-13829024D02*
X7686326Y-13819500D01*
X7686326Y-13819500D02*
X7657755Y-13819500D01*
X7657755Y-13819500D02*
X7638707Y-13829024D01*
X7638707Y-13829024D02*
X7629183Y-13838548D01*
X7838707Y-13952833D02*
X7819659Y-13943310D01*
X7819659Y-13943310D02*
X7810136Y-13933786D01*
X7810136Y-13933786D02*
X7800612Y-13914738D01*
X7800612Y-13914738D02*
X7800612Y-13857595D01*
X7800612Y-13857595D02*
X7810136Y-13838548D01*
X7810136Y-13838548D02*
X7819659Y-13829024D01*
X7819659Y-13829024D02*
X7838707Y-13819500D01*
X7838707Y-13819500D02*
X7867278Y-13819500D01*
X7867278Y-13819500D02*
X7886326Y-13829024D01*
X7886326Y-13829024D02*
X7895850Y-13838548D01*
X7895850Y-13838548D02*
X7905374Y-13857595D01*
X7905374Y-13857595D02*
X7905374Y-13914738D01*
X7905374Y-13914738D02*
X7895850Y-13933786D01*
X7895850Y-13933786D02*
X7886326Y-13943310D01*
X7886326Y-13943310D02*
X7867278Y-13952833D01*
X7867278Y-13952833D02*
X7838707Y-13952833D01*
X8019659Y-13952833D02*
X8000612Y-13943310D01*
X8000612Y-13943310D02*
X7991088Y-13924262D01*
X7991088Y-13924262D02*
X7991088Y-13752833D01*
X8172040Y-13943310D02*
X8152993Y-13952833D01*
X8152993Y-13952833D02*
X8114897Y-13952833D01*
X8114897Y-13952833D02*
X8095850Y-13943310D01*
X8095850Y-13943310D02*
X8086326Y-13924262D01*
X8086326Y-13924262D02*
X8086326Y-13848072D01*
X8086326Y-13848072D02*
X8095850Y-13829024D01*
X8095850Y-13829024D02*
X8114897Y-13819500D01*
X8114897Y-13819500D02*
X8152993Y-13819500D01*
X8152993Y-13819500D02*
X8172040Y-13829024D01*
X8172040Y-13829024D02*
X8181564Y-13848072D01*
X8181564Y-13848072D02*
X8181564Y-13867119D01*
X8181564Y-13867119D02*
X8086326Y-13886167D01*
X8257755Y-13943310D02*
X8276802Y-13952833D01*
X8276802Y-13952833D02*
X8314897Y-13952833D01*
X8314897Y-13952833D02*
X8333945Y-13943310D01*
X8333945Y-13943310D02*
X8343469Y-13924262D01*
X8343469Y-13924262D02*
X8343469Y-13914738D01*
X8343469Y-13914738D02*
X8333945Y-13895691D01*
X8333945Y-13895691D02*
X8314897Y-13886167D01*
X8314897Y-13886167D02*
X8286326Y-13886167D01*
X8286326Y-13886167D02*
X8267278Y-13876643D01*
X8267278Y-13876643D02*
X8257755Y-13857595D01*
X8257755Y-13857595D02*
X8257755Y-13848072D01*
X8257755Y-13848072D02*
X8267278Y-13829024D01*
X8267278Y-13829024D02*
X8286326Y-13819500D01*
X8286326Y-13819500D02*
X8314897Y-13819500D01*
X8314897Y-13819500D02*
X8333945Y-13829024D01*
X8410136Y-14029024D02*
X8419660Y-14019500D01*
X8419660Y-14019500D02*
X8438707Y-13990929D01*
X8438707Y-13990929D02*
X8448231Y-13971881D01*
X8448231Y-13971881D02*
X8457755Y-13943310D01*
X8457755Y-13943310D02*
X8467279Y-13895691D01*
X8467279Y-13895691D02*
X8467279Y-13857595D01*
X8467279Y-13857595D02*
X8457755Y-13809976D01*
X8457755Y-13809976D02*
X8448231Y-13781405D01*
X8448231Y-13781405D02*
X8438707Y-13762357D01*
X8438707Y-13762357D02*
X8419660Y-13733786D01*
X8419660Y-13733786D02*
X8410136Y-13724262D01*
X8772041Y-14029024D02*
X8762517Y-14019500D01*
X8762517Y-14019500D02*
X8743469Y-13990929D01*
X8743469Y-13990929D02*
X8733945Y-13971881D01*
X8733945Y-13971881D02*
X8724421Y-13943310D01*
X8724421Y-13943310D02*
X8714898Y-13895691D01*
X8714898Y-13895691D02*
X8714898Y-13857595D01*
X8714898Y-13857595D02*
X8724421Y-13809976D01*
X8724421Y-13809976D02*
X8733945Y-13781405D01*
X8733945Y-13781405D02*
X8743469Y-13762357D01*
X8743469Y-13762357D02*
X8762517Y-13733786D01*
X8762517Y-13733786D02*
X8772041Y-13724262D01*
X8848231Y-13819500D02*
X8848231Y-13952833D01*
X8848231Y-13838548D02*
X8857755Y-13829024D01*
X8857755Y-13829024D02*
X8876802Y-13819500D01*
X8876802Y-13819500D02*
X8905374Y-13819500D01*
X8905374Y-13819500D02*
X8924421Y-13829024D01*
X8924421Y-13829024D02*
X8933945Y-13848072D01*
X8933945Y-13848072D02*
X8933945Y-13952833D01*
X9057755Y-13952833D02*
X9038707Y-13943310D01*
X9038707Y-13943310D02*
X9029183Y-13933786D01*
X9029183Y-13933786D02*
X9019660Y-13914738D01*
X9019660Y-13914738D02*
X9019660Y-13857595D01*
X9019660Y-13857595D02*
X9029183Y-13838548D01*
X9029183Y-13838548D02*
X9038707Y-13829024D01*
X9038707Y-13829024D02*
X9057755Y-13819500D01*
X9057755Y-13819500D02*
X9086326Y-13819500D01*
X9086326Y-13819500D02*
X9105374Y-13829024D01*
X9105374Y-13829024D02*
X9114898Y-13838548D01*
X9114898Y-13838548D02*
X9124421Y-13857595D01*
X9124421Y-13857595D02*
X9124421Y-13914738D01*
X9124421Y-13914738D02*
X9114898Y-13933786D01*
X9114898Y-13933786D02*
X9105374Y-13943310D01*
X9105374Y-13943310D02*
X9086326Y-13952833D01*
X9086326Y-13952833D02*
X9057755Y-13952833D01*
X9181564Y-13819500D02*
X9257755Y-13819500D01*
X9210136Y-13752833D02*
X9210136Y-13924262D01*
X9210136Y-13924262D02*
X9219660Y-13943310D01*
X9219660Y-13943310D02*
X9238707Y-13952833D01*
X9238707Y-13952833D02*
X9257755Y-13952833D01*
X9476802Y-13819500D02*
X9476802Y-14019500D01*
X9476802Y-13829024D02*
X9495850Y-13819500D01*
X9495850Y-13819500D02*
X9533945Y-13819500D01*
X9533945Y-13819500D02*
X9552993Y-13829024D01*
X9552993Y-13829024D02*
X9562517Y-13838548D01*
X9562517Y-13838548D02*
X9572041Y-13857595D01*
X9572041Y-13857595D02*
X9572041Y-13914738D01*
X9572041Y-13914738D02*
X9562517Y-13933786D01*
X9562517Y-13933786D02*
X9552993Y-13943310D01*
X9552993Y-13943310D02*
X9533945Y-13952833D01*
X9533945Y-13952833D02*
X9495850Y-13952833D01*
X9495850Y-13952833D02*
X9476802Y-13943310D01*
X9686326Y-13952833D02*
X9667279Y-13943310D01*
X9667279Y-13943310D02*
X9657755Y-13924262D01*
X9657755Y-13924262D02*
X9657755Y-13752833D01*
X9848231Y-13952833D02*
X9848231Y-13848072D01*
X9848231Y-13848072D02*
X9838707Y-13829024D01*
X9838707Y-13829024D02*
X9819660Y-13819500D01*
X9819660Y-13819500D02*
X9781564Y-13819500D01*
X9781564Y-13819500D02*
X9762517Y-13829024D01*
X9848231Y-13943310D02*
X9829183Y-13952833D01*
X9829183Y-13952833D02*
X9781564Y-13952833D01*
X9781564Y-13952833D02*
X9762517Y-13943310D01*
X9762517Y-13943310D02*
X9752993Y-13924262D01*
X9752993Y-13924262D02*
X9752993Y-13905214D01*
X9752993Y-13905214D02*
X9762517Y-13886167D01*
X9762517Y-13886167D02*
X9781564Y-13876643D01*
X9781564Y-13876643D02*
X9829183Y-13876643D01*
X9829183Y-13876643D02*
X9848231Y-13867119D01*
X9914898Y-13819500D02*
X9991088Y-13819500D01*
X9943469Y-13752833D02*
X9943469Y-13924262D01*
X9943469Y-13924262D02*
X9952993Y-13943310D01*
X9952993Y-13943310D02*
X9972041Y-13952833D01*
X9972041Y-13952833D02*
X9991088Y-13952833D01*
X10133945Y-13943310D02*
X10114898Y-13952833D01*
X10114898Y-13952833D02*
X10076802Y-13952833D01*
X10076802Y-13952833D02*
X10057755Y-13943310D01*
X10057755Y-13943310D02*
X10048231Y-13924262D01*
X10048231Y-13924262D02*
X10048231Y-13848072D01*
X10048231Y-13848072D02*
X10057755Y-13829024D01*
X10057755Y-13829024D02*
X10076802Y-13819500D01*
X10076802Y-13819500D02*
X10114898Y-13819500D01*
X10114898Y-13819500D02*
X10133945Y-13829024D01*
X10133945Y-13829024D02*
X10143469Y-13848072D01*
X10143469Y-13848072D02*
X10143469Y-13867119D01*
X10143469Y-13867119D02*
X10048231Y-13886167D01*
X10314898Y-13952833D02*
X10314898Y-13752833D01*
X10314898Y-13943310D02*
X10295850Y-13952833D01*
X10295850Y-13952833D02*
X10257755Y-13952833D01*
X10257755Y-13952833D02*
X10238707Y-13943310D01*
X10238707Y-13943310D02*
X10229183Y-13933786D01*
X10229183Y-13933786D02*
X10219660Y-13914738D01*
X10219660Y-13914738D02*
X10219660Y-13857595D01*
X10219660Y-13857595D02*
X10229183Y-13838548D01*
X10229183Y-13838548D02*
X10238707Y-13829024D01*
X10238707Y-13829024D02*
X10257755Y-13819500D01*
X10257755Y-13819500D02*
X10295850Y-13819500D01*
X10295850Y-13819500D02*
X10314898Y-13829024D01*
X10391088Y-14029024D02*
X10400612Y-14019500D01*
X10400612Y-14019500D02*
X10419660Y-13990929D01*
X10419660Y-13990929D02*
X10429183Y-13971881D01*
X10429183Y-13971881D02*
X10438707Y-13943310D01*
X10438707Y-13943310D02*
X10448231Y-13895691D01*
X10448231Y-13895691D02*
X10448231Y-13857595D01*
X10448231Y-13857595D02*
X10438707Y-13809976D01*
X10438707Y-13809976D02*
X10429183Y-13781405D01*
X10429183Y-13781405D02*
X10419660Y-13762357D01*
X10419660Y-13762357D02*
X10400612Y-13733786D01*
X10400612Y-13733786D02*
X10391088Y-13724262D01*
X3605784Y-14252061D02*
X3605784Y-14110638D01*
X3464361Y-14110638D01*
X3464361Y-14252061D01*
X3605784Y-14252061D01*
X3876802Y-14072833D02*
X4000611Y-14072833D01*
X4000611Y-14072833D02*
X3933945Y-14149024D01*
X3933945Y-14149024D02*
X3962516Y-14149024D01*
X3962516Y-14149024D02*
X3981564Y-14158548D01*
X3981564Y-14158548D02*
X3991088Y-14168072D01*
X3991088Y-14168072D02*
X4000611Y-14187119D01*
X4000611Y-14187119D02*
X4000611Y-14234738D01*
X4000611Y-14234738D02*
X3991088Y-14253786D01*
X3991088Y-14253786D02*
X3981564Y-14263310D01*
X3981564Y-14263310D02*
X3962516Y-14272833D01*
X3962516Y-14272833D02*
X3905373Y-14272833D01*
X3905373Y-14272833D02*
X3886326Y-14263310D01*
X3886326Y-14263310D02*
X3876802Y-14253786D01*
X4086326Y-14253786D02*
X4095849Y-14263310D01*
X4095849Y-14263310D02*
X4086326Y-14272833D01*
X4086326Y-14272833D02*
X4076802Y-14263310D01*
X4076802Y-14263310D02*
X4086326Y-14253786D01*
X4086326Y-14253786D02*
X4086326Y-14272833D01*
X4219659Y-14072833D02*
X4238707Y-14072833D01*
X4238707Y-14072833D02*
X4257754Y-14082357D01*
X4257754Y-14082357D02*
X4267278Y-14091881D01*
X4267278Y-14091881D02*
X4276802Y-14110929D01*
X4276802Y-14110929D02*
X4286326Y-14149024D01*
X4286326Y-14149024D02*
X4286326Y-14196643D01*
X4286326Y-14196643D02*
X4276802Y-14234738D01*
X4276802Y-14234738D02*
X4267278Y-14253786D01*
X4267278Y-14253786D02*
X4257754Y-14263310D01*
X4257754Y-14263310D02*
X4238707Y-14272833D01*
X4238707Y-14272833D02*
X4219659Y-14272833D01*
X4219659Y-14272833D02*
X4200611Y-14263310D01*
X4200611Y-14263310D02*
X4191088Y-14253786D01*
X4191088Y-14253786D02*
X4181564Y-14234738D01*
X4181564Y-14234738D02*
X4172040Y-14196643D01*
X4172040Y-14196643D02*
X4172040Y-14149024D01*
X4172040Y-14149024D02*
X4181564Y-14110929D01*
X4181564Y-14110929D02*
X4191088Y-14091881D01*
X4191088Y-14091881D02*
X4200611Y-14082357D01*
X4200611Y-14082357D02*
X4219659Y-14072833D01*
X4410135Y-14072833D02*
X4429183Y-14072833D01*
X4429183Y-14072833D02*
X4448231Y-14082357D01*
X4448231Y-14082357D02*
X4457754Y-14091881D01*
X4457754Y-14091881D02*
X4467278Y-14110929D01*
X4467278Y-14110929D02*
X4476802Y-14149024D01*
X4476802Y-14149024D02*
X4476802Y-14196643D01*
X4476802Y-14196643D02*
X4467278Y-14234738D01*
X4467278Y-14234738D02*
X4457754Y-14253786D01*
X4457754Y-14253786D02*
X4448231Y-14263310D01*
X4448231Y-14263310D02*
X4429183Y-14272833D01*
X4429183Y-14272833D02*
X4410135Y-14272833D01*
X4410135Y-14272833D02*
X4391088Y-14263310D01*
X4391088Y-14263310D02*
X4381564Y-14253786D01*
X4381564Y-14253786D02*
X4372040Y-14234738D01*
X4372040Y-14234738D02*
X4362516Y-14196643D01*
X4362516Y-14196643D02*
X4362516Y-14149024D01*
X4362516Y-14149024D02*
X4372040Y-14110929D01*
X4372040Y-14110929D02*
X4381564Y-14091881D01*
X4381564Y-14091881D02*
X4391088Y-14082357D01*
X4391088Y-14082357D02*
X4410135Y-14072833D01*
X4600611Y-14072833D02*
X4619659Y-14072833D01*
X4619659Y-14072833D02*
X4638707Y-14082357D01*
X4638707Y-14082357D02*
X4648231Y-14091881D01*
X4648231Y-14091881D02*
X4657754Y-14110929D01*
X4657754Y-14110929D02*
X4667278Y-14149024D01*
X4667278Y-14149024D02*
X4667278Y-14196643D01*
X4667278Y-14196643D02*
X4657754Y-14234738D01*
X4657754Y-14234738D02*
X4648231Y-14253786D01*
X4648231Y-14253786D02*
X4638707Y-14263310D01*
X4638707Y-14263310D02*
X4619659Y-14272833D01*
X4619659Y-14272833D02*
X4600611Y-14272833D01*
X4600611Y-14272833D02*
X4581564Y-14263310D01*
X4581564Y-14263310D02*
X4572040Y-14253786D01*
X4572040Y-14253786D02*
X4562516Y-14234738D01*
X4562516Y-14234738D02*
X4552992Y-14196643D01*
X4552992Y-14196643D02*
X4552992Y-14149024D01*
X4552992Y-14149024D02*
X4562516Y-14110929D01*
X4562516Y-14110929D02*
X4572040Y-14091881D01*
X4572040Y-14091881D02*
X4581564Y-14082357D01*
X4581564Y-14082357D02*
X4600611Y-14072833D01*
X4752992Y-14272833D02*
X4752992Y-14139500D01*
X4752992Y-14158548D02*
X4762516Y-14149024D01*
X4762516Y-14149024D02*
X4781564Y-14139500D01*
X4781564Y-14139500D02*
X4810135Y-14139500D01*
X4810135Y-14139500D02*
X4829183Y-14149024D01*
X4829183Y-14149024D02*
X4838707Y-14168072D01*
X4838707Y-14168072D02*
X4838707Y-14272833D01*
X4838707Y-14168072D02*
X4848231Y-14149024D01*
X4848231Y-14149024D02*
X4867278Y-14139500D01*
X4867278Y-14139500D02*
X4895850Y-14139500D01*
X4895850Y-14139500D02*
X4914897Y-14149024D01*
X4914897Y-14149024D02*
X4924421Y-14168072D01*
X4924421Y-14168072D02*
X4924421Y-14272833D01*
X5019659Y-14272833D02*
X5019659Y-14139500D01*
X5019659Y-14158548D02*
X5029183Y-14149024D01*
X5029183Y-14149024D02*
X5048231Y-14139500D01*
X5048231Y-14139500D02*
X5076802Y-14139500D01*
X5076802Y-14139500D02*
X5095850Y-14149024D01*
X5095850Y-14149024D02*
X5105373Y-14168072D01*
X5105373Y-14168072D02*
X5105373Y-14272833D01*
X5105373Y-14168072D02*
X5114897Y-14149024D01*
X5114897Y-14149024D02*
X5133945Y-14139500D01*
X5133945Y-14139500D02*
X5162516Y-14139500D01*
X5162516Y-14139500D02*
X5181564Y-14149024D01*
X5181564Y-14149024D02*
X5191088Y-14168072D01*
X5191088Y-14168072D02*
X5191088Y-14272833D01*
X5581564Y-14063310D02*
X5410135Y-14320452D01*
X5838707Y-14072833D02*
X5857754Y-14072833D01*
X5857754Y-14072833D02*
X5876802Y-14082357D01*
X5876802Y-14082357D02*
X5886326Y-14091881D01*
X5886326Y-14091881D02*
X5895850Y-14110929D01*
X5895850Y-14110929D02*
X5905373Y-14149024D01*
X5905373Y-14149024D02*
X5905373Y-14196643D01*
X5905373Y-14196643D02*
X5895850Y-14234738D01*
X5895850Y-14234738D02*
X5886326Y-14253786D01*
X5886326Y-14253786D02*
X5876802Y-14263310D01*
X5876802Y-14263310D02*
X5857754Y-14272833D01*
X5857754Y-14272833D02*
X5838707Y-14272833D01*
X5838707Y-14272833D02*
X5819659Y-14263310D01*
X5819659Y-14263310D02*
X5810135Y-14253786D01*
X5810135Y-14253786D02*
X5800612Y-14234738D01*
X5800612Y-14234738D02*
X5791088Y-14196643D01*
X5791088Y-14196643D02*
X5791088Y-14149024D01*
X5791088Y-14149024D02*
X5800612Y-14110929D01*
X5800612Y-14110929D02*
X5810135Y-14091881D01*
X5810135Y-14091881D02*
X5819659Y-14082357D01*
X5819659Y-14082357D02*
X5838707Y-14072833D01*
X5991088Y-14253786D02*
X6000612Y-14263310D01*
X6000612Y-14263310D02*
X5991088Y-14272833D01*
X5991088Y-14272833D02*
X5981564Y-14263310D01*
X5981564Y-14263310D02*
X5991088Y-14253786D01*
X5991088Y-14253786D02*
X5991088Y-14272833D01*
X6191088Y-14272833D02*
X6076802Y-14272833D01*
X6133945Y-14272833D02*
X6133945Y-14072833D01*
X6133945Y-14072833D02*
X6114897Y-14101405D01*
X6114897Y-14101405D02*
X6095850Y-14120452D01*
X6095850Y-14120452D02*
X6076802Y-14129976D01*
X6381564Y-14272833D02*
X6267278Y-14272833D01*
X6324421Y-14272833D02*
X6324421Y-14072833D01*
X6324421Y-14072833D02*
X6305373Y-14101405D01*
X6305373Y-14101405D02*
X6286326Y-14120452D01*
X6286326Y-14120452D02*
X6267278Y-14129976D01*
X6495850Y-14158548D02*
X6476802Y-14149024D01*
X6476802Y-14149024D02*
X6467278Y-14139500D01*
X6467278Y-14139500D02*
X6457754Y-14120452D01*
X6457754Y-14120452D02*
X6457754Y-14110929D01*
X6457754Y-14110929D02*
X6467278Y-14091881D01*
X6467278Y-14091881D02*
X6476802Y-14082357D01*
X6476802Y-14082357D02*
X6495850Y-14072833D01*
X6495850Y-14072833D02*
X6533945Y-14072833D01*
X6533945Y-14072833D02*
X6552993Y-14082357D01*
X6552993Y-14082357D02*
X6562516Y-14091881D01*
X6562516Y-14091881D02*
X6572040Y-14110929D01*
X6572040Y-14110929D02*
X6572040Y-14120452D01*
X6572040Y-14120452D02*
X6562516Y-14139500D01*
X6562516Y-14139500D02*
X6552993Y-14149024D01*
X6552993Y-14149024D02*
X6533945Y-14158548D01*
X6533945Y-14158548D02*
X6495850Y-14158548D01*
X6495850Y-14158548D02*
X6476802Y-14168072D01*
X6476802Y-14168072D02*
X6467278Y-14177595D01*
X6467278Y-14177595D02*
X6457754Y-14196643D01*
X6457754Y-14196643D02*
X6457754Y-14234738D01*
X6457754Y-14234738D02*
X6467278Y-14253786D01*
X6467278Y-14253786D02*
X6476802Y-14263310D01*
X6476802Y-14263310D02*
X6495850Y-14272833D01*
X6495850Y-14272833D02*
X6533945Y-14272833D01*
X6533945Y-14272833D02*
X6552993Y-14263310D01*
X6552993Y-14263310D02*
X6562516Y-14253786D01*
X6562516Y-14253786D02*
X6572040Y-14234738D01*
X6572040Y-14234738D02*
X6572040Y-14196643D01*
X6572040Y-14196643D02*
X6562516Y-14177595D01*
X6562516Y-14177595D02*
X6552993Y-14168072D01*
X6552993Y-14168072D02*
X6533945Y-14158548D01*
X6762516Y-14272833D02*
X6648231Y-14272833D01*
X6705373Y-14272833D02*
X6705373Y-14072833D01*
X6705373Y-14072833D02*
X6686326Y-14101405D01*
X6686326Y-14101405D02*
X6667278Y-14120452D01*
X6667278Y-14120452D02*
X6648231Y-14129976D01*
X6838707Y-14072833D02*
X6838707Y-14110929D01*
X6914897Y-14072833D02*
X6914897Y-14110929D01*
X7210136Y-14349024D02*
X7200612Y-14339500D01*
X7200612Y-14339500D02*
X7181564Y-14310929D01*
X7181564Y-14310929D02*
X7172040Y-14291881D01*
X7172040Y-14291881D02*
X7162516Y-14263310D01*
X7162516Y-14263310D02*
X7152993Y-14215691D01*
X7152993Y-14215691D02*
X7152993Y-14177595D01*
X7152993Y-14177595D02*
X7162516Y-14129976D01*
X7162516Y-14129976D02*
X7172040Y-14101405D01*
X7172040Y-14101405D02*
X7181564Y-14082357D01*
X7181564Y-14082357D02*
X7200612Y-14053786D01*
X7200612Y-14053786D02*
X7210136Y-14044262D01*
X7381564Y-14072833D02*
X7286326Y-14072833D01*
X7286326Y-14072833D02*
X7276802Y-14168072D01*
X7276802Y-14168072D02*
X7286326Y-14158548D01*
X7286326Y-14158548D02*
X7305374Y-14149024D01*
X7305374Y-14149024D02*
X7352993Y-14149024D01*
X7352993Y-14149024D02*
X7372040Y-14158548D01*
X7372040Y-14158548D02*
X7381564Y-14168072D01*
X7381564Y-14168072D02*
X7391088Y-14187119D01*
X7391088Y-14187119D02*
X7391088Y-14234738D01*
X7391088Y-14234738D02*
X7381564Y-14253786D01*
X7381564Y-14253786D02*
X7372040Y-14263310D01*
X7372040Y-14263310D02*
X7352993Y-14272833D01*
X7352993Y-14272833D02*
X7305374Y-14272833D01*
X7305374Y-14272833D02*
X7286326Y-14263310D01*
X7286326Y-14263310D02*
X7276802Y-14253786D01*
X7457755Y-14072833D02*
X7591088Y-14072833D01*
X7591088Y-14072833D02*
X7505374Y-14272833D01*
X7819659Y-14272833D02*
X7819659Y-14072833D01*
X7905374Y-14272833D02*
X7905374Y-14168072D01*
X7905374Y-14168072D02*
X7895850Y-14149024D01*
X7895850Y-14149024D02*
X7876802Y-14139500D01*
X7876802Y-14139500D02*
X7848231Y-14139500D01*
X7848231Y-14139500D02*
X7829183Y-14149024D01*
X7829183Y-14149024D02*
X7819659Y-14158548D01*
X8029183Y-14272833D02*
X8010136Y-14263310D01*
X8010136Y-14263310D02*
X8000612Y-14253786D01*
X8000612Y-14253786D02*
X7991088Y-14234738D01*
X7991088Y-14234738D02*
X7991088Y-14177595D01*
X7991088Y-14177595D02*
X8000612Y-14158548D01*
X8000612Y-14158548D02*
X8010136Y-14149024D01*
X8010136Y-14149024D02*
X8029183Y-14139500D01*
X8029183Y-14139500D02*
X8057755Y-14139500D01*
X8057755Y-14139500D02*
X8076802Y-14149024D01*
X8076802Y-14149024D02*
X8086326Y-14158548D01*
X8086326Y-14158548D02*
X8095850Y-14177595D01*
X8095850Y-14177595D02*
X8095850Y-14234738D01*
X8095850Y-14234738D02*
X8086326Y-14253786D01*
X8086326Y-14253786D02*
X8076802Y-14263310D01*
X8076802Y-14263310D02*
X8057755Y-14272833D01*
X8057755Y-14272833D02*
X8029183Y-14272833D01*
X8210136Y-14272833D02*
X8191088Y-14263310D01*
X8191088Y-14263310D02*
X8181564Y-14244262D01*
X8181564Y-14244262D02*
X8181564Y-14072833D01*
X8362517Y-14263310D02*
X8343469Y-14272833D01*
X8343469Y-14272833D02*
X8305374Y-14272833D01*
X8305374Y-14272833D02*
X8286326Y-14263310D01*
X8286326Y-14263310D02*
X8276802Y-14244262D01*
X8276802Y-14244262D02*
X8276802Y-14168072D01*
X8276802Y-14168072D02*
X8286326Y-14149024D01*
X8286326Y-14149024D02*
X8305374Y-14139500D01*
X8305374Y-14139500D02*
X8343469Y-14139500D01*
X8343469Y-14139500D02*
X8362517Y-14149024D01*
X8362517Y-14149024D02*
X8372040Y-14168072D01*
X8372040Y-14168072D02*
X8372040Y-14187119D01*
X8372040Y-14187119D02*
X8276802Y-14206167D01*
X8448231Y-14263310D02*
X8467279Y-14272833D01*
X8467279Y-14272833D02*
X8505374Y-14272833D01*
X8505374Y-14272833D02*
X8524421Y-14263310D01*
X8524421Y-14263310D02*
X8533945Y-14244262D01*
X8533945Y-14244262D02*
X8533945Y-14234738D01*
X8533945Y-14234738D02*
X8524421Y-14215691D01*
X8524421Y-14215691D02*
X8505374Y-14206167D01*
X8505374Y-14206167D02*
X8476802Y-14206167D01*
X8476802Y-14206167D02*
X8457755Y-14196643D01*
X8457755Y-14196643D02*
X8448231Y-14177595D01*
X8448231Y-14177595D02*
X8448231Y-14168072D01*
X8448231Y-14168072D02*
X8457755Y-14149024D01*
X8457755Y-14149024D02*
X8476802Y-14139500D01*
X8476802Y-14139500D02*
X8505374Y-14139500D01*
X8505374Y-14139500D02*
X8524421Y-14149024D01*
X8600612Y-14349024D02*
X8610136Y-14339500D01*
X8610136Y-14339500D02*
X8629183Y-14310929D01*
X8629183Y-14310929D02*
X8638707Y-14291881D01*
X8638707Y-14291881D02*
X8648231Y-14263310D01*
X8648231Y-14263310D02*
X8657755Y-14215691D01*
X8657755Y-14215691D02*
X8657755Y-14177595D01*
X8657755Y-14177595D02*
X8648231Y-14129976D01*
X8648231Y-14129976D02*
X8638707Y-14101405D01*
X8638707Y-14101405D02*
X8629183Y-14082357D01*
X8629183Y-14082357D02*
X8610136Y-14053786D01*
X8610136Y-14053786D02*
X8600612Y-14044262D01*
X8962517Y-14349024D02*
X8952993Y-14339500D01*
X8952993Y-14339500D02*
X8933945Y-14310929D01*
X8933945Y-14310929D02*
X8924421Y-14291881D01*
X8924421Y-14291881D02*
X8914898Y-14263310D01*
X8914898Y-14263310D02*
X8905374Y-14215691D01*
X8905374Y-14215691D02*
X8905374Y-14177595D01*
X8905374Y-14177595D02*
X8914898Y-14129976D01*
X8914898Y-14129976D02*
X8924421Y-14101405D01*
X8924421Y-14101405D02*
X8933945Y-14082357D01*
X8933945Y-14082357D02*
X8952993Y-14053786D01*
X8952993Y-14053786D02*
X8962517Y-14044262D01*
X9038707Y-14139500D02*
X9038707Y-14272833D01*
X9038707Y-14158548D02*
X9048231Y-14149024D01*
X9048231Y-14149024D02*
X9067279Y-14139500D01*
X9067279Y-14139500D02*
X9095850Y-14139500D01*
X9095850Y-14139500D02*
X9114898Y-14149024D01*
X9114898Y-14149024D02*
X9124421Y-14168072D01*
X9124421Y-14168072D02*
X9124421Y-14272833D01*
X9248231Y-14272833D02*
X9229183Y-14263310D01*
X9229183Y-14263310D02*
X9219660Y-14253786D01*
X9219660Y-14253786D02*
X9210136Y-14234738D01*
X9210136Y-14234738D02*
X9210136Y-14177595D01*
X9210136Y-14177595D02*
X9219660Y-14158548D01*
X9219660Y-14158548D02*
X9229183Y-14149024D01*
X9229183Y-14149024D02*
X9248231Y-14139500D01*
X9248231Y-14139500D02*
X9276802Y-14139500D01*
X9276802Y-14139500D02*
X9295850Y-14149024D01*
X9295850Y-14149024D02*
X9305374Y-14158548D01*
X9305374Y-14158548D02*
X9314898Y-14177595D01*
X9314898Y-14177595D02*
X9314898Y-14234738D01*
X9314898Y-14234738D02*
X9305374Y-14253786D01*
X9305374Y-14253786D02*
X9295850Y-14263310D01*
X9295850Y-14263310D02*
X9276802Y-14272833D01*
X9276802Y-14272833D02*
X9248231Y-14272833D01*
X9372041Y-14139500D02*
X9448231Y-14139500D01*
X9400612Y-14072833D02*
X9400612Y-14244262D01*
X9400612Y-14244262D02*
X9410136Y-14263310D01*
X9410136Y-14263310D02*
X9429183Y-14272833D01*
X9429183Y-14272833D02*
X9448231Y-14272833D01*
X9667279Y-14139500D02*
X9667279Y-14339500D01*
X9667279Y-14149024D02*
X9686326Y-14139500D01*
X9686326Y-14139500D02*
X9724422Y-14139500D01*
X9724422Y-14139500D02*
X9743469Y-14149024D01*
X9743469Y-14149024D02*
X9752993Y-14158548D01*
X9752993Y-14158548D02*
X9762517Y-14177595D01*
X9762517Y-14177595D02*
X9762517Y-14234738D01*
X9762517Y-14234738D02*
X9752993Y-14253786D01*
X9752993Y-14253786D02*
X9743469Y-14263310D01*
X9743469Y-14263310D02*
X9724422Y-14272833D01*
X9724422Y-14272833D02*
X9686326Y-14272833D01*
X9686326Y-14272833D02*
X9667279Y-14263310D01*
X9876802Y-14272833D02*
X9857755Y-14263310D01*
X9857755Y-14263310D02*
X9848231Y-14244262D01*
X9848231Y-14244262D02*
X9848231Y-14072833D01*
X10038707Y-14272833D02*
X10038707Y-14168072D01*
X10038707Y-14168072D02*
X10029183Y-14149024D01*
X10029183Y-14149024D02*
X10010136Y-14139500D01*
X10010136Y-14139500D02*
X9972041Y-14139500D01*
X9972041Y-14139500D02*
X9952993Y-14149024D01*
X10038707Y-14263310D02*
X10019660Y-14272833D01*
X10019660Y-14272833D02*
X9972041Y-14272833D01*
X9972041Y-14272833D02*
X9952993Y-14263310D01*
X9952993Y-14263310D02*
X9943469Y-14244262D01*
X9943469Y-14244262D02*
X9943469Y-14225214D01*
X9943469Y-14225214D02*
X9952993Y-14206167D01*
X9952993Y-14206167D02*
X9972041Y-14196643D01*
X9972041Y-14196643D02*
X10019660Y-14196643D01*
X10019660Y-14196643D02*
X10038707Y-14187119D01*
X10105374Y-14139500D02*
X10181564Y-14139500D01*
X10133945Y-14072833D02*
X10133945Y-14244262D01*
X10133945Y-14244262D02*
X10143469Y-14263310D01*
X10143469Y-14263310D02*
X10162517Y-14272833D01*
X10162517Y-14272833D02*
X10181564Y-14272833D01*
X10324422Y-14263310D02*
X10305374Y-14272833D01*
X10305374Y-14272833D02*
X10267279Y-14272833D01*
X10267279Y-14272833D02*
X10248231Y-14263310D01*
X10248231Y-14263310D02*
X10238707Y-14244262D01*
X10238707Y-14244262D02*
X10238707Y-14168072D01*
X10238707Y-14168072D02*
X10248231Y-14149024D01*
X10248231Y-14149024D02*
X10267279Y-14139500D01*
X10267279Y-14139500D02*
X10305374Y-14139500D01*
X10305374Y-14139500D02*
X10324422Y-14149024D01*
X10324422Y-14149024D02*
X10333945Y-14168072D01*
X10333945Y-14168072D02*
X10333945Y-14187119D01*
X10333945Y-14187119D02*
X10238707Y-14206167D01*
X10505374Y-14272833D02*
X10505374Y-14072833D01*
X10505374Y-14263310D02*
X10486326Y-14272833D01*
X10486326Y-14272833D02*
X10448231Y-14272833D01*
X10448231Y-14272833D02*
X10429183Y-14263310D01*
X10429183Y-14263310D02*
X10419660Y-14253786D01*
X10419660Y-14253786D02*
X10410136Y-14234738D01*
X10410136Y-14234738D02*
X10410136Y-14177595D01*
X10410136Y-14177595D02*
X10419660Y-14158548D01*
X10419660Y-14158548D02*
X10429183Y-14149024D01*
X10429183Y-14149024D02*
X10448231Y-14139500D01*
X10448231Y-14139500D02*
X10486326Y-14139500D01*
X10486326Y-14139500D02*
X10505374Y-14149024D01*
X10581564Y-14349024D02*
X10591088Y-14339500D01*
X10591088Y-14339500D02*
X10610136Y-14310929D01*
X10610136Y-14310929D02*
X10619660Y-14291881D01*
X10619660Y-14291881D02*
X10629183Y-14263310D01*
X10629183Y-14263310D02*
X10638707Y-14215691D01*
X10638707Y-14215691D02*
X10638707Y-14177595D01*
X10638707Y-14177595D02*
X10629183Y-14129976D01*
X10629183Y-14129976D02*
X10619660Y-14101405D01*
X10619660Y-14101405D02*
X10610136Y-14082357D01*
X10610136Y-14082357D02*
X10591088Y-14053786D01*
X10591088Y-14053786D02*
X10581564Y-14044262D01*
X3535073Y-14601350D02*
X3635073Y-14501350D01*
X3535073Y-14401350D01*
X3435073Y-14501350D01*
X3535073Y-14601350D01*
X3876802Y-14392833D02*
X4000611Y-14392833D01*
X4000611Y-14392833D02*
X3933945Y-14469024D01*
X3933945Y-14469024D02*
X3962516Y-14469024D01*
X3962516Y-14469024D02*
X3981564Y-14478548D01*
X3981564Y-14478548D02*
X3991088Y-14488072D01*
X3991088Y-14488072D02*
X4000611Y-14507119D01*
X4000611Y-14507119D02*
X4000611Y-14554738D01*
X4000611Y-14554738D02*
X3991088Y-14573786D01*
X3991088Y-14573786D02*
X3981564Y-14583310D01*
X3981564Y-14583310D02*
X3962516Y-14592833D01*
X3962516Y-14592833D02*
X3905373Y-14592833D01*
X3905373Y-14592833D02*
X3886326Y-14583310D01*
X3886326Y-14583310D02*
X3876802Y-14573786D01*
X4086326Y-14573786D02*
X4095849Y-14583310D01*
X4095849Y-14583310D02*
X4086326Y-14592833D01*
X4086326Y-14592833D02*
X4076802Y-14583310D01*
X4076802Y-14583310D02*
X4086326Y-14573786D01*
X4086326Y-14573786D02*
X4086326Y-14592833D01*
X4267278Y-14459500D02*
X4267278Y-14592833D01*
X4219659Y-14383310D02*
X4172040Y-14526167D01*
X4172040Y-14526167D02*
X4295850Y-14526167D01*
X4410135Y-14392833D02*
X4429183Y-14392833D01*
X4429183Y-14392833D02*
X4448231Y-14402357D01*
X4448231Y-14402357D02*
X4457754Y-14411881D01*
X4457754Y-14411881D02*
X4467278Y-14430929D01*
X4467278Y-14430929D02*
X4476802Y-14469024D01*
X4476802Y-14469024D02*
X4476802Y-14516643D01*
X4476802Y-14516643D02*
X4467278Y-14554738D01*
X4467278Y-14554738D02*
X4457754Y-14573786D01*
X4457754Y-14573786D02*
X4448231Y-14583310D01*
X4448231Y-14583310D02*
X4429183Y-14592833D01*
X4429183Y-14592833D02*
X4410135Y-14592833D01*
X4410135Y-14592833D02*
X4391088Y-14583310D01*
X4391088Y-14583310D02*
X4381564Y-14573786D01*
X4381564Y-14573786D02*
X4372040Y-14554738D01*
X4372040Y-14554738D02*
X4362516Y-14516643D01*
X4362516Y-14516643D02*
X4362516Y-14469024D01*
X4362516Y-14469024D02*
X4372040Y-14430929D01*
X4372040Y-14430929D02*
X4381564Y-14411881D01*
X4381564Y-14411881D02*
X4391088Y-14402357D01*
X4391088Y-14402357D02*
X4410135Y-14392833D01*
X4600611Y-14392833D02*
X4619659Y-14392833D01*
X4619659Y-14392833D02*
X4638707Y-14402357D01*
X4638707Y-14402357D02*
X4648231Y-14411881D01*
X4648231Y-14411881D02*
X4657754Y-14430929D01*
X4657754Y-14430929D02*
X4667278Y-14469024D01*
X4667278Y-14469024D02*
X4667278Y-14516643D01*
X4667278Y-14516643D02*
X4657754Y-14554738D01*
X4657754Y-14554738D02*
X4648231Y-14573786D01*
X4648231Y-14573786D02*
X4638707Y-14583310D01*
X4638707Y-14583310D02*
X4619659Y-14592833D01*
X4619659Y-14592833D02*
X4600611Y-14592833D01*
X4600611Y-14592833D02*
X4581564Y-14583310D01*
X4581564Y-14583310D02*
X4572040Y-14573786D01*
X4572040Y-14573786D02*
X4562516Y-14554738D01*
X4562516Y-14554738D02*
X4552992Y-14516643D01*
X4552992Y-14516643D02*
X4552992Y-14469024D01*
X4552992Y-14469024D02*
X4562516Y-14430929D01*
X4562516Y-14430929D02*
X4572040Y-14411881D01*
X4572040Y-14411881D02*
X4581564Y-14402357D01*
X4581564Y-14402357D02*
X4600611Y-14392833D01*
X4752992Y-14592833D02*
X4752992Y-14459500D01*
X4752992Y-14478548D02*
X4762516Y-14469024D01*
X4762516Y-14469024D02*
X4781564Y-14459500D01*
X4781564Y-14459500D02*
X4810135Y-14459500D01*
X4810135Y-14459500D02*
X4829183Y-14469024D01*
X4829183Y-14469024D02*
X4838707Y-14488072D01*
X4838707Y-14488072D02*
X4838707Y-14592833D01*
X4838707Y-14488072D02*
X4848231Y-14469024D01*
X4848231Y-14469024D02*
X4867278Y-14459500D01*
X4867278Y-14459500D02*
X4895850Y-14459500D01*
X4895850Y-14459500D02*
X4914897Y-14469024D01*
X4914897Y-14469024D02*
X4924421Y-14488072D01*
X4924421Y-14488072D02*
X4924421Y-14592833D01*
X5019659Y-14592833D02*
X5019659Y-14459500D01*
X5019659Y-14478548D02*
X5029183Y-14469024D01*
X5029183Y-14469024D02*
X5048231Y-14459500D01*
X5048231Y-14459500D02*
X5076802Y-14459500D01*
X5076802Y-14459500D02*
X5095850Y-14469024D01*
X5095850Y-14469024D02*
X5105373Y-14488072D01*
X5105373Y-14488072D02*
X5105373Y-14592833D01*
X5105373Y-14488072D02*
X5114897Y-14469024D01*
X5114897Y-14469024D02*
X5133945Y-14459500D01*
X5133945Y-14459500D02*
X5162516Y-14459500D01*
X5162516Y-14459500D02*
X5181564Y-14469024D01*
X5181564Y-14469024D02*
X5191088Y-14488072D01*
X5191088Y-14488072D02*
X5191088Y-14592833D01*
X5581564Y-14383310D02*
X5410135Y-14640452D01*
X5838707Y-14392833D02*
X5857754Y-14392833D01*
X5857754Y-14392833D02*
X5876802Y-14402357D01*
X5876802Y-14402357D02*
X5886326Y-14411881D01*
X5886326Y-14411881D02*
X5895850Y-14430929D01*
X5895850Y-14430929D02*
X5905373Y-14469024D01*
X5905373Y-14469024D02*
X5905373Y-14516643D01*
X5905373Y-14516643D02*
X5895850Y-14554738D01*
X5895850Y-14554738D02*
X5886326Y-14573786D01*
X5886326Y-14573786D02*
X5876802Y-14583310D01*
X5876802Y-14583310D02*
X5857754Y-14592833D01*
X5857754Y-14592833D02*
X5838707Y-14592833D01*
X5838707Y-14592833D02*
X5819659Y-14583310D01*
X5819659Y-14583310D02*
X5810135Y-14573786D01*
X5810135Y-14573786D02*
X5800612Y-14554738D01*
X5800612Y-14554738D02*
X5791088Y-14516643D01*
X5791088Y-14516643D02*
X5791088Y-14469024D01*
X5791088Y-14469024D02*
X5800612Y-14430929D01*
X5800612Y-14430929D02*
X5810135Y-14411881D01*
X5810135Y-14411881D02*
X5819659Y-14402357D01*
X5819659Y-14402357D02*
X5838707Y-14392833D01*
X5991088Y-14573786D02*
X6000612Y-14583310D01*
X6000612Y-14583310D02*
X5991088Y-14592833D01*
X5991088Y-14592833D02*
X5981564Y-14583310D01*
X5981564Y-14583310D02*
X5991088Y-14573786D01*
X5991088Y-14573786D02*
X5991088Y-14592833D01*
X6191088Y-14592833D02*
X6076802Y-14592833D01*
X6133945Y-14592833D02*
X6133945Y-14392833D01*
X6133945Y-14392833D02*
X6114897Y-14421405D01*
X6114897Y-14421405D02*
X6095850Y-14440452D01*
X6095850Y-14440452D02*
X6076802Y-14449976D01*
X6257754Y-14392833D02*
X6381564Y-14392833D01*
X6381564Y-14392833D02*
X6314897Y-14469024D01*
X6314897Y-14469024D02*
X6343469Y-14469024D01*
X6343469Y-14469024D02*
X6362516Y-14478548D01*
X6362516Y-14478548D02*
X6372040Y-14488072D01*
X6372040Y-14488072D02*
X6381564Y-14507119D01*
X6381564Y-14507119D02*
X6381564Y-14554738D01*
X6381564Y-14554738D02*
X6372040Y-14573786D01*
X6372040Y-14573786D02*
X6362516Y-14583310D01*
X6362516Y-14583310D02*
X6343469Y-14592833D01*
X6343469Y-14592833D02*
X6286326Y-14592833D01*
X6286326Y-14592833D02*
X6267278Y-14583310D01*
X6267278Y-14583310D02*
X6257754Y-14573786D01*
X6448231Y-14392833D02*
X6572040Y-14392833D01*
X6572040Y-14392833D02*
X6505373Y-14469024D01*
X6505373Y-14469024D02*
X6533945Y-14469024D01*
X6533945Y-14469024D02*
X6552993Y-14478548D01*
X6552993Y-14478548D02*
X6562516Y-14488072D01*
X6562516Y-14488072D02*
X6572040Y-14507119D01*
X6572040Y-14507119D02*
X6572040Y-14554738D01*
X6572040Y-14554738D02*
X6562516Y-14573786D01*
X6562516Y-14573786D02*
X6552993Y-14583310D01*
X6552993Y-14583310D02*
X6533945Y-14592833D01*
X6533945Y-14592833D02*
X6476802Y-14592833D01*
X6476802Y-14592833D02*
X6457754Y-14583310D01*
X6457754Y-14583310D02*
X6448231Y-14573786D01*
X6667278Y-14592833D02*
X6705373Y-14592833D01*
X6705373Y-14592833D02*
X6724421Y-14583310D01*
X6724421Y-14583310D02*
X6733945Y-14573786D01*
X6733945Y-14573786D02*
X6752993Y-14545214D01*
X6752993Y-14545214D02*
X6762516Y-14507119D01*
X6762516Y-14507119D02*
X6762516Y-14430929D01*
X6762516Y-14430929D02*
X6752993Y-14411881D01*
X6752993Y-14411881D02*
X6743469Y-14402357D01*
X6743469Y-14402357D02*
X6724421Y-14392833D01*
X6724421Y-14392833D02*
X6686326Y-14392833D01*
X6686326Y-14392833D02*
X6667278Y-14402357D01*
X6667278Y-14402357D02*
X6657754Y-14411881D01*
X6657754Y-14411881D02*
X6648231Y-14430929D01*
X6648231Y-14430929D02*
X6648231Y-14478548D01*
X6648231Y-14478548D02*
X6657754Y-14497595D01*
X6657754Y-14497595D02*
X6667278Y-14507119D01*
X6667278Y-14507119D02*
X6686326Y-14516643D01*
X6686326Y-14516643D02*
X6724421Y-14516643D01*
X6724421Y-14516643D02*
X6743469Y-14507119D01*
X6743469Y-14507119D02*
X6752993Y-14497595D01*
X6752993Y-14497595D02*
X6762516Y-14478548D01*
X6838707Y-14392833D02*
X6838707Y-14430929D01*
X6914897Y-14392833D02*
X6914897Y-14430929D01*
X7210136Y-14669024D02*
X7200612Y-14659500D01*
X7200612Y-14659500D02*
X7181564Y-14630929D01*
X7181564Y-14630929D02*
X7172040Y-14611881D01*
X7172040Y-14611881D02*
X7162516Y-14583310D01*
X7162516Y-14583310D02*
X7152993Y-14535691D01*
X7152993Y-14535691D02*
X7152993Y-14497595D01*
X7152993Y-14497595D02*
X7162516Y-14449976D01*
X7162516Y-14449976D02*
X7172040Y-14421405D01*
X7172040Y-14421405D02*
X7181564Y-14402357D01*
X7181564Y-14402357D02*
X7200612Y-14373786D01*
X7200612Y-14373786D02*
X7210136Y-14364262D01*
X7391088Y-14592833D02*
X7276802Y-14592833D01*
X7333945Y-14592833D02*
X7333945Y-14392833D01*
X7333945Y-14392833D02*
X7314897Y-14421405D01*
X7314897Y-14421405D02*
X7295850Y-14440452D01*
X7295850Y-14440452D02*
X7276802Y-14449976D01*
X7486326Y-14592833D02*
X7524421Y-14592833D01*
X7524421Y-14592833D02*
X7543469Y-14583310D01*
X7543469Y-14583310D02*
X7552993Y-14573786D01*
X7552993Y-14573786D02*
X7572040Y-14545214D01*
X7572040Y-14545214D02*
X7581564Y-14507119D01*
X7581564Y-14507119D02*
X7581564Y-14430929D01*
X7581564Y-14430929D02*
X7572040Y-14411881D01*
X7572040Y-14411881D02*
X7562516Y-14402357D01*
X7562516Y-14402357D02*
X7543469Y-14392833D01*
X7543469Y-14392833D02*
X7505374Y-14392833D01*
X7505374Y-14392833D02*
X7486326Y-14402357D01*
X7486326Y-14402357D02*
X7476802Y-14411881D01*
X7476802Y-14411881D02*
X7467278Y-14430929D01*
X7467278Y-14430929D02*
X7467278Y-14478548D01*
X7467278Y-14478548D02*
X7476802Y-14497595D01*
X7476802Y-14497595D02*
X7486326Y-14507119D01*
X7486326Y-14507119D02*
X7505374Y-14516643D01*
X7505374Y-14516643D02*
X7543469Y-14516643D01*
X7543469Y-14516643D02*
X7562516Y-14507119D01*
X7562516Y-14507119D02*
X7572040Y-14497595D01*
X7572040Y-14497595D02*
X7581564Y-14478548D01*
X7819659Y-14592833D02*
X7819659Y-14392833D01*
X7905374Y-14592833D02*
X7905374Y-14488072D01*
X7905374Y-14488072D02*
X7895850Y-14469024D01*
X7895850Y-14469024D02*
X7876802Y-14459500D01*
X7876802Y-14459500D02*
X7848231Y-14459500D01*
X7848231Y-14459500D02*
X7829183Y-14469024D01*
X7829183Y-14469024D02*
X7819659Y-14478548D01*
X8029183Y-14592833D02*
X8010136Y-14583310D01*
X8010136Y-14583310D02*
X8000612Y-14573786D01*
X8000612Y-14573786D02*
X7991088Y-14554738D01*
X7991088Y-14554738D02*
X7991088Y-14497595D01*
X7991088Y-14497595D02*
X8000612Y-14478548D01*
X8000612Y-14478548D02*
X8010136Y-14469024D01*
X8010136Y-14469024D02*
X8029183Y-14459500D01*
X8029183Y-14459500D02*
X8057755Y-14459500D01*
X8057755Y-14459500D02*
X8076802Y-14469024D01*
X8076802Y-14469024D02*
X8086326Y-14478548D01*
X8086326Y-14478548D02*
X8095850Y-14497595D01*
X8095850Y-14497595D02*
X8095850Y-14554738D01*
X8095850Y-14554738D02*
X8086326Y-14573786D01*
X8086326Y-14573786D02*
X8076802Y-14583310D01*
X8076802Y-14583310D02*
X8057755Y-14592833D01*
X8057755Y-14592833D02*
X8029183Y-14592833D01*
X8210136Y-14592833D02*
X8191088Y-14583310D01*
X8191088Y-14583310D02*
X8181564Y-14564262D01*
X8181564Y-14564262D02*
X8181564Y-14392833D01*
X8362517Y-14583310D02*
X8343469Y-14592833D01*
X8343469Y-14592833D02*
X8305374Y-14592833D01*
X8305374Y-14592833D02*
X8286326Y-14583310D01*
X8286326Y-14583310D02*
X8276802Y-14564262D01*
X8276802Y-14564262D02*
X8276802Y-14488072D01*
X8276802Y-14488072D02*
X8286326Y-14469024D01*
X8286326Y-14469024D02*
X8305374Y-14459500D01*
X8305374Y-14459500D02*
X8343469Y-14459500D01*
X8343469Y-14459500D02*
X8362517Y-14469024D01*
X8362517Y-14469024D02*
X8372040Y-14488072D01*
X8372040Y-14488072D02*
X8372040Y-14507119D01*
X8372040Y-14507119D02*
X8276802Y-14526167D01*
X8448231Y-14583310D02*
X8467279Y-14592833D01*
X8467279Y-14592833D02*
X8505374Y-14592833D01*
X8505374Y-14592833D02*
X8524421Y-14583310D01*
X8524421Y-14583310D02*
X8533945Y-14564262D01*
X8533945Y-14564262D02*
X8533945Y-14554738D01*
X8533945Y-14554738D02*
X8524421Y-14535691D01*
X8524421Y-14535691D02*
X8505374Y-14526167D01*
X8505374Y-14526167D02*
X8476802Y-14526167D01*
X8476802Y-14526167D02*
X8457755Y-14516643D01*
X8457755Y-14516643D02*
X8448231Y-14497595D01*
X8448231Y-14497595D02*
X8448231Y-14488072D01*
X8448231Y-14488072D02*
X8457755Y-14469024D01*
X8457755Y-14469024D02*
X8476802Y-14459500D01*
X8476802Y-14459500D02*
X8505374Y-14459500D01*
X8505374Y-14459500D02*
X8524421Y-14469024D01*
X8600612Y-14669024D02*
X8610136Y-14659500D01*
X8610136Y-14659500D02*
X8629183Y-14630929D01*
X8629183Y-14630929D02*
X8638707Y-14611881D01*
X8638707Y-14611881D02*
X8648231Y-14583310D01*
X8648231Y-14583310D02*
X8657755Y-14535691D01*
X8657755Y-14535691D02*
X8657755Y-14497595D01*
X8657755Y-14497595D02*
X8648231Y-14449976D01*
X8648231Y-14449976D02*
X8638707Y-14421405D01*
X8638707Y-14421405D02*
X8629183Y-14402357D01*
X8629183Y-14402357D02*
X8610136Y-14373786D01*
X8610136Y-14373786D02*
X8600612Y-14364262D01*
X8962517Y-14669024D02*
X8952993Y-14659500D01*
X8952993Y-14659500D02*
X8933945Y-14630929D01*
X8933945Y-14630929D02*
X8924421Y-14611881D01*
X8924421Y-14611881D02*
X8914898Y-14583310D01*
X8914898Y-14583310D02*
X8905374Y-14535691D01*
X8905374Y-14535691D02*
X8905374Y-14497595D01*
X8905374Y-14497595D02*
X8914898Y-14449976D01*
X8914898Y-14449976D02*
X8924421Y-14421405D01*
X8924421Y-14421405D02*
X8933945Y-14402357D01*
X8933945Y-14402357D02*
X8952993Y-14373786D01*
X8952993Y-14373786D02*
X8962517Y-14364262D01*
X9038707Y-14459500D02*
X9038707Y-14592833D01*
X9038707Y-14478548D02*
X9048231Y-14469024D01*
X9048231Y-14469024D02*
X9067279Y-14459500D01*
X9067279Y-14459500D02*
X9095850Y-14459500D01*
X9095850Y-14459500D02*
X9114898Y-14469024D01*
X9114898Y-14469024D02*
X9124421Y-14488072D01*
X9124421Y-14488072D02*
X9124421Y-14592833D01*
X9248231Y-14592833D02*
X9229183Y-14583310D01*
X9229183Y-14583310D02*
X9219660Y-14573786D01*
X9219660Y-14573786D02*
X9210136Y-14554738D01*
X9210136Y-14554738D02*
X9210136Y-14497595D01*
X9210136Y-14497595D02*
X9219660Y-14478548D01*
X9219660Y-14478548D02*
X9229183Y-14469024D01*
X9229183Y-14469024D02*
X9248231Y-14459500D01*
X9248231Y-14459500D02*
X9276802Y-14459500D01*
X9276802Y-14459500D02*
X9295850Y-14469024D01*
X9295850Y-14469024D02*
X9305374Y-14478548D01*
X9305374Y-14478548D02*
X9314898Y-14497595D01*
X9314898Y-14497595D02*
X9314898Y-14554738D01*
X9314898Y-14554738D02*
X9305374Y-14573786D01*
X9305374Y-14573786D02*
X9295850Y-14583310D01*
X9295850Y-14583310D02*
X9276802Y-14592833D01*
X9276802Y-14592833D02*
X9248231Y-14592833D01*
X9372041Y-14459500D02*
X9448231Y-14459500D01*
X9400612Y-14392833D02*
X9400612Y-14564262D01*
X9400612Y-14564262D02*
X9410136Y-14583310D01*
X9410136Y-14583310D02*
X9429183Y-14592833D01*
X9429183Y-14592833D02*
X9448231Y-14592833D01*
X9667279Y-14459500D02*
X9667279Y-14659500D01*
X9667279Y-14469024D02*
X9686326Y-14459500D01*
X9686326Y-14459500D02*
X9724422Y-14459500D01*
X9724422Y-14459500D02*
X9743469Y-14469024D01*
X9743469Y-14469024D02*
X9752993Y-14478548D01*
X9752993Y-14478548D02*
X9762517Y-14497595D01*
X9762517Y-14497595D02*
X9762517Y-14554738D01*
X9762517Y-14554738D02*
X9752993Y-14573786D01*
X9752993Y-14573786D02*
X9743469Y-14583310D01*
X9743469Y-14583310D02*
X9724422Y-14592833D01*
X9724422Y-14592833D02*
X9686326Y-14592833D01*
X9686326Y-14592833D02*
X9667279Y-14583310D01*
X9876802Y-14592833D02*
X9857755Y-14583310D01*
X9857755Y-14583310D02*
X9848231Y-14564262D01*
X9848231Y-14564262D02*
X9848231Y-14392833D01*
X10038707Y-14592833D02*
X10038707Y-14488072D01*
X10038707Y-14488072D02*
X10029183Y-14469024D01*
X10029183Y-14469024D02*
X10010136Y-14459500D01*
X10010136Y-14459500D02*
X9972041Y-14459500D01*
X9972041Y-14459500D02*
X9952993Y-14469024D01*
X10038707Y-14583310D02*
X10019660Y-14592833D01*
X10019660Y-14592833D02*
X9972041Y-14592833D01*
X9972041Y-14592833D02*
X9952993Y-14583310D01*
X9952993Y-14583310D02*
X9943469Y-14564262D01*
X9943469Y-14564262D02*
X9943469Y-14545214D01*
X9943469Y-14545214D02*
X9952993Y-14526167D01*
X9952993Y-14526167D02*
X9972041Y-14516643D01*
X9972041Y-14516643D02*
X10019660Y-14516643D01*
X10019660Y-14516643D02*
X10038707Y-14507119D01*
X10105374Y-14459500D02*
X10181564Y-14459500D01*
X10133945Y-14392833D02*
X10133945Y-14564262D01*
X10133945Y-14564262D02*
X10143469Y-14583310D01*
X10143469Y-14583310D02*
X10162517Y-14592833D01*
X10162517Y-14592833D02*
X10181564Y-14592833D01*
X10324422Y-14583310D02*
X10305374Y-14592833D01*
X10305374Y-14592833D02*
X10267279Y-14592833D01*
X10267279Y-14592833D02*
X10248231Y-14583310D01*
X10248231Y-14583310D02*
X10238707Y-14564262D01*
X10238707Y-14564262D02*
X10238707Y-14488072D01*
X10238707Y-14488072D02*
X10248231Y-14469024D01*
X10248231Y-14469024D02*
X10267279Y-14459500D01*
X10267279Y-14459500D02*
X10305374Y-14459500D01*
X10305374Y-14459500D02*
X10324422Y-14469024D01*
X10324422Y-14469024D02*
X10333945Y-14488072D01*
X10333945Y-14488072D02*
X10333945Y-14507119D01*
X10333945Y-14507119D02*
X10238707Y-14526167D01*
X10505374Y-14592833D02*
X10505374Y-14392833D01*
X10505374Y-14583310D02*
X10486326Y-14592833D01*
X10486326Y-14592833D02*
X10448231Y-14592833D01*
X10448231Y-14592833D02*
X10429183Y-14583310D01*
X10429183Y-14583310D02*
X10419660Y-14573786D01*
X10419660Y-14573786D02*
X10410136Y-14554738D01*
X10410136Y-14554738D02*
X10410136Y-14497595D01*
X10410136Y-14497595D02*
X10419660Y-14478548D01*
X10419660Y-14478548D02*
X10429183Y-14469024D01*
X10429183Y-14469024D02*
X10448231Y-14459500D01*
X10448231Y-14459500D02*
X10486326Y-14459500D01*
X10486326Y-14459500D02*
X10505374Y-14469024D01*
X10581564Y-14669024D02*
X10591088Y-14659500D01*
X10591088Y-14659500D02*
X10610136Y-14630929D01*
X10610136Y-14630929D02*
X10619660Y-14611881D01*
X10619660Y-14611881D02*
X10629183Y-14583310D01*
X10629183Y-14583310D02*
X10638707Y-14535691D01*
X10638707Y-14535691D02*
X10638707Y-14497595D01*
X10638707Y-14497595D02*
X10629183Y-14449976D01*
X10629183Y-14449976D02*
X10619660Y-14421405D01*
X10619660Y-14421405D02*
X10610136Y-14402357D01*
X10610136Y-14402357D02*
X10591088Y-14373786D01*
X10591088Y-14373786D02*
X10581564Y-14364262D01*
X3435073Y-14721350D02*
X3635073Y-14921350D01*
X3635073Y-14721350D02*
X3435073Y-14921350D01*
X3635073Y-14821350D02*
G75*
G02*
X3435073Y-14821350I-100000J0D01*
G01*
X3435073Y-14821350D02*
G75*
G02*
X3635073Y-14821350I100000J0D01*
G01*
X3991088Y-14712833D02*
X3895849Y-14712833D01*
X3895849Y-14712833D02*
X3886326Y-14808072D01*
X3886326Y-14808072D02*
X3895849Y-14798548D01*
X3895849Y-14798548D02*
X3914897Y-14789024D01*
X3914897Y-14789024D02*
X3962516Y-14789024D01*
X3962516Y-14789024D02*
X3981564Y-14798548D01*
X3981564Y-14798548D02*
X3991088Y-14808072D01*
X3991088Y-14808072D02*
X4000611Y-14827119D01*
X4000611Y-14827119D02*
X4000611Y-14874738D01*
X4000611Y-14874738D02*
X3991088Y-14893786D01*
X3991088Y-14893786D02*
X3981564Y-14903310D01*
X3981564Y-14903310D02*
X3962516Y-14912833D01*
X3962516Y-14912833D02*
X3914897Y-14912833D01*
X3914897Y-14912833D02*
X3895849Y-14903310D01*
X3895849Y-14903310D02*
X3886326Y-14893786D01*
X4086326Y-14893786D02*
X4095849Y-14903310D01*
X4095849Y-14903310D02*
X4086326Y-14912833D01*
X4086326Y-14912833D02*
X4076802Y-14903310D01*
X4076802Y-14903310D02*
X4086326Y-14893786D01*
X4086326Y-14893786D02*
X4086326Y-14912833D01*
X4219659Y-14712833D02*
X4238707Y-14712833D01*
X4238707Y-14712833D02*
X4257754Y-14722357D01*
X4257754Y-14722357D02*
X4267278Y-14731881D01*
X4267278Y-14731881D02*
X4276802Y-14750929D01*
X4276802Y-14750929D02*
X4286326Y-14789024D01*
X4286326Y-14789024D02*
X4286326Y-14836643D01*
X4286326Y-14836643D02*
X4276802Y-14874738D01*
X4276802Y-14874738D02*
X4267278Y-14893786D01*
X4267278Y-14893786D02*
X4257754Y-14903310D01*
X4257754Y-14903310D02*
X4238707Y-14912833D01*
X4238707Y-14912833D02*
X4219659Y-14912833D01*
X4219659Y-14912833D02*
X4200611Y-14903310D01*
X4200611Y-14903310D02*
X4191088Y-14893786D01*
X4191088Y-14893786D02*
X4181564Y-14874738D01*
X4181564Y-14874738D02*
X4172040Y-14836643D01*
X4172040Y-14836643D02*
X4172040Y-14789024D01*
X4172040Y-14789024D02*
X4181564Y-14750929D01*
X4181564Y-14750929D02*
X4191088Y-14731881D01*
X4191088Y-14731881D02*
X4200611Y-14722357D01*
X4200611Y-14722357D02*
X4219659Y-14712833D01*
X4410135Y-14712833D02*
X4429183Y-14712833D01*
X4429183Y-14712833D02*
X4448231Y-14722357D01*
X4448231Y-14722357D02*
X4457754Y-14731881D01*
X4457754Y-14731881D02*
X4467278Y-14750929D01*
X4467278Y-14750929D02*
X4476802Y-14789024D01*
X4476802Y-14789024D02*
X4476802Y-14836643D01*
X4476802Y-14836643D02*
X4467278Y-14874738D01*
X4467278Y-14874738D02*
X4457754Y-14893786D01*
X4457754Y-14893786D02*
X4448231Y-14903310D01*
X4448231Y-14903310D02*
X4429183Y-14912833D01*
X4429183Y-14912833D02*
X4410135Y-14912833D01*
X4410135Y-14912833D02*
X4391088Y-14903310D01*
X4391088Y-14903310D02*
X4381564Y-14893786D01*
X4381564Y-14893786D02*
X4372040Y-14874738D01*
X4372040Y-14874738D02*
X4362516Y-14836643D01*
X4362516Y-14836643D02*
X4362516Y-14789024D01*
X4362516Y-14789024D02*
X4372040Y-14750929D01*
X4372040Y-14750929D02*
X4381564Y-14731881D01*
X4381564Y-14731881D02*
X4391088Y-14722357D01*
X4391088Y-14722357D02*
X4410135Y-14712833D01*
X4600611Y-14712833D02*
X4619659Y-14712833D01*
X4619659Y-14712833D02*
X4638707Y-14722357D01*
X4638707Y-14722357D02*
X4648231Y-14731881D01*
X4648231Y-14731881D02*
X4657754Y-14750929D01*
X4657754Y-14750929D02*
X4667278Y-14789024D01*
X4667278Y-14789024D02*
X4667278Y-14836643D01*
X4667278Y-14836643D02*
X4657754Y-14874738D01*
X4657754Y-14874738D02*
X4648231Y-14893786D01*
X4648231Y-14893786D02*
X4638707Y-14903310D01*
X4638707Y-14903310D02*
X4619659Y-14912833D01*
X4619659Y-14912833D02*
X4600611Y-14912833D01*
X4600611Y-14912833D02*
X4581564Y-14903310D01*
X4581564Y-14903310D02*
X4572040Y-14893786D01*
X4572040Y-14893786D02*
X4562516Y-14874738D01*
X4562516Y-14874738D02*
X4552992Y-14836643D01*
X4552992Y-14836643D02*
X4552992Y-14789024D01*
X4552992Y-14789024D02*
X4562516Y-14750929D01*
X4562516Y-14750929D02*
X4572040Y-14731881D01*
X4572040Y-14731881D02*
X4581564Y-14722357D01*
X4581564Y-14722357D02*
X4600611Y-14712833D01*
X4752992Y-14912833D02*
X4752992Y-14779500D01*
X4752992Y-14798548D02*
X4762516Y-14789024D01*
X4762516Y-14789024D02*
X4781564Y-14779500D01*
X4781564Y-14779500D02*
X4810135Y-14779500D01*
X4810135Y-14779500D02*
X4829183Y-14789024D01*
X4829183Y-14789024D02*
X4838707Y-14808072D01*
X4838707Y-14808072D02*
X4838707Y-14912833D01*
X4838707Y-14808072D02*
X4848231Y-14789024D01*
X4848231Y-14789024D02*
X4867278Y-14779500D01*
X4867278Y-14779500D02*
X4895850Y-14779500D01*
X4895850Y-14779500D02*
X4914897Y-14789024D01*
X4914897Y-14789024D02*
X4924421Y-14808072D01*
X4924421Y-14808072D02*
X4924421Y-14912833D01*
X5019659Y-14912833D02*
X5019659Y-14779500D01*
X5019659Y-14798548D02*
X5029183Y-14789024D01*
X5029183Y-14789024D02*
X5048231Y-14779500D01*
X5048231Y-14779500D02*
X5076802Y-14779500D01*
X5076802Y-14779500D02*
X5095850Y-14789024D01*
X5095850Y-14789024D02*
X5105373Y-14808072D01*
X5105373Y-14808072D02*
X5105373Y-14912833D01*
X5105373Y-14808072D02*
X5114897Y-14789024D01*
X5114897Y-14789024D02*
X5133945Y-14779500D01*
X5133945Y-14779500D02*
X5162516Y-14779500D01*
X5162516Y-14779500D02*
X5181564Y-14789024D01*
X5181564Y-14789024D02*
X5191088Y-14808072D01*
X5191088Y-14808072D02*
X5191088Y-14912833D01*
X5581564Y-14703310D02*
X5410135Y-14960452D01*
X5838707Y-14712833D02*
X5857754Y-14712833D01*
X5857754Y-14712833D02*
X5876802Y-14722357D01*
X5876802Y-14722357D02*
X5886326Y-14731881D01*
X5886326Y-14731881D02*
X5895850Y-14750929D01*
X5895850Y-14750929D02*
X5905373Y-14789024D01*
X5905373Y-14789024D02*
X5905373Y-14836643D01*
X5905373Y-14836643D02*
X5895850Y-14874738D01*
X5895850Y-14874738D02*
X5886326Y-14893786D01*
X5886326Y-14893786D02*
X5876802Y-14903310D01*
X5876802Y-14903310D02*
X5857754Y-14912833D01*
X5857754Y-14912833D02*
X5838707Y-14912833D01*
X5838707Y-14912833D02*
X5819659Y-14903310D01*
X5819659Y-14903310D02*
X5810135Y-14893786D01*
X5810135Y-14893786D02*
X5800612Y-14874738D01*
X5800612Y-14874738D02*
X5791088Y-14836643D01*
X5791088Y-14836643D02*
X5791088Y-14789024D01*
X5791088Y-14789024D02*
X5800612Y-14750929D01*
X5800612Y-14750929D02*
X5810135Y-14731881D01*
X5810135Y-14731881D02*
X5819659Y-14722357D01*
X5819659Y-14722357D02*
X5838707Y-14712833D01*
X5991088Y-14893786D02*
X6000612Y-14903310D01*
X6000612Y-14903310D02*
X5991088Y-14912833D01*
X5991088Y-14912833D02*
X5981564Y-14903310D01*
X5981564Y-14903310D02*
X5991088Y-14893786D01*
X5991088Y-14893786D02*
X5991088Y-14912833D01*
X6191088Y-14912833D02*
X6076802Y-14912833D01*
X6133945Y-14912833D02*
X6133945Y-14712833D01*
X6133945Y-14712833D02*
X6114897Y-14741405D01*
X6114897Y-14741405D02*
X6095850Y-14760452D01*
X6095850Y-14760452D02*
X6076802Y-14769976D01*
X6286326Y-14912833D02*
X6324421Y-14912833D01*
X6324421Y-14912833D02*
X6343469Y-14903310D01*
X6343469Y-14903310D02*
X6352993Y-14893786D01*
X6352993Y-14893786D02*
X6372040Y-14865214D01*
X6372040Y-14865214D02*
X6381564Y-14827119D01*
X6381564Y-14827119D02*
X6381564Y-14750929D01*
X6381564Y-14750929D02*
X6372040Y-14731881D01*
X6372040Y-14731881D02*
X6362516Y-14722357D01*
X6362516Y-14722357D02*
X6343469Y-14712833D01*
X6343469Y-14712833D02*
X6305373Y-14712833D01*
X6305373Y-14712833D02*
X6286326Y-14722357D01*
X6286326Y-14722357D02*
X6276802Y-14731881D01*
X6276802Y-14731881D02*
X6267278Y-14750929D01*
X6267278Y-14750929D02*
X6267278Y-14798548D01*
X6267278Y-14798548D02*
X6276802Y-14817595D01*
X6276802Y-14817595D02*
X6286326Y-14827119D01*
X6286326Y-14827119D02*
X6305373Y-14836643D01*
X6305373Y-14836643D02*
X6343469Y-14836643D01*
X6343469Y-14836643D02*
X6362516Y-14827119D01*
X6362516Y-14827119D02*
X6372040Y-14817595D01*
X6372040Y-14817595D02*
X6381564Y-14798548D01*
X6552993Y-14712833D02*
X6514897Y-14712833D01*
X6514897Y-14712833D02*
X6495850Y-14722357D01*
X6495850Y-14722357D02*
X6486326Y-14731881D01*
X6486326Y-14731881D02*
X6467278Y-14760452D01*
X6467278Y-14760452D02*
X6457754Y-14798548D01*
X6457754Y-14798548D02*
X6457754Y-14874738D01*
X6457754Y-14874738D02*
X6467278Y-14893786D01*
X6467278Y-14893786D02*
X6476802Y-14903310D01*
X6476802Y-14903310D02*
X6495850Y-14912833D01*
X6495850Y-14912833D02*
X6533945Y-14912833D01*
X6533945Y-14912833D02*
X6552993Y-14903310D01*
X6552993Y-14903310D02*
X6562516Y-14893786D01*
X6562516Y-14893786D02*
X6572040Y-14874738D01*
X6572040Y-14874738D02*
X6572040Y-14827119D01*
X6572040Y-14827119D02*
X6562516Y-14808072D01*
X6562516Y-14808072D02*
X6552993Y-14798548D01*
X6552993Y-14798548D02*
X6533945Y-14789024D01*
X6533945Y-14789024D02*
X6495850Y-14789024D01*
X6495850Y-14789024D02*
X6476802Y-14798548D01*
X6476802Y-14798548D02*
X6467278Y-14808072D01*
X6467278Y-14808072D02*
X6457754Y-14827119D01*
X6667278Y-14912833D02*
X6705373Y-14912833D01*
X6705373Y-14912833D02*
X6724421Y-14903310D01*
X6724421Y-14903310D02*
X6733945Y-14893786D01*
X6733945Y-14893786D02*
X6752993Y-14865214D01*
X6752993Y-14865214D02*
X6762516Y-14827119D01*
X6762516Y-14827119D02*
X6762516Y-14750929D01*
X6762516Y-14750929D02*
X6752993Y-14731881D01*
X6752993Y-14731881D02*
X6743469Y-14722357D01*
X6743469Y-14722357D02*
X6724421Y-14712833D01*
X6724421Y-14712833D02*
X6686326Y-14712833D01*
X6686326Y-14712833D02*
X6667278Y-14722357D01*
X6667278Y-14722357D02*
X6657754Y-14731881D01*
X6657754Y-14731881D02*
X6648231Y-14750929D01*
X6648231Y-14750929D02*
X6648231Y-14798548D01*
X6648231Y-14798548D02*
X6657754Y-14817595D01*
X6657754Y-14817595D02*
X6667278Y-14827119D01*
X6667278Y-14827119D02*
X6686326Y-14836643D01*
X6686326Y-14836643D02*
X6724421Y-14836643D01*
X6724421Y-14836643D02*
X6743469Y-14827119D01*
X6743469Y-14827119D02*
X6752993Y-14817595D01*
X6752993Y-14817595D02*
X6762516Y-14798548D01*
X6838707Y-14712833D02*
X6838707Y-14750929D01*
X6914897Y-14712833D02*
X6914897Y-14750929D01*
X7210136Y-14989024D02*
X7200612Y-14979500D01*
X7200612Y-14979500D02*
X7181564Y-14950929D01*
X7181564Y-14950929D02*
X7172040Y-14931881D01*
X7172040Y-14931881D02*
X7162516Y-14903310D01*
X7162516Y-14903310D02*
X7152993Y-14855691D01*
X7152993Y-14855691D02*
X7152993Y-14817595D01*
X7152993Y-14817595D02*
X7162516Y-14769976D01*
X7162516Y-14769976D02*
X7172040Y-14741405D01*
X7172040Y-14741405D02*
X7181564Y-14722357D01*
X7181564Y-14722357D02*
X7200612Y-14693786D01*
X7200612Y-14693786D02*
X7210136Y-14684262D01*
X7381564Y-14712833D02*
X7286326Y-14712833D01*
X7286326Y-14712833D02*
X7276802Y-14808072D01*
X7276802Y-14808072D02*
X7286326Y-14798548D01*
X7286326Y-14798548D02*
X7305374Y-14789024D01*
X7305374Y-14789024D02*
X7352993Y-14789024D01*
X7352993Y-14789024D02*
X7372040Y-14798548D01*
X7372040Y-14798548D02*
X7381564Y-14808072D01*
X7381564Y-14808072D02*
X7391088Y-14827119D01*
X7391088Y-14827119D02*
X7391088Y-14874738D01*
X7391088Y-14874738D02*
X7381564Y-14893786D01*
X7381564Y-14893786D02*
X7372040Y-14903310D01*
X7372040Y-14903310D02*
X7352993Y-14912833D01*
X7352993Y-14912833D02*
X7305374Y-14912833D01*
X7305374Y-14912833D02*
X7286326Y-14903310D01*
X7286326Y-14903310D02*
X7276802Y-14893786D01*
X7629183Y-14912833D02*
X7629183Y-14712833D01*
X7714897Y-14912833D02*
X7714897Y-14808072D01*
X7714897Y-14808072D02*
X7705374Y-14789024D01*
X7705374Y-14789024D02*
X7686326Y-14779500D01*
X7686326Y-14779500D02*
X7657755Y-14779500D01*
X7657755Y-14779500D02*
X7638707Y-14789024D01*
X7638707Y-14789024D02*
X7629183Y-14798548D01*
X7838707Y-14912833D02*
X7819659Y-14903310D01*
X7819659Y-14903310D02*
X7810136Y-14893786D01*
X7810136Y-14893786D02*
X7800612Y-14874738D01*
X7800612Y-14874738D02*
X7800612Y-14817595D01*
X7800612Y-14817595D02*
X7810136Y-14798548D01*
X7810136Y-14798548D02*
X7819659Y-14789024D01*
X7819659Y-14789024D02*
X7838707Y-14779500D01*
X7838707Y-14779500D02*
X7867278Y-14779500D01*
X7867278Y-14779500D02*
X7886326Y-14789024D01*
X7886326Y-14789024D02*
X7895850Y-14798548D01*
X7895850Y-14798548D02*
X7905374Y-14817595D01*
X7905374Y-14817595D02*
X7905374Y-14874738D01*
X7905374Y-14874738D02*
X7895850Y-14893786D01*
X7895850Y-14893786D02*
X7886326Y-14903310D01*
X7886326Y-14903310D02*
X7867278Y-14912833D01*
X7867278Y-14912833D02*
X7838707Y-14912833D01*
X8019659Y-14912833D02*
X8000612Y-14903310D01*
X8000612Y-14903310D02*
X7991088Y-14884262D01*
X7991088Y-14884262D02*
X7991088Y-14712833D01*
X8172040Y-14903310D02*
X8152993Y-14912833D01*
X8152993Y-14912833D02*
X8114897Y-14912833D01*
X8114897Y-14912833D02*
X8095850Y-14903310D01*
X8095850Y-14903310D02*
X8086326Y-14884262D01*
X8086326Y-14884262D02*
X8086326Y-14808072D01*
X8086326Y-14808072D02*
X8095850Y-14789024D01*
X8095850Y-14789024D02*
X8114897Y-14779500D01*
X8114897Y-14779500D02*
X8152993Y-14779500D01*
X8152993Y-14779500D02*
X8172040Y-14789024D01*
X8172040Y-14789024D02*
X8181564Y-14808072D01*
X8181564Y-14808072D02*
X8181564Y-14827119D01*
X8181564Y-14827119D02*
X8086326Y-14846167D01*
X8257755Y-14903310D02*
X8276802Y-14912833D01*
X8276802Y-14912833D02*
X8314897Y-14912833D01*
X8314897Y-14912833D02*
X8333945Y-14903310D01*
X8333945Y-14903310D02*
X8343469Y-14884262D01*
X8343469Y-14884262D02*
X8343469Y-14874738D01*
X8343469Y-14874738D02*
X8333945Y-14855691D01*
X8333945Y-14855691D02*
X8314897Y-14846167D01*
X8314897Y-14846167D02*
X8286326Y-14846167D01*
X8286326Y-14846167D02*
X8267278Y-14836643D01*
X8267278Y-14836643D02*
X8257755Y-14817595D01*
X8257755Y-14817595D02*
X8257755Y-14808072D01*
X8257755Y-14808072D02*
X8267278Y-14789024D01*
X8267278Y-14789024D02*
X8286326Y-14779500D01*
X8286326Y-14779500D02*
X8314897Y-14779500D01*
X8314897Y-14779500D02*
X8333945Y-14789024D01*
X8410136Y-14989024D02*
X8419660Y-14979500D01*
X8419660Y-14979500D02*
X8438707Y-14950929D01*
X8438707Y-14950929D02*
X8448231Y-14931881D01*
X8448231Y-14931881D02*
X8457755Y-14903310D01*
X8457755Y-14903310D02*
X8467279Y-14855691D01*
X8467279Y-14855691D02*
X8467279Y-14817595D01*
X8467279Y-14817595D02*
X8457755Y-14769976D01*
X8457755Y-14769976D02*
X8448231Y-14741405D01*
X8448231Y-14741405D02*
X8438707Y-14722357D01*
X8438707Y-14722357D02*
X8419660Y-14693786D01*
X8419660Y-14693786D02*
X8410136Y-14684262D01*
X8772041Y-14989024D02*
X8762517Y-14979500D01*
X8762517Y-14979500D02*
X8743469Y-14950929D01*
X8743469Y-14950929D02*
X8733945Y-14931881D01*
X8733945Y-14931881D02*
X8724421Y-14903310D01*
X8724421Y-14903310D02*
X8714898Y-14855691D01*
X8714898Y-14855691D02*
X8714898Y-14817595D01*
X8714898Y-14817595D02*
X8724421Y-14769976D01*
X8724421Y-14769976D02*
X8733945Y-14741405D01*
X8733945Y-14741405D02*
X8743469Y-14722357D01*
X8743469Y-14722357D02*
X8762517Y-14693786D01*
X8762517Y-14693786D02*
X8772041Y-14684262D01*
X8848231Y-14779500D02*
X8848231Y-14912833D01*
X8848231Y-14798548D02*
X8857755Y-14789024D01*
X8857755Y-14789024D02*
X8876802Y-14779500D01*
X8876802Y-14779500D02*
X8905374Y-14779500D01*
X8905374Y-14779500D02*
X8924421Y-14789024D01*
X8924421Y-14789024D02*
X8933945Y-14808072D01*
X8933945Y-14808072D02*
X8933945Y-14912833D01*
X9057755Y-14912833D02*
X9038707Y-14903310D01*
X9038707Y-14903310D02*
X9029183Y-14893786D01*
X9029183Y-14893786D02*
X9019660Y-14874738D01*
X9019660Y-14874738D02*
X9019660Y-14817595D01*
X9019660Y-14817595D02*
X9029183Y-14798548D01*
X9029183Y-14798548D02*
X9038707Y-14789024D01*
X9038707Y-14789024D02*
X9057755Y-14779500D01*
X9057755Y-14779500D02*
X9086326Y-14779500D01*
X9086326Y-14779500D02*
X9105374Y-14789024D01*
X9105374Y-14789024D02*
X9114898Y-14798548D01*
X9114898Y-14798548D02*
X9124421Y-14817595D01*
X9124421Y-14817595D02*
X9124421Y-14874738D01*
X9124421Y-14874738D02*
X9114898Y-14893786D01*
X9114898Y-14893786D02*
X9105374Y-14903310D01*
X9105374Y-14903310D02*
X9086326Y-14912833D01*
X9086326Y-14912833D02*
X9057755Y-14912833D01*
X9181564Y-14779500D02*
X9257755Y-14779500D01*
X9210136Y-14712833D02*
X9210136Y-14884262D01*
X9210136Y-14884262D02*
X9219660Y-14903310D01*
X9219660Y-14903310D02*
X9238707Y-14912833D01*
X9238707Y-14912833D02*
X9257755Y-14912833D01*
X9476802Y-14779500D02*
X9476802Y-14979500D01*
X9476802Y-14789024D02*
X9495850Y-14779500D01*
X9495850Y-14779500D02*
X9533945Y-14779500D01*
X9533945Y-14779500D02*
X9552993Y-14789024D01*
X9552993Y-14789024D02*
X9562517Y-14798548D01*
X9562517Y-14798548D02*
X9572041Y-14817595D01*
X9572041Y-14817595D02*
X9572041Y-14874738D01*
X9572041Y-14874738D02*
X9562517Y-14893786D01*
X9562517Y-14893786D02*
X9552993Y-14903310D01*
X9552993Y-14903310D02*
X9533945Y-14912833D01*
X9533945Y-14912833D02*
X9495850Y-14912833D01*
X9495850Y-14912833D02*
X9476802Y-14903310D01*
X9686326Y-14912833D02*
X9667279Y-14903310D01*
X9667279Y-14903310D02*
X9657755Y-14884262D01*
X9657755Y-14884262D02*
X9657755Y-14712833D01*
X9848231Y-14912833D02*
X9848231Y-14808072D01*
X9848231Y-14808072D02*
X9838707Y-14789024D01*
X9838707Y-14789024D02*
X9819660Y-14779500D01*
X9819660Y-14779500D02*
X9781564Y-14779500D01*
X9781564Y-14779500D02*
X9762517Y-14789024D01*
X9848231Y-14903310D02*
X9829183Y-14912833D01*
X9829183Y-14912833D02*
X9781564Y-14912833D01*
X9781564Y-14912833D02*
X9762517Y-14903310D01*
X9762517Y-14903310D02*
X9752993Y-14884262D01*
X9752993Y-14884262D02*
X9752993Y-14865214D01*
X9752993Y-14865214D02*
X9762517Y-14846167D01*
X9762517Y-14846167D02*
X9781564Y-14836643D01*
X9781564Y-14836643D02*
X9829183Y-14836643D01*
X9829183Y-14836643D02*
X9848231Y-14827119D01*
X9914898Y-14779500D02*
X9991088Y-14779500D01*
X9943469Y-14712833D02*
X9943469Y-14884262D01*
X9943469Y-14884262D02*
X9952993Y-14903310D01*
X9952993Y-14903310D02*
X9972041Y-14912833D01*
X9972041Y-14912833D02*
X9991088Y-14912833D01*
X10133945Y-14903310D02*
X10114898Y-14912833D01*
X10114898Y-14912833D02*
X10076802Y-14912833D01*
X10076802Y-14912833D02*
X10057755Y-14903310D01*
X10057755Y-14903310D02*
X10048231Y-14884262D01*
X10048231Y-14884262D02*
X10048231Y-14808072D01*
X10048231Y-14808072D02*
X10057755Y-14789024D01*
X10057755Y-14789024D02*
X10076802Y-14779500D01*
X10076802Y-14779500D02*
X10114898Y-14779500D01*
X10114898Y-14779500D02*
X10133945Y-14789024D01*
X10133945Y-14789024D02*
X10143469Y-14808072D01*
X10143469Y-14808072D02*
X10143469Y-14827119D01*
X10143469Y-14827119D02*
X10048231Y-14846167D01*
X10314898Y-14912833D02*
X10314898Y-14712833D01*
X10314898Y-14903310D02*
X10295850Y-14912833D01*
X10295850Y-14912833D02*
X10257755Y-14912833D01*
X10257755Y-14912833D02*
X10238707Y-14903310D01*
X10238707Y-14903310D02*
X10229183Y-14893786D01*
X10229183Y-14893786D02*
X10219660Y-14874738D01*
X10219660Y-14874738D02*
X10219660Y-14817595D01*
X10219660Y-14817595D02*
X10229183Y-14798548D01*
X10229183Y-14798548D02*
X10238707Y-14789024D01*
X10238707Y-14789024D02*
X10257755Y-14779500D01*
X10257755Y-14779500D02*
X10295850Y-14779500D01*
X10295850Y-14779500D02*
X10314898Y-14789024D01*
X10391088Y-14989024D02*
X10400612Y-14979500D01*
X10400612Y-14979500D02*
X10419660Y-14950929D01*
X10419660Y-14950929D02*
X10429183Y-14931881D01*
X10429183Y-14931881D02*
X10438707Y-14903310D01*
X10438707Y-14903310D02*
X10448231Y-14855691D01*
X10448231Y-14855691D02*
X10448231Y-14817595D01*
X10448231Y-14817595D02*
X10438707Y-14769976D01*
X10438707Y-14769976D02*
X10429183Y-14741405D01*
X10429183Y-14741405D02*
X10419660Y-14722357D01*
X10419660Y-14722357D02*
X10400612Y-14693786D01*
X10400612Y-14693786D02*
X10391088Y-14684262D01*
M02*
