%TF.GenerationSoftware,KiCad,Pcbnew,9.0.0*%
%TF.CreationDate,2025-07-31T20:20:29+01:00*%
%TF.ProjectId,tempest-pcb-v-2,74656d70-6573-4742-9d70-63622d762d32,2*%
%TF.SameCoordinates,Original*%
%TF.FileFunction,Profile,NP*%
%FSLAX46Y46*%
G04 Gerber Fmt 4.6, Leading zero omitted, Abs format (unit mm)*
G04 Created by KiCad (PCBNEW 9.0.0) date 2025-07-31 20:20:29*
%MOMM*%
%LPD*%
G01*
G04 APERTURE LIST*
%TA.AperFunction,Profile*%
%ADD10C,0.150000*%
%TD*%
G04 APERTURE END LIST*
D10*
X58382485Y-79626365D02*
X57542485Y-84416365D01*
X56557515Y-84243635D02*
X57397515Y-79453635D01*
X57986236Y-77400798D02*
G75*
G02*
X57791706Y-77630296I-197836J-29502D01*
G01*
X56799581Y-75406269D02*
G75*
G02*
X57810757Y-76225235I27619J-999631D01*
G01*
X57986236Y-77400798D02*
X57810757Y-76225235D01*
X56799581Y-75406269D02*
X55423529Y-75444302D01*
X56167820Y-86558469D02*
G75*
G02*
X56647712Y-86253833I460380J-194931D01*
G01*
X56167820Y-86558469D02*
X55671369Y-87730919D01*
X56906156Y-86263876D02*
G75*
G02*
X57112935Y-86638679I-9756J-249824D01*
G01*
X57397515Y-79453635D02*
G75*
G02*
X58382485Y-79626365I492485J-86365D01*
G01*
X55657495Y-90716733D02*
G75*
G02*
X54807188Y-91851680I-989495J-144667D01*
G01*
X55412456Y-89040764D02*
G75*
G02*
X55671356Y-87730911I1978944J289364D01*
G01*
X56394012Y-88731913D02*
G75*
G02*
X56642474Y-87453637I1980588J278313D01*
G01*
X57112934Y-86638678D02*
X56642461Y-87453629D01*
X56394012Y-88731913D02*
X58310223Y-102366471D01*
X57447640Y-77635940D02*
G75*
G02*
X57193608Y-77392409I-4140J249940D01*
G01*
X57193625Y-77392409D02*
X57185982Y-77095573D01*
X57447640Y-77635940D02*
X57791706Y-77630298D01*
X52424499Y-72797846D02*
G75*
G02*
X53547065Y-73606512I139201J-990254D01*
G01*
X54912590Y-76190894D02*
G75*
G02*
X53873467Y-75374045I-55790J998394D01*
G01*
X55423529Y-75444302D02*
G75*
G02*
X54405646Y-74583855I-27629J999602D01*
G01*
X56130549Y-76122868D02*
G75*
G02*
X57185956Y-77095574I55751J-998432D01*
G01*
X56130549Y-76122868D02*
X54912590Y-76190894D01*
X55412456Y-89040764D02*
X55657495Y-90716733D01*
X53547045Y-73606516D02*
X53873452Y-75374048D01*
X53981940Y-71569134D02*
X54405632Y-74583857D01*
X118865392Y-112697578D02*
G75*
G02*
X117865422Y-111697578I8J999978D01*
G01*
X170839947Y-125898457D02*
G75*
G02*
X169480083Y-126268062I-866047J499957D01*
G01*
X179077117Y-109631261D02*
G75*
G02*
X179443153Y-110997292I-500017J-866039D01*
G01*
X168365392Y-46297578D02*
G75*
G02*
X169365422Y-47297578I8J-1000022D01*
G01*
X147865392Y-40797578D02*
G75*
G02*
X148865422Y-41797578I8J-1000022D01*
G01*
X129865392Y-38247578D02*
G75*
G02*
X130865422Y-39247578I8J-1000022D01*
G01*
X111865392Y-34847578D02*
G75*
G02*
X112865422Y-35847578I8J-1000022D01*
G01*
X92665392Y-35847578D02*
G75*
G02*
X93665392Y-34847592I1000008J-22D01*
G01*
X92665392Y-38786808D02*
G75*
G02*
X91734551Y-39784398I-999992J8D01*
G01*
X71882998Y-46806564D02*
G75*
G02*
X71024608Y-47866596I-997598J-69736D01*
G01*
X71559899Y-42186033D02*
G75*
G02*
X72487705Y-41118703I997601J69733D01*
G01*
X51184561Y-51664745D02*
G75*
G02*
X52035664Y-50535360I990239J139145D01*
G01*
X36435461Y-76054785D02*
G75*
G02*
X37286558Y-74925355I990239J139185D01*
G01*
X39958679Y-93938491D02*
G75*
G02*
X38829212Y-93087400I-139179J990291D01*
G01*
X59439664Y-103217566D02*
G75*
G02*
X58310235Y-102366469I-139164J990266D01*
G01*
X78313638Y-99555174D02*
G75*
G02*
X77462532Y-100684537I-990238J-139126D01*
G01*
X95282225Y-91852230D02*
G75*
G02*
X94354415Y-92919529I-997525J-69770D01*
G01*
X111665392Y-91447578D02*
G75*
G02*
X110665422Y-90447578I8J999978D01*
G01*
X39958679Y-93938491D02*
X54807187Y-91851670D01*
X59439664Y-103217566D02*
X77462543Y-100684615D01*
X78313638Y-99555174D02*
X77695491Y-95156825D01*
X78616002Y-94020088D02*
X94354417Y-92919551D01*
X95282225Y-91852230D02*
X95090982Y-89117334D01*
X96088546Y-88047578D02*
X109665392Y-88047578D01*
X110665392Y-89047578D02*
X110665392Y-90447578D01*
X111665392Y-91447578D02*
X116865392Y-91447578D01*
X117865392Y-111697578D02*
X117865392Y-92447578D01*
X118865392Y-112697578D02*
X136688921Y-112697578D01*
X136947740Y-112731652D02*
X153288723Y-117110205D01*
X169480105Y-126268023D02*
X153523721Y-117206565D01*
X170839947Y-125898457D02*
X179443142Y-110997286D01*
X179077117Y-109631261D02*
X169865392Y-104312869D01*
X169365392Y-103446844D02*
X169365392Y-47297578D01*
X168365392Y-46297578D02*
X149865392Y-46297578D01*
X148865392Y-45297578D02*
X148865392Y-41797578D01*
X147865392Y-40797578D02*
X131865392Y-40797578D01*
X130865392Y-39797578D02*
X130865392Y-39247578D01*
X129865392Y-38247578D02*
X113865392Y-38247578D01*
X112865392Y-37247578D02*
X112865392Y-35847578D01*
X111865392Y-34847578D02*
X93665392Y-34847578D01*
X92665392Y-38786808D02*
X92665392Y-35847578D01*
X91734552Y-39784414D02*
X72487706Y-41118711D01*
X71559899Y-42186033D02*
X71882998Y-46806564D01*
X71024607Y-47866588D02*
X52035656Y-50535304D01*
X51184561Y-51664745D02*
X53981940Y-71569134D01*
X52424499Y-72797846D02*
X37286556Y-74925344D01*
X36435461Y-76054785D02*
X38829238Y-93087396D01*
X77695491Y-95156825D02*
G75*
G02*
X78616003Y-94020105I990309J139125D01*
G01*
X95090982Y-89117334D02*
G75*
G02*
X96088546Y-88047648I997518J69734D01*
G01*
X109665392Y-88047578D02*
G75*
G02*
X110665422Y-89047578I8J-1000022D01*
G01*
X116865392Y-91447578D02*
G75*
G02*
X117865422Y-92447578I8J-1000022D01*
G01*
X136688921Y-112697578D02*
G75*
G02*
X136947739Y-112731657I-21J-1000022D01*
G01*
X153288723Y-117110205D02*
G75*
G02*
X153523719Y-117206568I-258823J-965895D01*
G01*
X169865392Y-104312869D02*
G75*
G02*
X169365358Y-103446844I500008J866069D01*
G01*
X149865392Y-46297578D02*
G75*
G02*
X148865422Y-45297578I8J999978D01*
G01*
X131865392Y-40797578D02*
G75*
G02*
X130865422Y-39797578I8J999978D01*
G01*
X113865392Y-38247578D02*
G75*
G02*
X112865422Y-37247578I8J999978D01*
G01*
X56647713Y-86253806D02*
X56906156Y-86263876D01*
X57542485Y-84416365D02*
G75*
G02*
X56557515Y-84243635I-492485J86365D01*
G01*
M02*
