M48
; DRILL file {KiCad 9.0.0} date 2025-07-31T20:20:09+0100
; FORMAT={-:-/ absolute / metric / decimal}
; #@! TF.CreationDate,2025-07-31T20:20:09+01:00
; #@! TF.GenerationSoftware,Kicad,Pcbnew,9.0.0
; #@! TF.FileFunction,NonPlated,1,2,NPTH
FMAT,2
METRIC
; #@! TA.AperFunction,NonPlated,NPTH,ComponentDrill
T1C0.900
; #@! TA.AperFunction,NonPlated,NPTH,ComponentDrill
T2C1.900
; #@! TA.AperFunction,NonPlated,NPTH,ComponentDrill
T3C2.000
; #@! TA.AperFunction,NonPlated,NPTH,ComponentDrill
T4C3.000
; #@! TA.AperFunction,NonPlated,NPTH,ComponentDrill
T5C3.400
; #@! TA.AperFunction,NonPlated,NPTH,ComponentDrill
T6C5.000
%
G90
G05
T1
X166.69Y-91.398
X166.69Y-94.398
T2
X42.188Y-83.931
X53.081Y-82.4
X56.937Y-59.541
X59.303Y-76.375
X61.669Y-93.21
X67.83Y-58.01
X70.196Y-74.845
X72.561Y-91.679
X76.749Y-50.444
X77.934Y-67.403
X79.12Y-84.361
X87.722Y-49.677
X88.908Y-66.635
X90.094Y-83.594
X97.265Y-44.448
X97.265Y-61.448
X97.265Y-78.448
X108.265Y-44.448
X108.265Y-61.448
X108.265Y-78.448
X115.265Y-47.848
X115.265Y-64.848
X115.265Y-81.848
X122.465Y-103.098
X126.265Y-47.848
X126.265Y-64.848
X126.265Y-81.848
X133.265Y-50.398
X133.265Y-67.398
X133.265Y-84.398
X133.465Y-103.098
X142.546Y-104.293
X144.265Y-50.398
X144.265Y-67.398
X144.265Y-84.398
X153.171Y-107.14
X161.633Y-110.645
X171.159Y-116.145
T3
X151.765Y-92.898
X165.765Y-99.398
T4
X42.161Y-80.148
X46.806Y-77.273
X52.064Y-78.756
X56.91Y-55.758
X59.276Y-72.592
X61.555Y-52.883
X61.642Y-89.427
X63.921Y-69.718
X66.287Y-86.552
X66.813Y-54.366
X69.179Y-71.201
X71.544Y-88.035
X76.986Y-46.668
X78.172Y-63.627
X79.357Y-80.586
X81.82Y-44.125
X83.006Y-61.084
X84.192Y-78.042
X86.961Y-45.971
X88.147Y-62.929
X89.333Y-79.888
X97.765Y-40.698
X97.765Y-57.698
X97.765Y-74.698
X102.765Y-38.498
X102.765Y-55.498
X102.765Y-72.498
X107.765Y-40.698
X107.765Y-57.698
X107.765Y-74.698
X115.765Y-44.098
X115.765Y-61.098
X115.765Y-78.098
X120.765Y-41.898
X120.765Y-58.898
X120.765Y-75.898
X122.965Y-99.348
X125.765Y-44.098
X125.765Y-61.098
X125.765Y-78.098
X127.965Y-97.148
X132.965Y-99.348
X133.765Y-46.648
X133.765Y-63.648
X133.765Y-80.648
X138.765Y-44.448
X138.765Y-61.448
X138.765Y-78.448
X143.765Y-46.648
X143.765Y-63.648
X143.765Y-80.648
X144.0Y-100.8
X149.399Y-99.969
X153.659Y-103.388
X163.941Y-107.648
X169.371Y-108.242
X172.601Y-112.648
T5
X47.634Y-83.165
X62.383Y-58.775
X64.749Y-75.61
X67.115Y-92.444
X82.235Y-50.06
X83.421Y-67.019
X84.607Y-83.978
X102.765Y-44.448
X102.765Y-61.448
X102.765Y-78.448
X120.765Y-47.848
X120.765Y-64.848
X120.765Y-81.848
X127.965Y-103.098
X138.765Y-50.398
X138.765Y-67.398
X138.765Y-84.398
X147.859Y-105.717
X166.396Y-113.395
T6
X74.451Y-76.368
X92.765Y-52.448
X124.765Y-92.448
X129.405Y-56.348
X157.388Y-108.788
M30
