%TF.GenerationSoftware,KiCad,Pcbnew,9.0.0*%
%TF.CreationDate,2025-07-31T20:20:29+01:00*%
%TF.ProjectId,tempest-pcb-v-2,74656d70-6573-4742-9d70-63622d762d32,2*%
%TF.SameCoordinates,Original*%
%TF.FileFunction,Legend,Top*%
%TF.FilePolarity,Positive*%
%FSLAX46Y46*%
G04 Gerber Fmt 4.6, Leading zero omitted, Abs format (unit mm)*
G04 Created by KiCad (PCBNEW 9.0.0) date 2025-07-31 20:20:29*
%MOMM*%
%LPD*%
G01*
G04 APERTURE LIST*
%ADD10C,0.150000*%
%ADD11C,0.100000*%
%ADD12C,0.120000*%
G04 APERTURE END LIST*
D10*
G36*
X121340012Y-70971893D02*
G01*
X121418038Y-71049919D01*
X121499915Y-71213673D01*
X121499915Y-71463977D01*
X121418037Y-71627731D01*
X121340011Y-71705758D01*
X121176258Y-71787635D01*
X120507058Y-71787635D01*
X120507058Y-70890016D01*
X121176258Y-70890016D01*
X121340012Y-70971893D01*
G37*
G36*
X127299268Y-73112238D02*
G01*
X114231515Y-73112238D01*
X114231515Y-70800384D01*
X114453737Y-70800384D01*
X114453737Y-70829648D01*
X114464936Y-70856684D01*
X114485628Y-70877376D01*
X114512664Y-70888575D01*
X114527296Y-70890016D01*
X115023724Y-70890016D01*
X115023724Y-72815016D01*
X115025165Y-72829648D01*
X115036364Y-72856684D01*
X115057056Y-72877376D01*
X115084092Y-72888575D01*
X115113356Y-72888575D01*
X115140392Y-72877376D01*
X115161084Y-72856684D01*
X115172283Y-72829648D01*
X115173724Y-72815016D01*
X115173724Y-70890016D01*
X115670153Y-70890016D01*
X115684785Y-70888575D01*
X115711821Y-70877376D01*
X115732513Y-70856684D01*
X115743712Y-70829648D01*
X115743712Y-70815016D01*
X116261820Y-70815016D01*
X116261820Y-72815016D01*
X116263261Y-72829648D01*
X116274460Y-72856684D01*
X116295152Y-72877376D01*
X116322188Y-72888575D01*
X116336820Y-72890016D01*
X117289201Y-72890016D01*
X117303833Y-72888575D01*
X117330869Y-72877376D01*
X117351561Y-72856684D01*
X117362760Y-72829648D01*
X117362760Y-72800384D01*
X117351561Y-72773348D01*
X117330869Y-72752656D01*
X117303833Y-72741457D01*
X117289201Y-72740016D01*
X116411820Y-72740016D01*
X116411820Y-71842397D01*
X117003487Y-71842397D01*
X117018119Y-71840956D01*
X117045155Y-71829757D01*
X117065847Y-71809065D01*
X117077046Y-71782029D01*
X117077046Y-71752765D01*
X117065847Y-71725729D01*
X117045155Y-71705037D01*
X117018119Y-71693838D01*
X117003487Y-71692397D01*
X116411820Y-71692397D01*
X116411820Y-70890016D01*
X117289201Y-70890016D01*
X117303833Y-70888575D01*
X117330869Y-70877376D01*
X117351561Y-70856684D01*
X117362760Y-70829648D01*
X117362760Y-70815016D01*
X118071344Y-70815016D01*
X118071344Y-72815016D01*
X118072785Y-72829648D01*
X118083984Y-72856684D01*
X118104676Y-72877376D01*
X118131712Y-72888575D01*
X118160976Y-72888575D01*
X118188012Y-72877376D01*
X118208704Y-72856684D01*
X118219903Y-72829648D01*
X118221344Y-72815016D01*
X118221344Y-71153083D01*
X118745047Y-72275304D01*
X118748221Y-72280663D01*
X118748881Y-72282476D01*
X118750055Y-72283758D01*
X118752541Y-72287954D01*
X118760950Y-72295654D01*
X118768645Y-72304057D01*
X118771663Y-72305465D01*
X118774122Y-72307717D01*
X118784834Y-72311612D01*
X118795163Y-72316433D01*
X118798491Y-72316579D01*
X118801623Y-72317718D01*
X118813017Y-72317217D01*
X118824399Y-72317717D01*
X118827527Y-72316579D01*
X118830859Y-72316433D01*
X118841190Y-72311611D01*
X118851900Y-72307717D01*
X118854357Y-72305465D01*
X118857377Y-72304057D01*
X118865075Y-72295651D01*
X118873481Y-72287953D01*
X118875964Y-72283760D01*
X118877141Y-72282476D01*
X118877801Y-72280660D01*
X118880975Y-72275303D01*
X119404677Y-71153084D01*
X119404677Y-72815016D01*
X119406118Y-72829648D01*
X119417317Y-72856684D01*
X119438009Y-72877376D01*
X119465045Y-72888575D01*
X119494309Y-72888575D01*
X119521345Y-72877376D01*
X119542037Y-72856684D01*
X119553236Y-72829648D01*
X119554677Y-72815016D01*
X119554677Y-70815016D01*
X120357058Y-70815016D01*
X120357058Y-72815016D01*
X120358499Y-72829648D01*
X120369698Y-72856684D01*
X120390390Y-72877376D01*
X120417426Y-72888575D01*
X120446690Y-72888575D01*
X120473726Y-72877376D01*
X120494418Y-72856684D01*
X120505617Y-72829648D01*
X120507058Y-72815016D01*
X120507058Y-71937635D01*
X121193963Y-71937635D01*
X121208595Y-71936194D01*
X121211084Y-71935162D01*
X121213772Y-71934972D01*
X121227504Y-71929717D01*
X121417980Y-71834479D01*
X121424276Y-71830515D01*
X121426107Y-71829757D01*
X121428168Y-71828065D01*
X121430423Y-71826646D01*
X121431720Y-71825150D01*
X121437472Y-71820430D01*
X121532711Y-71725190D01*
X121537428Y-71719441D01*
X121538927Y-71718142D01*
X121540348Y-71715883D01*
X121542038Y-71713825D01*
X121542795Y-71711995D01*
X121546759Y-71705699D01*
X121641997Y-71515223D01*
X121647252Y-71501491D01*
X121647442Y-71498803D01*
X121648474Y-71496314D01*
X121649915Y-71481682D01*
X121649915Y-71195968D01*
X121648474Y-71181336D01*
X121647442Y-71178846D01*
X121647252Y-71176159D01*
X121641997Y-71162427D01*
X121546759Y-70971951D01*
X121542796Y-70965656D01*
X121542038Y-70963824D01*
X121540346Y-70961762D01*
X121538927Y-70959508D01*
X121537430Y-70958209D01*
X121532710Y-70952459D01*
X121437472Y-70857221D01*
X121431720Y-70852500D01*
X121430423Y-70851005D01*
X121428168Y-70849585D01*
X121426107Y-70847894D01*
X121424276Y-70847135D01*
X121417980Y-70843172D01*
X121361668Y-70815016D01*
X122357058Y-70815016D01*
X122357058Y-72815016D01*
X122358499Y-72829648D01*
X122369698Y-72856684D01*
X122390390Y-72877376D01*
X122417426Y-72888575D01*
X122432058Y-72890016D01*
X123384439Y-72890016D01*
X123399071Y-72888575D01*
X123426107Y-72877376D01*
X123446799Y-72856684D01*
X123457998Y-72829648D01*
X123457998Y-72800384D01*
X123446799Y-72773348D01*
X123426107Y-72752656D01*
X123399071Y-72741457D01*
X123384439Y-72740016D01*
X122507058Y-72740016D01*
X122507058Y-71842397D01*
X123098725Y-71842397D01*
X123113357Y-71840956D01*
X123140393Y-71829757D01*
X123161085Y-71809065D01*
X123172284Y-71782029D01*
X123172284Y-71752765D01*
X123161085Y-71725729D01*
X123140393Y-71705037D01*
X123113357Y-71693838D01*
X123098725Y-71692397D01*
X122507058Y-71692397D01*
X122507058Y-71195968D01*
X124071344Y-71195968D01*
X124071344Y-71386444D01*
X124072785Y-71401076D01*
X124073816Y-71403565D01*
X124074007Y-71406253D01*
X124079262Y-71419985D01*
X124174500Y-71610461D01*
X124178463Y-71616757D01*
X124179222Y-71618588D01*
X124180913Y-71620649D01*
X124182333Y-71622904D01*
X124183828Y-71624201D01*
X124188549Y-71629953D01*
X124283787Y-71725191D01*
X124289540Y-71729913D01*
X124290836Y-71731407D01*
X124293086Y-71732823D01*
X124295152Y-71734519D01*
X124296986Y-71735278D01*
X124303279Y-71739240D01*
X124493755Y-71834479D01*
X124494824Y-71834888D01*
X124495260Y-71835211D01*
X124501396Y-71837403D01*
X124507486Y-71839734D01*
X124508026Y-71839772D01*
X124509106Y-71840158D01*
X124882073Y-71933399D01*
X125054298Y-72019512D01*
X125132324Y-72097538D01*
X125214201Y-72261292D01*
X125214201Y-72416358D01*
X125132323Y-72580112D01*
X125054297Y-72658139D01*
X124890544Y-72740016D01*
X124444228Y-72740016D01*
X124170061Y-72648627D01*
X124155724Y-72645367D01*
X124126534Y-72647442D01*
X124100361Y-72660528D01*
X124081187Y-72682635D01*
X124071933Y-72710398D01*
X124074008Y-72739588D01*
X124087094Y-72765761D01*
X124109201Y-72784935D01*
X124122627Y-72790929D01*
X124408341Y-72886167D01*
X124415594Y-72887816D01*
X124417426Y-72888575D01*
X124420080Y-72888836D01*
X124422678Y-72889427D01*
X124424652Y-72889286D01*
X124432058Y-72890016D01*
X124908249Y-72890016D01*
X124922881Y-72888575D01*
X124925370Y-72887543D01*
X124928058Y-72887353D01*
X124941790Y-72882098D01*
X125132266Y-72786860D01*
X125138562Y-72782896D01*
X125140393Y-72782138D01*
X125142454Y-72780446D01*
X125144709Y-72779027D01*
X125146006Y-72777531D01*
X125151758Y-72772811D01*
X125246997Y-72677571D01*
X125251714Y-72671822D01*
X125253213Y-72670523D01*
X125254634Y-72668264D01*
X125256324Y-72666206D01*
X125257081Y-72664376D01*
X125261045Y-72658080D01*
X125356283Y-72467604D01*
X125361538Y-72453872D01*
X125361728Y-72451184D01*
X125362760Y-72448695D01*
X125364201Y-72434063D01*
X125364201Y-72243587D01*
X125362760Y-72228955D01*
X125361728Y-72226465D01*
X125361538Y-72223778D01*
X125356283Y-72210046D01*
X125261045Y-72019570D01*
X125257082Y-72013275D01*
X125256324Y-72011443D01*
X125254632Y-72009381D01*
X125253213Y-72007127D01*
X125251716Y-72005828D01*
X125246996Y-72000078D01*
X125151758Y-71904840D01*
X125146006Y-71900119D01*
X125144709Y-71898624D01*
X125142454Y-71897204D01*
X125140393Y-71895513D01*
X125138562Y-71894754D01*
X125132266Y-71890791D01*
X124941790Y-71795553D01*
X124940718Y-71795142D01*
X124940284Y-71794821D01*
X124934147Y-71792628D01*
X124928058Y-71790298D01*
X124927518Y-71790259D01*
X124926439Y-71789874D01*
X124553472Y-71696632D01*
X124381247Y-71610519D01*
X124303221Y-71532493D01*
X124221344Y-71368739D01*
X124221344Y-71213673D01*
X124303221Y-71049919D01*
X124381247Y-70971893D01*
X124545001Y-70890016D01*
X124991317Y-70890016D01*
X125265484Y-70981405D01*
X125279821Y-70984665D01*
X125309011Y-70982590D01*
X125335184Y-70969504D01*
X125354358Y-70947397D01*
X125363612Y-70919634D01*
X125361537Y-70890444D01*
X125348451Y-70864271D01*
X125326344Y-70845097D01*
X125312918Y-70839103D01*
X125196761Y-70800384D01*
X125787071Y-70800384D01*
X125787071Y-70829648D01*
X125798270Y-70856684D01*
X125818962Y-70877376D01*
X125845998Y-70888575D01*
X125860630Y-70890016D01*
X126357058Y-70890016D01*
X126357058Y-72815016D01*
X126358499Y-72829648D01*
X126369698Y-72856684D01*
X126390390Y-72877376D01*
X126417426Y-72888575D01*
X126446690Y-72888575D01*
X126473726Y-72877376D01*
X126494418Y-72856684D01*
X126505617Y-72829648D01*
X126507058Y-72815016D01*
X126507058Y-70890016D01*
X127003487Y-70890016D01*
X127018119Y-70888575D01*
X127045155Y-70877376D01*
X127065847Y-70856684D01*
X127077046Y-70829648D01*
X127077046Y-70800384D01*
X127065847Y-70773348D01*
X127045155Y-70752656D01*
X127018119Y-70741457D01*
X127003487Y-70740016D01*
X125860630Y-70740016D01*
X125845998Y-70741457D01*
X125818962Y-70752656D01*
X125798270Y-70773348D01*
X125787071Y-70800384D01*
X125196761Y-70800384D01*
X125027204Y-70743865D01*
X125019950Y-70742215D01*
X125018119Y-70741457D01*
X125015464Y-70741195D01*
X125012867Y-70740605D01*
X125010892Y-70740745D01*
X125003487Y-70740016D01*
X124527296Y-70740016D01*
X124512664Y-70741457D01*
X124510174Y-70742488D01*
X124507487Y-70742679D01*
X124493755Y-70747934D01*
X124303279Y-70843172D01*
X124296984Y-70847134D01*
X124295152Y-70847893D01*
X124293090Y-70849584D01*
X124290836Y-70851004D01*
X124289537Y-70852500D01*
X124283787Y-70857221D01*
X124188549Y-70952459D01*
X124183828Y-70958210D01*
X124182333Y-70959508D01*
X124180913Y-70961762D01*
X124179222Y-70963824D01*
X124178463Y-70965654D01*
X124174500Y-70971951D01*
X124079262Y-71162427D01*
X124074007Y-71176159D01*
X124073816Y-71178846D01*
X124072785Y-71181336D01*
X124071344Y-71195968D01*
X122507058Y-71195968D01*
X122507058Y-70890016D01*
X123384439Y-70890016D01*
X123399071Y-70888575D01*
X123426107Y-70877376D01*
X123446799Y-70856684D01*
X123457998Y-70829648D01*
X123457998Y-70800384D01*
X123446799Y-70773348D01*
X123426107Y-70752656D01*
X123399071Y-70741457D01*
X123384439Y-70740016D01*
X122432058Y-70740016D01*
X122417426Y-70741457D01*
X122390390Y-70752656D01*
X122369698Y-70773348D01*
X122358499Y-70800384D01*
X122357058Y-70815016D01*
X121361668Y-70815016D01*
X121227504Y-70747934D01*
X121213772Y-70742679D01*
X121211084Y-70742488D01*
X121208595Y-70741457D01*
X121193963Y-70740016D01*
X120432058Y-70740016D01*
X120417426Y-70741457D01*
X120390390Y-70752656D01*
X120369698Y-70773348D01*
X120358499Y-70800384D01*
X120357058Y-70815016D01*
X119554677Y-70815016D01*
X119553729Y-70805394D01*
X119553807Y-70803629D01*
X119553462Y-70802680D01*
X119553236Y-70800384D01*
X119548252Y-70788353D01*
X119543807Y-70776127D01*
X119542677Y-70774893D01*
X119542037Y-70773348D01*
X119532831Y-70764142D01*
X119524043Y-70754546D01*
X119522528Y-70753839D01*
X119521345Y-70752656D01*
X119509313Y-70747672D01*
X119497525Y-70742171D01*
X119495855Y-70742097D01*
X119494309Y-70741457D01*
X119481280Y-70741457D01*
X119468289Y-70740886D01*
X119466719Y-70741457D01*
X119465045Y-70741457D01*
X119453018Y-70746438D01*
X119440788Y-70750886D01*
X119439554Y-70752015D01*
X119438009Y-70752656D01*
X119428803Y-70761861D01*
X119419207Y-70770650D01*
X119418032Y-70772632D01*
X119417317Y-70773348D01*
X119416638Y-70774984D01*
X119411713Y-70783300D01*
X118813010Y-72066233D01*
X118214308Y-70783300D01*
X118209382Y-70774984D01*
X118208704Y-70773348D01*
X118207988Y-70772632D01*
X118206814Y-70770650D01*
X118197217Y-70761861D01*
X118188012Y-70752656D01*
X118186466Y-70752015D01*
X118185233Y-70750886D01*
X118173002Y-70746438D01*
X118160976Y-70741457D01*
X118159302Y-70741457D01*
X118157732Y-70740886D01*
X118144731Y-70741457D01*
X118131712Y-70741457D01*
X118130167Y-70742096D01*
X118128496Y-70742170D01*
X118116697Y-70747676D01*
X118104676Y-70752656D01*
X118103493Y-70753838D01*
X118101978Y-70754546D01*
X118093189Y-70764142D01*
X118083984Y-70773348D01*
X118083343Y-70774893D01*
X118082214Y-70776127D01*
X118077766Y-70788357D01*
X118072785Y-70800384D01*
X118072558Y-70802679D01*
X118072214Y-70803628D01*
X118072291Y-70805394D01*
X118071344Y-70815016D01*
X117362760Y-70815016D01*
X117362760Y-70800384D01*
X117351561Y-70773348D01*
X117330869Y-70752656D01*
X117303833Y-70741457D01*
X117289201Y-70740016D01*
X116336820Y-70740016D01*
X116322188Y-70741457D01*
X116295152Y-70752656D01*
X116274460Y-70773348D01*
X116263261Y-70800384D01*
X116261820Y-70815016D01*
X115743712Y-70815016D01*
X115743712Y-70800384D01*
X115732513Y-70773348D01*
X115711821Y-70752656D01*
X115684785Y-70741457D01*
X115670153Y-70740016D01*
X114527296Y-70740016D01*
X114512664Y-70741457D01*
X114485628Y-70752656D01*
X114464936Y-70773348D01*
X114453737Y-70800384D01*
X114231515Y-70800384D01*
X114231515Y-70517794D01*
X127299268Y-70517794D01*
X127299268Y-73112238D01*
G37*
X128670154Y-71685730D02*
X128908249Y-72352397D01*
X128908249Y-72352397D02*
X129146344Y-71685730D01*
X130241583Y-71447635D02*
X130289202Y-71400016D01*
X130289202Y-71400016D02*
X130384440Y-71352397D01*
X130384440Y-71352397D02*
X130622535Y-71352397D01*
X130622535Y-71352397D02*
X130717773Y-71400016D01*
X130717773Y-71400016D02*
X130765392Y-71447635D01*
X130765392Y-71447635D02*
X130813011Y-71542873D01*
X130813011Y-71542873D02*
X130813011Y-71638111D01*
X130813011Y-71638111D02*
X130765392Y-71780968D01*
X130765392Y-71780968D02*
X130193964Y-72352397D01*
X130193964Y-72352397D02*
X130813011Y-72352397D01*
X162359473Y-115053731D02*
X162859473Y-114187706D01*
X162668997Y-114517621D02*
X162775285Y-114524000D01*
X162775285Y-114524000D02*
X162940242Y-114619238D01*
X162940242Y-114619238D02*
X162998911Y-114708097D01*
X162998911Y-114708097D02*
X163016341Y-114773146D01*
X163016341Y-114773146D02*
X163009961Y-114879434D01*
X163009961Y-114879434D02*
X162867104Y-115126869D01*
X162867104Y-115126869D02*
X162778246Y-115185539D01*
X162778246Y-115185539D02*
X162713197Y-115202968D01*
X162713197Y-115202968D02*
X162606909Y-115196589D01*
X162606909Y-115196589D02*
X162441952Y-115101351D01*
X162441952Y-115101351D02*
X162383282Y-115012492D01*
X163393875Y-114881143D02*
X163266738Y-115577541D01*
X163806268Y-115119238D02*
X163266738Y-115577541D01*
X163266738Y-115577541D02*
X163065212Y-115736119D01*
X163065212Y-115736119D02*
X163000163Y-115753548D01*
X163000163Y-115753548D02*
X162893875Y-115747169D01*
X164672293Y-115619239D02*
X165002208Y-115809715D01*
X164962678Y-115401992D02*
X164534107Y-116144300D01*
X164534107Y-116144300D02*
X164527727Y-116250588D01*
X164527727Y-116250588D02*
X164586396Y-116339446D01*
X164586396Y-116339446D02*
X164668875Y-116387065D01*
X164957550Y-116553732D02*
X165457550Y-115687707D01*
X165328704Y-116768018D02*
X165590609Y-116314385D01*
X165590609Y-116314385D02*
X165596988Y-116208097D01*
X165596988Y-116208097D02*
X165538319Y-116119239D01*
X165538319Y-116119239D02*
X165414601Y-116047810D01*
X165414601Y-116047810D02*
X165308313Y-116041431D01*
X165308313Y-116041431D02*
X165243264Y-116058860D01*
X165741097Y-117006113D02*
X166074430Y-116428763D01*
X165979192Y-116593720D02*
X166068050Y-116535051D01*
X166068050Y-116535051D02*
X166133099Y-116517621D01*
X166133099Y-116517621D02*
X166239387Y-116524001D01*
X166239387Y-116524001D02*
X166321866Y-116571620D01*
X166400926Y-117387066D02*
X166342257Y-117298207D01*
X166342257Y-117298207D02*
X166348637Y-117191919D01*
X166348637Y-117191919D02*
X166777208Y-116449612D01*
X166981696Y-116952573D02*
X166854559Y-117648971D01*
X167394089Y-117190668D02*
X166854559Y-117648971D01*
X166854559Y-117648971D02*
X166653033Y-117807548D01*
X166653033Y-117807548D02*
X166587984Y-117824978D01*
X166587984Y-117824978D02*
X166481696Y-117818598D01*
X166284448Y-88771466D02*
X167046353Y-88771466D01*
X166665400Y-89152419D02*
X166665400Y-88390514D01*
X166284448Y-97171466D02*
X167046353Y-97171466D01*
%TO.C,S1*%
X39922854Y-78594111D02*
X39839350Y-77999950D01*
X39839350Y-77999950D02*
X44275751Y-77376454D01*
X44709970Y-76729729D02*
X44581931Y-75818682D01*
X45007478Y-75253961D02*
X44581931Y-75818682D01*
X47978283Y-74836442D02*
X45007478Y-75253961D01*
X48543003Y-75261990D02*
X47978283Y-74836442D01*
X44709970Y-76729729D02*
G75*
G02*
X44275751Y-77376454I-540471J-106254D01*
G01*
X40493464Y-82654210D02*
X40423877Y-82159076D01*
X44949670Y-82027931D02*
X40493464Y-82654210D01*
X44852249Y-81334743D02*
X44949670Y-82027931D01*
X48604562Y-79292648D02*
X46326945Y-79612747D01*
X49030109Y-78727928D02*
X48604562Y-79292648D01*
X44849466Y-81314938D02*
G75*
G02*
X46326945Y-79612747I1589834J112357D01*
G01*
%TO.C,S2*%
X59403754Y-87873211D02*
X59320250Y-87279050D01*
X59320250Y-87279050D02*
X63756651Y-86655554D01*
X64190870Y-86008829D02*
X64062831Y-85097782D01*
X64488378Y-84533061D02*
X64062831Y-85097782D01*
X67459183Y-84115542D02*
X64488378Y-84533061D01*
X68023903Y-84541090D02*
X67459183Y-84115542D01*
X64190870Y-86008829D02*
G75*
G02*
X63756651Y-86655554I-540471J-106254D01*
G01*
X59974364Y-91933310D02*
X59904777Y-91438176D01*
X64430570Y-91307031D02*
X59974364Y-91933310D01*
X64333149Y-90613843D02*
X64430570Y-91307031D01*
X68085462Y-88571748D02*
X65807845Y-88891847D01*
X68511009Y-88007028D02*
X68085462Y-88571748D01*
X64330366Y-90594038D02*
G75*
G02*
X65807845Y-88891847I1589834J112357D01*
G01*
%TO.C,S3*%
X57037854Y-71038711D02*
X56954350Y-70444550D01*
X56954350Y-70444550D02*
X61390751Y-69821054D01*
X61824970Y-69174329D02*
X61696931Y-68263282D01*
X62122478Y-67698561D02*
X61696931Y-68263282D01*
X65093283Y-67281042D02*
X62122478Y-67698561D01*
X65658003Y-67706590D02*
X65093283Y-67281042D01*
X61824970Y-69174329D02*
G75*
G02*
X61390751Y-69821054I-540471J-106254D01*
G01*
X57608464Y-75098810D02*
X57538877Y-74603676D01*
X62064670Y-74472531D02*
X57608464Y-75098810D01*
X61967249Y-73779343D02*
X62064670Y-74472531D01*
X65719562Y-71737248D02*
X63441945Y-72057347D01*
X66145109Y-71172528D02*
X65719562Y-71737248D01*
X61964466Y-73759538D02*
G75*
G02*
X63441945Y-72057347I1589834J112357D01*
G01*
%TO.C,S4*%
X54671954Y-54204111D02*
X54588450Y-53609950D01*
X54588450Y-53609950D02*
X59024851Y-52986454D01*
X59459070Y-52339729D02*
X59331031Y-51428682D01*
X59756578Y-50863961D02*
X59331031Y-51428682D01*
X62727383Y-50446442D02*
X59756578Y-50863961D01*
X63292103Y-50871990D02*
X62727383Y-50446442D01*
X59459070Y-52339729D02*
G75*
G02*
X59024851Y-52986454I-540471J-106254D01*
G01*
X55242564Y-58264210D02*
X55172977Y-57769076D01*
X59698770Y-57637931D02*
X55242564Y-58264210D01*
X59601349Y-56944743D02*
X59698770Y-57637931D01*
X63353662Y-54902648D02*
X61076045Y-55222747D01*
X63779209Y-54337928D02*
X63353662Y-54902648D01*
X59598566Y-56924938D02*
G75*
G02*
X61076045Y-55222747I1589834J112357D01*
G01*
%TO.C,S5*%
X77233315Y-78879637D02*
X77191462Y-78281098D01*
X77191462Y-78281098D02*
X81660548Y-77968589D01*
X82138823Y-77353729D02*
X82074647Y-76435970D01*
X82538551Y-75902309D02*
X82074647Y-76435970D01*
X85531243Y-75693040D02*
X82538551Y-75902309D01*
X86064903Y-76156944D02*
X85531243Y-75693040D01*
X82138823Y-77353729D02*
G75*
G02*
X81660548Y-77968589I-546566J-68294D01*
G01*
X77519317Y-82969649D02*
X77484439Y-82470867D01*
X82008355Y-82655745D02*
X77519317Y-82969649D01*
X81959526Y-81957450D02*
X82008355Y-82655745D01*
X85845147Y-80182078D02*
X83550750Y-80342518D01*
X86309051Y-79648418D02*
X85845147Y-80182078D01*
X81958131Y-81937499D02*
G75*
G02*
X83550750Y-80342519I1593798J1182D01*
G01*
%TO.C,S6*%
X76047515Y-61921037D02*
X76005662Y-61322498D01*
X76005662Y-61322498D02*
X80474748Y-61009989D01*
X80953023Y-60395129D02*
X80888847Y-59477370D01*
X81352751Y-58943709D02*
X80888847Y-59477370D01*
X84345443Y-58734440D02*
X81352751Y-58943709D01*
X84879103Y-59198344D02*
X84345443Y-58734440D01*
X80953023Y-60395129D02*
G75*
G02*
X80474748Y-61009989I-546566J-68294D01*
G01*
X76333517Y-66011049D02*
X76298639Y-65512267D01*
X80822555Y-65697145D02*
X76333517Y-66011049D01*
X80773726Y-64998850D02*
X80822555Y-65697145D01*
X84659347Y-63223478D02*
X82364950Y-63383918D01*
X85123251Y-62689818D02*
X84659347Y-63223478D01*
X80772331Y-64978899D02*
G75*
G02*
X82364950Y-63383919I1593798J1182D01*
G01*
%TO.C,S7*%
X74861615Y-44962437D02*
X74819762Y-44363898D01*
X74819762Y-44363898D02*
X79288848Y-44051389D01*
X79767123Y-43436529D02*
X79702947Y-42518770D01*
X80166851Y-41985109D02*
X79702947Y-42518770D01*
X83159543Y-41775840D02*
X80166851Y-41985109D01*
X83693203Y-42239744D02*
X83159543Y-41775840D01*
X79767123Y-43436529D02*
G75*
G02*
X79288848Y-44051389I-546566J-68294D01*
G01*
X75147617Y-49052449D02*
X75112739Y-48553667D01*
X79636655Y-48738545D02*
X75147617Y-49052449D01*
X79587826Y-48040250D02*
X79636655Y-48738545D01*
X83473447Y-46264878D02*
X81179050Y-46425318D01*
X83937351Y-45731218D02*
X83473447Y-46264878D01*
X79586431Y-48020299D02*
G75*
G02*
X81179050Y-46425319I1593798J1182D01*
G01*
%TO.C,S8*%
X95765400Y-72847600D02*
X95765400Y-72247600D01*
X95765400Y-72247600D02*
X100245400Y-72247600D01*
X100765400Y-71667600D02*
X100765400Y-70747600D01*
X101265400Y-70247600D02*
X100765400Y-70747600D01*
X104265400Y-70247600D02*
X101265400Y-70247600D01*
X104765400Y-70747600D02*
X104265400Y-70247600D01*
X100765400Y-71667600D02*
G75*
G02*
X100245400Y-72247600I-549999J-30001D01*
G01*
X95765400Y-76947600D02*
X95765400Y-76447600D01*
X100265400Y-76947600D02*
X95765400Y-76947600D01*
X100265400Y-76247600D02*
X100265400Y-76947600D01*
X104265400Y-74747600D02*
X101965400Y-74747600D01*
X104765400Y-74247600D02*
X104265400Y-74747600D01*
X100265400Y-76227600D02*
G75*
G02*
X101965400Y-74747600I1589999J-109999D01*
G01*
%TO.C,S9*%
X95765400Y-55847600D02*
X95765400Y-55247600D01*
X95765400Y-55247600D02*
X100245400Y-55247600D01*
X100765400Y-54667600D02*
X100765400Y-53747600D01*
X101265400Y-53247600D02*
X100765400Y-53747600D01*
X104265400Y-53247600D02*
X101265400Y-53247600D01*
X104765400Y-53747600D02*
X104265400Y-53247600D01*
X100765400Y-54667600D02*
G75*
G02*
X100245400Y-55247600I-549999J-30001D01*
G01*
X95765400Y-59947600D02*
X95765400Y-59447600D01*
X100265400Y-59947600D02*
X95765400Y-59947600D01*
X100265400Y-59247600D02*
X100265400Y-59947600D01*
X104265400Y-57747600D02*
X101965400Y-57747600D01*
X104765400Y-57247600D02*
X104265400Y-57747600D01*
X100265400Y-59227600D02*
G75*
G02*
X101965400Y-57747600I1589999J-109999D01*
G01*
%TO.C,S10*%
X95765400Y-38847600D02*
X95765400Y-38247600D01*
X95765400Y-38247600D02*
X100245400Y-38247600D01*
X100765400Y-37667600D02*
X100765400Y-36747600D01*
X101265400Y-36247600D02*
X100765400Y-36747600D01*
X104265400Y-36247600D02*
X101265400Y-36247600D01*
X104765400Y-36747600D02*
X104265400Y-36247600D01*
X100765400Y-37667600D02*
G75*
G02*
X100245400Y-38247600I-549999J-30001D01*
G01*
X95765400Y-42947600D02*
X95765400Y-42447600D01*
X100265400Y-42947600D02*
X95765400Y-42947600D01*
X100265400Y-42247600D02*
X100265400Y-42947600D01*
X104265400Y-40747600D02*
X101965400Y-40747600D01*
X104765400Y-40247600D02*
X104265400Y-40747600D01*
X100265400Y-42227600D02*
G75*
G02*
X101965400Y-40747600I1589999J-109999D01*
G01*
%TO.C,S11*%
X113765400Y-76247600D02*
X113765400Y-75647600D01*
X113765400Y-75647600D02*
X118245400Y-75647600D01*
X118765400Y-75067600D02*
X118765400Y-74147600D01*
X119265400Y-73647600D02*
X118765400Y-74147600D01*
X122265400Y-73647600D02*
X119265400Y-73647600D01*
X122765400Y-74147600D02*
X122265400Y-73647600D01*
X118765400Y-75067600D02*
G75*
G02*
X118245400Y-75647600I-549999J-30001D01*
G01*
X113765400Y-80347600D02*
X113765400Y-79847600D01*
X118265400Y-80347600D02*
X113765400Y-80347600D01*
X118265400Y-79647600D02*
X118265400Y-80347600D01*
X122265400Y-78147600D02*
X119965400Y-78147600D01*
X122765400Y-77647600D02*
X122265400Y-78147600D01*
X118265400Y-79627600D02*
G75*
G02*
X119965400Y-78147600I1589999J-109999D01*
G01*
%TO.C,S12*%
X113765400Y-59247600D02*
X113765400Y-58647600D01*
X113765400Y-58647600D02*
X118245400Y-58647600D01*
X118765400Y-58067600D02*
X118765400Y-57147600D01*
X119265400Y-56647600D02*
X118765400Y-57147600D01*
X122265400Y-56647600D02*
X119265400Y-56647600D01*
X122765400Y-57147600D02*
X122265400Y-56647600D01*
X118765400Y-58067600D02*
G75*
G02*
X118245400Y-58647600I-549999J-30001D01*
G01*
X113765400Y-63347600D02*
X113765400Y-62847600D01*
X118265400Y-63347600D02*
X113765400Y-63347600D01*
X118265400Y-62647600D02*
X118265400Y-63347600D01*
X122265400Y-61147600D02*
X119965400Y-61147600D01*
X122765400Y-60647600D02*
X122265400Y-61147600D01*
X118265400Y-62627600D02*
G75*
G02*
X119965400Y-61147600I1589999J-109999D01*
G01*
%TO.C,S13*%
X113765400Y-42247600D02*
X113765400Y-41647600D01*
X113765400Y-41647600D02*
X118245400Y-41647600D01*
X118765400Y-41067600D02*
X118765400Y-40147600D01*
X119265400Y-39647600D02*
X118765400Y-40147600D01*
X122265400Y-39647600D02*
X119265400Y-39647600D01*
X122765400Y-40147600D02*
X122265400Y-39647600D01*
X118765400Y-41067600D02*
G75*
G02*
X118245400Y-41647600I-549999J-30001D01*
G01*
X113765400Y-46347600D02*
X113765400Y-45847600D01*
X118265400Y-46347600D02*
X113765400Y-46347600D01*
X118265400Y-45647600D02*
X118265400Y-46347600D01*
X122265400Y-44147600D02*
X119965400Y-44147600D01*
X122765400Y-43647600D02*
X122265400Y-44147600D01*
X118265400Y-45627600D02*
G75*
G02*
X119965400Y-44147600I1589999J-109999D01*
G01*
%TO.C,S14*%
X131765400Y-78797600D02*
X131765400Y-78197600D01*
X131765400Y-78197600D02*
X136245400Y-78197600D01*
X136765400Y-77617600D02*
X136765400Y-76697600D01*
X137265400Y-76197600D02*
X136765400Y-76697600D01*
X140265400Y-76197600D02*
X137265400Y-76197600D01*
X140765400Y-76697600D02*
X140265400Y-76197600D01*
X136765400Y-77617600D02*
G75*
G02*
X136245400Y-78197600I-549999J-30001D01*
G01*
X131765400Y-82897600D02*
X131765400Y-82397600D01*
X136265400Y-82897600D02*
X131765400Y-82897600D01*
X136265400Y-82197600D02*
X136265400Y-82897600D01*
X140265400Y-80697600D02*
X137965400Y-80697600D01*
X140765400Y-80197600D02*
X140265400Y-80697600D01*
X136265400Y-82177600D02*
G75*
G02*
X137965400Y-80697600I1589999J-109999D01*
G01*
%TO.C,S15*%
X131765400Y-61797600D02*
X131765400Y-61197600D01*
X131765400Y-61197600D02*
X136245400Y-61197600D01*
X136765400Y-60617600D02*
X136765400Y-59697600D01*
X137265400Y-59197600D02*
X136765400Y-59697600D01*
X140265400Y-59197600D02*
X137265400Y-59197600D01*
X140765400Y-59697600D02*
X140265400Y-59197600D01*
X136765400Y-60617600D02*
G75*
G02*
X136245400Y-61197600I-549999J-30001D01*
G01*
X131765400Y-65897600D02*
X131765400Y-65397600D01*
X136265400Y-65897600D02*
X131765400Y-65897600D01*
X136265400Y-65197600D02*
X136265400Y-65897600D01*
X140265400Y-63697600D02*
X137965400Y-63697600D01*
X140765400Y-63197600D02*
X140265400Y-63697600D01*
X136265400Y-65177600D02*
G75*
G02*
X137965400Y-63697600I1589999J-109999D01*
G01*
%TO.C,S16*%
X131765400Y-44797600D02*
X131765400Y-44197600D01*
X131765400Y-44197600D02*
X136245400Y-44197600D01*
X136765400Y-43617600D02*
X136765400Y-42697600D01*
X137265400Y-42197600D02*
X136765400Y-42697600D01*
X140265400Y-42197600D02*
X137265400Y-42197600D01*
X140765400Y-42697600D02*
X140265400Y-42197600D01*
X136765400Y-43617600D02*
G75*
G02*
X136245400Y-44197600I-549999J-30001D01*
G01*
X131765400Y-48897600D02*
X131765400Y-48397600D01*
X136265400Y-48897600D02*
X131765400Y-48897600D01*
X136265400Y-48197600D02*
X136265400Y-48897600D01*
X140265400Y-46697600D02*
X137965400Y-46697600D01*
X140765400Y-46197600D02*
X140265400Y-46697600D01*
X136265400Y-48177600D02*
G75*
G02*
X137965400Y-46697600I1589999J-109999D01*
G01*
%TO.C,S17*%
X120965400Y-97497600D02*
X120965400Y-96897600D01*
X120965400Y-96897600D02*
X125445400Y-96897600D01*
X125965400Y-96317600D02*
X125965400Y-95397600D01*
X126465400Y-94897600D02*
X125965400Y-95397600D01*
X129465400Y-94897600D02*
X126465400Y-94897600D01*
X129965400Y-95397600D02*
X129465400Y-94897600D01*
X125965400Y-96317600D02*
G75*
G02*
X125445400Y-96897600I-549999J-30001D01*
G01*
X120965400Y-101597600D02*
X120965400Y-101097600D01*
X125465400Y-101597600D02*
X120965400Y-101597600D01*
X125465400Y-100897600D02*
X125465400Y-101597600D01*
X129465400Y-99397600D02*
X127165400Y-99397600D01*
X129965400Y-98897600D02*
X129465400Y-99397600D01*
X125465400Y-100877600D02*
G75*
G02*
X127165400Y-99397600I1589999J-109999D01*
G01*
%TO.C,S18*%
X142546606Y-98495682D02*
X142701897Y-97916127D01*
X142701897Y-97916127D02*
X147029245Y-99075636D01*
X147681641Y-98649985D02*
X147919755Y-97761333D01*
X148532127Y-97407780D02*
X147919755Y-97761333D01*
X151429905Y-98184237D02*
X148532127Y-97407780D01*
X151783458Y-98796609D02*
X151429905Y-98184237D01*
X147681641Y-98649985D02*
G75*
G02*
X147029245Y-99075636I-539023J113372D01*
G01*
X141485448Y-102455978D02*
X141614857Y-101973015D01*
X145832114Y-103620664D02*
X141485448Y-102455978D01*
X146013287Y-102944516D02*
X145832114Y-103620664D01*
X150265219Y-102530903D02*
X148043590Y-101935619D01*
X150877592Y-102177350D02*
X150265219Y-102530903D01*
X146018464Y-102925197D02*
G75*
G02*
X148043590Y-101935620I1507351J-517773D01*
G01*
%TO.C,S19*%
X163134122Y-105045358D02*
X163434122Y-104525742D01*
X163434122Y-104525742D02*
X167313916Y-106765742D01*
X168054249Y-106523448D02*
X168514249Y-105726704D01*
X169197262Y-105543692D02*
X168514249Y-105726704D01*
X171795338Y-107043692D02*
X169197262Y-105543692D01*
X171978351Y-107726704D02*
X171795338Y-107043692D01*
X168054249Y-106523448D02*
G75*
G02*
X167313916Y-106765742I-491313J249018D01*
G01*
X161084122Y-108596062D02*
X161334122Y-108163049D01*
X164981236Y-110846062D02*
X161084122Y-108596062D01*
X165331236Y-110239844D02*
X164981236Y-110846062D01*
X169545338Y-110940806D02*
X167553480Y-109790806D01*
X170228351Y-110757793D02*
X169545338Y-110940806D01*
X165341236Y-110222524D02*
G75*
G02*
X167553480Y-109790806I1321981J-890261D01*
G01*
D11*
%TO.C,D1*%
X48577467Y-88082007D02*
X49072601Y-88012420D01*
X48633136Y-88478114D02*
X47983306Y-88165511D01*
X48521798Y-87685899D02*
X48633136Y-88478114D01*
X47983306Y-88165511D02*
X48521798Y-87685899D01*
X47983306Y-88165511D02*
X48059851Y-88710158D01*
X47983306Y-88165511D02*
X47906761Y-87620863D01*
X47587199Y-88221180D02*
X47983306Y-88165511D01*
%TO.C,D2*%
X68058467Y-97361107D02*
X68553601Y-97291520D01*
X68114136Y-97757214D02*
X67464306Y-97444611D01*
X68002798Y-96964999D02*
X68114136Y-97757214D01*
X67464306Y-97444611D02*
X68002798Y-96964999D01*
X67464306Y-97444611D02*
X67540851Y-97989258D01*
X67464306Y-97444611D02*
X67387761Y-96899963D01*
X67068199Y-97500280D02*
X67464306Y-97444611D01*
%TO.C,D3*%
X65692567Y-80526507D02*
X66187701Y-80456920D01*
X65748236Y-80922614D02*
X65098406Y-80610011D01*
X65636898Y-80130399D02*
X65748236Y-80922614D01*
X65098406Y-80610011D02*
X65636898Y-80130399D01*
X65098406Y-80610011D02*
X65174951Y-81154658D01*
X65098406Y-80610011D02*
X65021861Y-80065363D01*
X64702299Y-80665680D02*
X65098406Y-80610011D01*
%TO.C,D4*%
X63326567Y-63691907D02*
X63821701Y-63622320D01*
X63382236Y-64088014D02*
X62732406Y-63775411D01*
X63270898Y-63295799D02*
X63382236Y-64088014D01*
X62732406Y-63775411D02*
X63270898Y-63295799D01*
X62732406Y-63775411D02*
X62808951Y-64320058D01*
X62732406Y-63775411D02*
X62655861Y-63230763D01*
X62336299Y-63831080D02*
X62732406Y-63775411D01*
%TO.C,D5*%
X85205091Y-88948061D02*
X85703873Y-88913183D01*
X85232994Y-89347087D02*
X84606553Y-88989915D01*
X85177188Y-88549035D02*
X85232994Y-89347087D01*
X84606553Y-88989915D02*
X85177188Y-88549035D01*
X84606553Y-88989915D02*
X84644919Y-89538575D01*
X84606553Y-88989915D02*
X84568187Y-88441255D01*
X84207527Y-89017817D02*
X84606553Y-88989915D01*
%TO.C,D6*%
X84019191Y-71989561D02*
X84517973Y-71954683D01*
X84047094Y-72388587D02*
X83420653Y-72031415D01*
X83991288Y-71590535D02*
X84047094Y-72388587D01*
X83420653Y-72031415D02*
X83991288Y-71590535D01*
X83420653Y-72031415D02*
X83459019Y-72580075D01*
X83420653Y-72031415D02*
X83382287Y-71482755D01*
X83021627Y-72059317D02*
X83420653Y-72031415D01*
%TO.C,D7*%
X82833391Y-55030961D02*
X83332173Y-54996083D01*
X82861294Y-55429987D02*
X82234853Y-55072815D01*
X82805488Y-54631935D02*
X82861294Y-55429987D01*
X82234853Y-55072815D02*
X82805488Y-54631935D01*
X82234853Y-55072815D02*
X82273219Y-55621475D01*
X82234853Y-55072815D02*
X82196487Y-54524155D01*
X81835827Y-55100717D02*
X82234853Y-55072815D01*
%TO.C,D8*%
X103015400Y-83447600D02*
X103515400Y-83447600D01*
X103015400Y-83847600D02*
X102415400Y-83447600D01*
X103015400Y-83047600D02*
X103015400Y-83847600D01*
X102415400Y-83447600D02*
X103015400Y-83047600D01*
X102415400Y-83447600D02*
X102415400Y-83997600D01*
X102415400Y-83447600D02*
X102415400Y-82897600D01*
X102015400Y-83447600D02*
X102415400Y-83447600D01*
%TO.C,D9*%
X103015400Y-66447600D02*
X103515400Y-66447600D01*
X103015400Y-66847600D02*
X102415400Y-66447600D01*
X103015400Y-66047600D02*
X103015400Y-66847600D01*
X102415400Y-66447600D02*
X103015400Y-66047600D01*
X102415400Y-66447600D02*
X102415400Y-66997600D01*
X102415400Y-66447600D02*
X102415400Y-65897600D01*
X102015400Y-66447600D02*
X102415400Y-66447600D01*
%TO.C,D10*%
X103015400Y-49447600D02*
X103515400Y-49447600D01*
X103015400Y-49847600D02*
X102415400Y-49447600D01*
X103015400Y-49047600D02*
X103015400Y-49847600D01*
X102415400Y-49447600D02*
X103015400Y-49047600D01*
X102415400Y-49447600D02*
X102415400Y-49997600D01*
X102415400Y-49447600D02*
X102415400Y-48897600D01*
X102015400Y-49447600D02*
X102415400Y-49447600D01*
%TO.C,D11*%
X121015400Y-86847600D02*
X121515400Y-86847600D01*
X121015400Y-87247600D02*
X120415400Y-86847600D01*
X121015400Y-86447600D02*
X121015400Y-87247600D01*
X120415400Y-86847600D02*
X121015400Y-86447600D01*
X120415400Y-86847600D02*
X120415400Y-87397600D01*
X120415400Y-86847600D02*
X120415400Y-86297600D01*
X120015400Y-86847600D02*
X120415400Y-86847600D01*
%TO.C,D12*%
X121015400Y-69847600D02*
X121515400Y-69847600D01*
X121015400Y-70247600D02*
X120415400Y-69847600D01*
X121015400Y-69447600D02*
X121015400Y-70247600D01*
X120415400Y-69847600D02*
X121015400Y-69447600D01*
X120415400Y-69847600D02*
X120415400Y-70397600D01*
X120415400Y-69847600D02*
X120415400Y-69297600D01*
X120015400Y-69847600D02*
X120415400Y-69847600D01*
%TO.C,D13*%
X121015400Y-52847600D02*
X121515400Y-52847600D01*
X121015400Y-53247600D02*
X120415400Y-52847600D01*
X121015400Y-52447600D02*
X121015400Y-53247600D01*
X120415400Y-52847600D02*
X121015400Y-52447600D01*
X120415400Y-52847600D02*
X120415400Y-53397600D01*
X120415400Y-52847600D02*
X120415400Y-52297600D01*
X120015400Y-52847600D02*
X120415400Y-52847600D01*
%TO.C,D14*%
X139015400Y-89397600D02*
X139515400Y-89397600D01*
X139015400Y-89797600D02*
X138415400Y-89397600D01*
X139015400Y-88997600D02*
X139015400Y-89797600D01*
X138415400Y-89397600D02*
X139015400Y-88997600D01*
X138415400Y-89397600D02*
X138415400Y-89947600D01*
X138415400Y-89397600D02*
X138415400Y-88847600D01*
X138015400Y-89397600D02*
X138415400Y-89397600D01*
%TO.C,D15*%
X139015400Y-72397600D02*
X139515400Y-72397600D01*
X139015400Y-72797600D02*
X138415400Y-72397600D01*
X139015400Y-71997600D02*
X139015400Y-72797600D01*
X138415400Y-72397600D02*
X139015400Y-71997600D01*
X138415400Y-72397600D02*
X138415400Y-72947600D01*
X138415400Y-72397600D02*
X138415400Y-71847600D01*
X138015400Y-72397600D02*
X138415400Y-72397600D01*
%TO.C,D16*%
X139015400Y-55397600D02*
X139515400Y-55397600D01*
X139015400Y-55797600D02*
X138415400Y-55397600D01*
X139015400Y-54997600D02*
X139015400Y-55797600D01*
X138415400Y-55397600D02*
X139015400Y-54997600D01*
X138415400Y-55397600D02*
X138415400Y-55947600D01*
X138415400Y-55397600D02*
X138415400Y-54847600D01*
X138015400Y-55397600D02*
X138415400Y-55397600D01*
%TO.C,D17*%
X128215400Y-108097600D02*
X128715400Y-108097600D01*
X128215400Y-108497600D02*
X127615400Y-108097600D01*
X128215400Y-107697600D02*
X128215400Y-108497600D01*
X127615400Y-108097600D02*
X128215400Y-107697600D01*
X127615400Y-108097600D02*
X127615400Y-108647600D01*
X127615400Y-108097600D02*
X127615400Y-107547600D01*
X127215400Y-108097600D02*
X127615400Y-108097600D01*
%TO.C,D18*%
X146806081Y-110610905D02*
X147289044Y-110740314D01*
X146702554Y-110997275D02*
X146226526Y-110455613D01*
X146909609Y-110224534D02*
X146702554Y-110997275D01*
X146226526Y-110455613D02*
X146909609Y-110224534D01*
X146226526Y-110455613D02*
X146084175Y-110986873D01*
X146226526Y-110455613D02*
X146368876Y-109924354D01*
X145840156Y-110352086D02*
X146226526Y-110455613D01*
%TO.C,D19*%
X164112806Y-117850200D02*
X164545819Y-118100200D01*
X163912806Y-118196610D02*
X163593191Y-117550200D01*
X164312806Y-117503790D02*
X163912806Y-118196610D01*
X163593191Y-117550200D02*
X164312806Y-117503790D01*
X163593191Y-117550200D02*
X163318191Y-118026514D01*
X163593191Y-117550200D02*
X163868191Y-117073886D01*
X163246781Y-117350200D02*
X163593191Y-117550200D01*
D12*
%TO.C,DISP1*%
X152155400Y-82267600D02*
X152155400Y-84927600D01*
X164975400Y-84927600D02*
X152155400Y-84927600D01*
X164975400Y-82267600D02*
X164975400Y-84927600D01*
X164975400Y-82267600D02*
X152155400Y-82267600D01*
D11*
%TO.C,JST1*%
X154865400Y-87397600D02*
X154865400Y-88397600D01*
X154865400Y-90397600D02*
X154865400Y-89397600D01*
X155365400Y-89897600D02*
X154365400Y-89897600D01*
D12*
X163725400Y-86837600D02*
X163725400Y-85837600D01*
X163725400Y-85837600D02*
X162725400Y-85837600D01*
X163725400Y-91037600D02*
X163725400Y-91957600D01*
X163725400Y-91957600D02*
X162725400Y-91957600D01*
X155905400Y-86757600D02*
X155905400Y-85837600D01*
X155905400Y-85837600D02*
X156905400Y-85837600D01*
X155905400Y-91037600D02*
X155905400Y-91957600D01*
X155905400Y-91957600D02*
X156905400Y-91957600D01*
%TO.C,PWR1*%
X167080400Y-89447600D02*
X166290400Y-89447600D01*
X166290400Y-96347600D02*
X167080400Y-96347600D01*
X165240400Y-94497600D02*
X165240400Y-92797600D01*
X168090400Y-95747600D02*
X168090400Y-90047600D01*
X165240400Y-91497600D02*
X165240400Y-91297600D01*
D11*
%TO.C,RST1*%
X168565400Y-82247600D02*
X168815400Y-82247600D01*
X165565400Y-82247600D02*
X165315400Y-82247600D01*
X168815400Y-82497600D02*
X168815400Y-82247600D01*
X165315400Y-82497600D02*
X165315400Y-82247600D01*
X168815400Y-86697600D02*
X168815400Y-86947600D01*
X165315400Y-86697600D02*
X165315400Y-86947600D01*
X168565400Y-86947600D02*
X168815400Y-86947600D01*
X165565400Y-86947600D02*
X165315400Y-86947600D01*
%TD*%
M02*
