%TF.GenerationSoftware,KiCad,Pcbnew,9.0.0*%
%TF.CreationDate,2025-07-31T20:20:29+01:00*%
%TF.ProjectId,tempest-pcb-v-2,74656d70-6573-4742-9d70-63622d762d32,2*%
%TF.SameCoordinates,Original*%
%TF.FileFunction,Legend,Bot*%
%TF.FilePolarity,Positive*%
%FSLAX46Y46*%
G04 Gerber Fmt 4.6, Leading zero omitted, Abs format (unit mm)*
G04 Created by KiCad (PCBNEW 9.0.0) date 2025-07-31 20:20:29*
%MOMM*%
%LPD*%
G01*
G04 APERTURE LIST*
%ADD10C,0.150000*%
%ADD11C,0.100000*%
%ADD12C,0.120000*%
G04 APERTURE END LIST*
D10*
G36*
X121023725Y-71787635D02*
G01*
X120354525Y-71787635D01*
X120190771Y-71705758D01*
X120112745Y-71627731D01*
X120030868Y-71463977D01*
X120030868Y-71213673D01*
X120112745Y-71049919D01*
X120190771Y-70971893D01*
X120354525Y-70890016D01*
X121023725Y-70890016D01*
X121023725Y-71787635D01*
G37*
G36*
X127299268Y-73112238D02*
G01*
X114231515Y-73112238D01*
X114231515Y-70800384D01*
X114453737Y-70800384D01*
X114453737Y-70829648D01*
X114464936Y-70856684D01*
X114485628Y-70877376D01*
X114512664Y-70888575D01*
X114527296Y-70890016D01*
X115023725Y-70890016D01*
X115023725Y-72815016D01*
X115025166Y-72829648D01*
X115036365Y-72856684D01*
X115057057Y-72877376D01*
X115084093Y-72888575D01*
X115113357Y-72888575D01*
X115140393Y-72877376D01*
X115161085Y-72856684D01*
X115172284Y-72829648D01*
X115173725Y-72815016D01*
X115173725Y-72243587D01*
X116166582Y-72243587D01*
X116166582Y-72434063D01*
X116168023Y-72448695D01*
X116169054Y-72451184D01*
X116169245Y-72453872D01*
X116174500Y-72467604D01*
X116269738Y-72658080D01*
X116273700Y-72664374D01*
X116274459Y-72666206D01*
X116276152Y-72668268D01*
X116277571Y-72670523D01*
X116279066Y-72671819D01*
X116283787Y-72677572D01*
X116379025Y-72772811D01*
X116384775Y-72777531D01*
X116386074Y-72779028D01*
X116388328Y-72780447D01*
X116390390Y-72782139D01*
X116392222Y-72782897D01*
X116398517Y-72786860D01*
X116588993Y-72882098D01*
X116602725Y-72887353D01*
X116605412Y-72887543D01*
X116607902Y-72888575D01*
X116622534Y-72890016D01*
X117098725Y-72890016D01*
X117106130Y-72889286D01*
X117108105Y-72889427D01*
X117110702Y-72888836D01*
X117113357Y-72888575D01*
X117115188Y-72887816D01*
X117122442Y-72886167D01*
X117408156Y-72790929D01*
X117421582Y-72784935D01*
X117443689Y-72765761D01*
X117456775Y-72739588D01*
X117458850Y-72710398D01*
X117449596Y-72682635D01*
X117430422Y-72660528D01*
X117404249Y-72647442D01*
X117375059Y-72645367D01*
X117360722Y-72648627D01*
X117086555Y-72740016D01*
X116640239Y-72740016D01*
X116476485Y-72658139D01*
X116398459Y-72580112D01*
X116316582Y-72416358D01*
X116316582Y-72261292D01*
X116398459Y-72097538D01*
X116476485Y-72019512D01*
X116648709Y-71933399D01*
X117021677Y-71840158D01*
X117022756Y-71839772D01*
X117023297Y-71839734D01*
X117029393Y-71837400D01*
X117035522Y-71835211D01*
X117035956Y-71834889D01*
X117037028Y-71834479D01*
X117227504Y-71739240D01*
X117233800Y-71735276D01*
X117235631Y-71734518D01*
X117237692Y-71732826D01*
X117239947Y-71731407D01*
X117241243Y-71729911D01*
X117246996Y-71725191D01*
X117342234Y-71629953D01*
X117346954Y-71624202D01*
X117348451Y-71622904D01*
X117349870Y-71620649D01*
X117351562Y-71618588D01*
X117352320Y-71616755D01*
X117356283Y-71610461D01*
X117451521Y-71419985D01*
X117456776Y-71406253D01*
X117456966Y-71403565D01*
X117457998Y-71401076D01*
X117459439Y-71386444D01*
X117459439Y-71195968D01*
X117457998Y-71181336D01*
X117456966Y-71178846D01*
X117456776Y-71176159D01*
X117451521Y-71162427D01*
X117356283Y-70971951D01*
X117352320Y-70965656D01*
X117351562Y-70963824D01*
X117349870Y-70961762D01*
X117348451Y-70959508D01*
X117346954Y-70958209D01*
X117342234Y-70952459D01*
X117246996Y-70857221D01*
X117241244Y-70852500D01*
X117239947Y-70851005D01*
X117237692Y-70849585D01*
X117235631Y-70847894D01*
X117233800Y-70847135D01*
X117227504Y-70843172D01*
X117141928Y-70800384D01*
X118072785Y-70800384D01*
X118072785Y-70829648D01*
X118083984Y-70856684D01*
X118104676Y-70877376D01*
X118131712Y-70888575D01*
X118146344Y-70890016D01*
X119023725Y-70890016D01*
X119023725Y-71692397D01*
X118432058Y-71692397D01*
X118417426Y-71693838D01*
X118390390Y-71705037D01*
X118369698Y-71725729D01*
X118358499Y-71752765D01*
X118358499Y-71782029D01*
X118369698Y-71809065D01*
X118390390Y-71829757D01*
X118417426Y-71840956D01*
X118432058Y-71842397D01*
X119023725Y-71842397D01*
X119023725Y-72740016D01*
X118146344Y-72740016D01*
X118131712Y-72741457D01*
X118104676Y-72752656D01*
X118083984Y-72773348D01*
X118072785Y-72800384D01*
X118072785Y-72829648D01*
X118083984Y-72856684D01*
X118104676Y-72877376D01*
X118131712Y-72888575D01*
X118146344Y-72890016D01*
X119098725Y-72890016D01*
X119113357Y-72888575D01*
X119140393Y-72877376D01*
X119161085Y-72856684D01*
X119172284Y-72829648D01*
X119173725Y-72815016D01*
X119173725Y-71195968D01*
X119880868Y-71195968D01*
X119880868Y-71481682D01*
X119882309Y-71496314D01*
X119883340Y-71498803D01*
X119883531Y-71501491D01*
X119888786Y-71515223D01*
X119984024Y-71705699D01*
X119987986Y-71711993D01*
X119988745Y-71713825D01*
X119990438Y-71715887D01*
X119991857Y-71718142D01*
X119993352Y-71719438D01*
X119998073Y-71725191D01*
X120093311Y-71820430D01*
X120099061Y-71825150D01*
X120100360Y-71826647D01*
X120102614Y-71828066D01*
X120104676Y-71829758D01*
X120106508Y-71830516D01*
X120112803Y-71834479D01*
X120303279Y-71929717D01*
X120317011Y-71934972D01*
X120319698Y-71935162D01*
X120322188Y-71936194D01*
X120336820Y-71937635D01*
X121023725Y-71937635D01*
X121023725Y-72815016D01*
X121025166Y-72829648D01*
X121036365Y-72856684D01*
X121057057Y-72877376D01*
X121084093Y-72888575D01*
X121113357Y-72888575D01*
X121140393Y-72877376D01*
X121161085Y-72856684D01*
X121172284Y-72829648D01*
X121173725Y-72815016D01*
X121173725Y-70815016D01*
X121976106Y-70815016D01*
X121976106Y-72815016D01*
X121977547Y-72829648D01*
X121988746Y-72856684D01*
X122009438Y-72877376D01*
X122036474Y-72888575D01*
X122065738Y-72888575D01*
X122092774Y-72877376D01*
X122113466Y-72856684D01*
X122124665Y-72829648D01*
X122126106Y-72815016D01*
X122126106Y-71153083D01*
X122649808Y-72275303D01*
X122652981Y-72280660D01*
X122653642Y-72282476D01*
X122654818Y-72283760D01*
X122657302Y-72287953D01*
X122665707Y-72295651D01*
X122673406Y-72304057D01*
X122676425Y-72305465D01*
X122678883Y-72307717D01*
X122689592Y-72311611D01*
X122699924Y-72316433D01*
X122703255Y-72316579D01*
X122706384Y-72317717D01*
X122717767Y-72317216D01*
X122729160Y-72317717D01*
X122732291Y-72316578D01*
X122735620Y-72316432D01*
X122745946Y-72311613D01*
X122756661Y-72307717D01*
X122759119Y-72305465D01*
X122762138Y-72304057D01*
X122769836Y-72295651D01*
X122778242Y-72287953D01*
X122780725Y-72283760D01*
X122781902Y-72282476D01*
X122782562Y-72280660D01*
X122785736Y-72275303D01*
X123309439Y-71153083D01*
X123309439Y-72815016D01*
X123310880Y-72829648D01*
X123322079Y-72856684D01*
X123342771Y-72877376D01*
X123369807Y-72888575D01*
X123399071Y-72888575D01*
X123426107Y-72877376D01*
X123446799Y-72856684D01*
X123457998Y-72829648D01*
X123459439Y-72815016D01*
X123459439Y-70815016D01*
X123458491Y-70805394D01*
X123458569Y-70803628D01*
X123458224Y-70802679D01*
X123457998Y-70800384D01*
X124168023Y-70800384D01*
X124168023Y-70829648D01*
X124179222Y-70856684D01*
X124199914Y-70877376D01*
X124226950Y-70888575D01*
X124241582Y-70890016D01*
X125118963Y-70890016D01*
X125118963Y-71692397D01*
X124527296Y-71692397D01*
X124512664Y-71693838D01*
X124485628Y-71705037D01*
X124464936Y-71725729D01*
X124453737Y-71752765D01*
X124453737Y-71782029D01*
X124464936Y-71809065D01*
X124485628Y-71829757D01*
X124512664Y-71840956D01*
X124527296Y-71842397D01*
X125118963Y-71842397D01*
X125118963Y-72740016D01*
X124241582Y-72740016D01*
X124226950Y-72741457D01*
X124199914Y-72752656D01*
X124179222Y-72773348D01*
X124168023Y-72800384D01*
X124168023Y-72829648D01*
X124179222Y-72856684D01*
X124199914Y-72877376D01*
X124226950Y-72888575D01*
X124241582Y-72890016D01*
X125193963Y-72890016D01*
X125208595Y-72888575D01*
X125235631Y-72877376D01*
X125256323Y-72856684D01*
X125267522Y-72829648D01*
X125268963Y-72815016D01*
X125268963Y-70815016D01*
X125267522Y-70800384D01*
X125787071Y-70800384D01*
X125787071Y-70829648D01*
X125798270Y-70856684D01*
X125818962Y-70877376D01*
X125845998Y-70888575D01*
X125860630Y-70890016D01*
X126357059Y-70890016D01*
X126357059Y-72815016D01*
X126358500Y-72829648D01*
X126369699Y-72856684D01*
X126390391Y-72877376D01*
X126417427Y-72888575D01*
X126446691Y-72888575D01*
X126473727Y-72877376D01*
X126494419Y-72856684D01*
X126505618Y-72829648D01*
X126507059Y-72815016D01*
X126507059Y-70890016D01*
X127003487Y-70890016D01*
X127018119Y-70888575D01*
X127045155Y-70877376D01*
X127065847Y-70856684D01*
X127077046Y-70829648D01*
X127077046Y-70800384D01*
X127065847Y-70773348D01*
X127045155Y-70752656D01*
X127018119Y-70741457D01*
X127003487Y-70740016D01*
X125860630Y-70740016D01*
X125845998Y-70741457D01*
X125818962Y-70752656D01*
X125798270Y-70773348D01*
X125787071Y-70800384D01*
X125267522Y-70800384D01*
X125256323Y-70773348D01*
X125235631Y-70752656D01*
X125208595Y-70741457D01*
X125193963Y-70740016D01*
X124241582Y-70740016D01*
X124226950Y-70741457D01*
X124199914Y-70752656D01*
X124179222Y-70773348D01*
X124168023Y-70800384D01*
X123457998Y-70800384D01*
X123453016Y-70788357D01*
X123448569Y-70776127D01*
X123447439Y-70774893D01*
X123446799Y-70773348D01*
X123437593Y-70764142D01*
X123428805Y-70754546D01*
X123427289Y-70753838D01*
X123426107Y-70752656D01*
X123414085Y-70747676D01*
X123402287Y-70742170D01*
X123400614Y-70742096D01*
X123399071Y-70741457D01*
X123386065Y-70741457D01*
X123373051Y-70740885D01*
X123371478Y-70741457D01*
X123369807Y-70741457D01*
X123357788Y-70746435D01*
X123345550Y-70750886D01*
X123344316Y-70752016D01*
X123342771Y-70752656D01*
X123333572Y-70761854D01*
X123323969Y-70770649D01*
X123322793Y-70772633D01*
X123322079Y-70773348D01*
X123321402Y-70774981D01*
X123316475Y-70783299D01*
X122717772Y-72066233D01*
X122119070Y-70783300D01*
X122114144Y-70774984D01*
X122113466Y-70773348D01*
X122112750Y-70772632D01*
X122111576Y-70770650D01*
X122101979Y-70761861D01*
X122092774Y-70752656D01*
X122091228Y-70752015D01*
X122089995Y-70750886D01*
X122077764Y-70746438D01*
X122065738Y-70741457D01*
X122064064Y-70741457D01*
X122062494Y-70740886D01*
X122049493Y-70741457D01*
X122036474Y-70741457D01*
X122034929Y-70742096D01*
X122033258Y-70742170D01*
X122021459Y-70747676D01*
X122009438Y-70752656D01*
X122008255Y-70753838D01*
X122006740Y-70754546D01*
X121997951Y-70764142D01*
X121988746Y-70773348D01*
X121988105Y-70774893D01*
X121986976Y-70776127D01*
X121982528Y-70788357D01*
X121977547Y-70800384D01*
X121977320Y-70802679D01*
X121976976Y-70803628D01*
X121977053Y-70805394D01*
X121976106Y-70815016D01*
X121173725Y-70815016D01*
X121172284Y-70800384D01*
X121161085Y-70773348D01*
X121140393Y-70752656D01*
X121113357Y-70741457D01*
X121098725Y-70740016D01*
X120336820Y-70740016D01*
X120322188Y-70741457D01*
X120319698Y-70742488D01*
X120317011Y-70742679D01*
X120303279Y-70747934D01*
X120112803Y-70843172D01*
X120106508Y-70847134D01*
X120104676Y-70847893D01*
X120102614Y-70849584D01*
X120100360Y-70851004D01*
X120099061Y-70852500D01*
X120093311Y-70857221D01*
X119998073Y-70952459D01*
X119993352Y-70958210D01*
X119991857Y-70959508D01*
X119990437Y-70961762D01*
X119988746Y-70963824D01*
X119987987Y-70965654D01*
X119984024Y-70971951D01*
X119888786Y-71162427D01*
X119883531Y-71176159D01*
X119883340Y-71178846D01*
X119882309Y-71181336D01*
X119880868Y-71195968D01*
X119173725Y-71195968D01*
X119173725Y-70815016D01*
X119172284Y-70800384D01*
X119161085Y-70773348D01*
X119140393Y-70752656D01*
X119113357Y-70741457D01*
X119098725Y-70740016D01*
X118146344Y-70740016D01*
X118131712Y-70741457D01*
X118104676Y-70752656D01*
X118083984Y-70773348D01*
X118072785Y-70800384D01*
X117141928Y-70800384D01*
X117037028Y-70747934D01*
X117023296Y-70742679D01*
X117020608Y-70742488D01*
X117018119Y-70741457D01*
X117003487Y-70740016D01*
X116527296Y-70740016D01*
X116519890Y-70740745D01*
X116517916Y-70740605D01*
X116515318Y-70741195D01*
X116512664Y-70741457D01*
X116510832Y-70742215D01*
X116503579Y-70743865D01*
X116217865Y-70839103D01*
X116204439Y-70845097D01*
X116182332Y-70864271D01*
X116169246Y-70890444D01*
X116167171Y-70919634D01*
X116176425Y-70947397D01*
X116195599Y-70969504D01*
X116221772Y-70982590D01*
X116250962Y-70984665D01*
X116265299Y-70981405D01*
X116539466Y-70890016D01*
X116985782Y-70890016D01*
X117149536Y-70971893D01*
X117227562Y-71049919D01*
X117309439Y-71213673D01*
X117309439Y-71368739D01*
X117227562Y-71532493D01*
X117149535Y-71610519D01*
X116977310Y-71696632D01*
X116604344Y-71789874D01*
X116603264Y-71790259D01*
X116602725Y-71790298D01*
X116596643Y-71792625D01*
X116590498Y-71794821D01*
X116590062Y-71795143D01*
X116588993Y-71795553D01*
X116398517Y-71890791D01*
X116392222Y-71894753D01*
X116390390Y-71895512D01*
X116388328Y-71897203D01*
X116386074Y-71898623D01*
X116384775Y-71900119D01*
X116379025Y-71904840D01*
X116283787Y-72000078D01*
X116279066Y-72005829D01*
X116277571Y-72007127D01*
X116276151Y-72009381D01*
X116274460Y-72011443D01*
X116273701Y-72013273D01*
X116269738Y-72019570D01*
X116174500Y-72210046D01*
X116169245Y-72223778D01*
X116169054Y-72226465D01*
X116168023Y-72228955D01*
X116166582Y-72243587D01*
X115173725Y-72243587D01*
X115173725Y-70890016D01*
X115670153Y-70890016D01*
X115684785Y-70888575D01*
X115711821Y-70877376D01*
X115732513Y-70856684D01*
X115743712Y-70829648D01*
X115743712Y-70800384D01*
X115732513Y-70773348D01*
X115711821Y-70752656D01*
X115684785Y-70741457D01*
X115670153Y-70740016D01*
X114527296Y-70740016D01*
X114512664Y-70741457D01*
X114485628Y-70752656D01*
X114464936Y-70773348D01*
X114453737Y-70800384D01*
X114231515Y-70800384D01*
X114231515Y-70517794D01*
X127299268Y-70517794D01*
X127299268Y-73112238D01*
G37*
X130860629Y-71685730D02*
X130622534Y-72352397D01*
X130622534Y-72352397D02*
X130384439Y-71685730D01*
X129289200Y-71447635D02*
X129241581Y-71400016D01*
X129241581Y-71400016D02*
X129146343Y-71352397D01*
X129146343Y-71352397D02*
X128908248Y-71352397D01*
X128908248Y-71352397D02*
X128813010Y-71400016D01*
X128813010Y-71400016D02*
X128765391Y-71447635D01*
X128765391Y-71447635D02*
X128717772Y-71542873D01*
X128717772Y-71542873D02*
X128717772Y-71638111D01*
X128717772Y-71638111D02*
X128765391Y-71780968D01*
X128765391Y-71780968D02*
X129336819Y-72352397D01*
X129336819Y-72352397D02*
X128717772Y-72352397D01*
X166978277Y-117720399D02*
X167478277Y-116854374D01*
X167287801Y-117184288D02*
X167229132Y-117095430D01*
X167229132Y-117095430D02*
X167064175Y-117000192D01*
X167064175Y-117000192D02*
X166957886Y-116993812D01*
X166957886Y-116993812D02*
X166892838Y-117011242D01*
X166892838Y-117011242D02*
X166803979Y-117069911D01*
X166803979Y-117069911D02*
X166661122Y-117317347D01*
X166661122Y-117317347D02*
X166654742Y-117423635D01*
X166654742Y-117423635D02*
X166672172Y-117488684D01*
X166672172Y-117488684D02*
X166730841Y-117577542D01*
X166730841Y-117577542D02*
X166895798Y-117672780D01*
X166895798Y-117672780D02*
X167002087Y-117679160D01*
X166610542Y-116738287D02*
X166071012Y-117196590D01*
X166198149Y-116500192D02*
X166071012Y-117196590D01*
X166071012Y-117196590D02*
X166034443Y-117450405D01*
X166034443Y-117450405D02*
X166051873Y-117515454D01*
X166051873Y-117515454D02*
X166110542Y-117604312D01*
X165332123Y-116000192D02*
X165002209Y-115809715D01*
X165375072Y-115640088D02*
X164946501Y-116382395D01*
X164946501Y-116382395D02*
X164857642Y-116441064D01*
X164857642Y-116441064D02*
X164751354Y-116434685D01*
X164751354Y-116434685D02*
X164668875Y-116387066D01*
X164380200Y-116220399D02*
X164880200Y-115354373D01*
X164009046Y-116006113D02*
X164270951Y-115552481D01*
X164270951Y-115552481D02*
X164359809Y-115493812D01*
X164359809Y-115493812D02*
X164466097Y-115500191D01*
X164466097Y-115500191D02*
X164589815Y-115571620D01*
X164589815Y-115571620D02*
X164648484Y-115660478D01*
X164648484Y-115660478D02*
X164665914Y-115725527D01*
X163596653Y-115768018D02*
X163929986Y-115190667D01*
X163834748Y-115355625D02*
X163841128Y-115249337D01*
X163841128Y-115249337D02*
X163823698Y-115184288D01*
X163823698Y-115184288D02*
X163765029Y-115095429D01*
X163765029Y-115095429D02*
X163682551Y-115047810D01*
X162936824Y-115387065D02*
X163043112Y-115393445D01*
X163043112Y-115393445D02*
X163131970Y-115334776D01*
X163131970Y-115334776D02*
X163560542Y-114592468D01*
X163022721Y-114666858D02*
X162483191Y-115125160D01*
X162610328Y-114428762D02*
X162483191Y-115125160D01*
X162483191Y-115125160D02*
X162446622Y-115378976D01*
X162446622Y-115378976D02*
X162464052Y-115444025D01*
X162464052Y-115444025D02*
X162522721Y-115532883D01*
X167046351Y-88771466D02*
X166284447Y-88771466D01*
X166665399Y-89152419D02*
X166665399Y-88390514D01*
X167046351Y-97171466D02*
X166284447Y-97171466D01*
%TO.C,S1*%
X45007478Y-75253961D02*
X44581931Y-75818682D01*
X47978283Y-74836442D02*
X45007478Y-75253961D01*
X48543003Y-75261990D02*
X47978283Y-74836442D01*
X48543003Y-75261990D02*
X48671043Y-76173036D01*
X49266702Y-76675022D02*
X53703103Y-76051526D01*
X53703103Y-76051526D02*
X53786607Y-76645687D01*
X49266702Y-76675022D02*
G75*
G02*
X48671042Y-76173036I-46837J548823D01*
G01*
X45633757Y-79710168D02*
X45069037Y-79284620D01*
X47911374Y-79390070D02*
X45633757Y-79710168D01*
X49901011Y-81332065D02*
X49803589Y-80638877D01*
X54357217Y-80705786D02*
X49901011Y-81332065D01*
X54287630Y-80210652D02*
X54357217Y-80705786D01*
X47911374Y-79390070D02*
G75*
G02*
X49800806Y-80619072I330215J-1559217D01*
G01*
%TO.C,S2*%
X64488378Y-84533061D02*
X64062831Y-85097782D01*
X67459183Y-84115542D02*
X64488378Y-84533061D01*
X68023903Y-84541090D02*
X67459183Y-84115542D01*
X68023903Y-84541090D02*
X68151943Y-85452136D01*
X68747602Y-85954122D02*
X73184003Y-85330626D01*
X73184003Y-85330626D02*
X73267507Y-85924787D01*
X68747602Y-85954122D02*
G75*
G02*
X68151942Y-85452136I-46837J548823D01*
G01*
X65114657Y-88989268D02*
X64549937Y-88563720D01*
X67392274Y-88669170D02*
X65114657Y-88989268D01*
X69381911Y-90611165D02*
X69284489Y-89917977D01*
X73838117Y-89984886D02*
X69381911Y-90611165D01*
X73768530Y-89489752D02*
X73838117Y-89984886D01*
X67392274Y-88669170D02*
G75*
G02*
X69281706Y-89898172I330215J-1559217D01*
G01*
%TO.C,S3*%
X62122478Y-67698561D02*
X61696931Y-68263282D01*
X65093283Y-67281042D02*
X62122478Y-67698561D01*
X65658003Y-67706590D02*
X65093283Y-67281042D01*
X65658003Y-67706590D02*
X65786043Y-68617636D01*
X66381702Y-69119622D02*
X70818103Y-68496126D01*
X70818103Y-68496126D02*
X70901607Y-69090287D01*
X66381702Y-69119622D02*
G75*
G02*
X65786042Y-68617636I-46837J548823D01*
G01*
X62748757Y-72154768D02*
X62184037Y-71729220D01*
X65026374Y-71834670D02*
X62748757Y-72154768D01*
X67016011Y-73776665D02*
X66918589Y-73083477D01*
X71472217Y-73150386D02*
X67016011Y-73776665D01*
X71402630Y-72655252D02*
X71472217Y-73150386D01*
X65026374Y-71834670D02*
G75*
G02*
X66915806Y-73063672I330215J-1559217D01*
G01*
%TO.C,S4*%
X59756578Y-50863961D02*
X59331031Y-51428682D01*
X62727383Y-50446442D02*
X59756578Y-50863961D01*
X63292103Y-50871990D02*
X62727383Y-50446442D01*
X63292103Y-50871990D02*
X63420143Y-51783036D01*
X64015802Y-52285022D02*
X68452203Y-51661526D01*
X68452203Y-51661526D02*
X68535707Y-52255687D01*
X64015802Y-52285022D02*
G75*
G02*
X63420142Y-51783036I-46837J548823D01*
G01*
X60382857Y-55320168D02*
X59818137Y-54894620D01*
X62660474Y-55000070D02*
X60382857Y-55320168D01*
X64650111Y-56942065D02*
X64552689Y-56248877D01*
X69106317Y-56315786D02*
X64650111Y-56942065D01*
X69036730Y-55820652D02*
X69106317Y-56315786D01*
X62660474Y-55000070D02*
G75*
G02*
X64549906Y-56229072I330215J-1559217D01*
G01*
%TO.C,S5*%
X82538551Y-75902309D02*
X82074647Y-76435970D01*
X85531243Y-75693040D02*
X82538551Y-75902309D01*
X86064903Y-76156944D02*
X85531243Y-75693040D01*
X86064903Y-76156944D02*
X86129079Y-77074703D01*
X86688271Y-77617017D02*
X91157358Y-77304508D01*
X91157358Y-77304508D02*
X91199212Y-77903046D01*
X86688271Y-77617017D02*
G75*
G02*
X86129079Y-77074703I-8439J550753D01*
G01*
X82852455Y-80391348D02*
X82318795Y-79927444D01*
X85146852Y-80230908D02*
X82852455Y-80391348D01*
X86996175Y-82306963D02*
X86947346Y-81608668D01*
X91485214Y-81993059D02*
X86996175Y-82306963D01*
X91450335Y-81494277D02*
X91485214Y-81993059D01*
X85146852Y-80230908D02*
G75*
G02*
X86945950Y-81588717I220645J-1578453D01*
G01*
%TO.C,S6*%
X81352751Y-58943709D02*
X80888847Y-59477370D01*
X84345443Y-58734440D02*
X81352751Y-58943709D01*
X84879103Y-59198344D02*
X84345443Y-58734440D01*
X84879103Y-59198344D02*
X84943279Y-60116103D01*
X85502471Y-60658417D02*
X89971558Y-60345908D01*
X89971558Y-60345908D02*
X90013412Y-60944446D01*
X85502471Y-60658417D02*
G75*
G02*
X84943279Y-60116103I-8439J550753D01*
G01*
X81666655Y-63432748D02*
X81132995Y-62968844D01*
X83961052Y-63272308D02*
X81666655Y-63432748D01*
X85810375Y-65348363D02*
X85761546Y-64650068D01*
X90299414Y-65034459D02*
X85810375Y-65348363D01*
X90264535Y-64535677D02*
X90299414Y-65034459D01*
X83961052Y-63272308D02*
G75*
G02*
X85760150Y-64630117I220645J-1578453D01*
G01*
%TO.C,S7*%
X80166851Y-41985109D02*
X79702947Y-42518770D01*
X83159543Y-41775840D02*
X80166851Y-41985109D01*
X83693203Y-42239744D02*
X83159543Y-41775840D01*
X83693203Y-42239744D02*
X83757379Y-43157503D01*
X84316571Y-43699817D02*
X88785658Y-43387308D01*
X88785658Y-43387308D02*
X88827512Y-43985846D01*
X84316571Y-43699817D02*
G75*
G02*
X83757379Y-43157503I-8439J550753D01*
G01*
X80480755Y-46474148D02*
X79947095Y-46010244D01*
X82775152Y-46313708D02*
X80480755Y-46474148D01*
X84624475Y-48389763D02*
X84575646Y-47691468D01*
X89113514Y-48075859D02*
X84624475Y-48389763D01*
X89078635Y-47577077D02*
X89113514Y-48075859D01*
X82775152Y-46313708D02*
G75*
G02*
X84574250Y-47671517I220645J-1578453D01*
G01*
%TO.C,S8*%
X101265400Y-70247600D02*
X100765400Y-70747600D01*
X104265400Y-70247600D02*
X101265400Y-70247600D01*
X104765400Y-70747600D02*
X104265400Y-70247600D01*
X104765400Y-70747600D02*
X104765400Y-71667600D01*
X105285400Y-72247600D02*
X109765400Y-72247600D01*
X109765400Y-72247600D02*
X109765400Y-72847600D01*
X105285400Y-72247600D02*
G75*
G02*
X104765400Y-71667600I30000J550000D01*
G01*
X101265400Y-74747600D02*
X100765400Y-74247600D01*
X103565400Y-74747600D02*
X101265400Y-74747600D01*
X105265400Y-76947600D02*
X105265400Y-76247600D01*
X109765400Y-76947600D02*
X105265400Y-76947600D01*
X109765400Y-76447600D02*
X109765400Y-76947600D01*
X103565400Y-74747600D02*
G75*
G02*
X105265400Y-76227600I110000J-1590000D01*
G01*
%TO.C,S9*%
X101265400Y-53247600D02*
X100765400Y-53747600D01*
X104265400Y-53247600D02*
X101265400Y-53247600D01*
X104765400Y-53747600D02*
X104265400Y-53247600D01*
X104765400Y-53747600D02*
X104765400Y-54667600D01*
X105285400Y-55247600D02*
X109765400Y-55247600D01*
X109765400Y-55247600D02*
X109765400Y-55847600D01*
X105285400Y-55247600D02*
G75*
G02*
X104765400Y-54667600I30000J550000D01*
G01*
X101265400Y-57747600D02*
X100765400Y-57247600D01*
X103565400Y-57747600D02*
X101265400Y-57747600D01*
X105265400Y-59947600D02*
X105265400Y-59247600D01*
X109765400Y-59947600D02*
X105265400Y-59947600D01*
X109765400Y-59447600D02*
X109765400Y-59947600D01*
X103565400Y-57747600D02*
G75*
G02*
X105265400Y-59227600I110000J-1590000D01*
G01*
%TO.C,S10*%
X101265400Y-36247600D02*
X100765400Y-36747600D01*
X104265400Y-36247600D02*
X101265400Y-36247600D01*
X104765400Y-36747600D02*
X104265400Y-36247600D01*
X104765400Y-36747600D02*
X104765400Y-37667600D01*
X105285400Y-38247600D02*
X109765400Y-38247600D01*
X109765400Y-38247600D02*
X109765400Y-38847600D01*
X105285400Y-38247600D02*
G75*
G02*
X104765400Y-37667600I30000J550000D01*
G01*
X101265400Y-40747600D02*
X100765400Y-40247600D01*
X103565400Y-40747600D02*
X101265400Y-40747600D01*
X105265400Y-42947600D02*
X105265400Y-42247600D01*
X109765400Y-42947600D02*
X105265400Y-42947600D01*
X109765400Y-42447600D02*
X109765400Y-42947600D01*
X103565400Y-40747600D02*
G75*
G02*
X105265400Y-42227600I110000J-1590000D01*
G01*
%TO.C,S11*%
X119265400Y-73647600D02*
X118765400Y-74147600D01*
X122265400Y-73647600D02*
X119265400Y-73647600D01*
X122765400Y-74147600D02*
X122265400Y-73647600D01*
X122765400Y-74147600D02*
X122765400Y-75067600D01*
X123285400Y-75647600D02*
X127765400Y-75647600D01*
X127765400Y-75647600D02*
X127765400Y-76247600D01*
X123285400Y-75647600D02*
G75*
G02*
X122765400Y-75067600I30000J550000D01*
G01*
X119265400Y-78147600D02*
X118765400Y-77647600D01*
X121565400Y-78147600D02*
X119265400Y-78147600D01*
X123265400Y-80347600D02*
X123265400Y-79647600D01*
X127765400Y-80347600D02*
X123265400Y-80347600D01*
X127765400Y-79847600D02*
X127765400Y-80347600D01*
X121565400Y-78147600D02*
G75*
G02*
X123265400Y-79627600I110000J-1590000D01*
G01*
%TO.C,S12*%
X119265400Y-56647600D02*
X118765400Y-57147600D01*
X122265400Y-56647600D02*
X119265400Y-56647600D01*
X122765400Y-57147600D02*
X122265400Y-56647600D01*
X122765400Y-57147600D02*
X122765400Y-58067600D01*
X123285400Y-58647600D02*
X127765400Y-58647600D01*
X127765400Y-58647600D02*
X127765400Y-59247600D01*
X123285400Y-58647600D02*
G75*
G02*
X122765400Y-58067600I30000J550000D01*
G01*
X119265400Y-61147600D02*
X118765400Y-60647600D01*
X121565400Y-61147600D02*
X119265400Y-61147600D01*
X123265400Y-63347600D02*
X123265400Y-62647600D01*
X127765400Y-63347600D02*
X123265400Y-63347600D01*
X127765400Y-62847600D02*
X127765400Y-63347600D01*
X121565400Y-61147600D02*
G75*
G02*
X123265400Y-62627600I110000J-1590000D01*
G01*
%TO.C,S13*%
X119265400Y-39647600D02*
X118765400Y-40147600D01*
X122265400Y-39647600D02*
X119265400Y-39647600D01*
X122765400Y-40147600D02*
X122265400Y-39647600D01*
X122765400Y-40147600D02*
X122765400Y-41067600D01*
X123285400Y-41647600D02*
X127765400Y-41647600D01*
X127765400Y-41647600D02*
X127765400Y-42247600D01*
X123285400Y-41647600D02*
G75*
G02*
X122765400Y-41067600I30000J550000D01*
G01*
X119265400Y-44147600D02*
X118765400Y-43647600D01*
X121565400Y-44147600D02*
X119265400Y-44147600D01*
X123265400Y-46347600D02*
X123265400Y-45647600D01*
X127765400Y-46347600D02*
X123265400Y-46347600D01*
X127765400Y-45847600D02*
X127765400Y-46347600D01*
X121565400Y-44147600D02*
G75*
G02*
X123265400Y-45627600I110000J-1590000D01*
G01*
%TO.C,S14*%
X137265400Y-76197600D02*
X136765400Y-76697600D01*
X140265400Y-76197600D02*
X137265400Y-76197600D01*
X140765400Y-76697600D02*
X140265400Y-76197600D01*
X140765400Y-76697600D02*
X140765400Y-77617600D01*
X141285400Y-78197600D02*
X145765400Y-78197600D01*
X145765400Y-78197600D02*
X145765400Y-78797600D01*
X141285400Y-78197600D02*
G75*
G02*
X140765400Y-77617600I30000J550000D01*
G01*
X137265400Y-80697600D02*
X136765400Y-80197600D01*
X139565400Y-80697600D02*
X137265400Y-80697600D01*
X141265400Y-82897600D02*
X141265400Y-82197600D01*
X145765400Y-82897600D02*
X141265400Y-82897600D01*
X145765400Y-82397600D02*
X145765400Y-82897600D01*
X139565400Y-80697600D02*
G75*
G02*
X141265400Y-82177600I110000J-1590000D01*
G01*
%TO.C,S15*%
X137265400Y-59197600D02*
X136765400Y-59697600D01*
X140265400Y-59197600D02*
X137265400Y-59197600D01*
X140765400Y-59697600D02*
X140265400Y-59197600D01*
X140765400Y-59697600D02*
X140765400Y-60617600D01*
X141285400Y-61197600D02*
X145765400Y-61197600D01*
X145765400Y-61197600D02*
X145765400Y-61797600D01*
X141285400Y-61197600D02*
G75*
G02*
X140765400Y-60617600I30000J550000D01*
G01*
X137265400Y-63697600D02*
X136765400Y-63197600D01*
X139565400Y-63697600D02*
X137265400Y-63697600D01*
X141265400Y-65897600D02*
X141265400Y-65197600D01*
X145765400Y-65897600D02*
X141265400Y-65897600D01*
X145765400Y-65397600D02*
X145765400Y-65897600D01*
X139565400Y-63697600D02*
G75*
G02*
X141265400Y-65177600I110000J-1590000D01*
G01*
%TO.C,S16*%
X137265400Y-42197600D02*
X136765400Y-42697600D01*
X140265400Y-42197600D02*
X137265400Y-42197600D01*
X140765400Y-42697600D02*
X140265400Y-42197600D01*
X140765400Y-42697600D02*
X140765400Y-43617600D01*
X141285400Y-44197600D02*
X145765400Y-44197600D01*
X145765400Y-44197600D02*
X145765400Y-44797600D01*
X141285400Y-44197600D02*
G75*
G02*
X140765400Y-43617600I30000J550000D01*
G01*
X137265400Y-46697600D02*
X136765400Y-46197600D01*
X139565400Y-46697600D02*
X137265400Y-46697600D01*
X141265400Y-48897600D02*
X141265400Y-48197600D01*
X145765400Y-48897600D02*
X141265400Y-48897600D01*
X145765400Y-48397600D02*
X145765400Y-48897600D01*
X139565400Y-46697600D02*
G75*
G02*
X141265400Y-48177600I110000J-1590000D01*
G01*
%TO.C,S17*%
X126465400Y-94897600D02*
X125965400Y-95397600D01*
X129465400Y-94897600D02*
X126465400Y-94897600D01*
X129965400Y-95397600D02*
X129465400Y-94897600D01*
X129965400Y-95397600D02*
X129965400Y-96317600D01*
X130485400Y-96897600D02*
X134965400Y-96897600D01*
X134965400Y-96897600D02*
X134965400Y-97497600D01*
X130485400Y-96897600D02*
G75*
G02*
X129965400Y-96317600I30000J550000D01*
G01*
X126465400Y-99397600D02*
X125965400Y-98897600D01*
X128765400Y-99397600D02*
X126465400Y-99397600D01*
X130465400Y-101597600D02*
X130465400Y-100897600D01*
X134965400Y-101597600D02*
X130465400Y-101597600D01*
X134965400Y-101097600D02*
X134965400Y-101597600D01*
X128765400Y-99397600D02*
G75*
G02*
X130465400Y-100877600I110000J-1590000D01*
G01*
%TO.C,S18*%
X148532127Y-97407780D02*
X147919755Y-97761333D01*
X151429905Y-98184237D02*
X148532127Y-97407780D01*
X151783458Y-98796609D02*
X151429905Y-98184237D01*
X151783458Y-98796609D02*
X151545345Y-99685261D01*
X151897511Y-100380084D02*
X156224859Y-101539593D01*
X156224859Y-101539593D02*
X156069567Y-102119149D01*
X151897511Y-100380084D02*
G75*
G02*
X151545344Y-99685261I171328J523495D01*
G01*
X147367442Y-101754446D02*
X147013888Y-101142073D01*
X149589071Y-102349730D02*
X147367442Y-101754446D01*
X150661743Y-104914759D02*
X150842916Y-104238611D01*
X155008409Y-106079445D02*
X150661743Y-104914759D01*
X155137819Y-105596482D02*
X155008409Y-106079445D01*
X149589071Y-102349730D02*
G75*
G02*
X150848093Y-104219292I-305270J-1564292D01*
G01*
%TO.C,S19*%
X169197262Y-105543692D02*
X168514249Y-105726704D01*
X171795338Y-107043692D02*
X169197262Y-105543692D01*
X171978351Y-107726704D02*
X171795338Y-107043692D01*
X171978351Y-107726704D02*
X171518351Y-108523448D01*
X171678684Y-109285742D02*
X175558478Y-111525742D01*
X175558478Y-111525742D02*
X175258478Y-112045358D01*
X171678684Y-109285742D02*
G75*
G02*
X171518352Y-108523448I300981J461313D01*
G01*
X166947262Y-109440806D02*
X166764249Y-108757793D01*
X168939120Y-110590806D02*
X166947262Y-109440806D01*
X169311364Y-113346062D02*
X169661364Y-112739844D01*
X173208478Y-115596062D02*
X169311364Y-113346062D01*
X173458478Y-115163049D02*
X173208478Y-115596062D01*
X168939120Y-110590806D02*
G75*
G02*
X169671363Y-112722523I-699737J-1431980D01*
G01*
D11*
%TO.C,D1*%
X48577467Y-88082007D02*
X49072601Y-88012420D01*
X48633136Y-88478114D02*
X47983306Y-88165511D01*
X48521798Y-87685899D02*
X48633136Y-88478114D01*
X47983306Y-88165511D02*
X48521798Y-87685899D01*
X47983306Y-88165511D02*
X48059851Y-88710158D01*
X47983306Y-88165511D02*
X47906761Y-87620863D01*
X47587199Y-88221180D02*
X47983306Y-88165511D01*
%TO.C,D2*%
X68058467Y-97361107D02*
X68553601Y-97291520D01*
X68114136Y-97757214D02*
X67464306Y-97444611D01*
X68002798Y-96964999D02*
X68114136Y-97757214D01*
X67464306Y-97444611D02*
X68002798Y-96964999D01*
X67464306Y-97444611D02*
X67540851Y-97989258D01*
X67464306Y-97444611D02*
X67387761Y-96899963D01*
X67068199Y-97500280D02*
X67464306Y-97444611D01*
%TO.C,D3*%
X65692567Y-80526507D02*
X66187701Y-80456920D01*
X65748236Y-80922614D02*
X65098406Y-80610011D01*
X65636898Y-80130399D02*
X65748236Y-80922614D01*
X65098406Y-80610011D02*
X65636898Y-80130399D01*
X65098406Y-80610011D02*
X65174951Y-81154658D01*
X65098406Y-80610011D02*
X65021861Y-80065363D01*
X64702299Y-80665680D02*
X65098406Y-80610011D01*
%TO.C,D4*%
X63326567Y-63691907D02*
X63821701Y-63622320D01*
X63382236Y-64088014D02*
X62732406Y-63775411D01*
X63270898Y-63295799D02*
X63382236Y-64088014D01*
X62732406Y-63775411D02*
X63270898Y-63295799D01*
X62732406Y-63775411D02*
X62808951Y-64320058D01*
X62732406Y-63775411D02*
X62655861Y-63230763D01*
X62336299Y-63831080D02*
X62732406Y-63775411D01*
%TO.C,D5*%
X85205091Y-88948061D02*
X85703873Y-88913183D01*
X85232994Y-89347087D02*
X84606553Y-88989915D01*
X85177188Y-88549035D02*
X85232994Y-89347087D01*
X84606553Y-88989915D02*
X85177188Y-88549035D01*
X84606553Y-88989915D02*
X84644919Y-89538575D01*
X84606553Y-88989915D02*
X84568187Y-88441255D01*
X84207527Y-89017817D02*
X84606553Y-88989915D01*
%TO.C,D6*%
X84019191Y-71989561D02*
X84517973Y-71954683D01*
X84047094Y-72388587D02*
X83420653Y-72031415D01*
X83991288Y-71590535D02*
X84047094Y-72388587D01*
X83420653Y-72031415D02*
X83991288Y-71590535D01*
X83420653Y-72031415D02*
X83459019Y-72580075D01*
X83420653Y-72031415D02*
X83382287Y-71482755D01*
X83021627Y-72059317D02*
X83420653Y-72031415D01*
%TO.C,D7*%
X82833391Y-55030961D02*
X83332173Y-54996083D01*
X82861294Y-55429987D02*
X82234853Y-55072815D01*
X82805488Y-54631935D02*
X82861294Y-55429987D01*
X82234853Y-55072815D02*
X82805488Y-54631935D01*
X82234853Y-55072815D02*
X82273219Y-55621475D01*
X82234853Y-55072815D02*
X82196487Y-54524155D01*
X81835827Y-55100717D02*
X82234853Y-55072815D01*
%TO.C,D8*%
X103015400Y-83447600D02*
X103515400Y-83447600D01*
X103015400Y-83847600D02*
X102415400Y-83447600D01*
X103015400Y-83047600D02*
X103015400Y-83847600D01*
X102415400Y-83447600D02*
X103015400Y-83047600D01*
X102415400Y-83447600D02*
X102415400Y-83997600D01*
X102415400Y-83447600D02*
X102415400Y-82897600D01*
X102015400Y-83447600D02*
X102415400Y-83447600D01*
%TO.C,D9*%
X103015400Y-66447600D02*
X103515400Y-66447600D01*
X103015400Y-66847600D02*
X102415400Y-66447600D01*
X103015400Y-66047600D02*
X103015400Y-66847600D01*
X102415400Y-66447600D02*
X103015400Y-66047600D01*
X102415400Y-66447600D02*
X102415400Y-66997600D01*
X102415400Y-66447600D02*
X102415400Y-65897600D01*
X102015400Y-66447600D02*
X102415400Y-66447600D01*
%TO.C,D10*%
X103015400Y-49447600D02*
X103515400Y-49447600D01*
X103015400Y-49847600D02*
X102415400Y-49447600D01*
X103015400Y-49047600D02*
X103015400Y-49847600D01*
X102415400Y-49447600D02*
X103015400Y-49047600D01*
X102415400Y-49447600D02*
X102415400Y-49997600D01*
X102415400Y-49447600D02*
X102415400Y-48897600D01*
X102015400Y-49447600D02*
X102415400Y-49447600D01*
%TO.C,D11*%
X121015400Y-86847600D02*
X121515400Y-86847600D01*
X121015400Y-87247600D02*
X120415400Y-86847600D01*
X121015400Y-86447600D02*
X121015400Y-87247600D01*
X120415400Y-86847600D02*
X121015400Y-86447600D01*
X120415400Y-86847600D02*
X120415400Y-87397600D01*
X120415400Y-86847600D02*
X120415400Y-86297600D01*
X120015400Y-86847600D02*
X120415400Y-86847600D01*
%TO.C,D12*%
X121015400Y-69847600D02*
X121515400Y-69847600D01*
X121015400Y-70247600D02*
X120415400Y-69847600D01*
X121015400Y-69447600D02*
X121015400Y-70247600D01*
X120415400Y-69847600D02*
X121015400Y-69447600D01*
X120415400Y-69847600D02*
X120415400Y-70397600D01*
X120415400Y-69847600D02*
X120415400Y-69297600D01*
X120015400Y-69847600D02*
X120415400Y-69847600D01*
%TO.C,D13*%
X121015400Y-52847600D02*
X121515400Y-52847600D01*
X121015400Y-53247600D02*
X120415400Y-52847600D01*
X121015400Y-52447600D02*
X121015400Y-53247600D01*
X120415400Y-52847600D02*
X121015400Y-52447600D01*
X120415400Y-52847600D02*
X120415400Y-53397600D01*
X120415400Y-52847600D02*
X120415400Y-52297600D01*
X120015400Y-52847600D02*
X120415400Y-52847600D01*
%TO.C,D14*%
X139015400Y-89397600D02*
X139515400Y-89397600D01*
X139015400Y-89797600D02*
X138415400Y-89397600D01*
X139015400Y-88997600D02*
X139015400Y-89797600D01*
X138415400Y-89397600D02*
X139015400Y-88997600D01*
X138415400Y-89397600D02*
X138415400Y-89947600D01*
X138415400Y-89397600D02*
X138415400Y-88847600D01*
X138015400Y-89397600D02*
X138415400Y-89397600D01*
%TO.C,D15*%
X139015400Y-72397600D02*
X139515400Y-72397600D01*
X139015400Y-72797600D02*
X138415400Y-72397600D01*
X139015400Y-71997600D02*
X139015400Y-72797600D01*
X138415400Y-72397600D02*
X139015400Y-71997600D01*
X138415400Y-72397600D02*
X138415400Y-72947600D01*
X138415400Y-72397600D02*
X138415400Y-71847600D01*
X138015400Y-72397600D02*
X138415400Y-72397600D01*
%TO.C,D16*%
X139015400Y-55397600D02*
X139515400Y-55397600D01*
X139015400Y-55797600D02*
X138415400Y-55397600D01*
X139015400Y-54997600D02*
X139015400Y-55797600D01*
X138415400Y-55397600D02*
X139015400Y-54997600D01*
X138415400Y-55397600D02*
X138415400Y-55947600D01*
X138415400Y-55397600D02*
X138415400Y-54847600D01*
X138015400Y-55397600D02*
X138415400Y-55397600D01*
%TO.C,D17*%
X128215400Y-108097600D02*
X128715400Y-108097600D01*
X128215400Y-108497600D02*
X127615400Y-108097600D01*
X128215400Y-107697600D02*
X128215400Y-108497600D01*
X127615400Y-108097600D02*
X128215400Y-107697600D01*
X127615400Y-108097600D02*
X127615400Y-108647600D01*
X127615400Y-108097600D02*
X127615400Y-107547600D01*
X127215400Y-108097600D02*
X127615400Y-108097600D01*
%TO.C,D18*%
X146806081Y-110610905D02*
X147289044Y-110740314D01*
X146702554Y-110997275D02*
X146226526Y-110455613D01*
X146909609Y-110224534D02*
X146702554Y-110997275D01*
X146226526Y-110455613D02*
X146909609Y-110224534D01*
X146226526Y-110455613D02*
X146084175Y-110986873D01*
X146226526Y-110455613D02*
X146368876Y-109924354D01*
X145840156Y-110352086D02*
X146226526Y-110455613D01*
%TO.C,D19*%
X164112806Y-117850200D02*
X164545819Y-118100200D01*
X163912806Y-118196610D02*
X163593191Y-117550200D01*
X164312806Y-117503790D02*
X163912806Y-118196610D01*
X163593191Y-117550200D02*
X164312806Y-117503790D01*
X163593191Y-117550200D02*
X163318191Y-118026514D01*
X163593191Y-117550200D02*
X163868191Y-117073886D01*
X163246781Y-117350200D02*
X163593191Y-117550200D01*
D12*
%TO.C,DISP1*%
X164975400Y-82267600D02*
X164975400Y-84927600D01*
X164975400Y-82267600D02*
X152155400Y-82267600D01*
X164975400Y-84927600D02*
X152155400Y-84927600D01*
X152155400Y-82267600D02*
X152155400Y-84927600D01*
D11*
%TO.C,JST1*%
X154865400Y-90397600D02*
X154865400Y-89397600D01*
X154865400Y-87397600D02*
X154865400Y-88397600D01*
X155365400Y-87897600D02*
X154365400Y-87897600D01*
D12*
X163725400Y-86837600D02*
X163725400Y-85837600D01*
X163725400Y-85837600D02*
X162725400Y-85837600D01*
X163725400Y-91037600D02*
X163725400Y-91957600D01*
X163725400Y-91957600D02*
X162725400Y-91957600D01*
X155905400Y-86757600D02*
X155905400Y-85837600D01*
X155905400Y-85837600D02*
X156905400Y-85837600D01*
X155905400Y-91037600D02*
X155905400Y-91957600D01*
X155905400Y-91957600D02*
X156905400Y-91957600D01*
%TO.C,PWR1*%
X165240400Y-94297600D02*
X165240400Y-94497600D01*
X167080400Y-96347600D02*
X166290400Y-96347600D01*
X166290400Y-89447600D02*
X167080400Y-89447600D01*
X165240400Y-91297600D02*
X165240400Y-92997600D01*
X168090400Y-90047600D02*
X168090400Y-95747600D01*
D11*
%TO.C,RST1*%
X168565400Y-82247600D02*
X168815400Y-82247600D01*
X165565400Y-82247600D02*
X165315400Y-82247600D01*
X168815400Y-82497600D02*
X168815400Y-82247600D01*
X165315400Y-82497600D02*
X165315400Y-82247600D01*
X168815400Y-86697600D02*
X168815400Y-86947600D01*
X165315400Y-86697600D02*
X165315400Y-86947600D01*
X168565400Y-86947600D02*
X168815400Y-86947600D01*
X165565400Y-86947600D02*
X165315400Y-86947600D01*
%TD*%
M02*
