%TF.GenerationSoftware,KiCad,Pcbnew,9.0.0*%
%TF.CreationDate,2025-07-31T20:20:09+01:00*%
%TF.ProjectId,tempest-pcb-v-2,74656d70-6573-4742-9d70-63622d762d32,2*%
%TF.SameCoordinates,Original*%
%TF.FileFunction,Drillmap*%
%TF.FilePolarity,Positive*%
%FSLAX45Y45*%
G04 Gerber Fmt 4.5, Leading zero omitted, Abs format (unit mm)*
G04 Created by KiCad (PCBNEW 9.0.0) date 2025-07-31 20:20:09*
%MOMM*%
%LPD*%
G01*
G04 APERTURE LIST*
%ADD10C,0.150000*%
%ADD11C,0.200000*%
%ADD12C,0.100000*%
G04 APERTURE END LIST*
D10*
X5838248Y-7962636D02*
X5754248Y-8441637D01*
X5655751Y-8424364D02*
X5739751Y-7945363D01*
X5798624Y-7740080D02*
G75*
G02*
X5779171Y-7763030I-19784J-2950D01*
G01*
X5679958Y-7540627D02*
G75*
G02*
X5781076Y-7622523I2762J-99963D01*
G01*
X5798624Y-7740080D02*
X5781076Y-7622523D01*
X5679958Y-7540627D02*
X5542353Y-7544430D01*
X5616782Y-8655847D02*
G75*
G02*
X5664771Y-8625383I46038J-19493D01*
G01*
X5616782Y-8655847D02*
X5567137Y-8773092D01*
X5690616Y-8626388D02*
G75*
G02*
X5711293Y-8663868I-976J-24982D01*
G01*
X5739751Y-7945363D02*
G75*
G02*
X5838248Y-7962636I49249J-8637D01*
G01*
X5565750Y-9071673D02*
G75*
G02*
X5480719Y-9185168I-98950J-14467D01*
G01*
X5541246Y-8904076D02*
G75*
G02*
X5567136Y-8773091I197894J28936D01*
G01*
X5639401Y-8873191D02*
G75*
G02*
X5664247Y-8745364I198059J27831D01*
G01*
X5711293Y-8663868D02*
X5664246Y-8745363D01*
X5639401Y-8873191D02*
X5831022Y-10236647D01*
X5744764Y-7763594D02*
G75*
G02*
X5719361Y-7739241I-414J24994D01*
G01*
X5719362Y-7739241D02*
X5718598Y-7709557D01*
X5744764Y-7763594D02*
X5779171Y-7763030D01*
X5242450Y-7279785D02*
G75*
G02*
X5354707Y-7360651I13920J-99025D01*
G01*
X5491259Y-7619089D02*
G75*
G02*
X5387347Y-7537404I-5579J99839D01*
G01*
X5542353Y-7544430D02*
G75*
G02*
X5440565Y-7458385I-2763J99960D01*
G01*
X5613055Y-7612287D02*
G75*
G02*
X5718596Y-7709557I5575J-99843D01*
G01*
X5613055Y-7612287D02*
X5491259Y-7619089D01*
X5541246Y-8904076D02*
X5565750Y-9071673D01*
X5354705Y-7360652D02*
X5387345Y-7537405D01*
X5398194Y-7156913D02*
X5440563Y-7458386D01*
X11886539Y-11269758D02*
G75*
G02*
X11786542Y-11169758I1J99998D01*
G01*
X17083995Y-12589846D02*
G75*
G02*
X16948008Y-12626806I-86605J49996D01*
G01*
X17907712Y-10963126D02*
G75*
G02*
X17944315Y-11099729I-50002J-86604D01*
G01*
X16836539Y-4629758D02*
G75*
G02*
X16936542Y-4729758I1J-100002D01*
G01*
X14786539Y-4079758D02*
G75*
G02*
X14886542Y-4179758I1J-100002D01*
G01*
X12986539Y-3824758D02*
G75*
G02*
X13086542Y-3924758I1J-100002D01*
G01*
X11186539Y-3484758D02*
G75*
G02*
X11286542Y-3584758I1J-100002D01*
G01*
X9266539Y-3584758D02*
G75*
G02*
X9366539Y-3484759I100001J-2D01*
G01*
X9266539Y-3878681D02*
G75*
G02*
X9173455Y-3978440I-99999J1D01*
G01*
X7188300Y-4680656D02*
G75*
G02*
X7102461Y-4786660I-99760J-6974D01*
G01*
X7155990Y-4218603D02*
G75*
G02*
X7248770Y-4111870I99760J6973D01*
G01*
X5118456Y-5166475D02*
G75*
G02*
X5203566Y-5053536I99024J13915D01*
G01*
X3643546Y-7605478D02*
G75*
G02*
X3728656Y-7492535I99024J13919D01*
G01*
X3995868Y-9393849D02*
G75*
G02*
X3882921Y-9308740I-13918J99029D01*
G01*
X5943966Y-10321757D02*
G75*
G02*
X5831023Y-10236647I-13916J99027D01*
G01*
X7831364Y-9955517D02*
G75*
G02*
X7746253Y-10068454I-99024J-13913D01*
G01*
X9528223Y-9185223D02*
G75*
G02*
X9435442Y-9291953I-99753J-6977D01*
G01*
X11166539Y-9144758D02*
G75*
G02*
X11066542Y-9044758I1J99998D01*
G01*
X3995868Y-9393849D02*
X5480719Y-9185167D01*
X5943966Y-10321757D02*
X7746254Y-10068462D01*
X7831364Y-9955517D02*
X7769549Y-9515683D01*
X7861600Y-9402009D02*
X9435442Y-9291955D01*
X9528223Y-9185223D02*
X9509098Y-8911733D01*
X9608855Y-8804758D02*
X10966539Y-8804758D01*
X11066539Y-8904758D02*
X11066539Y-9044758D01*
X11166539Y-9144758D02*
X11686539Y-9144758D01*
X11786539Y-11169758D02*
X11786539Y-9244758D01*
X11886539Y-11269758D02*
X13668892Y-11269758D01*
X13694774Y-11273165D02*
X15328872Y-11711020D01*
X16948011Y-12626802D02*
X15352372Y-11720656D01*
X17083995Y-12589846D02*
X17944314Y-11099729D01*
X17907712Y-10963126D02*
X16986539Y-10431287D01*
X16936539Y-10344684D02*
X16936539Y-4729758D01*
X16836539Y-4629758D02*
X14986539Y-4629758D01*
X14886539Y-4529758D02*
X14886539Y-4179758D01*
X14786539Y-4079758D02*
X13186539Y-4079758D01*
X13086539Y-3979758D02*
X13086539Y-3924758D01*
X12986539Y-3824758D02*
X11386539Y-3824758D01*
X11286539Y-3724758D02*
X11286539Y-3584758D01*
X11186539Y-3484758D02*
X9366539Y-3484758D01*
X9266539Y-3878681D02*
X9266539Y-3584758D01*
X9173455Y-3978441D02*
X7248771Y-4111871D01*
X7155990Y-4218603D02*
X7188300Y-4680656D01*
X7102461Y-4786659D02*
X5203566Y-5053530D01*
X5118456Y-5166475D02*
X5398194Y-7156913D01*
X5242450Y-7279785D02*
X3728656Y-7492534D01*
X3643546Y-7605478D02*
X3882924Y-9308740D01*
X7769549Y-9515683D02*
G75*
G02*
X7861600Y-9402011I99031J13913D01*
G01*
X9509098Y-8911733D02*
G75*
G02*
X9608855Y-8804765I99752J6973D01*
G01*
X10966539Y-8804758D02*
G75*
G02*
X11066542Y-8904758I1J-100002D01*
G01*
X11686539Y-9144758D02*
G75*
G02*
X11786542Y-9244758I1J-100002D01*
G01*
X13668892Y-11269758D02*
G75*
G02*
X13694774Y-11273166I-2J-100002D01*
G01*
X15328872Y-11711020D02*
G75*
G02*
X15352372Y-11720657I-25882J-96590D01*
G01*
X16986539Y-10431287D02*
G75*
G02*
X16936536Y-10344684I50001J86607D01*
G01*
X14986539Y-4629758D02*
G75*
G02*
X14886542Y-4529758I1J99998D01*
G01*
X13186539Y-4079758D02*
G75*
G02*
X13086542Y-3979758I1J99998D01*
G01*
X11386539Y-3824758D02*
G75*
G02*
X11286542Y-3724758I1J99998D01*
G01*
X5664771Y-8625381D02*
X5690616Y-8626388D01*
X5754248Y-8441637D02*
G75*
G02*
X5655751Y-8424364I-49249J8637D01*
G01*
D11*
D12*
X4654600Y-8937210D02*
X4684600Y-8967210D01*
X4684600Y-8937210D02*
X4654600Y-8967210D01*
X4694480Y-7917820D02*
X4724480Y-7947820D01*
X4724480Y-7917820D02*
X4694480Y-7947820D01*
X4705610Y-7997040D02*
X4735610Y-8027040D01*
X4735610Y-7997040D02*
X4705610Y-8027040D01*
X4876450Y-8773720D02*
X4906450Y-8803720D01*
X4906450Y-8773720D02*
X4876450Y-8803720D01*
X6017000Y-7843000D02*
X6047000Y-7873000D01*
X6047000Y-7843000D02*
X6017000Y-7873000D01*
X6169390Y-5478810D02*
X6199390Y-5508810D01*
X6199390Y-5478810D02*
X6169390Y-5508810D01*
X6180520Y-5558030D02*
X6210520Y-5588030D01*
X6210520Y-5558030D02*
X6180520Y-5588030D01*
X6234310Y-6368710D02*
X6264310Y-6398710D01*
X6264310Y-6368710D02*
X6234310Y-6398710D01*
X6352750Y-6334710D02*
X6382750Y-6364710D01*
X6382750Y-6334710D02*
X6352750Y-6364710D01*
X6405980Y-7162270D02*
X6435980Y-7192270D01*
X6435980Y-7162270D02*
X6405980Y-7192270D01*
X6417110Y-7241490D02*
X6447110Y-7271490D01*
X6447110Y-7241490D02*
X6417110Y-7271490D01*
X6471050Y-8033790D02*
X6501050Y-8063790D01*
X6501050Y-8033790D02*
X6471050Y-8063790D01*
X6499570Y-9775910D02*
X6529570Y-9805910D01*
X6529570Y-9775910D02*
X6499570Y-9805910D01*
X6642570Y-8845720D02*
X6672570Y-8875720D01*
X6672570Y-8845720D02*
X6642570Y-8875720D01*
X6653710Y-8924940D02*
X6683710Y-8954940D01*
X6683710Y-8924940D02*
X6653710Y-8954940D01*
X6673760Y-8134160D02*
X6703760Y-8164160D01*
X6703760Y-8134160D02*
X6673760Y-8164160D01*
X7016480Y-9614630D02*
X7046480Y-9644630D01*
X7046480Y-9614630D02*
X7016480Y-9644630D01*
X7408070Y-7296150D02*
X7438070Y-7326150D01*
X7438070Y-7296150D02*
X7408070Y-7326150D01*
X7994680Y-5406160D02*
X8024680Y-5436160D01*
X8024680Y-5406160D02*
X7994680Y-5436160D01*
X8181490Y-4604500D02*
X8211490Y-4634500D01*
X8211490Y-4604500D02*
X8181490Y-4634500D01*
X8187070Y-4684300D02*
X8217070Y-4714300D01*
X8217070Y-4684300D02*
X8187070Y-4714300D01*
X8215430Y-8922600D02*
X8245430Y-8952600D01*
X8245430Y-8922600D02*
X8215430Y-8952600D01*
X8289390Y-5390360D02*
X8319390Y-5420360D01*
X8319390Y-5390360D02*
X8289390Y-5420360D01*
X8297260Y-7181400D02*
X8327260Y-7211400D01*
X8327260Y-7181400D02*
X8297260Y-7211400D01*
X8300080Y-6300360D02*
X8330080Y-6330360D01*
X8330080Y-6300360D02*
X8300080Y-6330360D01*
X8305660Y-6380160D02*
X8335660Y-6410160D01*
X8335660Y-6380160D02*
X8305660Y-6410160D01*
X8418660Y-7996220D02*
X8448660Y-8026220D01*
X8448660Y-7996220D02*
X8418660Y-8026220D01*
X8424240Y-8076020D02*
X8454240Y-8106020D01*
X8454240Y-8076020D02*
X8424240Y-8106020D01*
X8549110Y-8774850D02*
X8579110Y-8804850D01*
X8579110Y-8774850D02*
X8549110Y-8804850D01*
X8625970Y-7174190D02*
X8655970Y-7204190D01*
X8655970Y-7174190D02*
X8625970Y-7204190D01*
X9999280Y-6629760D02*
X10029280Y-6659760D01*
X10029280Y-6629760D02*
X9999280Y-6659760D01*
X9999900Y-4875560D02*
X10029900Y-4905560D01*
X10029900Y-4875560D02*
X9999900Y-4905560D01*
X10001100Y-8350030D02*
X10031100Y-8380030D01*
X10031100Y-8350030D02*
X10001100Y-8380030D01*
X10261500Y-4042260D02*
X10291500Y-4072260D01*
X10291500Y-4042260D02*
X10261500Y-4072260D01*
X10261500Y-4122260D02*
X10291500Y-4152260D01*
X10291500Y-4122260D02*
X10261500Y-4152260D01*
X10261500Y-5742260D02*
X10291500Y-5772260D01*
X10291500Y-5742260D02*
X10261500Y-5772260D01*
X10261500Y-5822260D02*
X10291500Y-5852260D01*
X10291500Y-5822260D02*
X10261500Y-5852260D01*
X10261500Y-7442260D02*
X10291500Y-7472260D01*
X10291500Y-7442260D02*
X10261500Y-7472260D01*
X10261500Y-7522260D02*
X10291500Y-7552260D01*
X10291500Y-7522260D02*
X10261500Y-7552260D01*
X10330220Y-8329760D02*
X10360220Y-8359760D01*
X10360220Y-8329760D02*
X10330220Y-8359760D01*
X10330480Y-4929760D02*
X10360480Y-4959760D01*
X10360480Y-4929760D02*
X10330480Y-4959760D01*
X10331280Y-6629760D02*
X10361280Y-6659760D01*
X10361280Y-6629760D02*
X10331280Y-6659760D01*
X10404450Y-5076230D02*
X10434450Y-5106230D01*
X10434450Y-5076230D02*
X10404450Y-5106230D01*
X11798840Y-8657690D02*
X11828840Y-8687690D01*
X11828840Y-8657690D02*
X11798840Y-8687690D01*
X11801020Y-6969760D02*
X11831020Y-6999760D01*
X11831020Y-6969760D02*
X11801020Y-6999760D01*
X11896540Y-5382490D02*
X11926540Y-5412490D01*
X11926540Y-5382490D02*
X11896540Y-5412490D01*
X12061500Y-4382260D02*
X12091500Y-4412260D01*
X12091500Y-4382260D02*
X12061500Y-4412260D01*
X12061500Y-4462260D02*
X12091500Y-4492260D01*
X12091500Y-4462260D02*
X12061500Y-4492260D01*
X12061500Y-6082260D02*
X12091500Y-6112260D01*
X12091500Y-6082260D02*
X12061500Y-6112260D01*
X12061500Y-6162260D02*
X12091500Y-6192260D01*
X12091500Y-6162260D02*
X12061500Y-6192260D01*
X12061500Y-7782260D02*
X12091500Y-7812260D01*
X12091500Y-7782260D02*
X12061500Y-7812260D01*
X12061500Y-7862260D02*
X12091500Y-7892260D01*
X12091500Y-7862260D02*
X12061500Y-7892260D01*
X12096160Y-9737900D02*
X12126160Y-9767900D01*
X12126160Y-9737900D02*
X12096160Y-9767900D01*
X12102230Y-8620620D02*
X12132230Y-8650620D01*
X12132230Y-8620620D02*
X12102230Y-8650620D01*
X12135880Y-6879100D02*
X12165880Y-6909100D01*
X12165880Y-6879100D02*
X12135880Y-6909100D01*
X12144310Y-5367430D02*
X12174310Y-5397430D01*
X12174310Y-5367430D02*
X12144310Y-5397430D01*
X12712140Y-10815190D02*
X12742140Y-10845190D01*
X12742140Y-10815190D02*
X12712140Y-10845190D01*
X12781500Y-9907260D02*
X12811500Y-9937260D01*
X12811500Y-9907260D02*
X12781500Y-9937260D01*
X12781500Y-9987300D02*
X12811500Y-10017300D01*
X12811500Y-9987300D02*
X12781500Y-10017300D01*
X13017030Y-9922980D02*
X13047030Y-9952980D01*
X13047030Y-9922980D02*
X13017030Y-9952980D01*
X13042830Y-10736900D02*
X13072830Y-10766900D01*
X13072830Y-10736900D02*
X13042830Y-10766900D01*
X13588810Y-8013800D02*
X13618810Y-8043800D01*
X13618810Y-8013800D02*
X13588810Y-8043800D01*
X13598900Y-8947230D02*
X13628900Y-8977230D01*
X13628900Y-8947230D02*
X13598900Y-8977230D01*
X13696540Y-5635580D02*
X13726540Y-5665580D01*
X13726540Y-5635580D02*
X13696540Y-5665580D01*
X13794670Y-7217690D02*
X13824670Y-7247690D01*
X13824670Y-7217690D02*
X13794670Y-7247690D01*
X13861500Y-4637260D02*
X13891500Y-4667260D01*
X13891500Y-4637260D02*
X13861500Y-4667260D01*
X13861500Y-4717260D02*
X13891500Y-4747260D01*
X13891500Y-4717260D02*
X13861500Y-4747260D01*
X13861500Y-6337260D02*
X13891500Y-6367260D01*
X13891500Y-6337260D02*
X13861500Y-6367260D01*
X13861500Y-6417260D02*
X13891500Y-6447260D01*
X13891500Y-6417260D02*
X13861500Y-6447260D01*
X13861500Y-8037260D02*
X13891500Y-8067260D01*
X13891500Y-8037260D02*
X13861500Y-8067260D01*
X13861500Y-8117260D02*
X13891500Y-8147260D01*
X13891500Y-8117260D02*
X13861500Y-8147260D01*
X13930910Y-8951800D02*
X13960910Y-8981800D01*
X13960910Y-8951800D02*
X13930910Y-8981800D01*
X13941910Y-5429280D02*
X13971910Y-5459280D01*
X13971910Y-5429280D02*
X13941910Y-5459280D01*
X14047370Y-7114400D02*
X14077370Y-7144400D01*
X14077370Y-7114400D02*
X14047370Y-7144400D01*
X14593000Y-11037590D02*
X14623000Y-11067590D01*
X14623000Y-11037590D02*
X14593000Y-11067590D01*
X14689000Y-7498220D02*
X14719000Y-7528220D01*
X14719000Y-7498220D02*
X14689000Y-7528220D01*
X14763720Y-10961090D02*
X14793720Y-10991090D01*
X14793720Y-10961090D02*
X14763720Y-10991090D01*
X14825000Y-10318000D02*
X14855000Y-10348000D01*
X14855000Y-10318000D02*
X14825000Y-10348000D01*
X14861750Y-8577470D02*
X14891750Y-8607470D01*
X14891750Y-8577470D02*
X14861750Y-8607470D01*
X14871200Y-10182400D02*
X14901200Y-10212400D01*
X14901200Y-10182400D02*
X14871200Y-10212400D01*
X14921920Y-6495440D02*
X14951920Y-6525440D01*
X14951920Y-6495440D02*
X14921920Y-6525440D01*
X14928710Y-6852760D02*
X14958710Y-6882760D01*
X14958710Y-6852760D02*
X14928710Y-6882760D01*
X15105220Y-10384140D02*
X15135220Y-10414140D01*
X15135220Y-10384140D02*
X15105220Y-10414140D01*
X15471500Y-8079760D02*
X15501500Y-8109760D01*
X15501500Y-8079760D02*
X15471500Y-8109760D01*
X15677710Y-7955710D02*
X15707710Y-7985710D01*
X15707710Y-7955710D02*
X15677710Y-7985710D01*
X15854540Y-8754530D02*
X15884540Y-8784530D01*
X15884540Y-8754530D02*
X15854540Y-8784530D01*
X15891240Y-8079760D02*
X15921240Y-8109760D01*
X15921240Y-8079760D02*
X15891240Y-8109760D01*
X16296990Y-11569390D02*
X16326990Y-11599390D01*
X16326990Y-11569390D02*
X16296990Y-11599390D01*
X16302600Y-8875950D02*
X16332600Y-8905950D01*
X16332600Y-8875950D02*
X16302600Y-8905950D01*
X16350120Y-9199760D02*
X16380120Y-9229760D01*
X16380120Y-9199760D02*
X16350120Y-9229760D01*
X16603540Y-11912410D02*
X16633540Y-11942410D01*
X16633540Y-11912410D02*
X16603540Y-11942410D01*
X16606540Y-8578400D02*
X16636540Y-8608400D01*
X16636540Y-8578400D02*
X16606540Y-8608400D01*
X16629360Y-9003610D02*
X16659360Y-9033610D01*
X16659360Y-9003610D02*
X16629360Y-9033610D01*
X16776540Y-8384470D02*
X16806540Y-8414470D01*
X16806540Y-8384470D02*
X16776540Y-8414470D01*
X16778400Y-11058200D02*
X16808400Y-11088200D01*
X16808400Y-11058200D02*
X16778400Y-11088200D01*
X16818400Y-10988900D02*
X16848400Y-11018900D01*
X16848400Y-10988900D02*
X16818400Y-11018900D01*
X15536540Y-5089760D02*
G75*
G02*
X15496540Y-5089760I-20000J0D01*
G01*
X15496540Y-5089760D02*
G75*
G02*
X15536540Y-5089760I20000J0D01*
G01*
X15536540Y-5343760D02*
G75*
G02*
X15496540Y-5343760I-20000J0D01*
G01*
X15496540Y-5343760D02*
G75*
G02*
X15536540Y-5343760I20000J0D01*
G01*
X15536540Y-5597760D02*
G75*
G02*
X15496540Y-5597760I-20000J0D01*
G01*
X15496540Y-5597760D02*
G75*
G02*
X15536540Y-5597760I20000J0D01*
G01*
X15536540Y-5851760D02*
G75*
G02*
X15496540Y-5851760I-20000J0D01*
G01*
X15496540Y-5851760D02*
G75*
G02*
X15536540Y-5851760I20000J0D01*
G01*
X15536540Y-6105760D02*
G75*
G02*
X15496540Y-6105760I-20000J0D01*
G01*
X15496540Y-6105760D02*
G75*
G02*
X15536540Y-6105760I20000J0D01*
G01*
X15536540Y-6359760D02*
G75*
G02*
X15496540Y-6359760I-20000J0D01*
G01*
X15496540Y-6359760D02*
G75*
G02*
X15536540Y-6359760I20000J0D01*
G01*
X15536540Y-6613760D02*
G75*
G02*
X15496540Y-6613760I-20000J0D01*
G01*
X15496540Y-6613760D02*
G75*
G02*
X15536540Y-6613760I20000J0D01*
G01*
X15536540Y-6867760D02*
G75*
G02*
X15496540Y-6867760I-20000J0D01*
G01*
X15496540Y-6867760D02*
G75*
G02*
X15536540Y-6867760I20000J0D01*
G01*
X15536540Y-7121760D02*
G75*
G02*
X15496540Y-7121760I-20000J0D01*
G01*
X15496540Y-7121760D02*
G75*
G02*
X15536540Y-7121760I20000J0D01*
G01*
X15536540Y-7375760D02*
G75*
G02*
X15496540Y-7375760I-20000J0D01*
G01*
X15496540Y-7375760D02*
G75*
G02*
X15536540Y-7375760I20000J0D01*
G01*
X15536540Y-7629760D02*
G75*
G02*
X15496540Y-7629760I-20000J0D01*
G01*
X15496540Y-7629760D02*
G75*
G02*
X15536540Y-7629760I20000J0D01*
G01*
X15536540Y-7883760D02*
G75*
G02*
X15496540Y-7883760I-20000J0D01*
G01*
X15496540Y-7883760D02*
G75*
G02*
X15536540Y-7883760I20000J0D01*
G01*
X16216540Y-5089760D02*
G75*
G02*
X16176540Y-5089760I-20000J0D01*
G01*
X16176540Y-5089760D02*
G75*
G02*
X16216540Y-5089760I20000J0D01*
G01*
X16216540Y-5343760D02*
G75*
G02*
X16176540Y-5343760I-20000J0D01*
G01*
X16176540Y-5343760D02*
G75*
G02*
X16216540Y-5343760I20000J0D01*
G01*
X16216540Y-5597760D02*
G75*
G02*
X16176540Y-5597760I-20000J0D01*
G01*
X16176540Y-5597760D02*
G75*
G02*
X16216540Y-5597760I20000J0D01*
G01*
X16216540Y-5851760D02*
G75*
G02*
X16176540Y-5851760I-20000J0D01*
G01*
X16176540Y-5851760D02*
G75*
G02*
X16216540Y-5851760I20000J0D01*
G01*
X16216540Y-6105760D02*
G75*
G02*
X16176540Y-6105760I-20000J0D01*
G01*
X16176540Y-6105760D02*
G75*
G02*
X16216540Y-6105760I20000J0D01*
G01*
X16216540Y-6359760D02*
G75*
G02*
X16176540Y-6359760I-20000J0D01*
G01*
X16176540Y-6359760D02*
G75*
G02*
X16216540Y-6359760I20000J0D01*
G01*
X16216540Y-6613760D02*
G75*
G02*
X16176540Y-6613760I-20000J0D01*
G01*
X16176540Y-6613760D02*
G75*
G02*
X16216540Y-6613760I20000J0D01*
G01*
X16216540Y-6867760D02*
G75*
G02*
X16176540Y-6867760I-20000J0D01*
G01*
X16176540Y-6867760D02*
G75*
G02*
X16216540Y-6867760I20000J0D01*
G01*
X16216540Y-7121760D02*
G75*
G02*
X16176540Y-7121760I-20000J0D01*
G01*
X16176540Y-7121760D02*
G75*
G02*
X16216540Y-7121760I20000J0D01*
G01*
X16216540Y-7375760D02*
G75*
G02*
X16176540Y-7375760I-20000J0D01*
G01*
X16176540Y-7375760D02*
G75*
G02*
X16216540Y-7375760I20000J0D01*
G01*
X16216540Y-7629760D02*
G75*
G02*
X16176540Y-7629760I-20000J0D01*
G01*
X16176540Y-7629760D02*
G75*
G02*
X16216540Y-7629760I20000J0D01*
G01*
X16216540Y-7883760D02*
G75*
G02*
X16176540Y-7883760I-20000J0D01*
G01*
X16176540Y-7883760D02*
G75*
G02*
X16216540Y-7883760I20000J0D01*
G01*
X16226540Y-8752260D02*
X16226540Y-8827260D01*
X16189040Y-8789760D02*
X16264040Y-8789760D01*
X16226540Y-8952260D02*
X16226540Y-9027260D01*
X16189040Y-8989760D02*
X16264040Y-8989760D01*
X15124592Y-5119812D02*
X15124592Y-5059708D01*
X15064488Y-5059708D01*
X15064488Y-5119812D01*
X15124592Y-5119812D01*
X15124592Y-5373812D02*
X15124592Y-5313708D01*
X15064488Y-5313708D01*
X15064488Y-5373812D01*
X15124592Y-5373812D01*
X15124592Y-5627812D02*
X15124592Y-5567708D01*
X15064488Y-5567708D01*
X15064488Y-5627812D01*
X15124592Y-5627812D01*
X15124592Y-5881812D02*
X15124592Y-5821708D01*
X15064488Y-5821708D01*
X15064488Y-5881812D01*
X15124592Y-5881812D01*
X15124592Y-6135812D02*
X15124592Y-6075708D01*
X15064488Y-6075708D01*
X15064488Y-6135812D01*
X15124592Y-6135812D01*
X15124592Y-6389812D02*
X15124592Y-6329708D01*
X15064488Y-6329708D01*
X15064488Y-6389812D01*
X15124592Y-6389812D01*
X15124592Y-6643812D02*
X15124592Y-6583708D01*
X15064488Y-6583708D01*
X15064488Y-6643812D01*
X15124592Y-6643812D01*
X15124592Y-6897812D02*
X15124592Y-6837708D01*
X15064488Y-6837708D01*
X15064488Y-6897812D01*
X15124592Y-6897812D01*
X15124592Y-7151812D02*
X15124592Y-7091708D01*
X15064488Y-7091708D01*
X15064488Y-7151812D01*
X15124592Y-7151812D01*
X15124592Y-7405812D02*
X15124592Y-7345708D01*
X15064488Y-7345708D01*
X15064488Y-7405812D01*
X15124592Y-7405812D01*
X15124592Y-7659812D02*
X15124592Y-7599708D01*
X15064488Y-7599708D01*
X15064488Y-7659812D01*
X15124592Y-7659812D01*
X15124592Y-7913812D02*
X15124592Y-7853708D01*
X15064488Y-7853708D01*
X15064488Y-7913812D01*
X15124592Y-7913812D01*
X15378592Y-8389812D02*
X15378592Y-8329708D01*
X15318488Y-8329708D01*
X15318488Y-8389812D01*
X15378592Y-8389812D01*
X15632592Y-8389812D02*
X15632592Y-8329708D01*
X15572488Y-8329708D01*
X15572488Y-8389812D01*
X15632592Y-8389812D01*
X15886592Y-8389812D02*
X15886592Y-8329708D01*
X15826488Y-8329708D01*
X15826488Y-8389812D01*
X15886592Y-8389812D01*
X16140592Y-8389812D02*
X16140592Y-8329708D01*
X16080488Y-8329708D01*
X16080488Y-8389812D01*
X16140592Y-8389812D01*
X16394592Y-8389812D02*
X16394592Y-8329708D01*
X16334488Y-8329708D01*
X16334488Y-8389812D01*
X16394592Y-8389812D01*
X16648592Y-5119812D02*
X16648592Y-5059708D01*
X16588488Y-5059708D01*
X16588488Y-5119812D01*
X16648592Y-5119812D01*
X16648592Y-5373812D02*
X16648592Y-5313708D01*
X16588488Y-5313708D01*
X16588488Y-5373812D01*
X16648592Y-5373812D01*
X16648592Y-5627812D02*
X16648592Y-5567708D01*
X16588488Y-5567708D01*
X16588488Y-5627812D01*
X16648592Y-5627812D01*
X16648592Y-5881812D02*
X16648592Y-5821708D01*
X16588488Y-5821708D01*
X16588488Y-5881812D01*
X16648592Y-5881812D01*
X16648592Y-6135812D02*
X16648592Y-6075708D01*
X16588488Y-6075708D01*
X16588488Y-6135812D01*
X16648592Y-6135812D01*
X16648592Y-6389812D02*
X16648592Y-6329708D01*
X16588488Y-6329708D01*
X16588488Y-6389812D01*
X16648592Y-6389812D01*
X16648592Y-6643812D02*
X16648592Y-6583708D01*
X16588488Y-6583708D01*
X16588488Y-6643812D01*
X16648592Y-6643812D01*
X16648592Y-6897812D02*
X16648592Y-6837708D01*
X16588488Y-6837708D01*
X16588488Y-6897812D01*
X16648592Y-6897812D01*
X16648592Y-7151812D02*
X16648592Y-7091708D01*
X16588488Y-7091708D01*
X16588488Y-7151812D01*
X16648592Y-7151812D01*
X16648592Y-7405812D02*
X16648592Y-7345708D01*
X16588488Y-7345708D01*
X16588488Y-7405812D01*
X16648592Y-7405812D01*
X16648592Y-7659812D02*
X16648592Y-7599708D01*
X16588488Y-7599708D01*
X16588488Y-7659812D01*
X16648592Y-7659812D01*
X16648592Y-7913812D02*
X16648592Y-7853708D01*
X16588488Y-7853708D01*
X16588488Y-7913812D01*
X16648592Y-7913812D01*
D11*
X3895849Y-12958833D02*
X3895849Y-12758833D01*
X3895849Y-12758833D02*
X3943468Y-12758833D01*
X3943468Y-12758833D02*
X3972040Y-12768357D01*
X3972040Y-12768357D02*
X3991088Y-12787405D01*
X3991088Y-12787405D02*
X4000611Y-12806452D01*
X4000611Y-12806452D02*
X4010135Y-12844548D01*
X4010135Y-12844548D02*
X4010135Y-12873119D01*
X4010135Y-12873119D02*
X4000611Y-12911214D01*
X4000611Y-12911214D02*
X3991088Y-12930262D01*
X3991088Y-12930262D02*
X3972040Y-12949310D01*
X3972040Y-12949310D02*
X3943468Y-12958833D01*
X3943468Y-12958833D02*
X3895849Y-12958833D01*
X4095849Y-12958833D02*
X4095849Y-12825500D01*
X4095849Y-12863595D02*
X4105373Y-12844548D01*
X4105373Y-12844548D02*
X4114897Y-12835024D01*
X4114897Y-12835024D02*
X4133945Y-12825500D01*
X4133945Y-12825500D02*
X4152992Y-12825500D01*
X4219659Y-12958833D02*
X4219659Y-12825500D01*
X4219659Y-12758833D02*
X4210135Y-12768357D01*
X4210135Y-12768357D02*
X4219659Y-12777881D01*
X4219659Y-12777881D02*
X4229183Y-12768357D01*
X4229183Y-12768357D02*
X4219659Y-12758833D01*
X4219659Y-12758833D02*
X4219659Y-12777881D01*
X4343469Y-12958833D02*
X4324421Y-12949310D01*
X4324421Y-12949310D02*
X4314897Y-12930262D01*
X4314897Y-12930262D02*
X4314897Y-12758833D01*
X4448230Y-12958833D02*
X4429183Y-12949310D01*
X4429183Y-12949310D02*
X4419659Y-12930262D01*
X4419659Y-12930262D02*
X4419659Y-12758833D01*
X4676802Y-12958833D02*
X4676802Y-12758833D01*
X4676802Y-12758833D02*
X4743469Y-12901691D01*
X4743469Y-12901691D02*
X4810135Y-12758833D01*
X4810135Y-12758833D02*
X4810135Y-12958833D01*
X4991088Y-12958833D02*
X4991088Y-12854072D01*
X4991088Y-12854072D02*
X4981564Y-12835024D01*
X4981564Y-12835024D02*
X4962516Y-12825500D01*
X4962516Y-12825500D02*
X4924421Y-12825500D01*
X4924421Y-12825500D02*
X4905373Y-12835024D01*
X4991088Y-12949310D02*
X4972040Y-12958833D01*
X4972040Y-12958833D02*
X4924421Y-12958833D01*
X4924421Y-12958833D02*
X4905373Y-12949310D01*
X4905373Y-12949310D02*
X4895850Y-12930262D01*
X4895850Y-12930262D02*
X4895850Y-12911214D01*
X4895850Y-12911214D02*
X4905373Y-12892167D01*
X4905373Y-12892167D02*
X4924421Y-12882643D01*
X4924421Y-12882643D02*
X4972040Y-12882643D01*
X4972040Y-12882643D02*
X4991088Y-12873119D01*
X5086326Y-12825500D02*
X5086326Y-13025500D01*
X5086326Y-12835024D02*
X5105373Y-12825500D01*
X5105373Y-12825500D02*
X5143469Y-12825500D01*
X5143469Y-12825500D02*
X5162516Y-12835024D01*
X5162516Y-12835024D02*
X5172040Y-12844548D01*
X5172040Y-12844548D02*
X5181564Y-12863595D01*
X5181564Y-12863595D02*
X5181564Y-12920738D01*
X5181564Y-12920738D02*
X5172040Y-12939786D01*
X5172040Y-12939786D02*
X5162516Y-12949310D01*
X5162516Y-12949310D02*
X5143469Y-12958833D01*
X5143469Y-12958833D02*
X5105373Y-12958833D01*
X5105373Y-12958833D02*
X5086326Y-12949310D01*
X5267278Y-12939786D02*
X5276802Y-12949310D01*
X5276802Y-12949310D02*
X5267278Y-12958833D01*
X5267278Y-12958833D02*
X5257754Y-12949310D01*
X5257754Y-12949310D02*
X5267278Y-12939786D01*
X5267278Y-12939786D02*
X5267278Y-12958833D01*
X5267278Y-12835024D02*
X5276802Y-12844548D01*
X5276802Y-12844548D02*
X5267278Y-12854072D01*
X5267278Y-12854072D02*
X5257754Y-12844548D01*
X5257754Y-12844548D02*
X5267278Y-12835024D01*
X5267278Y-12835024D02*
X5267278Y-12854072D01*
D12*
X3605073Y-13272350D02*
X3635073Y-13302350D01*
X3635073Y-13272350D02*
X3605073Y-13302350D01*
D11*
X3933945Y-13178833D02*
X3952992Y-13178833D01*
X3952992Y-13178833D02*
X3972040Y-13188357D01*
X3972040Y-13188357D02*
X3981564Y-13197881D01*
X3981564Y-13197881D02*
X3991088Y-13216929D01*
X3991088Y-13216929D02*
X4000611Y-13255024D01*
X4000611Y-13255024D02*
X4000611Y-13302643D01*
X4000611Y-13302643D02*
X3991088Y-13340738D01*
X3991088Y-13340738D02*
X3981564Y-13359786D01*
X3981564Y-13359786D02*
X3972040Y-13369310D01*
X3972040Y-13369310D02*
X3952992Y-13378833D01*
X3952992Y-13378833D02*
X3933945Y-13378833D01*
X3933945Y-13378833D02*
X3914897Y-13369310D01*
X3914897Y-13369310D02*
X3905373Y-13359786D01*
X3905373Y-13359786D02*
X3895849Y-13340738D01*
X3895849Y-13340738D02*
X3886326Y-13302643D01*
X3886326Y-13302643D02*
X3886326Y-13255024D01*
X3886326Y-13255024D02*
X3895849Y-13216929D01*
X3895849Y-13216929D02*
X3905373Y-13197881D01*
X3905373Y-13197881D02*
X3914897Y-13188357D01*
X3914897Y-13188357D02*
X3933945Y-13178833D01*
X4086326Y-13359786D02*
X4095849Y-13369310D01*
X4095849Y-13369310D02*
X4086326Y-13378833D01*
X4086326Y-13378833D02*
X4076802Y-13369310D01*
X4076802Y-13369310D02*
X4086326Y-13359786D01*
X4086326Y-13359786D02*
X4086326Y-13378833D01*
X4162516Y-13178833D02*
X4286326Y-13178833D01*
X4286326Y-13178833D02*
X4219659Y-13255024D01*
X4219659Y-13255024D02*
X4248231Y-13255024D01*
X4248231Y-13255024D02*
X4267278Y-13264548D01*
X4267278Y-13264548D02*
X4276802Y-13274072D01*
X4276802Y-13274072D02*
X4286326Y-13293119D01*
X4286326Y-13293119D02*
X4286326Y-13340738D01*
X4286326Y-13340738D02*
X4276802Y-13359786D01*
X4276802Y-13359786D02*
X4267278Y-13369310D01*
X4267278Y-13369310D02*
X4248231Y-13378833D01*
X4248231Y-13378833D02*
X4191088Y-13378833D01*
X4191088Y-13378833D02*
X4172040Y-13369310D01*
X4172040Y-13369310D02*
X4162516Y-13359786D01*
X4410135Y-13178833D02*
X4429183Y-13178833D01*
X4429183Y-13178833D02*
X4448231Y-13188357D01*
X4448231Y-13188357D02*
X4457754Y-13197881D01*
X4457754Y-13197881D02*
X4467278Y-13216929D01*
X4467278Y-13216929D02*
X4476802Y-13255024D01*
X4476802Y-13255024D02*
X4476802Y-13302643D01*
X4476802Y-13302643D02*
X4467278Y-13340738D01*
X4467278Y-13340738D02*
X4457754Y-13359786D01*
X4457754Y-13359786D02*
X4448231Y-13369310D01*
X4448231Y-13369310D02*
X4429183Y-13378833D01*
X4429183Y-13378833D02*
X4410135Y-13378833D01*
X4410135Y-13378833D02*
X4391088Y-13369310D01*
X4391088Y-13369310D02*
X4381564Y-13359786D01*
X4381564Y-13359786D02*
X4372040Y-13340738D01*
X4372040Y-13340738D02*
X4362516Y-13302643D01*
X4362516Y-13302643D02*
X4362516Y-13255024D01*
X4362516Y-13255024D02*
X4372040Y-13216929D01*
X4372040Y-13216929D02*
X4381564Y-13197881D01*
X4381564Y-13197881D02*
X4391088Y-13188357D01*
X4391088Y-13188357D02*
X4410135Y-13178833D01*
X4600611Y-13178833D02*
X4619659Y-13178833D01*
X4619659Y-13178833D02*
X4638707Y-13188357D01*
X4638707Y-13188357D02*
X4648231Y-13197881D01*
X4648231Y-13197881D02*
X4657754Y-13216929D01*
X4657754Y-13216929D02*
X4667278Y-13255024D01*
X4667278Y-13255024D02*
X4667278Y-13302643D01*
X4667278Y-13302643D02*
X4657754Y-13340738D01*
X4657754Y-13340738D02*
X4648231Y-13359786D01*
X4648231Y-13359786D02*
X4638707Y-13369310D01*
X4638707Y-13369310D02*
X4619659Y-13378833D01*
X4619659Y-13378833D02*
X4600611Y-13378833D01*
X4600611Y-13378833D02*
X4581564Y-13369310D01*
X4581564Y-13369310D02*
X4572040Y-13359786D01*
X4572040Y-13359786D02*
X4562516Y-13340738D01*
X4562516Y-13340738D02*
X4552992Y-13302643D01*
X4552992Y-13302643D02*
X4552992Y-13255024D01*
X4552992Y-13255024D02*
X4562516Y-13216929D01*
X4562516Y-13216929D02*
X4572040Y-13197881D01*
X4572040Y-13197881D02*
X4581564Y-13188357D01*
X4581564Y-13188357D02*
X4600611Y-13178833D01*
X4752992Y-13378833D02*
X4752992Y-13245500D01*
X4752992Y-13264548D02*
X4762516Y-13255024D01*
X4762516Y-13255024D02*
X4781564Y-13245500D01*
X4781564Y-13245500D02*
X4810135Y-13245500D01*
X4810135Y-13245500D02*
X4829183Y-13255024D01*
X4829183Y-13255024D02*
X4838707Y-13274072D01*
X4838707Y-13274072D02*
X4838707Y-13378833D01*
X4838707Y-13274072D02*
X4848231Y-13255024D01*
X4848231Y-13255024D02*
X4867278Y-13245500D01*
X4867278Y-13245500D02*
X4895850Y-13245500D01*
X4895850Y-13245500D02*
X4914897Y-13255024D01*
X4914897Y-13255024D02*
X4924421Y-13274072D01*
X4924421Y-13274072D02*
X4924421Y-13378833D01*
X5019659Y-13378833D02*
X5019659Y-13245500D01*
X5019659Y-13264548D02*
X5029183Y-13255024D01*
X5029183Y-13255024D02*
X5048231Y-13245500D01*
X5048231Y-13245500D02*
X5076802Y-13245500D01*
X5076802Y-13245500D02*
X5095850Y-13255024D01*
X5095850Y-13255024D02*
X5105373Y-13274072D01*
X5105373Y-13274072D02*
X5105373Y-13378833D01*
X5105373Y-13274072D02*
X5114897Y-13255024D01*
X5114897Y-13255024D02*
X5133945Y-13245500D01*
X5133945Y-13245500D02*
X5162516Y-13245500D01*
X5162516Y-13245500D02*
X5181564Y-13255024D01*
X5181564Y-13255024D02*
X5191088Y-13274072D01*
X5191088Y-13274072D02*
X5191088Y-13378833D01*
X5581564Y-13169310D02*
X5410135Y-13426452D01*
X5838707Y-13178833D02*
X5857754Y-13178833D01*
X5857754Y-13178833D02*
X5876802Y-13188357D01*
X5876802Y-13188357D02*
X5886326Y-13197881D01*
X5886326Y-13197881D02*
X5895850Y-13216929D01*
X5895850Y-13216929D02*
X5905373Y-13255024D01*
X5905373Y-13255024D02*
X5905373Y-13302643D01*
X5905373Y-13302643D02*
X5895850Y-13340738D01*
X5895850Y-13340738D02*
X5886326Y-13359786D01*
X5886326Y-13359786D02*
X5876802Y-13369310D01*
X5876802Y-13369310D02*
X5857754Y-13378833D01*
X5857754Y-13378833D02*
X5838707Y-13378833D01*
X5838707Y-13378833D02*
X5819659Y-13369310D01*
X5819659Y-13369310D02*
X5810135Y-13359786D01*
X5810135Y-13359786D02*
X5800612Y-13340738D01*
X5800612Y-13340738D02*
X5791088Y-13302643D01*
X5791088Y-13302643D02*
X5791088Y-13255024D01*
X5791088Y-13255024D02*
X5800612Y-13216929D01*
X5800612Y-13216929D02*
X5810135Y-13197881D01*
X5810135Y-13197881D02*
X5819659Y-13188357D01*
X5819659Y-13188357D02*
X5838707Y-13178833D01*
X5991088Y-13359786D02*
X6000612Y-13369310D01*
X6000612Y-13369310D02*
X5991088Y-13378833D01*
X5991088Y-13378833D02*
X5981564Y-13369310D01*
X5981564Y-13369310D02*
X5991088Y-13359786D01*
X5991088Y-13359786D02*
X5991088Y-13378833D01*
X6124421Y-13178833D02*
X6143469Y-13178833D01*
X6143469Y-13178833D02*
X6162516Y-13188357D01*
X6162516Y-13188357D02*
X6172040Y-13197881D01*
X6172040Y-13197881D02*
X6181564Y-13216929D01*
X6181564Y-13216929D02*
X6191088Y-13255024D01*
X6191088Y-13255024D02*
X6191088Y-13302643D01*
X6191088Y-13302643D02*
X6181564Y-13340738D01*
X6181564Y-13340738D02*
X6172040Y-13359786D01*
X6172040Y-13359786D02*
X6162516Y-13369310D01*
X6162516Y-13369310D02*
X6143469Y-13378833D01*
X6143469Y-13378833D02*
X6124421Y-13378833D01*
X6124421Y-13378833D02*
X6105373Y-13369310D01*
X6105373Y-13369310D02*
X6095850Y-13359786D01*
X6095850Y-13359786D02*
X6086326Y-13340738D01*
X6086326Y-13340738D02*
X6076802Y-13302643D01*
X6076802Y-13302643D02*
X6076802Y-13255024D01*
X6076802Y-13255024D02*
X6086326Y-13216929D01*
X6086326Y-13216929D02*
X6095850Y-13197881D01*
X6095850Y-13197881D02*
X6105373Y-13188357D01*
X6105373Y-13188357D02*
X6124421Y-13178833D01*
X6381564Y-13378833D02*
X6267278Y-13378833D01*
X6324421Y-13378833D02*
X6324421Y-13178833D01*
X6324421Y-13178833D02*
X6305373Y-13207405D01*
X6305373Y-13207405D02*
X6286326Y-13226452D01*
X6286326Y-13226452D02*
X6267278Y-13235976D01*
X6572040Y-13378833D02*
X6457754Y-13378833D01*
X6514897Y-13378833D02*
X6514897Y-13178833D01*
X6514897Y-13178833D02*
X6495850Y-13207405D01*
X6495850Y-13207405D02*
X6476802Y-13226452D01*
X6476802Y-13226452D02*
X6457754Y-13235976D01*
X6686326Y-13264548D02*
X6667278Y-13255024D01*
X6667278Y-13255024D02*
X6657754Y-13245500D01*
X6657754Y-13245500D02*
X6648231Y-13226452D01*
X6648231Y-13226452D02*
X6648231Y-13216929D01*
X6648231Y-13216929D02*
X6657754Y-13197881D01*
X6657754Y-13197881D02*
X6667278Y-13188357D01*
X6667278Y-13188357D02*
X6686326Y-13178833D01*
X6686326Y-13178833D02*
X6724421Y-13178833D01*
X6724421Y-13178833D02*
X6743469Y-13188357D01*
X6743469Y-13188357D02*
X6752993Y-13197881D01*
X6752993Y-13197881D02*
X6762516Y-13216929D01*
X6762516Y-13216929D02*
X6762516Y-13226452D01*
X6762516Y-13226452D02*
X6752993Y-13245500D01*
X6752993Y-13245500D02*
X6743469Y-13255024D01*
X6743469Y-13255024D02*
X6724421Y-13264548D01*
X6724421Y-13264548D02*
X6686326Y-13264548D01*
X6686326Y-13264548D02*
X6667278Y-13274072D01*
X6667278Y-13274072D02*
X6657754Y-13283595D01*
X6657754Y-13283595D02*
X6648231Y-13302643D01*
X6648231Y-13302643D02*
X6648231Y-13340738D01*
X6648231Y-13340738D02*
X6657754Y-13359786D01*
X6657754Y-13359786D02*
X6667278Y-13369310D01*
X6667278Y-13369310D02*
X6686326Y-13378833D01*
X6686326Y-13378833D02*
X6724421Y-13378833D01*
X6724421Y-13378833D02*
X6743469Y-13369310D01*
X6743469Y-13369310D02*
X6752993Y-13359786D01*
X6752993Y-13359786D02*
X6762516Y-13340738D01*
X6762516Y-13340738D02*
X6762516Y-13302643D01*
X6762516Y-13302643D02*
X6752993Y-13283595D01*
X6752993Y-13283595D02*
X6743469Y-13274072D01*
X6743469Y-13274072D02*
X6724421Y-13264548D01*
X6838707Y-13178833D02*
X6838707Y-13216929D01*
X6914897Y-13178833D02*
X6914897Y-13216929D01*
X7210136Y-13455024D02*
X7200612Y-13445500D01*
X7200612Y-13445500D02*
X7181564Y-13416929D01*
X7181564Y-13416929D02*
X7172040Y-13397881D01*
X7172040Y-13397881D02*
X7162516Y-13369310D01*
X7162516Y-13369310D02*
X7152993Y-13321691D01*
X7152993Y-13321691D02*
X7152993Y-13283595D01*
X7152993Y-13283595D02*
X7162516Y-13235976D01*
X7162516Y-13235976D02*
X7172040Y-13207405D01*
X7172040Y-13207405D02*
X7181564Y-13188357D01*
X7181564Y-13188357D02*
X7200612Y-13159786D01*
X7200612Y-13159786D02*
X7210136Y-13150262D01*
X7295850Y-13378833D02*
X7333945Y-13378833D01*
X7333945Y-13378833D02*
X7352993Y-13369310D01*
X7352993Y-13369310D02*
X7362516Y-13359786D01*
X7362516Y-13359786D02*
X7381564Y-13331214D01*
X7381564Y-13331214D02*
X7391088Y-13293119D01*
X7391088Y-13293119D02*
X7391088Y-13216929D01*
X7391088Y-13216929D02*
X7381564Y-13197881D01*
X7381564Y-13197881D02*
X7372040Y-13188357D01*
X7372040Y-13188357D02*
X7352993Y-13178833D01*
X7352993Y-13178833D02*
X7314897Y-13178833D01*
X7314897Y-13178833D02*
X7295850Y-13188357D01*
X7295850Y-13188357D02*
X7286326Y-13197881D01*
X7286326Y-13197881D02*
X7276802Y-13216929D01*
X7276802Y-13216929D02*
X7276802Y-13264548D01*
X7276802Y-13264548D02*
X7286326Y-13283595D01*
X7286326Y-13283595D02*
X7295850Y-13293119D01*
X7295850Y-13293119D02*
X7314897Y-13302643D01*
X7314897Y-13302643D02*
X7352993Y-13302643D01*
X7352993Y-13302643D02*
X7372040Y-13293119D01*
X7372040Y-13293119D02*
X7381564Y-13283595D01*
X7381564Y-13283595D02*
X7391088Y-13264548D01*
X7562516Y-13178833D02*
X7524421Y-13178833D01*
X7524421Y-13178833D02*
X7505374Y-13188357D01*
X7505374Y-13188357D02*
X7495850Y-13197881D01*
X7495850Y-13197881D02*
X7476802Y-13226452D01*
X7476802Y-13226452D02*
X7467278Y-13264548D01*
X7467278Y-13264548D02*
X7467278Y-13340738D01*
X7467278Y-13340738D02*
X7476802Y-13359786D01*
X7476802Y-13359786D02*
X7486326Y-13369310D01*
X7486326Y-13369310D02*
X7505374Y-13378833D01*
X7505374Y-13378833D02*
X7543469Y-13378833D01*
X7543469Y-13378833D02*
X7562516Y-13369310D01*
X7562516Y-13369310D02*
X7572040Y-13359786D01*
X7572040Y-13359786D02*
X7581564Y-13340738D01*
X7581564Y-13340738D02*
X7581564Y-13293119D01*
X7581564Y-13293119D02*
X7572040Y-13274072D01*
X7572040Y-13274072D02*
X7562516Y-13264548D01*
X7562516Y-13264548D02*
X7543469Y-13255024D01*
X7543469Y-13255024D02*
X7505374Y-13255024D01*
X7505374Y-13255024D02*
X7486326Y-13264548D01*
X7486326Y-13264548D02*
X7476802Y-13274072D01*
X7476802Y-13274072D02*
X7467278Y-13293119D01*
X7819659Y-13378833D02*
X7819659Y-13178833D01*
X7905374Y-13378833D02*
X7905374Y-13274072D01*
X7905374Y-13274072D02*
X7895850Y-13255024D01*
X7895850Y-13255024D02*
X7876802Y-13245500D01*
X7876802Y-13245500D02*
X7848231Y-13245500D01*
X7848231Y-13245500D02*
X7829183Y-13255024D01*
X7829183Y-13255024D02*
X7819659Y-13264548D01*
X8029183Y-13378833D02*
X8010136Y-13369310D01*
X8010136Y-13369310D02*
X8000612Y-13359786D01*
X8000612Y-13359786D02*
X7991088Y-13340738D01*
X7991088Y-13340738D02*
X7991088Y-13283595D01*
X7991088Y-13283595D02*
X8000612Y-13264548D01*
X8000612Y-13264548D02*
X8010136Y-13255024D01*
X8010136Y-13255024D02*
X8029183Y-13245500D01*
X8029183Y-13245500D02*
X8057755Y-13245500D01*
X8057755Y-13245500D02*
X8076802Y-13255024D01*
X8076802Y-13255024D02*
X8086326Y-13264548D01*
X8086326Y-13264548D02*
X8095850Y-13283595D01*
X8095850Y-13283595D02*
X8095850Y-13340738D01*
X8095850Y-13340738D02*
X8086326Y-13359786D01*
X8086326Y-13359786D02*
X8076802Y-13369310D01*
X8076802Y-13369310D02*
X8057755Y-13378833D01*
X8057755Y-13378833D02*
X8029183Y-13378833D01*
X8210136Y-13378833D02*
X8191088Y-13369310D01*
X8191088Y-13369310D02*
X8181564Y-13350262D01*
X8181564Y-13350262D02*
X8181564Y-13178833D01*
X8362517Y-13369310D02*
X8343469Y-13378833D01*
X8343469Y-13378833D02*
X8305374Y-13378833D01*
X8305374Y-13378833D02*
X8286326Y-13369310D01*
X8286326Y-13369310D02*
X8276802Y-13350262D01*
X8276802Y-13350262D02*
X8276802Y-13274072D01*
X8276802Y-13274072D02*
X8286326Y-13255024D01*
X8286326Y-13255024D02*
X8305374Y-13245500D01*
X8305374Y-13245500D02*
X8343469Y-13245500D01*
X8343469Y-13245500D02*
X8362517Y-13255024D01*
X8362517Y-13255024D02*
X8372040Y-13274072D01*
X8372040Y-13274072D02*
X8372040Y-13293119D01*
X8372040Y-13293119D02*
X8276802Y-13312167D01*
X8448231Y-13369310D02*
X8467279Y-13378833D01*
X8467279Y-13378833D02*
X8505374Y-13378833D01*
X8505374Y-13378833D02*
X8524421Y-13369310D01*
X8524421Y-13369310D02*
X8533945Y-13350262D01*
X8533945Y-13350262D02*
X8533945Y-13340738D01*
X8533945Y-13340738D02*
X8524421Y-13321691D01*
X8524421Y-13321691D02*
X8505374Y-13312167D01*
X8505374Y-13312167D02*
X8476802Y-13312167D01*
X8476802Y-13312167D02*
X8457755Y-13302643D01*
X8457755Y-13302643D02*
X8448231Y-13283595D01*
X8448231Y-13283595D02*
X8448231Y-13274072D01*
X8448231Y-13274072D02*
X8457755Y-13255024D01*
X8457755Y-13255024D02*
X8476802Y-13245500D01*
X8476802Y-13245500D02*
X8505374Y-13245500D01*
X8505374Y-13245500D02*
X8524421Y-13255024D01*
X8600612Y-13455024D02*
X8610136Y-13445500D01*
X8610136Y-13445500D02*
X8629183Y-13416929D01*
X8629183Y-13416929D02*
X8638707Y-13397881D01*
X8638707Y-13397881D02*
X8648231Y-13369310D01*
X8648231Y-13369310D02*
X8657755Y-13321691D01*
X8657755Y-13321691D02*
X8657755Y-13283595D01*
X8657755Y-13283595D02*
X8648231Y-13235976D01*
X8648231Y-13235976D02*
X8638707Y-13207405D01*
X8638707Y-13207405D02*
X8629183Y-13188357D01*
X8629183Y-13188357D02*
X8610136Y-13159786D01*
X8610136Y-13159786D02*
X8600612Y-13150262D01*
D12*
X3635073Y-13551350D02*
G75*
G02*
X3595073Y-13551350I-20000J0D01*
G01*
X3595073Y-13551350D02*
G75*
G02*
X3635073Y-13551350I20000J0D01*
G01*
D11*
X3933945Y-13442833D02*
X3952992Y-13442833D01*
X3952992Y-13442833D02*
X3972040Y-13452357D01*
X3972040Y-13452357D02*
X3981564Y-13461881D01*
X3981564Y-13461881D02*
X3991088Y-13480929D01*
X3991088Y-13480929D02*
X4000611Y-13519024D01*
X4000611Y-13519024D02*
X4000611Y-13566643D01*
X4000611Y-13566643D02*
X3991088Y-13604738D01*
X3991088Y-13604738D02*
X3981564Y-13623786D01*
X3981564Y-13623786D02*
X3972040Y-13633310D01*
X3972040Y-13633310D02*
X3952992Y-13642833D01*
X3952992Y-13642833D02*
X3933945Y-13642833D01*
X3933945Y-13642833D02*
X3914897Y-13633310D01*
X3914897Y-13633310D02*
X3905373Y-13623786D01*
X3905373Y-13623786D02*
X3895849Y-13604738D01*
X3895849Y-13604738D02*
X3886326Y-13566643D01*
X3886326Y-13566643D02*
X3886326Y-13519024D01*
X3886326Y-13519024D02*
X3895849Y-13480929D01*
X3895849Y-13480929D02*
X3905373Y-13461881D01*
X3905373Y-13461881D02*
X3914897Y-13452357D01*
X3914897Y-13452357D02*
X3933945Y-13442833D01*
X4086326Y-13623786D02*
X4095849Y-13633310D01*
X4095849Y-13633310D02*
X4086326Y-13642833D01*
X4086326Y-13642833D02*
X4076802Y-13633310D01*
X4076802Y-13633310D02*
X4086326Y-13623786D01*
X4086326Y-13623786D02*
X4086326Y-13642833D01*
X4267278Y-13509500D02*
X4267278Y-13642833D01*
X4219659Y-13433310D02*
X4172040Y-13576167D01*
X4172040Y-13576167D02*
X4295850Y-13576167D01*
X4410135Y-13442833D02*
X4429183Y-13442833D01*
X4429183Y-13442833D02*
X4448231Y-13452357D01*
X4448231Y-13452357D02*
X4457754Y-13461881D01*
X4457754Y-13461881D02*
X4467278Y-13480929D01*
X4467278Y-13480929D02*
X4476802Y-13519024D01*
X4476802Y-13519024D02*
X4476802Y-13566643D01*
X4476802Y-13566643D02*
X4467278Y-13604738D01*
X4467278Y-13604738D02*
X4457754Y-13623786D01*
X4457754Y-13623786D02*
X4448231Y-13633310D01*
X4448231Y-13633310D02*
X4429183Y-13642833D01*
X4429183Y-13642833D02*
X4410135Y-13642833D01*
X4410135Y-13642833D02*
X4391088Y-13633310D01*
X4391088Y-13633310D02*
X4381564Y-13623786D01*
X4381564Y-13623786D02*
X4372040Y-13604738D01*
X4372040Y-13604738D02*
X4362516Y-13566643D01*
X4362516Y-13566643D02*
X4362516Y-13519024D01*
X4362516Y-13519024D02*
X4372040Y-13480929D01*
X4372040Y-13480929D02*
X4381564Y-13461881D01*
X4381564Y-13461881D02*
X4391088Y-13452357D01*
X4391088Y-13452357D02*
X4410135Y-13442833D01*
X4600611Y-13442833D02*
X4619659Y-13442833D01*
X4619659Y-13442833D02*
X4638707Y-13452357D01*
X4638707Y-13452357D02*
X4648231Y-13461881D01*
X4648231Y-13461881D02*
X4657754Y-13480929D01*
X4657754Y-13480929D02*
X4667278Y-13519024D01*
X4667278Y-13519024D02*
X4667278Y-13566643D01*
X4667278Y-13566643D02*
X4657754Y-13604738D01*
X4657754Y-13604738D02*
X4648231Y-13623786D01*
X4648231Y-13623786D02*
X4638707Y-13633310D01*
X4638707Y-13633310D02*
X4619659Y-13642833D01*
X4619659Y-13642833D02*
X4600611Y-13642833D01*
X4600611Y-13642833D02*
X4581564Y-13633310D01*
X4581564Y-13633310D02*
X4572040Y-13623786D01*
X4572040Y-13623786D02*
X4562516Y-13604738D01*
X4562516Y-13604738D02*
X4552992Y-13566643D01*
X4552992Y-13566643D02*
X4552992Y-13519024D01*
X4552992Y-13519024D02*
X4562516Y-13480929D01*
X4562516Y-13480929D02*
X4572040Y-13461881D01*
X4572040Y-13461881D02*
X4581564Y-13452357D01*
X4581564Y-13452357D02*
X4600611Y-13442833D01*
X4752992Y-13642833D02*
X4752992Y-13509500D01*
X4752992Y-13528548D02*
X4762516Y-13519024D01*
X4762516Y-13519024D02*
X4781564Y-13509500D01*
X4781564Y-13509500D02*
X4810135Y-13509500D01*
X4810135Y-13509500D02*
X4829183Y-13519024D01*
X4829183Y-13519024D02*
X4838707Y-13538072D01*
X4838707Y-13538072D02*
X4838707Y-13642833D01*
X4838707Y-13538072D02*
X4848231Y-13519024D01*
X4848231Y-13519024D02*
X4867278Y-13509500D01*
X4867278Y-13509500D02*
X4895850Y-13509500D01*
X4895850Y-13509500D02*
X4914897Y-13519024D01*
X4914897Y-13519024D02*
X4924421Y-13538072D01*
X4924421Y-13538072D02*
X4924421Y-13642833D01*
X5019659Y-13642833D02*
X5019659Y-13509500D01*
X5019659Y-13528548D02*
X5029183Y-13519024D01*
X5029183Y-13519024D02*
X5048231Y-13509500D01*
X5048231Y-13509500D02*
X5076802Y-13509500D01*
X5076802Y-13509500D02*
X5095850Y-13519024D01*
X5095850Y-13519024D02*
X5105373Y-13538072D01*
X5105373Y-13538072D02*
X5105373Y-13642833D01*
X5105373Y-13538072D02*
X5114897Y-13519024D01*
X5114897Y-13519024D02*
X5133945Y-13509500D01*
X5133945Y-13509500D02*
X5162516Y-13509500D01*
X5162516Y-13509500D02*
X5181564Y-13519024D01*
X5181564Y-13519024D02*
X5191088Y-13538072D01*
X5191088Y-13538072D02*
X5191088Y-13642833D01*
X5581564Y-13433310D02*
X5410135Y-13690452D01*
X5838707Y-13442833D02*
X5857754Y-13442833D01*
X5857754Y-13442833D02*
X5876802Y-13452357D01*
X5876802Y-13452357D02*
X5886326Y-13461881D01*
X5886326Y-13461881D02*
X5895850Y-13480929D01*
X5895850Y-13480929D02*
X5905373Y-13519024D01*
X5905373Y-13519024D02*
X5905373Y-13566643D01*
X5905373Y-13566643D02*
X5895850Y-13604738D01*
X5895850Y-13604738D02*
X5886326Y-13623786D01*
X5886326Y-13623786D02*
X5876802Y-13633310D01*
X5876802Y-13633310D02*
X5857754Y-13642833D01*
X5857754Y-13642833D02*
X5838707Y-13642833D01*
X5838707Y-13642833D02*
X5819659Y-13633310D01*
X5819659Y-13633310D02*
X5810135Y-13623786D01*
X5810135Y-13623786D02*
X5800612Y-13604738D01*
X5800612Y-13604738D02*
X5791088Y-13566643D01*
X5791088Y-13566643D02*
X5791088Y-13519024D01*
X5791088Y-13519024D02*
X5800612Y-13480929D01*
X5800612Y-13480929D02*
X5810135Y-13461881D01*
X5810135Y-13461881D02*
X5819659Y-13452357D01*
X5819659Y-13452357D02*
X5838707Y-13442833D01*
X5991088Y-13623786D02*
X6000612Y-13633310D01*
X6000612Y-13633310D02*
X5991088Y-13642833D01*
X5991088Y-13642833D02*
X5981564Y-13633310D01*
X5981564Y-13633310D02*
X5991088Y-13623786D01*
X5991088Y-13623786D02*
X5991088Y-13642833D01*
X6124421Y-13442833D02*
X6143469Y-13442833D01*
X6143469Y-13442833D02*
X6162516Y-13452357D01*
X6162516Y-13452357D02*
X6172040Y-13461881D01*
X6172040Y-13461881D02*
X6181564Y-13480929D01*
X6181564Y-13480929D02*
X6191088Y-13519024D01*
X6191088Y-13519024D02*
X6191088Y-13566643D01*
X6191088Y-13566643D02*
X6181564Y-13604738D01*
X6181564Y-13604738D02*
X6172040Y-13623786D01*
X6172040Y-13623786D02*
X6162516Y-13633310D01*
X6162516Y-13633310D02*
X6143469Y-13642833D01*
X6143469Y-13642833D02*
X6124421Y-13642833D01*
X6124421Y-13642833D02*
X6105373Y-13633310D01*
X6105373Y-13633310D02*
X6095850Y-13623786D01*
X6095850Y-13623786D02*
X6086326Y-13604738D01*
X6086326Y-13604738D02*
X6076802Y-13566643D01*
X6076802Y-13566643D02*
X6076802Y-13519024D01*
X6076802Y-13519024D02*
X6086326Y-13480929D01*
X6086326Y-13480929D02*
X6095850Y-13461881D01*
X6095850Y-13461881D02*
X6105373Y-13452357D01*
X6105373Y-13452357D02*
X6124421Y-13442833D01*
X6381564Y-13642833D02*
X6267278Y-13642833D01*
X6324421Y-13642833D02*
X6324421Y-13442833D01*
X6324421Y-13442833D02*
X6305373Y-13471405D01*
X6305373Y-13471405D02*
X6286326Y-13490452D01*
X6286326Y-13490452D02*
X6267278Y-13499976D01*
X6562516Y-13442833D02*
X6467278Y-13442833D01*
X6467278Y-13442833D02*
X6457754Y-13538072D01*
X6457754Y-13538072D02*
X6467278Y-13528548D01*
X6467278Y-13528548D02*
X6486326Y-13519024D01*
X6486326Y-13519024D02*
X6533945Y-13519024D01*
X6533945Y-13519024D02*
X6552993Y-13528548D01*
X6552993Y-13528548D02*
X6562516Y-13538072D01*
X6562516Y-13538072D02*
X6572040Y-13557119D01*
X6572040Y-13557119D02*
X6572040Y-13604738D01*
X6572040Y-13604738D02*
X6562516Y-13623786D01*
X6562516Y-13623786D02*
X6552993Y-13633310D01*
X6552993Y-13633310D02*
X6533945Y-13642833D01*
X6533945Y-13642833D02*
X6486326Y-13642833D01*
X6486326Y-13642833D02*
X6467278Y-13633310D01*
X6467278Y-13633310D02*
X6457754Y-13623786D01*
X6638707Y-13442833D02*
X6772040Y-13442833D01*
X6772040Y-13442833D02*
X6686326Y-13642833D01*
X6838707Y-13442833D02*
X6838707Y-13480929D01*
X6914897Y-13442833D02*
X6914897Y-13480929D01*
X7210136Y-13719024D02*
X7200612Y-13709500D01*
X7200612Y-13709500D02*
X7181564Y-13680929D01*
X7181564Y-13680929D02*
X7172040Y-13661881D01*
X7172040Y-13661881D02*
X7162516Y-13633310D01*
X7162516Y-13633310D02*
X7152993Y-13585691D01*
X7152993Y-13585691D02*
X7152993Y-13547595D01*
X7152993Y-13547595D02*
X7162516Y-13499976D01*
X7162516Y-13499976D02*
X7172040Y-13471405D01*
X7172040Y-13471405D02*
X7181564Y-13452357D01*
X7181564Y-13452357D02*
X7200612Y-13423786D01*
X7200612Y-13423786D02*
X7210136Y-13414262D01*
X7276802Y-13461881D02*
X7286326Y-13452357D01*
X7286326Y-13452357D02*
X7305374Y-13442833D01*
X7305374Y-13442833D02*
X7352993Y-13442833D01*
X7352993Y-13442833D02*
X7372040Y-13452357D01*
X7372040Y-13452357D02*
X7381564Y-13461881D01*
X7381564Y-13461881D02*
X7391088Y-13480929D01*
X7391088Y-13480929D02*
X7391088Y-13499976D01*
X7391088Y-13499976D02*
X7381564Y-13528548D01*
X7381564Y-13528548D02*
X7267278Y-13642833D01*
X7267278Y-13642833D02*
X7391088Y-13642833D01*
X7562516Y-13509500D02*
X7562516Y-13642833D01*
X7514897Y-13433310D02*
X7467278Y-13576167D01*
X7467278Y-13576167D02*
X7591088Y-13576167D01*
X7819659Y-13642833D02*
X7819659Y-13442833D01*
X7905374Y-13642833D02*
X7905374Y-13538072D01*
X7905374Y-13538072D02*
X7895850Y-13519024D01*
X7895850Y-13519024D02*
X7876802Y-13509500D01*
X7876802Y-13509500D02*
X7848231Y-13509500D01*
X7848231Y-13509500D02*
X7829183Y-13519024D01*
X7829183Y-13519024D02*
X7819659Y-13528548D01*
X8029183Y-13642833D02*
X8010136Y-13633310D01*
X8010136Y-13633310D02*
X8000612Y-13623786D01*
X8000612Y-13623786D02*
X7991088Y-13604738D01*
X7991088Y-13604738D02*
X7991088Y-13547595D01*
X7991088Y-13547595D02*
X8000612Y-13528548D01*
X8000612Y-13528548D02*
X8010136Y-13519024D01*
X8010136Y-13519024D02*
X8029183Y-13509500D01*
X8029183Y-13509500D02*
X8057755Y-13509500D01*
X8057755Y-13509500D02*
X8076802Y-13519024D01*
X8076802Y-13519024D02*
X8086326Y-13528548D01*
X8086326Y-13528548D02*
X8095850Y-13547595D01*
X8095850Y-13547595D02*
X8095850Y-13604738D01*
X8095850Y-13604738D02*
X8086326Y-13623786D01*
X8086326Y-13623786D02*
X8076802Y-13633310D01*
X8076802Y-13633310D02*
X8057755Y-13642833D01*
X8057755Y-13642833D02*
X8029183Y-13642833D01*
X8210136Y-13642833D02*
X8191088Y-13633310D01*
X8191088Y-13633310D02*
X8181564Y-13614262D01*
X8181564Y-13614262D02*
X8181564Y-13442833D01*
X8362517Y-13633310D02*
X8343469Y-13642833D01*
X8343469Y-13642833D02*
X8305374Y-13642833D01*
X8305374Y-13642833D02*
X8286326Y-13633310D01*
X8286326Y-13633310D02*
X8276802Y-13614262D01*
X8276802Y-13614262D02*
X8276802Y-13538072D01*
X8276802Y-13538072D02*
X8286326Y-13519024D01*
X8286326Y-13519024D02*
X8305374Y-13509500D01*
X8305374Y-13509500D02*
X8343469Y-13509500D01*
X8343469Y-13509500D02*
X8362517Y-13519024D01*
X8362517Y-13519024D02*
X8372040Y-13538072D01*
X8372040Y-13538072D02*
X8372040Y-13557119D01*
X8372040Y-13557119D02*
X8276802Y-13576167D01*
X8448231Y-13633310D02*
X8467279Y-13642833D01*
X8467279Y-13642833D02*
X8505374Y-13642833D01*
X8505374Y-13642833D02*
X8524421Y-13633310D01*
X8524421Y-13633310D02*
X8533945Y-13614262D01*
X8533945Y-13614262D02*
X8533945Y-13604738D01*
X8533945Y-13604738D02*
X8524421Y-13585691D01*
X8524421Y-13585691D02*
X8505374Y-13576167D01*
X8505374Y-13576167D02*
X8476802Y-13576167D01*
X8476802Y-13576167D02*
X8457755Y-13566643D01*
X8457755Y-13566643D02*
X8448231Y-13547595D01*
X8448231Y-13547595D02*
X8448231Y-13538072D01*
X8448231Y-13538072D02*
X8457755Y-13519024D01*
X8457755Y-13519024D02*
X8476802Y-13509500D01*
X8476802Y-13509500D02*
X8505374Y-13509500D01*
X8505374Y-13509500D02*
X8524421Y-13519024D01*
X8600612Y-13719024D02*
X8610136Y-13709500D01*
X8610136Y-13709500D02*
X8629183Y-13680929D01*
X8629183Y-13680929D02*
X8638707Y-13661881D01*
X8638707Y-13661881D02*
X8648231Y-13633310D01*
X8648231Y-13633310D02*
X8657755Y-13585691D01*
X8657755Y-13585691D02*
X8657755Y-13547595D01*
X8657755Y-13547595D02*
X8648231Y-13499976D01*
X8648231Y-13499976D02*
X8638707Y-13471405D01*
X8638707Y-13471405D02*
X8629183Y-13452357D01*
X8629183Y-13452357D02*
X8610136Y-13423786D01*
X8610136Y-13423786D02*
X8600612Y-13414262D01*
D12*
X3597573Y-13777850D02*
X3597573Y-13852850D01*
X3560073Y-13815350D02*
X3635073Y-13815350D01*
D11*
X3933945Y-13706833D02*
X3952992Y-13706833D01*
X3952992Y-13706833D02*
X3972040Y-13716357D01*
X3972040Y-13716357D02*
X3981564Y-13725881D01*
X3981564Y-13725881D02*
X3991088Y-13744929D01*
X3991088Y-13744929D02*
X4000611Y-13783024D01*
X4000611Y-13783024D02*
X4000611Y-13830643D01*
X4000611Y-13830643D02*
X3991088Y-13868738D01*
X3991088Y-13868738D02*
X3981564Y-13887786D01*
X3981564Y-13887786D02*
X3972040Y-13897310D01*
X3972040Y-13897310D02*
X3952992Y-13906833D01*
X3952992Y-13906833D02*
X3933945Y-13906833D01*
X3933945Y-13906833D02*
X3914897Y-13897310D01*
X3914897Y-13897310D02*
X3905373Y-13887786D01*
X3905373Y-13887786D02*
X3895849Y-13868738D01*
X3895849Y-13868738D02*
X3886326Y-13830643D01*
X3886326Y-13830643D02*
X3886326Y-13783024D01*
X3886326Y-13783024D02*
X3895849Y-13744929D01*
X3895849Y-13744929D02*
X3905373Y-13725881D01*
X3905373Y-13725881D02*
X3914897Y-13716357D01*
X3914897Y-13716357D02*
X3933945Y-13706833D01*
X4086326Y-13887786D02*
X4095849Y-13897310D01*
X4095849Y-13897310D02*
X4086326Y-13906833D01*
X4086326Y-13906833D02*
X4076802Y-13897310D01*
X4076802Y-13897310D02*
X4086326Y-13887786D01*
X4086326Y-13887786D02*
X4086326Y-13906833D01*
X4162516Y-13706833D02*
X4295850Y-13706833D01*
X4295850Y-13706833D02*
X4210135Y-13906833D01*
X4467278Y-13706833D02*
X4372040Y-13706833D01*
X4372040Y-13706833D02*
X4362516Y-13802072D01*
X4362516Y-13802072D02*
X4372040Y-13792548D01*
X4372040Y-13792548D02*
X4391088Y-13783024D01*
X4391088Y-13783024D02*
X4438707Y-13783024D01*
X4438707Y-13783024D02*
X4457754Y-13792548D01*
X4457754Y-13792548D02*
X4467278Y-13802072D01*
X4467278Y-13802072D02*
X4476802Y-13821119D01*
X4476802Y-13821119D02*
X4476802Y-13868738D01*
X4476802Y-13868738D02*
X4467278Y-13887786D01*
X4467278Y-13887786D02*
X4457754Y-13897310D01*
X4457754Y-13897310D02*
X4438707Y-13906833D01*
X4438707Y-13906833D02*
X4391088Y-13906833D01*
X4391088Y-13906833D02*
X4372040Y-13897310D01*
X4372040Y-13897310D02*
X4362516Y-13887786D01*
X4600611Y-13706833D02*
X4619659Y-13706833D01*
X4619659Y-13706833D02*
X4638707Y-13716357D01*
X4638707Y-13716357D02*
X4648231Y-13725881D01*
X4648231Y-13725881D02*
X4657754Y-13744929D01*
X4657754Y-13744929D02*
X4667278Y-13783024D01*
X4667278Y-13783024D02*
X4667278Y-13830643D01*
X4667278Y-13830643D02*
X4657754Y-13868738D01*
X4657754Y-13868738D02*
X4648231Y-13887786D01*
X4648231Y-13887786D02*
X4638707Y-13897310D01*
X4638707Y-13897310D02*
X4619659Y-13906833D01*
X4619659Y-13906833D02*
X4600611Y-13906833D01*
X4600611Y-13906833D02*
X4581564Y-13897310D01*
X4581564Y-13897310D02*
X4572040Y-13887786D01*
X4572040Y-13887786D02*
X4562516Y-13868738D01*
X4562516Y-13868738D02*
X4552992Y-13830643D01*
X4552992Y-13830643D02*
X4552992Y-13783024D01*
X4552992Y-13783024D02*
X4562516Y-13744929D01*
X4562516Y-13744929D02*
X4572040Y-13725881D01*
X4572040Y-13725881D02*
X4581564Y-13716357D01*
X4581564Y-13716357D02*
X4600611Y-13706833D01*
X4752992Y-13906833D02*
X4752992Y-13773500D01*
X4752992Y-13792548D02*
X4762516Y-13783024D01*
X4762516Y-13783024D02*
X4781564Y-13773500D01*
X4781564Y-13773500D02*
X4810135Y-13773500D01*
X4810135Y-13773500D02*
X4829183Y-13783024D01*
X4829183Y-13783024D02*
X4838707Y-13802072D01*
X4838707Y-13802072D02*
X4838707Y-13906833D01*
X4838707Y-13802072D02*
X4848231Y-13783024D01*
X4848231Y-13783024D02*
X4867278Y-13773500D01*
X4867278Y-13773500D02*
X4895850Y-13773500D01*
X4895850Y-13773500D02*
X4914897Y-13783024D01*
X4914897Y-13783024D02*
X4924421Y-13802072D01*
X4924421Y-13802072D02*
X4924421Y-13906833D01*
X5019659Y-13906833D02*
X5019659Y-13773500D01*
X5019659Y-13792548D02*
X5029183Y-13783024D01*
X5029183Y-13783024D02*
X5048231Y-13773500D01*
X5048231Y-13773500D02*
X5076802Y-13773500D01*
X5076802Y-13773500D02*
X5095850Y-13783024D01*
X5095850Y-13783024D02*
X5105373Y-13802072D01*
X5105373Y-13802072D02*
X5105373Y-13906833D01*
X5105373Y-13802072D02*
X5114897Y-13783024D01*
X5114897Y-13783024D02*
X5133945Y-13773500D01*
X5133945Y-13773500D02*
X5162516Y-13773500D01*
X5162516Y-13773500D02*
X5181564Y-13783024D01*
X5181564Y-13783024D02*
X5191088Y-13802072D01*
X5191088Y-13802072D02*
X5191088Y-13906833D01*
X5581564Y-13697310D02*
X5410135Y-13954452D01*
X5838707Y-13706833D02*
X5857754Y-13706833D01*
X5857754Y-13706833D02*
X5876802Y-13716357D01*
X5876802Y-13716357D02*
X5886326Y-13725881D01*
X5886326Y-13725881D02*
X5895850Y-13744929D01*
X5895850Y-13744929D02*
X5905373Y-13783024D01*
X5905373Y-13783024D02*
X5905373Y-13830643D01*
X5905373Y-13830643D02*
X5895850Y-13868738D01*
X5895850Y-13868738D02*
X5886326Y-13887786D01*
X5886326Y-13887786D02*
X5876802Y-13897310D01*
X5876802Y-13897310D02*
X5857754Y-13906833D01*
X5857754Y-13906833D02*
X5838707Y-13906833D01*
X5838707Y-13906833D02*
X5819659Y-13897310D01*
X5819659Y-13897310D02*
X5810135Y-13887786D01*
X5810135Y-13887786D02*
X5800612Y-13868738D01*
X5800612Y-13868738D02*
X5791088Y-13830643D01*
X5791088Y-13830643D02*
X5791088Y-13783024D01*
X5791088Y-13783024D02*
X5800612Y-13744929D01*
X5800612Y-13744929D02*
X5810135Y-13725881D01*
X5810135Y-13725881D02*
X5819659Y-13716357D01*
X5819659Y-13716357D02*
X5838707Y-13706833D01*
X5991088Y-13887786D02*
X6000612Y-13897310D01*
X6000612Y-13897310D02*
X5991088Y-13906833D01*
X5991088Y-13906833D02*
X5981564Y-13897310D01*
X5981564Y-13897310D02*
X5991088Y-13887786D01*
X5991088Y-13887786D02*
X5991088Y-13906833D01*
X6124421Y-13706833D02*
X6143469Y-13706833D01*
X6143469Y-13706833D02*
X6162516Y-13716357D01*
X6162516Y-13716357D02*
X6172040Y-13725881D01*
X6172040Y-13725881D02*
X6181564Y-13744929D01*
X6181564Y-13744929D02*
X6191088Y-13783024D01*
X6191088Y-13783024D02*
X6191088Y-13830643D01*
X6191088Y-13830643D02*
X6181564Y-13868738D01*
X6181564Y-13868738D02*
X6172040Y-13887786D01*
X6172040Y-13887786D02*
X6162516Y-13897310D01*
X6162516Y-13897310D02*
X6143469Y-13906833D01*
X6143469Y-13906833D02*
X6124421Y-13906833D01*
X6124421Y-13906833D02*
X6105373Y-13897310D01*
X6105373Y-13897310D02*
X6095850Y-13887786D01*
X6095850Y-13887786D02*
X6086326Y-13868738D01*
X6086326Y-13868738D02*
X6076802Y-13830643D01*
X6076802Y-13830643D02*
X6076802Y-13783024D01*
X6076802Y-13783024D02*
X6086326Y-13744929D01*
X6086326Y-13744929D02*
X6095850Y-13725881D01*
X6095850Y-13725881D02*
X6105373Y-13716357D01*
X6105373Y-13716357D02*
X6124421Y-13706833D01*
X6267278Y-13725881D02*
X6276802Y-13716357D01*
X6276802Y-13716357D02*
X6295850Y-13706833D01*
X6295850Y-13706833D02*
X6343469Y-13706833D01*
X6343469Y-13706833D02*
X6362516Y-13716357D01*
X6362516Y-13716357D02*
X6372040Y-13725881D01*
X6372040Y-13725881D02*
X6381564Y-13744929D01*
X6381564Y-13744929D02*
X6381564Y-13763976D01*
X6381564Y-13763976D02*
X6372040Y-13792548D01*
X6372040Y-13792548D02*
X6257754Y-13906833D01*
X6257754Y-13906833D02*
X6381564Y-13906833D01*
X6476802Y-13906833D02*
X6514897Y-13906833D01*
X6514897Y-13906833D02*
X6533945Y-13897310D01*
X6533945Y-13897310D02*
X6543469Y-13887786D01*
X6543469Y-13887786D02*
X6562516Y-13859214D01*
X6562516Y-13859214D02*
X6572040Y-13821119D01*
X6572040Y-13821119D02*
X6572040Y-13744929D01*
X6572040Y-13744929D02*
X6562516Y-13725881D01*
X6562516Y-13725881D02*
X6552993Y-13716357D01*
X6552993Y-13716357D02*
X6533945Y-13706833D01*
X6533945Y-13706833D02*
X6495850Y-13706833D01*
X6495850Y-13706833D02*
X6476802Y-13716357D01*
X6476802Y-13716357D02*
X6467278Y-13725881D01*
X6467278Y-13725881D02*
X6457754Y-13744929D01*
X6457754Y-13744929D02*
X6457754Y-13792548D01*
X6457754Y-13792548D02*
X6467278Y-13811595D01*
X6467278Y-13811595D02*
X6476802Y-13821119D01*
X6476802Y-13821119D02*
X6495850Y-13830643D01*
X6495850Y-13830643D02*
X6533945Y-13830643D01*
X6533945Y-13830643D02*
X6552993Y-13821119D01*
X6552993Y-13821119D02*
X6562516Y-13811595D01*
X6562516Y-13811595D02*
X6572040Y-13792548D01*
X6752993Y-13706833D02*
X6657754Y-13706833D01*
X6657754Y-13706833D02*
X6648231Y-13802072D01*
X6648231Y-13802072D02*
X6657754Y-13792548D01*
X6657754Y-13792548D02*
X6676802Y-13783024D01*
X6676802Y-13783024D02*
X6724421Y-13783024D01*
X6724421Y-13783024D02*
X6743469Y-13792548D01*
X6743469Y-13792548D02*
X6752993Y-13802072D01*
X6752993Y-13802072D02*
X6762516Y-13821119D01*
X6762516Y-13821119D02*
X6762516Y-13868738D01*
X6762516Y-13868738D02*
X6752993Y-13887786D01*
X6752993Y-13887786D02*
X6743469Y-13897310D01*
X6743469Y-13897310D02*
X6724421Y-13906833D01*
X6724421Y-13906833D02*
X6676802Y-13906833D01*
X6676802Y-13906833D02*
X6657754Y-13897310D01*
X6657754Y-13897310D02*
X6648231Y-13887786D01*
X6838707Y-13706833D02*
X6838707Y-13744929D01*
X6914897Y-13706833D02*
X6914897Y-13744929D01*
X7210136Y-13983024D02*
X7200612Y-13973500D01*
X7200612Y-13973500D02*
X7181564Y-13944929D01*
X7181564Y-13944929D02*
X7172040Y-13925881D01*
X7172040Y-13925881D02*
X7162516Y-13897310D01*
X7162516Y-13897310D02*
X7152993Y-13849691D01*
X7152993Y-13849691D02*
X7152993Y-13811595D01*
X7152993Y-13811595D02*
X7162516Y-13763976D01*
X7162516Y-13763976D02*
X7172040Y-13735405D01*
X7172040Y-13735405D02*
X7181564Y-13716357D01*
X7181564Y-13716357D02*
X7200612Y-13687786D01*
X7200612Y-13687786D02*
X7210136Y-13678262D01*
X7276802Y-13725881D02*
X7286326Y-13716357D01*
X7286326Y-13716357D02*
X7305374Y-13706833D01*
X7305374Y-13706833D02*
X7352993Y-13706833D01*
X7352993Y-13706833D02*
X7372040Y-13716357D01*
X7372040Y-13716357D02*
X7381564Y-13725881D01*
X7381564Y-13725881D02*
X7391088Y-13744929D01*
X7391088Y-13744929D02*
X7391088Y-13763976D01*
X7391088Y-13763976D02*
X7381564Y-13792548D01*
X7381564Y-13792548D02*
X7267278Y-13906833D01*
X7267278Y-13906833D02*
X7391088Y-13906833D01*
X7629183Y-13906833D02*
X7629183Y-13706833D01*
X7714897Y-13906833D02*
X7714897Y-13802072D01*
X7714897Y-13802072D02*
X7705374Y-13783024D01*
X7705374Y-13783024D02*
X7686326Y-13773500D01*
X7686326Y-13773500D02*
X7657755Y-13773500D01*
X7657755Y-13773500D02*
X7638707Y-13783024D01*
X7638707Y-13783024D02*
X7629183Y-13792548D01*
X7838707Y-13906833D02*
X7819659Y-13897310D01*
X7819659Y-13897310D02*
X7810136Y-13887786D01*
X7810136Y-13887786D02*
X7800612Y-13868738D01*
X7800612Y-13868738D02*
X7800612Y-13811595D01*
X7800612Y-13811595D02*
X7810136Y-13792548D01*
X7810136Y-13792548D02*
X7819659Y-13783024D01*
X7819659Y-13783024D02*
X7838707Y-13773500D01*
X7838707Y-13773500D02*
X7867278Y-13773500D01*
X7867278Y-13773500D02*
X7886326Y-13783024D01*
X7886326Y-13783024D02*
X7895850Y-13792548D01*
X7895850Y-13792548D02*
X7905374Y-13811595D01*
X7905374Y-13811595D02*
X7905374Y-13868738D01*
X7905374Y-13868738D02*
X7895850Y-13887786D01*
X7895850Y-13887786D02*
X7886326Y-13897310D01*
X7886326Y-13897310D02*
X7867278Y-13906833D01*
X7867278Y-13906833D02*
X7838707Y-13906833D01*
X8019659Y-13906833D02*
X8000612Y-13897310D01*
X8000612Y-13897310D02*
X7991088Y-13878262D01*
X7991088Y-13878262D02*
X7991088Y-13706833D01*
X8172040Y-13897310D02*
X8152993Y-13906833D01*
X8152993Y-13906833D02*
X8114897Y-13906833D01*
X8114897Y-13906833D02*
X8095850Y-13897310D01*
X8095850Y-13897310D02*
X8086326Y-13878262D01*
X8086326Y-13878262D02*
X8086326Y-13802072D01*
X8086326Y-13802072D02*
X8095850Y-13783024D01*
X8095850Y-13783024D02*
X8114897Y-13773500D01*
X8114897Y-13773500D02*
X8152993Y-13773500D01*
X8152993Y-13773500D02*
X8172040Y-13783024D01*
X8172040Y-13783024D02*
X8181564Y-13802072D01*
X8181564Y-13802072D02*
X8181564Y-13821119D01*
X8181564Y-13821119D02*
X8086326Y-13840167D01*
X8257755Y-13897310D02*
X8276802Y-13906833D01*
X8276802Y-13906833D02*
X8314897Y-13906833D01*
X8314897Y-13906833D02*
X8333945Y-13897310D01*
X8333945Y-13897310D02*
X8343469Y-13878262D01*
X8343469Y-13878262D02*
X8343469Y-13868738D01*
X8343469Y-13868738D02*
X8333945Y-13849691D01*
X8333945Y-13849691D02*
X8314897Y-13840167D01*
X8314897Y-13840167D02*
X8286326Y-13840167D01*
X8286326Y-13840167D02*
X8267278Y-13830643D01*
X8267278Y-13830643D02*
X8257755Y-13811595D01*
X8257755Y-13811595D02*
X8257755Y-13802072D01*
X8257755Y-13802072D02*
X8267278Y-13783024D01*
X8267278Y-13783024D02*
X8286326Y-13773500D01*
X8286326Y-13773500D02*
X8314897Y-13773500D01*
X8314897Y-13773500D02*
X8333945Y-13783024D01*
X8410136Y-13983024D02*
X8419660Y-13973500D01*
X8419660Y-13973500D02*
X8438707Y-13944929D01*
X8438707Y-13944929D02*
X8448231Y-13925881D01*
X8448231Y-13925881D02*
X8457755Y-13897310D01*
X8457755Y-13897310D02*
X8467279Y-13849691D01*
X8467279Y-13849691D02*
X8467279Y-13811595D01*
X8467279Y-13811595D02*
X8457755Y-13763976D01*
X8457755Y-13763976D02*
X8448231Y-13735405D01*
X8448231Y-13735405D02*
X8438707Y-13716357D01*
X8438707Y-13716357D02*
X8419660Y-13687786D01*
X8419660Y-13687786D02*
X8410136Y-13678262D01*
D12*
X3622625Y-14109402D02*
X3622625Y-14049297D01*
X3562520Y-14049297D01*
X3562520Y-14109402D01*
X3622625Y-14109402D01*
D11*
X3933945Y-13970833D02*
X3952992Y-13970833D01*
X3952992Y-13970833D02*
X3972040Y-13980357D01*
X3972040Y-13980357D02*
X3981564Y-13989881D01*
X3981564Y-13989881D02*
X3991088Y-14008929D01*
X3991088Y-14008929D02*
X4000611Y-14047024D01*
X4000611Y-14047024D02*
X4000611Y-14094643D01*
X4000611Y-14094643D02*
X3991088Y-14132738D01*
X3991088Y-14132738D02*
X3981564Y-14151786D01*
X3981564Y-14151786D02*
X3972040Y-14161310D01*
X3972040Y-14161310D02*
X3952992Y-14170833D01*
X3952992Y-14170833D02*
X3933945Y-14170833D01*
X3933945Y-14170833D02*
X3914897Y-14161310D01*
X3914897Y-14161310D02*
X3905373Y-14151786D01*
X3905373Y-14151786D02*
X3895849Y-14132738D01*
X3895849Y-14132738D02*
X3886326Y-14094643D01*
X3886326Y-14094643D02*
X3886326Y-14047024D01*
X3886326Y-14047024D02*
X3895849Y-14008929D01*
X3895849Y-14008929D02*
X3905373Y-13989881D01*
X3905373Y-13989881D02*
X3914897Y-13980357D01*
X3914897Y-13980357D02*
X3933945Y-13970833D01*
X4086326Y-14151786D02*
X4095849Y-14161310D01*
X4095849Y-14161310D02*
X4086326Y-14170833D01*
X4086326Y-14170833D02*
X4076802Y-14161310D01*
X4076802Y-14161310D02*
X4086326Y-14151786D01*
X4086326Y-14151786D02*
X4086326Y-14170833D01*
X4210135Y-14056548D02*
X4191088Y-14047024D01*
X4191088Y-14047024D02*
X4181564Y-14037500D01*
X4181564Y-14037500D02*
X4172040Y-14018452D01*
X4172040Y-14018452D02*
X4172040Y-14008929D01*
X4172040Y-14008929D02*
X4181564Y-13989881D01*
X4181564Y-13989881D02*
X4191088Y-13980357D01*
X4191088Y-13980357D02*
X4210135Y-13970833D01*
X4210135Y-13970833D02*
X4248231Y-13970833D01*
X4248231Y-13970833D02*
X4267278Y-13980357D01*
X4267278Y-13980357D02*
X4276802Y-13989881D01*
X4276802Y-13989881D02*
X4286326Y-14008929D01*
X4286326Y-14008929D02*
X4286326Y-14018452D01*
X4286326Y-14018452D02*
X4276802Y-14037500D01*
X4276802Y-14037500D02*
X4267278Y-14047024D01*
X4267278Y-14047024D02*
X4248231Y-14056548D01*
X4248231Y-14056548D02*
X4210135Y-14056548D01*
X4210135Y-14056548D02*
X4191088Y-14066072D01*
X4191088Y-14066072D02*
X4181564Y-14075595D01*
X4181564Y-14075595D02*
X4172040Y-14094643D01*
X4172040Y-14094643D02*
X4172040Y-14132738D01*
X4172040Y-14132738D02*
X4181564Y-14151786D01*
X4181564Y-14151786D02*
X4191088Y-14161310D01*
X4191088Y-14161310D02*
X4210135Y-14170833D01*
X4210135Y-14170833D02*
X4248231Y-14170833D01*
X4248231Y-14170833D02*
X4267278Y-14161310D01*
X4267278Y-14161310D02*
X4276802Y-14151786D01*
X4276802Y-14151786D02*
X4286326Y-14132738D01*
X4286326Y-14132738D02*
X4286326Y-14094643D01*
X4286326Y-14094643D02*
X4276802Y-14075595D01*
X4276802Y-14075595D02*
X4267278Y-14066072D01*
X4267278Y-14066072D02*
X4248231Y-14056548D01*
X4467278Y-13970833D02*
X4372040Y-13970833D01*
X4372040Y-13970833D02*
X4362516Y-14066072D01*
X4362516Y-14066072D02*
X4372040Y-14056548D01*
X4372040Y-14056548D02*
X4391088Y-14047024D01*
X4391088Y-14047024D02*
X4438707Y-14047024D01*
X4438707Y-14047024D02*
X4457754Y-14056548D01*
X4457754Y-14056548D02*
X4467278Y-14066072D01*
X4467278Y-14066072D02*
X4476802Y-14085119D01*
X4476802Y-14085119D02*
X4476802Y-14132738D01*
X4476802Y-14132738D02*
X4467278Y-14151786D01*
X4467278Y-14151786D02*
X4457754Y-14161310D01*
X4457754Y-14161310D02*
X4438707Y-14170833D01*
X4438707Y-14170833D02*
X4391088Y-14170833D01*
X4391088Y-14170833D02*
X4372040Y-14161310D01*
X4372040Y-14161310D02*
X4362516Y-14151786D01*
X4600611Y-13970833D02*
X4619659Y-13970833D01*
X4619659Y-13970833D02*
X4638707Y-13980357D01*
X4638707Y-13980357D02*
X4648231Y-13989881D01*
X4648231Y-13989881D02*
X4657754Y-14008929D01*
X4657754Y-14008929D02*
X4667278Y-14047024D01*
X4667278Y-14047024D02*
X4667278Y-14094643D01*
X4667278Y-14094643D02*
X4657754Y-14132738D01*
X4657754Y-14132738D02*
X4648231Y-14151786D01*
X4648231Y-14151786D02*
X4638707Y-14161310D01*
X4638707Y-14161310D02*
X4619659Y-14170833D01*
X4619659Y-14170833D02*
X4600611Y-14170833D01*
X4600611Y-14170833D02*
X4581564Y-14161310D01*
X4581564Y-14161310D02*
X4572040Y-14151786D01*
X4572040Y-14151786D02*
X4562516Y-14132738D01*
X4562516Y-14132738D02*
X4552992Y-14094643D01*
X4552992Y-14094643D02*
X4552992Y-14047024D01*
X4552992Y-14047024D02*
X4562516Y-14008929D01*
X4562516Y-14008929D02*
X4572040Y-13989881D01*
X4572040Y-13989881D02*
X4581564Y-13980357D01*
X4581564Y-13980357D02*
X4600611Y-13970833D01*
X4752992Y-14170833D02*
X4752992Y-14037500D01*
X4752992Y-14056548D02*
X4762516Y-14047024D01*
X4762516Y-14047024D02*
X4781564Y-14037500D01*
X4781564Y-14037500D02*
X4810135Y-14037500D01*
X4810135Y-14037500D02*
X4829183Y-14047024D01*
X4829183Y-14047024D02*
X4838707Y-14066072D01*
X4838707Y-14066072D02*
X4838707Y-14170833D01*
X4838707Y-14066072D02*
X4848231Y-14047024D01*
X4848231Y-14047024D02*
X4867278Y-14037500D01*
X4867278Y-14037500D02*
X4895850Y-14037500D01*
X4895850Y-14037500D02*
X4914897Y-14047024D01*
X4914897Y-14047024D02*
X4924421Y-14066072D01*
X4924421Y-14066072D02*
X4924421Y-14170833D01*
X5019659Y-14170833D02*
X5019659Y-14037500D01*
X5019659Y-14056548D02*
X5029183Y-14047024D01*
X5029183Y-14047024D02*
X5048231Y-14037500D01*
X5048231Y-14037500D02*
X5076802Y-14037500D01*
X5076802Y-14037500D02*
X5095850Y-14047024D01*
X5095850Y-14047024D02*
X5105373Y-14066072D01*
X5105373Y-14066072D02*
X5105373Y-14170833D01*
X5105373Y-14066072D02*
X5114897Y-14047024D01*
X5114897Y-14047024D02*
X5133945Y-14037500D01*
X5133945Y-14037500D02*
X5162516Y-14037500D01*
X5162516Y-14037500D02*
X5181564Y-14047024D01*
X5181564Y-14047024D02*
X5191088Y-14066072D01*
X5191088Y-14066072D02*
X5191088Y-14170833D01*
X5581564Y-13961310D02*
X5410135Y-14218452D01*
X5838707Y-13970833D02*
X5857754Y-13970833D01*
X5857754Y-13970833D02*
X5876802Y-13980357D01*
X5876802Y-13980357D02*
X5886326Y-13989881D01*
X5886326Y-13989881D02*
X5895850Y-14008929D01*
X5895850Y-14008929D02*
X5905373Y-14047024D01*
X5905373Y-14047024D02*
X5905373Y-14094643D01*
X5905373Y-14094643D02*
X5895850Y-14132738D01*
X5895850Y-14132738D02*
X5886326Y-14151786D01*
X5886326Y-14151786D02*
X5876802Y-14161310D01*
X5876802Y-14161310D02*
X5857754Y-14170833D01*
X5857754Y-14170833D02*
X5838707Y-14170833D01*
X5838707Y-14170833D02*
X5819659Y-14161310D01*
X5819659Y-14161310D02*
X5810135Y-14151786D01*
X5810135Y-14151786D02*
X5800612Y-14132738D01*
X5800612Y-14132738D02*
X5791088Y-14094643D01*
X5791088Y-14094643D02*
X5791088Y-14047024D01*
X5791088Y-14047024D02*
X5800612Y-14008929D01*
X5800612Y-14008929D02*
X5810135Y-13989881D01*
X5810135Y-13989881D02*
X5819659Y-13980357D01*
X5819659Y-13980357D02*
X5838707Y-13970833D01*
X5991088Y-14151786D02*
X6000612Y-14161310D01*
X6000612Y-14161310D02*
X5991088Y-14170833D01*
X5991088Y-14170833D02*
X5981564Y-14161310D01*
X5981564Y-14161310D02*
X5991088Y-14151786D01*
X5991088Y-14151786D02*
X5991088Y-14170833D01*
X6124421Y-13970833D02*
X6143469Y-13970833D01*
X6143469Y-13970833D02*
X6162516Y-13980357D01*
X6162516Y-13980357D02*
X6172040Y-13989881D01*
X6172040Y-13989881D02*
X6181564Y-14008929D01*
X6181564Y-14008929D02*
X6191088Y-14047024D01*
X6191088Y-14047024D02*
X6191088Y-14094643D01*
X6191088Y-14094643D02*
X6181564Y-14132738D01*
X6181564Y-14132738D02*
X6172040Y-14151786D01*
X6172040Y-14151786D02*
X6162516Y-14161310D01*
X6162516Y-14161310D02*
X6143469Y-14170833D01*
X6143469Y-14170833D02*
X6124421Y-14170833D01*
X6124421Y-14170833D02*
X6105373Y-14161310D01*
X6105373Y-14161310D02*
X6095850Y-14151786D01*
X6095850Y-14151786D02*
X6086326Y-14132738D01*
X6086326Y-14132738D02*
X6076802Y-14094643D01*
X6076802Y-14094643D02*
X6076802Y-14047024D01*
X6076802Y-14047024D02*
X6086326Y-14008929D01*
X6086326Y-14008929D02*
X6095850Y-13989881D01*
X6095850Y-13989881D02*
X6105373Y-13980357D01*
X6105373Y-13980357D02*
X6124421Y-13970833D01*
X6257754Y-13970833D02*
X6381564Y-13970833D01*
X6381564Y-13970833D02*
X6314897Y-14047024D01*
X6314897Y-14047024D02*
X6343469Y-14047024D01*
X6343469Y-14047024D02*
X6362516Y-14056548D01*
X6362516Y-14056548D02*
X6372040Y-14066072D01*
X6372040Y-14066072D02*
X6381564Y-14085119D01*
X6381564Y-14085119D02*
X6381564Y-14132738D01*
X6381564Y-14132738D02*
X6372040Y-14151786D01*
X6372040Y-14151786D02*
X6362516Y-14161310D01*
X6362516Y-14161310D02*
X6343469Y-14170833D01*
X6343469Y-14170833D02*
X6286326Y-14170833D01*
X6286326Y-14170833D02*
X6267278Y-14161310D01*
X6267278Y-14161310D02*
X6257754Y-14151786D01*
X6448231Y-13970833D02*
X6572040Y-13970833D01*
X6572040Y-13970833D02*
X6505373Y-14047024D01*
X6505373Y-14047024D02*
X6533945Y-14047024D01*
X6533945Y-14047024D02*
X6552993Y-14056548D01*
X6552993Y-14056548D02*
X6562516Y-14066072D01*
X6562516Y-14066072D02*
X6572040Y-14085119D01*
X6572040Y-14085119D02*
X6572040Y-14132738D01*
X6572040Y-14132738D02*
X6562516Y-14151786D01*
X6562516Y-14151786D02*
X6552993Y-14161310D01*
X6552993Y-14161310D02*
X6533945Y-14170833D01*
X6533945Y-14170833D02*
X6476802Y-14170833D01*
X6476802Y-14170833D02*
X6457754Y-14161310D01*
X6457754Y-14161310D02*
X6448231Y-14151786D01*
X6752993Y-13970833D02*
X6657754Y-13970833D01*
X6657754Y-13970833D02*
X6648231Y-14066072D01*
X6648231Y-14066072D02*
X6657754Y-14056548D01*
X6657754Y-14056548D02*
X6676802Y-14047024D01*
X6676802Y-14047024D02*
X6724421Y-14047024D01*
X6724421Y-14047024D02*
X6743469Y-14056548D01*
X6743469Y-14056548D02*
X6752993Y-14066072D01*
X6752993Y-14066072D02*
X6762516Y-14085119D01*
X6762516Y-14085119D02*
X6762516Y-14132738D01*
X6762516Y-14132738D02*
X6752993Y-14151786D01*
X6752993Y-14151786D02*
X6743469Y-14161310D01*
X6743469Y-14161310D02*
X6724421Y-14170833D01*
X6724421Y-14170833D02*
X6676802Y-14170833D01*
X6676802Y-14170833D02*
X6657754Y-14161310D01*
X6657754Y-14161310D02*
X6648231Y-14151786D01*
X6838707Y-13970833D02*
X6838707Y-14008929D01*
X6914897Y-13970833D02*
X6914897Y-14008929D01*
X7210136Y-14247024D02*
X7200612Y-14237500D01*
X7200612Y-14237500D02*
X7181564Y-14208929D01*
X7181564Y-14208929D02*
X7172040Y-14189881D01*
X7172040Y-14189881D02*
X7162516Y-14161310D01*
X7162516Y-14161310D02*
X7152993Y-14113691D01*
X7152993Y-14113691D02*
X7152993Y-14075595D01*
X7152993Y-14075595D02*
X7162516Y-14027976D01*
X7162516Y-14027976D02*
X7172040Y-13999405D01*
X7172040Y-13999405D02*
X7181564Y-13980357D01*
X7181564Y-13980357D02*
X7200612Y-13951786D01*
X7200612Y-13951786D02*
X7210136Y-13942262D01*
X7276802Y-13989881D02*
X7286326Y-13980357D01*
X7286326Y-13980357D02*
X7305374Y-13970833D01*
X7305374Y-13970833D02*
X7352993Y-13970833D01*
X7352993Y-13970833D02*
X7372040Y-13980357D01*
X7372040Y-13980357D02*
X7381564Y-13989881D01*
X7381564Y-13989881D02*
X7391088Y-14008929D01*
X7391088Y-14008929D02*
X7391088Y-14027976D01*
X7391088Y-14027976D02*
X7381564Y-14056548D01*
X7381564Y-14056548D02*
X7267278Y-14170833D01*
X7267278Y-14170833D02*
X7391088Y-14170833D01*
X7486326Y-14170833D02*
X7524421Y-14170833D01*
X7524421Y-14170833D02*
X7543469Y-14161310D01*
X7543469Y-14161310D02*
X7552993Y-14151786D01*
X7552993Y-14151786D02*
X7572040Y-14123214D01*
X7572040Y-14123214D02*
X7581564Y-14085119D01*
X7581564Y-14085119D02*
X7581564Y-14008929D01*
X7581564Y-14008929D02*
X7572040Y-13989881D01*
X7572040Y-13989881D02*
X7562516Y-13980357D01*
X7562516Y-13980357D02*
X7543469Y-13970833D01*
X7543469Y-13970833D02*
X7505374Y-13970833D01*
X7505374Y-13970833D02*
X7486326Y-13980357D01*
X7486326Y-13980357D02*
X7476802Y-13989881D01*
X7476802Y-13989881D02*
X7467278Y-14008929D01*
X7467278Y-14008929D02*
X7467278Y-14056548D01*
X7467278Y-14056548D02*
X7476802Y-14075595D01*
X7476802Y-14075595D02*
X7486326Y-14085119D01*
X7486326Y-14085119D02*
X7505374Y-14094643D01*
X7505374Y-14094643D02*
X7543469Y-14094643D01*
X7543469Y-14094643D02*
X7562516Y-14085119D01*
X7562516Y-14085119D02*
X7572040Y-14075595D01*
X7572040Y-14075595D02*
X7581564Y-14056548D01*
X7819659Y-14170833D02*
X7819659Y-13970833D01*
X7905374Y-14170833D02*
X7905374Y-14066072D01*
X7905374Y-14066072D02*
X7895850Y-14047024D01*
X7895850Y-14047024D02*
X7876802Y-14037500D01*
X7876802Y-14037500D02*
X7848231Y-14037500D01*
X7848231Y-14037500D02*
X7829183Y-14047024D01*
X7829183Y-14047024D02*
X7819659Y-14056548D01*
X8029183Y-14170833D02*
X8010136Y-14161310D01*
X8010136Y-14161310D02*
X8000612Y-14151786D01*
X8000612Y-14151786D02*
X7991088Y-14132738D01*
X7991088Y-14132738D02*
X7991088Y-14075595D01*
X7991088Y-14075595D02*
X8000612Y-14056548D01*
X8000612Y-14056548D02*
X8010136Y-14047024D01*
X8010136Y-14047024D02*
X8029183Y-14037500D01*
X8029183Y-14037500D02*
X8057755Y-14037500D01*
X8057755Y-14037500D02*
X8076802Y-14047024D01*
X8076802Y-14047024D02*
X8086326Y-14056548D01*
X8086326Y-14056548D02*
X8095850Y-14075595D01*
X8095850Y-14075595D02*
X8095850Y-14132738D01*
X8095850Y-14132738D02*
X8086326Y-14151786D01*
X8086326Y-14151786D02*
X8076802Y-14161310D01*
X8076802Y-14161310D02*
X8057755Y-14170833D01*
X8057755Y-14170833D02*
X8029183Y-14170833D01*
X8210136Y-14170833D02*
X8191088Y-14161310D01*
X8191088Y-14161310D02*
X8181564Y-14142262D01*
X8181564Y-14142262D02*
X8181564Y-13970833D01*
X8362517Y-14161310D02*
X8343469Y-14170833D01*
X8343469Y-14170833D02*
X8305374Y-14170833D01*
X8305374Y-14170833D02*
X8286326Y-14161310D01*
X8286326Y-14161310D02*
X8276802Y-14142262D01*
X8276802Y-14142262D02*
X8276802Y-14066072D01*
X8276802Y-14066072D02*
X8286326Y-14047024D01*
X8286326Y-14047024D02*
X8305374Y-14037500D01*
X8305374Y-14037500D02*
X8343469Y-14037500D01*
X8343469Y-14037500D02*
X8362517Y-14047024D01*
X8362517Y-14047024D02*
X8372040Y-14066072D01*
X8372040Y-14066072D02*
X8372040Y-14085119D01*
X8372040Y-14085119D02*
X8276802Y-14104167D01*
X8448231Y-14161310D02*
X8467279Y-14170833D01*
X8467279Y-14170833D02*
X8505374Y-14170833D01*
X8505374Y-14170833D02*
X8524421Y-14161310D01*
X8524421Y-14161310D02*
X8533945Y-14142262D01*
X8533945Y-14142262D02*
X8533945Y-14132738D01*
X8533945Y-14132738D02*
X8524421Y-14113691D01*
X8524421Y-14113691D02*
X8505374Y-14104167D01*
X8505374Y-14104167D02*
X8476802Y-14104167D01*
X8476802Y-14104167D02*
X8457755Y-14094643D01*
X8457755Y-14094643D02*
X8448231Y-14075595D01*
X8448231Y-14075595D02*
X8448231Y-14066072D01*
X8448231Y-14066072D02*
X8457755Y-14047024D01*
X8457755Y-14047024D02*
X8476802Y-14037500D01*
X8476802Y-14037500D02*
X8505374Y-14037500D01*
X8505374Y-14037500D02*
X8524421Y-14047024D01*
X8600612Y-14247024D02*
X8610136Y-14237500D01*
X8610136Y-14237500D02*
X8629183Y-14208929D01*
X8629183Y-14208929D02*
X8638707Y-14189881D01*
X8638707Y-14189881D02*
X8648231Y-14161310D01*
X8648231Y-14161310D02*
X8657755Y-14113691D01*
X8657755Y-14113691D02*
X8657755Y-14075595D01*
X8657755Y-14075595D02*
X8648231Y-14027976D01*
X8648231Y-14027976D02*
X8638707Y-13999405D01*
X8638707Y-13999405D02*
X8629183Y-13980357D01*
X8629183Y-13980357D02*
X8610136Y-13951786D01*
X8610136Y-13951786D02*
X8600612Y-13942262D01*
M02*
