M48
; DRILL file {KiCad 9.0.0} date 2025-07-31T20:20:09+0100
; FORMAT={-:-/ absolute / metric / decimal}
; #@! TF.CreationDate,2025-07-31T20:20:09+01:00
; #@! TF.GenerationSoftware,Kicad,Pcbnew,9.0.0
; #@! TF.FileFunction,Plated,1,2,PTH
FMAT,2
METRIC
; #@! TA.AperFunction,Plated,PTH,ViaDrill
T1C0.300
; #@! TA.AperFunction,Plated,PTH,ComponentDrill
T2C0.400
; #@! TA.AperFunction,Plated,PTH,ComponentDrill
T3C0.750
; #@! TA.AperFunction,Plated,PTH,ComponentDrill
T4C0.850
%
G90
G05
T1
X46.696Y-89.522
X47.095Y-79.328
X47.206Y-80.12
X48.914Y-87.887
X60.32Y-78.58
X61.844Y-54.938
X61.955Y-55.73
X62.493Y-63.837
X63.677Y-63.497
X64.21Y-71.773
X64.321Y-72.565
X64.861Y-80.488
X65.146Y-97.909
X66.576Y-88.607
X66.687Y-89.399
X66.888Y-81.492
X70.315Y-96.296
X74.231Y-73.111
X80.097Y-54.212
X81.965Y-46.195
X82.021Y-46.993
X82.304Y-89.376
X83.044Y-54.054
X83.123Y-71.964
X83.151Y-63.154
X83.207Y-63.952
X84.337Y-80.112
X84.392Y-80.91
X85.641Y-87.898
X86.41Y-71.892
X100.143Y-66.448
X100.149Y-48.906
X100.161Y-83.65
X102.765Y-40.573
X102.765Y-41.373
X102.765Y-57.573
X102.765Y-58.373
X102.765Y-74.573
X102.765Y-75.373
X103.452Y-83.448
X103.455Y-49.448
X103.463Y-66.448
X104.194Y-50.912
X118.138Y-86.727
X118.16Y-69.848
X119.115Y-53.975
X120.765Y-43.973
X120.765Y-44.773
X120.765Y-60.973
X120.765Y-61.773
X120.765Y-77.973
X120.765Y-78.773
X121.112Y-97.529
X121.172Y-86.356
X121.509Y-68.941
X121.593Y-53.824
X127.271Y-108.302
X127.965Y-99.223
X127.965Y-100.023
X130.32Y-99.38
X130.578Y-107.519
X136.038Y-80.288
X136.139Y-89.622
X137.115Y-56.506
X138.097Y-72.327
X138.765Y-46.523
X138.765Y-47.323
X138.765Y-63.523
X138.765Y-64.323
X138.765Y-80.523
X138.765Y-81.323
X139.459Y-89.668
X139.569Y-54.443
X140.624Y-71.294
X146.08Y-110.526
X147.04Y-75.132
X147.787Y-109.761
X148.4Y-103.33
X148.767Y-85.925
X148.862Y-101.974
X149.369Y-65.104
X149.437Y-68.678
X151.202Y-103.991
X154.865Y-80.948
X156.927Y-79.707
X158.695Y-87.695
X159.062Y-80.948
X163.12Y-115.844
X163.176Y-88.909
X163.651Y-92.148
X166.185Y-119.274
X166.215Y-85.934
X166.444Y-90.186
X167.915Y-83.995
X167.934Y-110.732
X168.334Y-110.039
T2
X155.165Y-50.898
X155.165Y-53.438
X155.165Y-55.978
X155.165Y-58.518
X155.165Y-61.058
X155.165Y-63.598
X155.165Y-66.138
X155.165Y-68.678
X155.165Y-71.218
X155.165Y-73.758
X155.165Y-76.298
X155.165Y-78.838
X161.965Y-50.898
X161.965Y-53.438
X161.965Y-55.978
X161.965Y-58.518
X161.965Y-61.058
X161.965Y-63.598
X161.965Y-66.138
X161.965Y-68.678
X161.965Y-71.218
X161.965Y-73.758
X161.965Y-76.298
X161.965Y-78.838
T3
X162.265Y-87.898
X162.265Y-89.898
T4
X150.945Y-50.898
X150.945Y-53.438
X150.945Y-55.978
X150.945Y-58.518
X150.945Y-61.058
X150.945Y-63.598
X150.945Y-66.138
X150.945Y-68.678
X150.945Y-71.218
X150.945Y-73.758
X150.945Y-76.298
X150.945Y-78.838
X153.485Y-83.598
X156.025Y-83.598
X158.565Y-83.598
X161.105Y-83.598
X163.645Y-83.598
X166.185Y-50.898
X166.185Y-53.438
X166.185Y-55.978
X166.185Y-58.518
X166.185Y-61.058
X166.185Y-63.598
X166.185Y-66.138
X166.185Y-68.678
X166.185Y-71.218
X166.185Y-73.758
X166.185Y-76.298
X166.185Y-78.838
M30
